<?xml version="1.0" standalone="no"?>
<!DOCTYPE svg PUBLIC "-//W3C//DTD SVG 20010904//EN"
 "http://www.w3.org/TR/2001/REC-SVG-20010904/DTD/svg10.dtd">
<svg version="1.0" xmlns="http://www.w3.org/2000/svg"
 width="260.000000pt" height="260.000000pt" viewBox="0 0 260.000000 260.000000"
 preserveAspectRatio="xMidYMid meet">
<metadata>
Created by potrace 1.11, written by Peter Selinger 2001-2013
</metadata>
<g transform="translate(0.000000,260.000000) scale(0.100000,-0.100000)"
fill="#000000" stroke="none">
<path d="M1160 2293 c-153 -17 -375 -110 -501 -211 -130 -103 -236 -237 -298
-374 -49 -110 -45 -116 17 -23 90 136 233 264 370 334 147 75 358 112 523 92
223 -27 395 -109 557 -265 281 -271 365 -687 212 -1048 -69 -163 -231 -350
-368 -428 -96 -54 -103 -63 -31 -36 133 48 244 121 355 231 379 375 405 964
60 1375 -214 255 -556 390 -896 353z"/>
<path d="M1055 2020 c-289 -44 -530 -220 -651 -475 -55 -117 -65 -155 -21 -83
110 179 281 307 482 359 109 28 280 28 386 0 317 -82 552 -354 588 -681 33
-302 -113 -595 -377 -757 -74 -45 -32 -34 85 23 296 143 478 432 477 759 0
243 -87 451 -260 620 -185 181 -461 272 -709 235z"/>
<path d="M969 1750 c-82 -10 -193 -48 -267 -92 -82 -48 -202 -171 -247 -251
-118 -213 -124 -437 -18 -657 38 -80 59 -109 132 -181 72 -73 101 -94 181
-132 121 -59 231 -82 350 -74 306 20 567 239 636 536 20 85 20 248 -1 326 -90
343 -418 568 -766 525z m193 -181 c237 -49 419 -271 418 -512 -1 -135 -59
-268 -160 -368 -103 -101 -217 -149 -360 -149 -145 0 -267 50 -368 152 -102
101 -152 223 -152 368 0 144 48 260 149 361 128 129 303 183 473 148z"/>
</g>
</svg>
