<?xml version="1.0" encoding="utf-8"?>
<!-- Generator: Adobe Illustrator 16.0.4, SVG Export Plug-In . SVG Version: 6.00 Build 0)  -->
<!DOCTYPE svg PUBLIC "-//W3C//DTD SVG 1.1//EN" "http://www.w3.org/Graphics/SVG/1.1/DTD/svg11.dtd">
<svg version="1.1" id="Layer_1" xmlns="http://www.w3.org/2000/svg" xmlns:xlink="http://www.w3.org/1999/xlink" x="0px" y="0px"
	 width="450px" height="450px" viewBox="-145 -145 450 450" enable-background="new -145 -145 450 450" xml:space="preserve">
<g>
	<rect x="-55.79" y="-111.931" fill="#3F4B68" width="271.579" height="8.421"/>
	<rect x="-67.369" y="-99.299" fill="#3F4B68" width="294.737" height="8.421"/>
	<rect x="-80" y="-86.667" fill="#3F4B68" width="320" height="387.369"/>
	<rect x="-67.369" y="-74.036" fill="#FFFFFF" width="294.737" height="362.105"/>
	<path fill="#D20C18" d="M16.65,238.64"/>
	<polygon fill="#3F4B68" points="185.976,229.274 185.976,221.381 -35.438,221.381 -35.438,212.434 173.695,212.434 
		173.695,204.538 -35.438,204.538 -35.438,178.925 -43.333,178.925 -43.333,246.117 114.046,246.117 114.046,238.223 
		-35.438,238.223 -35.438,229.274 	"/>
	<path fill="#3F4B68" d="M94.66,17.938"/>
	<path fill="#3F4B68" d="M37.982-1.097c1.201,2.412,3.169,7.018,5.866,13.739l1.223,3.016l3.01,1.228l5.757,2.325l3.037,1.239
		l2.977-1.36c7.708-3.509,11.732-5.142,13.788-5.888l6.48,6.349c-0.898,2.555-2.801,7.149-5.695,13.717l-1.333,3.026l1.277,3.048
		l2.353,5.614l1.304,3.114l3.169,1.14c6.743,2.413,11.393,4.188,13.882,5.307v8.893c-2.467,1.195-7.161,3.125-14.003,5.778
		l-3.042,1.185l-1.261,3.026l-2.33,5.614L73.13,82.16l1.464,3.091c2.982,6.305,4.967,10.757,5.926,13.268l-6.469,6.359
		c-2.083-0.701-6.212-2.247-14.2-5.646l-2.917-1.229l-2.933,1.185l-5.773,2.336l-3.114,1.272l-1.178,3.157
		c-2.467,6.623-4.276,11.184-5.406,13.629h-9.348c-1.195-2.412-3.158-7.018-5.855-13.739l-1.217-3.015l-3.004-1.217l-5.762-2.347
		l-3.037-1.239l-2.982,1.359c-7.703,3.509-11.732,5.131-13.789,5.877l-6.475-6.359c0.889-2.543,2.791-7.138,5.68-13.685l1.338-3.047
		l-1.283-3.049l-2.341-5.57l-1.305-3.103l-3.158-1.141c-6.733-2.423-11.376-4.21-13.86-5.329v-8.959
		c3.657-1.743,11.157-4.66,13.975-5.756l3.032-1.184l1.255-2.993l2.347-5.581l1.332-3.169l-1.475-3.114
		c-2.982-6.282-4.961-10.724-5.921-13.246l6.469-6.359c2.089,0.69,6.228,2.236,14.232,5.614l2.917,1.25l2.934-1.206l5.734-2.335
		l3.109-1.261l1.173-3.169c2.456-6.611,4.271-11.173,5.405-13.607H37.982 M40.548-8.773H26.02c-2.177,0-3.026,0-9.934,18.607
		l-5.735,2.336C-0.236,7.685-6.442,5.416-8.103,5.416L-9.484,5.46l-11.075,10.899c-1.688,1.579-2.281,2.149,6.255,20.165
		l-2.341,5.581C-35.51,49.44-35.51,50.142-35.51,52.378v14.309c0,2.248,0,3.027,18.925,9.847l2.341,5.57
		c-8.06,18.3-7.511,18.838-5.954,20.417l10.302,10.12l1.025,0.866h1.201c0.62,0,2.478,0,18.152-7.138l5.756,2.347
		c7.44,18.52,8.202,18.529,10.389,18.529c0,0,0.006,0,0.012,0h14.528c2.226,0,2.999,0,9.929-18.606l5.773-2.336
		c10.57,4.495,16.749,6.766,18.415,6.766l1.393-0.033l11.163-10.965c1.579-1.611,2.139-2.183-6.344-20.109l2.33-5.614
		c18.894-7.324,18.894-8.081,18.894-10.263V51.775c0-2.237,0-3.015-18.953-9.803l-2.353-5.603c8.06-18.3,7.522-18.849,5.943-20.438
		L77.072,5.833l-1.02-0.877h-1.195c-0.63,0-2.506,0-18.163,7.149l-5.757-2.336C43.487-8.773,42.719-8.773,40.548-8.773L40.548-8.773
		z"/>
	<g>
		<path fill="#3F4B68" d="M61.085,59.561c0-14.945-12.111-27.105-26.996-27.105c-12.467,0-22.988,8.553-26.063,20.121
			c3.859-8.98,12.752-15.263,23.086-15.263c13.854,0,25.137,11.337,25.137,25.263c0,10.362-6.25,19.277-15.17,23.168
			C52.582,82.653,61.085,72.083,61.085,59.561"/>
		<path fill="#3F4B68" d="M28.12,46.951c-4.945,0-9.595,1.941-13.098,5.461c-3.509,3.53-5.433,8.19-5.433,13.147
			c0,10.263,8.311,18.618,18.531,18.618c10.225,0,18.531-8.355,18.531-18.618C46.65,55.295,38.339,46.951,28.12,46.951
			 M28.12,79.473c-7.631,0-13.849-6.239-13.849-13.914c0-7.665,6.218-13.903,13.849-13.903c7.642,0,13.854,6.239,13.854,13.903
			C41.974,73.233,35.762,79.473,28.12,79.473"/>
		<path fill="#3F4B68" d="M53.871,62.565c0-12.61-10.214-22.862-22.769-22.862c-10.625,0-19.573,7.358-22.073,17.259
			c1.037-2.292,2.473-4.408,4.298-6.239c3.964-3.98,9.206-6.162,14.792-6.162c11.535,0,20.916,9.418,20.916,20.998
			c0,8.53-5.088,15.888-12.38,19.166C46.535,82.236,53.871,73.245,53.871,62.565"/>
	</g>
	<g>
		<path fill="#D30C18" d="M61.085,59.561c0-14.945-12.111-27.105-26.996-27.105c-12.467,0-22.988,8.553-26.063,20.121
			c3.859-8.98,12.752-15.263,23.086-15.263c13.854,0,25.137,11.337,25.137,25.263c0,10.362-6.25,19.277-15.17,23.168
			C52.582,82.653,61.085,72.083,61.085,59.561"/>
		<path fill="#D30C18" d="M28.12,46.951c-4.945,0-9.595,1.941-13.098,5.461c-3.509,3.53-5.433,8.19-5.433,13.147
			c0,10.263,8.311,18.618,18.531,18.618c10.225,0,18.531-8.355,18.531-18.618C46.65,55.295,38.339,46.951,28.12,46.951
			 M28.12,79.473c-7.631,0-13.849-6.239-13.849-13.914c0-7.665,6.218-13.903,13.849-13.903c7.642,0,13.854,6.239,13.854,13.903
			C41.974,73.233,35.762,79.473,28.12,79.473"/>
		<path fill="#D30C18" d="M53.871,62.565c0-12.61-10.214-22.862-22.769-22.862c-10.625,0-19.573,7.358-22.073,17.259
			c1.037-2.292,2.473-4.408,4.298-6.239c3.964-3.98,9.206-6.162,14.792-6.162c11.535,0,20.916,9.418,20.916,20.998
			c0,8.53-5.088,15.888-12.38,19.166C46.535,82.236,53.871,73.245,53.871,62.565"/>
	</g>
	<g>
		<path fill="#3F4B68" d="M137.697,2.072c-6.886,2.796-10.263,10.691-7.478,17.621c2.773,6.93,10.646,10.285,17.543,7.511
			c6.897-2.785,10.253-10.68,7.49-17.609C152.467,2.664,144.594-0.713,137.697,2.072z"/>
		<path fill="#D30C18" d="M182.062,20.065l-0.8-0.746l0.142-9.21l0.756-0.702c4.047-3.793,8.674-8.311,10.319-10.186l-3.377-8.443
			c-2.479-0.153-8.85-0.033-14.3,0.197l-1.062,0.044l-6.459-6.557l0.022-1.053c0.196-5.439,0.296-11.798,0.142-14.287l-8.573-3.553
			c-1.7,1.502-6.294,6.141-10.144,10.176l-0.701,0.756l-9.232-0.011l-0.724-0.746c-3.75-3.948-8.268-8.465-10.143-10.066
			l-8.717,3.52c-0.177,2.457-0.165,8.761-0.022,14.145l0.022,1.064l-6.624,6.426l-1.008-0.022
			c-5.549-0.11-12.062-0.088-14.518,0.109l-3.718,8.498c1.635,1.853,6.13,6.206,10.044,9.813l0.79,0.746l-0.143,9.211l-0.745,0.702
			c-4.047,3.772-8.674,8.29-10.319,10.165l3.389,8.464c2.489,0.165,8.849,0.044,14.287-0.186l1.063-0.022l6.458,6.514l-0.032,1.052
			c-0.197,5.428-0.285,11.788-0.143,14.266l8.586,3.563c1.7-1.491,6.294-6.129,10.12-10.164l0.725-0.756l9.232,0.032l0.701,0.735
			c3.772,3.947,8.289,8.476,10.143,10.065l8.729-3.519c0.175-2.457,0.175-8.761,0.032-14.145l-0.021-1.086l6.645-6.414l1.008,0.011
			c5.538,0.109,12.052,0.109,14.496-0.087l3.739-8.487C190.472,28.025,185.987,23.662,182.062,20.065z M149.463,31.458
			c-9.232,3.728-19.759-0.8-23.476-10.055c-1.787-4.484-1.744-9.408,0.164-13.859c1.886-4.474,5.384-7.906,9.846-9.715
			c9.233-3.728,19.76,0.79,23.466,10.065C163.18,17.148,158.684,27.74,149.463,31.458z"/>
	</g>
</g>
</svg>
