<?xml version="1.0" encoding="UTF-8" standalone="no"?><!DOCTYPE svg PUBLIC "-//W3C//DTD SVG 1.1//EN" "http://www.w3.org/Graphics/SVG/1.1/DTD/svg11.dtd"><svg width="100%" height="100%" viewBox="0 0 450 450" version="1.1" xmlns="http://www.w3.org/2000/svg" xmlns:xlink="http://www.w3.org/1999/xlink" xml:space="preserve" style="fill-rule:evenodd;clip-rule:evenodd;stroke-linejoin:round;stroke-miterlimit:1.41421;"><g><rect x="89.21" y="33.069" width="271.579" height="8.421" style="fill:#3f4b68;"/><rect x="77.631" y="45.701" width="294.737" height="8.421" style="fill:#3f4b68;"/><rect x="65" y="58.333" width="320" height="387.369" style="fill:#3f4b68;"/><rect x="77.631" y="70.964" width="294.737" height="362.105" style="fill:#fff;"/><path d="M326.335,300.171l21.332,28.399l-21.332,28.4l-8.39,-7.119l12.781,-16.284l-229.044,0l-0.015,-9.994l229.059,-0.069l-12.781,-17.621l8.39,-5.712Z" style="fill:#de0312;"/><path d="M147.901,174.654l154.19,-0.008l0.008,91.652l-62.545,0l0,0.008l-91.645,0l0,-0.008l-0.008,0l0,-91.644Zm144.031,10.167l-133.826,0.022l0,71.258l133.818,0l0.008,-71.28Z" style="fill:#3f4b68;"/><path d="M97.631,174.654l34.189,-0.008l0.008,91.652l57.455,0l0,0.008l-91.644,0l0,-0.008l-0.008,0l0,-91.644Zm24.03,10.167l-13.825,0.022l0,71.258l13.818,0l0.007,-71.28Z" style="fill:#3f4b68;"/><path d="M317.667,174.654l34.189,-0.008l0.008,91.652l57.455,0l0,0.008l-91.644,0l0,-0.008l-0.008,0l0,-91.644Zm24.03,10.167l-13.825,0.022l0,71.258l13.818,0l0.007,-71.28Z" style="fill:#3f4b68;"/></g></svg>