<?xml version="1.0" encoding="utf-8"?>
<!-- Generator: Adobe Illustrator 16.0.4, SVG Export Plug-In . SVG Version: 6.00 Build 0)  -->
<!DOCTYPE svg PUBLIC "-//W3C//DTD SVG 1.1//EN" "http://www.w3.org/Graphics/SVG/1.1/DTD/svg11.dtd">
<svg version="1.1" id="Layer_1" xmlns="http://www.w3.org/2000/svg" xmlns:xlink="http://www.w3.org/1999/xlink" x="0px" y="0px"
	 width="450px" height="450px" viewBox="-145 -145 450 450" enable-background="new -145 -145 450 450" xml:space="preserve">
<g>
	<rect x="-55.79" y="-111.931" fill="#3F4B68" width="271.58" height="8.421"/>
	<rect x="-67.369" y="-99.3" fill="#3F4B68" width="294.738" height="8.421"/>
	<rect x="-80" y="-86.668" fill="#3F4B68" width="320" height="387.369"/>
	<rect x="-67.369" y="-74.037" fill="#FFFFFF" width="294.738" height="362.107"/>
	<path fill="#D20C18" d="M16.646,238.637"/>
	<polygon fill="#3F4B68" points="185.976,106.927 185.976,99.032 -35.44,99.032 -35.44,73.419 -43.332,73.419 -43.332,140.611 
		-43.332,140.611 143.52,140.611 143.52,132.717 -35.44,132.717 -35.44,123.77 185.976,123.77 185.976,115.874 -35.44,115.874 
		-35.44,106.927 	"/>
	<polygon fill="#3F4B68" points="185.976,229.273 185.976,221.378 -35.44,221.378 -35.44,212.435 173.693,212.435 173.693,204.539 
		-35.44,204.539 -35.44,178.926 -43.332,178.926 -43.332,246.119 114.047,246.119 114.047,238.224 -35.44,238.224 -35.44,229.273 	
		"/>
	<polygon fill="#D30C18" points="-43.332,29.823 14.738,-4.562 35.088,11.577 43.508,8.769 70.877,31.927 105.262,-35.44 
		129.823,27.015 145.965,16.488 178.946,36.138 206.315,25.611 206.315,49.473 -43.332,49.473 	"/>
</g>
</svg>
