<?xml version="1.0" encoding="utf-8"?>
<!-- Generator: Adobe Illustrator 16.0.4, SVG Export Plug-In . SVG Version: 6.00 Build 0)  -->
<!DOCTYPE svg PUBLIC "-//W3C//DTD SVG 1.1//EN" "http://www.w3.org/Graphics/SVG/1.1/DTD/svg11.dtd">
<svg version="1.1" id="Layer_1" xmlns="http://www.w3.org/2000/svg" xmlns:xlink="http://www.w3.org/1999/xlink" x="0px" y="0px"
	 width="450px" height="450px" viewBox="-145 -145 450 450" enable-background="new -145 -145 450 450" xml:space="preserve">
<g>
	<path fill="#3F4B68" d="M154.387-86.667v-16.14c0-11.623-9.42-21.053-21.053-21.053H95.438c0-9.304-7.544-16.842-16.842-16.842
		c-9.299,0-16.842,7.538-16.842,16.842H23.86c-11.628,0-21.053,9.43-21.053,21.053v16.14H-80v387.368h320V-86.667H154.387z
		 M78.597-132.281c4.649,0,8.421,3.772,8.421,8.421c0,4.649-3.771,8.421-8.421,8.421s-8.416-3.772-8.421-8.421
		C70.175-128.509,73.947-132.281,78.597-132.281z"/>
	<rect x="-67.368" y="-74.035" fill="#FFFFFF" width="294.736" height="362.105"/>
	<polygon fill="#3F4B68" points="16.65,-6.096 16.65,23.904 -35.822,23.904 -35.822,-28.58 1.661,-28.58 1.661,-36.08 
		-43.333,-36.08 -43.333,31.382 24.134,31.382 24.134,-6.096 	"/>
	<polygon fill="#D30C18" points="-24.956,-9.468 -30.208,-4.216 -13.35,12.637 24.134,-24.841 18.898,-30.083 -13.35,2.155 	"/>
	<polygon fill="#D30C18" points="-24.956,95.801 -30.208,101.053 -13.35,117.906 24.134,80.422 18.898,75.181 -13.35,107.424 	"/>
	<polygon fill="#3F4B68" points="16.65,99.166 16.65,129.166 -35.822,129.166 -35.822,76.683 1.661,76.683 1.661,69.183 
		-43.333,69.183 -43.333,136.645 24.134,136.645 24.134,99.166 	"/>
	<path fill="#3F4B68" d="M-43.333,178.65v67.469h67.462V178.65H-43.333z M16.628,238.619l-52.451,0.02v-52.477l52.451-0.021V238.619
		z"/>
	<path fill="#D20C18" d="M16.65,238.639"/>
	<polygon fill="#3F4B68" points="197.028,14.298 197.028,6.403 64.035,6.403 64.035,-36.053 56.14,-36.053 56.14,31.14 
		154.572,31.14 154.572,23.246 64.035,23.246 64.035,14.298 	"/>
	<polygon fill="#3F4B68" points="197.028,119.803 197.028,111.908 64.035,111.908 64.035,102.961 184.748,102.961 184.748,95.066 
		64.035,95.066 64.035,69.452 56.14,69.452 56.14,136.645 64.035,136.645 64.035,128.75 64.035,128.75 64.035,119.803 	"/>
</g>
</svg>
