<?xml version="1.0" encoding="utf-8"?>
<!-- Generator: Adobe Illustrator 16.0.4, SVG Export Plug-In . SVG Version: 6.00 Build 0)  -->
<!DOCTYPE svg PUBLIC "-//W3C//DTD SVG 1.1//EN" "http://www.w3.org/Graphics/SVG/1.1/DTD/svg11.dtd">
<svg version="1.1" id="Layer_1" xmlns="http://www.w3.org/2000/svg" xmlns:xlink="http://www.w3.org/1999/xlink" x="0px" y="0px"
	 width="70px" height="70px" viewBox="0 0 70 70" enable-background="new 0 0 70 70" xml:space="preserve">
<g>
	<g>
		<path fill="#FFFFFF" d="M65.271,36.618c0-16.908-13.754-30.66-30.66-30.66c-14.17,0-26.121,9.664-29.619,22.748
			c4.39-10.143,14.49-17.256,26.224-17.256c15.75,0,28.563,12.811,28.565,28.56c0,11.73-7.108,21.828-17.242,26.22
			C55.615,62.726,65.271,50.779,65.271,36.618z"/>
		<path fill="#FFFFFF" d="M27.825,22.35c-5.616,0-10.901,2.193-14.882,6.175c-3.98,3.983-6.173,9.265-6.171,14.878
			c0,11.609,9.444,21.057,21.053,21.057S48.88,55.013,48.88,43.403C48.88,31.794,39.434,22.35,27.825,22.35z M27.825,59.14
			c-8.676,0-15.733-7.06-15.733-15.736c0-8.675,7.057-15.735,15.733-15.735c8.677,0,15.737,7.06,15.737,15.738
			C43.561,52.08,36.5,59.14,27.825,59.14z"/>
		<path fill="#FFFFFF" d="M57.078,40.01c-0.003-14.257-11.604-25.858-25.861-25.858c-12.07,0-22.232,8.316-25.067,19.52
			c1.167-2.591,2.805-4.983,4.877-7.058c4.494-4.494,10.459-6.97,16.798-6.97c13.101,0,23.762,10.661,23.762,23.76
			c0,9.649-5.784,17.969-14.066,21.686C48.744,62.266,57.078,52.095,57.078,40.01z"/>
	</g>
</g>
</svg>
