<?xml version="1.0" encoding="utf-8"?>
<!-- Generator: Adobe Illustrator 16.0.4, SVG Export Plug-In . SVG Version: 6.00 Build 0)  -->
<!DOCTYPE svg PUBLIC "-//W3C//DTD SVG 1.1//EN" "http://www.w3.org/Graphics/SVG/1.1/DTD/svg11.dtd">
<svg version="1.1" id="Layer_1" xmlns="http://www.w3.org/2000/svg" xmlns:xlink="http://www.w3.org/1999/xlink" x="0px" y="0px"
	 width="19.837px" height="32.005px" viewBox="0 0 19.837 32.005" enable-background="new 0 0 19.837 32.005" xml:space="preserve">
<path fill="#D30C18" d="M10.001,2.281c4.267,0,7.736,3.499,7.736,7.802c0,4.301-3.47,7.801-7.736,7.801
	c-4.266,0-7.739-3.5-7.739-7.801C2.262,5.78,5.734,2.281,10.001,2.281 M10.001,0C4.478,0,0,4.515,0,10.083
	c0,5.567,10.001,21.922,10.001,21.922s9.998-16.354,9.998-21.922C19.999,4.515,15.523,0,10.001,0L10.001,0z"/>
<path fill="#D30C18" d="M16.527,10.188c-0.002-3.655-2.977-6.629-6.631-6.629c-3.093,0-5.698,2.132-6.424,5.004
	c0.3-0.665,0.718-1.278,1.25-1.809c1.152-1.153,2.681-1.787,4.307-1.787c3.356,0,6.091,2.733,6.091,6.09
	c0,2.474-1.482,4.605-3.607,5.558C14.391,15.892,16.527,13.285,16.527,10.188"/>
</svg>
