<?xml version="1.0" encoding="utf-8"?>
<!-- Generator: Adobe Illustrator 16.0.4, SVG Export Plug-In . SVG Version: 6.00 Build 0)  -->
<!DOCTYPE svg PUBLIC "-//W3C//DTD SVG 1.1//EN" "http://www.w3.org/Graphics/SVG/1.1/DTD/svg11.dtd">
<svg version="1.1" id="Layer_1" xmlns="http://www.w3.org/2000/svg" xmlns:xlink="http://www.w3.org/1999/xlink" x="0px" y="0px"
	 width="160px" height="160px" viewBox="0 0 160 160" enable-background="new 0 0 160 160" xml:space="preserve">
<circle opacity="0.5" fill="#FFFFFF" enable-background="new    " cx="80" cy="80" r="79.75"/>
<path fill="#FBFDFE" d="M6.45,111.5C18.681,140.02,47.003,160,80,160s61.32-19.98,73.551-48.5H6.45z"/>
<rect x="7" y="110.641" fill="#EBF6FA" width="146" height="1"/>
<path fill="#77C3DE" d="M80,1c43.561,0,79,35.439,79,79c0,43.561-35.439,79-79,79c-43.561,0-79-35.439-79-79C1,36.439,36.439,1,80,1
	 M80,0C35.818,0,0,35.817,0,80c0,44.184,35.818,80,80,80c44.184,0,80-35.816,80-80C160,35.817,124.184,0,80,0L80,0z"/>
<g>
	<rect x="46.901" y="30" fill="#263758" width="66.197" height="2.041"/>
	<rect x="44.079" y="33.062" fill="#263758" width="71.842" height="2.041"/>
	<rect x="41" y="36.123" fill="#263758" width="78" height="93.877"/>
	<rect x="44.079" y="39.184" fill="#FFFFFF" width="71.842" height="87.755"/>
</g>
<polygon fill="#263758" points="106.477,108.033 106.477,106.069 51.381,106.069 51.381,103.844 103.421,103.844 103.421,101.879 
	51.381,101.879 51.381,95.506 49.417,95.506 49.417,112.225 88.578,112.225 88.578,110.26 51.381,110.26 51.381,108.033 "/>
<path fill="#D30C18" d="M107.457,78.787H94.962h-1.964v1.964v12.791v1.964h1.964h12.495h1.964v-1.964V80.751v-1.964H107.457z
	 M107.457,93.542H94.962V80.751h12.495V93.542z"/>
<path fill="#D30C18" d="M76.515,47.751v-1.964h-0.044h-1.964H51.385h-1.964h-0.004v1.964h0.004v12.791h-0.004v1.964h0.004h1.964
	h23.122h1.964h0.044v-1.964h-0.044V47.751H76.515z M74.507,60.542H51.385V47.751h23.122V60.542z"/>
<path fill="#263758" d="M107.457,65.787H51.381h-1.964v1.964v5.791V75v0.506h60.004V75v-1.458v-5.791v-1.964H107.457z
	 M107.457,73.542H51.381v-5.791h56.076V73.542z"/>
</svg>
