<?xml version="1.0" encoding="utf-8"?>
<!-- Generator: Adobe Illustrator 16.0.4, SVG Export Plug-In . SVG Version: 6.00 Build 0)  -->
<!DOCTYPE svg PUBLIC "-//W3C//DTD SVG 1.1//EN" "http://www.w3.org/Graphics/SVG/1.1/DTD/svg11.dtd">
<svg version="1.1" id="Layer_1" xmlns="http://www.w3.org/2000/svg" xmlns:xlink="http://www.w3.org/1999/xlink" x="0px" y="0px"
	 width="160px" height="160px" viewBox="0 0 160 160" enable-background="new 0 0 160 160" xml:space="preserve">
<circle opacity="0.5" fill="#FFFFFF" enable-background="new    " cx="80" cy="80" r="79.75"/>
<path fill="#FBFDFE" d="M6.45,111.5C18.681,140.02,47.003,160,80,160s61.32-19.98,73.551-48.5H6.45z"/>
<rect x="7" y="110.641" fill="#EBF6FA" width="146" height="1"/>
<path fill="#77C3DE" d="M80,1c43.561,0,79,35.439,79,79c0,43.561-35.439,79-79,79c-43.561,0-79-35.439-79-79C1,36.439,36.439,1,80,1
	 M80,0C35.818,0,0,35.817,0,80c0,44.184,35.818,80,80,80c44.184,0,80-35.816,80-80C160,35.817,124.184,0,80,0L80,0z"/>
<g>
	<rect x="46.901" y="30" fill="#263758" width="66.197" height="2.041"/>
	<rect x="44.079" y="33.062" fill="#263758" width="71.842" height="2.041"/>
	<rect x="41" y="36.123" fill="#263758" width="78" height="93.877"/>
	<rect x="44.079" y="39.184" fill="#FFFFFF" width="71.842" height="87.755"/>
</g>
<polygon fill="#263758" points="106.477,58.315 106.477,56.351 51.381,56.351 51.381,54.125 103.421,54.125 103.421,52.16 
	51.381,52.16 51.381,45.787 49.417,45.787 49.417,62.506 88.578,62.506 88.578,60.542 51.381,60.542 51.381,58.315 "/>
<polygon fill="#263758" points="96.477,84.377 96.477,82.412 51.381,82.412 51.381,80.187 109.421,80.187 109.421,78.222 
	51.381,78.222 51.381,71.849 49.417,71.849 49.417,88.566 68.578,88.566 68.578,86.604 51.381,86.604 51.381,84.377 "/>
<path fill="#D30C18" d="M108.93,104.435c0-1.086-0.884-1.97-1.971-1.97h-0.383l-0.06-0.382v-3.097c0-4.7-3.823-8.524-8.524-8.524
	c-4.699,0.005-8.521,3.832-8.521,8.53v3.479h-0.589c-1.087,0-1.971,0.884-1.971,1.971v12.955c0,1.086,0.884,1.97,1.971,1.97h18.077
	c1.087,0,1.971-0.884,1.971-1.97V104.435z M99.539,111.801c-0.067,0.049-0.073,0.053-0.073,0.164
	c0.007,0.949,0.007,1.896,0.007,2.849c0.024,0.544-0.269,1.061-0.745,1.299c-0.234,0.121-0.482,0.182-0.733,0.182
	c-0.815,0-1.48-0.665-1.48-1.48c0-0.958,0-1.911,0.006-2.862c0-0.098-0.004-0.101-0.059-0.141c-0.993-0.735-1.337-2.025-0.835-3.138
	c0.483-1.068,1.684-1.728,2.829-1.496c1.264,0.257,2.123,1.271,2.139,2.521C100.594,110.574,100.229,111.299,99.539,111.801z
	 M103.382,102.471H92.604v-3.479c0-2.973,2.416-5.39,5.388-5.39c2.973,0,5.39,2.417,5.39,5.39V102.471z"/>
</svg>
