<?xml version="1.0" encoding="utf-8"?>
<!-- Generator: Adobe Illustrator 16.0.4, SVG Export Plug-In . SVG Version: 6.00 Build 0)  -->
<!DOCTYPE svg PUBLIC "-//W3C//DTD SVG 1.1//EN" "http://www.w3.org/Graphics/SVG/1.1/DTD/svg11.dtd">
<svg version="1.1" id="Layer_1" xmlns="http://www.w3.org/2000/svg" xmlns:xlink="http://www.w3.org/1999/xlink" x="0px" y="0px"
	 width="160px" height="160px" viewBox="0 0 160 160" enable-background="new 0 0 160 160" xml:space="preserve">
<g>
	<circle fill="#FFFFFF" cx="79.89" cy="80.25" r="79.75"/>
	<path fill="#FBFDFE" d="M6.45,111.5C18.681,140.02,47.004,160,80,160c32.997,0,61.32-19.98,73.551-48.5H6.45z"/>
	<rect x="7.001" y="110.641" fill="#EBF6FA" width="146" height="1"/>
	<path fill="#C42126" d="M84.638,71.887"/>
	<path fill="#77C3DE" d="M80,1c43.561,0,79,35.439,79,79c0,43.561-35.439,79-79,79c-43.561,0-79-35.439-79-79
		C1,36.439,36.439,1,80,1 M80,0C35.818,0,0,35.817,0,80c0,44.184,35.818,80,80,80c44.184,0,80-35.816,80-80
		C160,35.817,124.184,0,80,0L80,0z"/>
	<g>
		<rect x="39.5" y="31.5" fill="#1D2A45" width="82" height="98"/>
		<rect x="42.5" y="33.5" fill="#FFFFFF" width="76" height="94"/>
		<polygon fill="#C50F1A" points="54.832,49.965 53.485,51.312 57.805,55.632 67.41,46.026 66.069,44.685 57.805,52.943 		"/>
		<path fill="#1D2A45" d="M65.492,58.517H52.046V45.069h9.605v-1.923h-9.605c-1.061,0-0.059,0-1.924,0v17.287
			c3.394,0,0.863,0,1.924,0h13.446c1.055,0,0.252,0,1.918,0V50.83h-1.918V58.517z"/>
		<path fill="#1D2A45" d="M65.492,58.517"/>
		<polygon fill="#C50F1A" points="54.832,76.94 53.485,78.286 57.805,82.604 67.41,72.999 66.069,71.658 57.805,79.917 		"/>
		<path fill="#1D2A45" d="M65.492,85.489H52.046V72.042h9.605v-1.923h-9.605c-1.061,0-0.059,0-1.924,0v17.289
			c3.394,0,0.863,0,1.924,0h13.446c1.055,0,0.252,0,1.918,0v-9.605h-1.918V85.489z"/>
		<path fill="#1D2A45" d="M65.492,85.489"/>
		<path fill="#1D2A45" d="M50.122,98.173v9.604v7.684c0.931,0,1.408,0,1.643,0c0.14,0,0.201,0,0.206,0c0.026,0,0.044,0,0.075,0
			h3.836h9.604h0.006c1.055,0,0.252,0,1.918,0v-9.605v-7.683H50.122z M65.486,113.538h-9.604v0.005h-3.836v-13.448h9.605v-0.005
			h3.835V113.538z"/>
		<path fill="#C40F1A" d="M65.492,113.543"/>
		<g>
			<rect x="75.613" y="43.153" fill="#1D2A45" width="2.022" height="17.219"/>
			<rect x="75.613" y="58.349" fill="#1D2A45" width="25.221" height="2.024"/>
			<rect x="75.613" y="54.034" fill="#1D2A45" width="36.101" height="2.021"/>
			<rect x="75.613" y="49.718" fill="#1D2A45" width="36.101" height="2.021"/>
		</g>
		<g>
			<rect x="75.613" y="70.189" fill="#1D2A45" width="2.022" height="17.218"/>
			<rect x="75.613" y="85.385" fill="#1D2A45" width="17.669" height="2.022"/>
			<rect x="75.613" y="81.068" fill="#1D2A45" width="36.101" height="2.023"/>
			<rect x="75.613" y="76.753" fill="#1D2A45" width="32.954" height="2.024"/>
		</g>
	</g>
</g>
</svg>
