<?xml version="1.0" encoding="utf-8"?>
<!-- Generator: Adobe Illustrator 16.0.4, SVG Export Plug-In . SVG Version: 6.00 Build 0)  -->
<!DOCTYPE svg PUBLIC "-//W3C//DTD SVG 1.1//EN" "http://www.w3.org/Graphics/SVG/1.1/DTD/svg11.dtd">
<svg version="1.1" id="Layer_1" xmlns="http://www.w3.org/2000/svg" xmlns:xlink="http://www.w3.org/1999/xlink" x="0px" y="0px"
	 width="209.985px" height="70px" viewBox="0 0 209.985 70" enable-background="new 0 0 209.985 70" xml:space="preserve">
<g>
	<g>
		<path fill="#231F20" d="M85.786,30.775c0,0.794-0.149,1.545-0.447,2.253c-0.297,0.708-0.732,1.339-1.303,1.894
			c-0.575,0.555-1.226,0.98-1.947,1.275c-0.725,0.296-1.481,0.443-2.276,0.443c-0.806,0-1.574-0.15-2.303-0.447
			c-0.731-0.298-1.377-0.722-1.937-1.272c-0.571-0.555-1.003-1.184-1.298-1.886c-0.295-0.703-0.442-1.456-0.442-2.26
			c0-0.799,0.148-1.553,0.442-2.261c0.296-0.707,0.729-1.341,1.298-1.901c0.571-0.555,1.218-0.978,1.94-1.268
			c0.724-0.291,1.489-0.435,2.299-0.435c0.805,0,1.567,0.145,2.287,0.436c0.721,0.291,1.366,0.713,1.936,1.268
			c0.571,0.565,1.005,1.204,1.303,1.914C85.637,29.236,85.786,29.986,85.786,30.775z M83.892,30.775
			c0-0.565-0.103-1.103-0.309-1.612c-0.206-0.509-0.502-0.962-0.889-1.359c-0.376-0.392-0.813-0.693-1.31-0.905
			c-0.497-0.211-1.02-0.317-1.569-0.317c-0.55,0-1.073,0.104-1.57,0.313c-0.497,0.209-0.938,0.512-1.325,0.909
			c-0.386,0.392-0.682,0.843-0.886,1.352c-0.204,0.509-0.306,1.049-0.306,1.619c0,0.565,0.101,1.1,0.306,1.604
			c0.204,0.504,0.499,0.955,0.886,1.352c0.387,0.397,0.827,0.7,1.321,0.909c0.493,0.209,1.018,0.313,1.574,0.313
			c0.544,0,1.062-0.104,1.554-0.313c0.49-0.208,0.933-0.512,1.325-0.909c0.386-0.397,0.684-0.849,0.889-1.356
			C83.789,31.868,83.892,31.335,83.892,30.775z"/>
		<path fill="#231F20" d="M86.589,35.336h1.523v0.079c0,0.451,0.155,0.81,0.461,1.077c0.308,0.267,0.725,0.4,1.25,0.4
			c0.592,0,1.05-0.147,1.373-0.443s0.485-0.722,0.485-1.28c0-0.584-0.167-1.023-0.498-1.32c-0.332-0.297-0.829-0.445-1.487-0.445
			c-0.031,0-0.08,0.002-0.147,0.006c-0.067,0.004-0.118,0.007-0.154,0.007v-1.283c0.032,0,0.08,0.002,0.144,0.007
			c0.064,0.004,0.113,0.006,0.145,0.006c0.578,0,1.016-0.122,1.309-0.364c0.295-0.243,0.441-0.601,0.441-1.073
			c0-0.418-0.133-0.752-0.397-0.999c-0.265-0.248-0.621-0.372-1.066-0.372c-0.476,0-0.85,0.115-1.12,0.344
			c-0.269,0.23-0.41,0.552-0.424,0.966H86.99c0.046-0.833,0.329-1.473,0.85-1.918c0.521-0.445,1.245-0.668,2.172-0.668
			c0.896,0,1.604,0.234,2.128,0.702c0.523,0.468,0.784,1.101,0.784,1.898c0,0.601-0.146,1.095-0.444,1.48
			c-0.296,0.385-0.707,0.618-1.232,0.699c0.619,0.11,1.09,0.383,1.413,0.814c0.324,0.432,0.484,1.005,0.484,1.718
			c0,0.869-0.305,1.558-0.912,2.068c-0.608,0.511-1.432,0.766-2.47,0.766c-0.94,0-1.697-0.26-2.272-0.779
			C86.917,36.912,86.617,36.213,86.589,35.336z"/>
		<path fill="#231F20" d="M103.844,26.706l-0.001,9.638l-1.817,0l0.001-9.638h-2.972v-1.542l7.744,0v1.542H103.844z"/>
		<path fill="#231F20" d="M108.188,36.344l0.002-11.181l6.239,0v1.542h-4.422v2.803h4.422v1.596h-4.422v3.612h4.422l-0.001,1.626
			L108.188,36.344z"/>
		<path fill="#231F20" d="M125.332,27.883c-0.514-0.438-1.058-0.766-1.631-0.985c-0.572-0.219-1.174-0.329-1.806-0.329
			c-1.223,0-2.217,0.392-2.982,1.176c-0.766,0.784-1.15,1.8-1.15,3.047c0,1.207,0.373,2.202,1.119,2.986
			c0.746,0.784,1.687,1.177,2.822,1.177c0.662,0,1.292-0.117,1.891-0.352c0.597-0.234,1.173-0.588,1.722-1.062v2.055
			c-0.489,0.351-1.021,0.614-1.596,0.787c-0.577,0.173-1.199,0.26-1.871,0.26c-0.855,0-1.646-0.142-2.372-0.421
			c-0.725-0.28-1.363-0.692-1.913-1.237c-0.545-0.535-0.964-1.165-1.256-1.89c-0.293-0.726-0.439-1.498-0.439-2.318
			c0-0.819,0.147-1.589,0.439-2.31c0.293-0.72,0.717-1.353,1.271-1.898c0.556-0.55,1.191-0.966,1.909-1.249
			c0.719-0.283,1.495-0.423,2.33-0.423c0.656,0,1.282,0.095,1.878,0.286c0.597,0.191,1.174,0.48,1.734,0.867L125.332,27.883z"/>
		<path fill="#231F20" d="M127.427,36.346V25.165h1.818v4.124l5.498,0v-4.124h1.818v11.181h-1.818v-5.43l-5.498,0v5.43H127.427z"/>
		<path fill="#231F20" d="M138.971,36.347V24.723l7.104,6.836c0.192,0.194,0.389,0.4,0.588,0.619
			c0.197,0.22,0.405,0.466,0.625,0.741v-7.751h1.681v11.615l-7.247-6.958c-0.194-0.188-0.381-0.386-0.562-0.596
			c-0.181-0.208-0.353-0.428-0.516-0.657v7.774H138.971z"/>
		<path fill="#231F20" d="M162.684,30.781c0,0.794-0.147,1.546-0.446,2.252c-0.298,0.708-0.731,1.339-1.302,1.894
			c-0.575,0.555-1.226,0.98-1.948,1.276c-0.724,0.295-1.48,0.443-2.274,0.443c-0.806-0.001-1.573-0.15-2.303-0.448
			c-0.731-0.297-1.376-0.722-1.937-1.271c-0.57-0.555-1.002-1.184-1.299-1.886c-0.295-0.703-0.442-1.456-0.442-2.261
			c0-0.799,0.148-1.553,0.442-2.26c0.297-0.708,0.729-1.341,1.3-1.902c0.569-0.555,1.218-0.978,1.94-1.268
			c0.723-0.291,1.487-0.436,2.298-0.435c0.805,0,1.567,0.145,2.287,0.435c0.721,0.291,1.367,0.713,1.936,1.268
			c0.57,0.564,1.004,1.203,1.302,1.913C162.537,29.243,162.684,29.993,162.684,30.781z M160.791,30.781
			c0-0.565-0.104-1.102-0.308-1.611c-0.207-0.509-0.504-0.962-0.891-1.359c-0.376-0.392-0.813-0.693-1.31-0.905
			s-1.02-0.317-1.569-0.317c-0.55,0-1.073,0.104-1.569,0.312c-0.496,0.209-0.938,0.512-1.325,0.909
			c-0.387,0.393-0.683,0.843-0.886,1.352c-0.203,0.509-0.306,1.049-0.306,1.619c0,0.565,0.102,1.1,0.305,1.604
			c0.204,0.504,0.5,0.955,0.886,1.352c0.388,0.397,0.828,0.7,1.321,0.909c0.494,0.209,1.019,0.313,1.574,0.314
			c0.544,0,1.062-0.104,1.553-0.313c0.491-0.208,0.935-0.512,1.325-0.909c0.388-0.397,0.685-0.849,0.891-1.355
			C160.687,31.874,160.791,31.342,160.791,30.781z"/>
		<path fill="#231F20" d="M164.457,36.349l0.002-11.181h1.817l-0.001,9.554h4.063v1.627L164.457,36.349z"/>
		<path fill="#231F20" d="M182.718,30.783c0,0.794-0.149,1.546-0.447,2.253c-0.297,0.708-0.731,1.339-1.302,1.894
			c-0.576,0.555-1.226,0.98-1.947,1.275c-0.723,0.294-1.481,0.442-2.276,0.442c-0.805,0-1.572-0.148-2.302-0.447
			c-0.73-0.298-1.376-0.722-1.937-1.272c-0.57-0.555-1.004-1.184-1.299-1.887c-0.294-0.703-0.443-1.456-0.443-2.26
			c0-0.799,0.149-1.553,0.443-2.261c0.295-0.707,0.729-1.341,1.299-1.901c0.57-0.555,1.218-0.978,1.94-1.267
			c0.723-0.29,1.489-0.436,2.299-0.436c0.805,0,1.566,0.146,2.287,0.436c0.722,0.29,1.366,0.713,1.937,1.268
			c0.569,0.565,1.004,1.203,1.301,1.914C182.569,29.244,182.718,29.994,182.718,30.783z M180.824,30.783
			c0-0.565-0.103-1.102-0.309-1.611s-0.505-0.963-0.89-1.36c-0.378-0.392-0.814-0.693-1.311-0.905
			c-0.495-0.211-1.019-0.317-1.568-0.317s-1.072,0.104-1.569,0.313c-0.497,0.209-0.939,0.512-1.326,0.909
			c-0.387,0.393-0.684,0.843-0.886,1.352c-0.204,0.51-0.306,1.049-0.306,1.62c0,0.564,0.102,1.099,0.306,1.604
			c0.202,0.504,0.499,0.955,0.886,1.352c0.387,0.397,0.827,0.701,1.322,0.909c0.493,0.209,1.019,0.313,1.572,0.313
			c0.545,0,1.063-0.104,1.555-0.313c0.491-0.208,0.933-0.511,1.325-0.909c0.385-0.397,0.684-0.849,0.89-1.355
			C180.721,31.876,180.824,31.343,180.824,30.783z"/>
		<path fill="#231F20" d="M190.998,30.623l4.43,0c0,0.076,0.003,0.183,0.006,0.32c0.017,0.362,0.023,0.606,0.023,0.733
			c0,1.573-0.45,2.795-1.352,3.666c-0.9,0.871-2.171,1.307-3.811,1.307c-0.917,0-1.734-0.136-2.452-0.405
			c-0.718-0.27-1.348-0.677-1.886-1.223c-0.529-0.54-0.936-1.173-1.219-1.901c-0.282-0.729-0.424-1.507-0.424-2.337
			c0-0.845,0.144-1.624,0.433-2.337c0.287-0.712,0.713-1.341,1.279-1.886c0.545-0.534,1.184-0.941,1.918-1.222
			c0.731-0.279,1.516-0.42,2.352-0.42c0.88,0,1.668,0.161,2.363,0.482c0.695,0.321,1.314,0.812,1.858,1.474l-1.329,1
			c-0.376-0.438-0.802-0.764-1.274-0.979c-0.473-0.213-1.002-0.32-1.588-0.32c-1.211,0-2.201,0.389-2.968,1.165
			c-0.768,0.777-1.149,1.786-1.149,3.027c0,1.263,0.382,2.288,1.149,3.075c0.767,0.786,1.761,1.18,2.981,1.18
			c1.038,0,1.855-0.242,2.452-0.725c0.596-0.483,0.894-1.143,0.894-1.978v-0.161l-2.688,0V30.623z"/>
		<path fill="#231F20" d="M199.339,36.352v-5.117l-3.764-6.064h1.909l2.344,3.796c0.057,0.097,0.127,0.224,0.211,0.381
			c0.083,0.158,0.169,0.329,0.256,0.512c0.071-0.178,0.146-0.346,0.225-0.504c0.08-0.158,0.161-0.302,0.248-0.435l2.406-3.75
			l1.818,0l-3.851,6.063v5.117H199.339z"/>
		<path fill="#231F20" d="M73.679,50.121l1.451-0.673c0.138,0.498,0.39,0.879,0.756,1.143c0.367,0.261,0.835,0.394,1.406,0.394
			c0.54,0,0.968-0.152,1.287-0.451c0.318-0.301,0.477-0.702,0.477-1.207c0-0.656-0.544-1.242-1.634-1.757
			c-0.152-0.076-0.27-0.133-0.351-0.168c-1.233-0.601-2.054-1.145-2.464-1.631c-0.409-0.486-0.614-1.081-0.614-1.783
			c0-0.911,0.309-1.65,0.927-2.215c0.62-0.565,1.43-0.847,2.433-0.847c0.825,0,1.514,0.158,2.07,0.477
			c0.554,0.318,0.938,0.775,1.152,1.371l-1.421,0.732c-0.224-0.352-0.47-0.607-0.737-0.771s-0.574-0.245-0.921-0.245
			c-0.488,0-0.877,0.128-1.164,0.382c-0.288,0.255-0.432,0.596-0.432,1.023c0,0.672,0.631,1.298,1.895,1.879
			c0.096,0.046,0.172,0.081,0.229,0.107c1.105,0.51,1.864,1.007,2.276,1.492c0.411,0.487,0.618,1.095,0.618,1.821
			c0,1.061-0.333,1.902-1,2.525c-0.666,0.624-1.567,0.936-2.704,0.936c-0.951,0-1.731-0.22-2.34-0.656
			C74.266,51.562,73.868,50.935,73.679,50.121z"/>
		<path fill="#231F20" d="M94.212,46.791c0,0.795-0.15,1.546-0.447,2.254c-0.298,0.707-0.731,1.339-1.302,1.894
			c-0.575,0.555-1.224,0.98-1.948,1.275c-0.723,0.296-1.481,0.442-2.275,0.442c-0.804,0-1.572-0.148-2.303-0.447
			c-0.73-0.297-1.375-0.721-1.936-1.271c-0.569-0.556-1.002-1.183-1.298-1.886c-0.295-0.703-0.442-1.457-0.442-2.261
			c0-0.8,0.149-1.553,0.443-2.261c0.295-0.707,0.729-1.342,1.298-1.902c0.569-0.554,1.217-0.977,1.94-1.267
			c0.722-0.29,1.489-0.435,2.299-0.435c0.804,0,1.565,0.145,2.287,0.435c0.72,0.29,1.365,0.714,1.936,1.268
			c0.57,0.565,1.004,1.204,1.302,1.913C94.063,45.252,94.212,46.003,94.212,46.791z M92.319,46.791c0-0.564-0.104-1.102-0.31-1.61
			c-0.206-0.509-0.502-0.963-0.889-1.36c-0.378-0.393-0.814-0.693-1.311-0.905c-0.497-0.21-1.02-0.316-1.569-0.316
			c-0.549,0-1.073,0.104-1.569,0.312c-0.497,0.209-0.938,0.512-1.325,0.908c-0.387,0.393-0.683,0.844-0.886,1.352
			c-0.203,0.51-0.305,1.05-0.305,1.62c0,0.564,0.101,1.1,0.305,1.604c0.204,0.503,0.499,0.954,0.885,1.352
			c0.388,0.397,0.828,0.701,1.322,0.909c0.494,0.21,1.018,0.312,1.573,0.312c0.545,0,1.064-0.103,1.554-0.312
			c0.492-0.208,0.934-0.512,1.326-0.908c0.388-0.396,0.683-0.85,0.889-1.355C92.214,47.885,92.319,47.353,92.319,46.791z"/>
		<path fill="#231F20" d="M95.984,52.358l0.001-11.18l1.818,0.001l-0.001,9.554h4.062v1.627L95.984,52.358z"/>
		<path fill="#231F20" d="M102.863,41.18h1.795l-0.002,6.789c0,1.007,0.234,1.767,0.7,2.272c0.466,0.506,1.163,0.76,2.088,0.76
			c0.922,0,1.616-0.252,2.082-0.76c0.465-0.506,0.698-1.266,0.698-2.272l0.001-6.788h1.817l-0.001,6.955
			c0,1.514-0.381,2.646-1.146,3.396c-0.764,0.751-1.914,1.126-3.452,1.126s-2.685-0.375-3.444-1.124
			c-0.759-0.747-1.138-1.879-1.138-3.398L102.863,41.18z"/>
		<path fill="#231F20" d="M118.16,42.724l-0.001,9.638h-1.816v-9.638h-2.971v-1.543h7.744v1.543H118.16z"/>
		<path fill="#231F20" d="M122.536,52.361l0.001-11.181h1.817l-0.001,11.181H122.536z"/>
		<path fill="#231F20" d="M138.116,46.795c0,0.794-0.148,1.546-0.446,2.253c-0.298,0.708-0.733,1.34-1.302,1.894
			c-0.577,0.556-1.227,0.981-1.948,1.275c-0.724,0.296-1.481,0.443-2.275,0.443c-0.806,0-1.574-0.149-2.303-0.446
			c-0.732-0.298-1.377-0.722-1.937-1.272c-0.57-0.555-1.004-1.185-1.299-1.887c-0.295-0.703-0.442-1.456-0.442-2.26
			c0-0.801,0.147-1.554,0.442-2.262c0.296-0.707,0.729-1.34,1.299-1.901c0.57-0.554,1.217-0.978,1.94-1.268s1.489-0.436,2.299-0.436
			c0.805,0,1.568,0.146,2.287,0.437c0.72,0.29,1.365,0.714,1.937,1.268c0.569,0.565,1.004,1.203,1.302,1.913
			S138.116,46.006,138.116,46.795z M136.222,46.795c0-0.565-0.104-1.103-0.31-1.61c-0.206-0.51-0.502-0.963-0.89-1.361
			c-0.377-0.392-0.813-0.693-1.31-0.903c-0.496-0.212-1.02-0.317-1.569-0.317s-1.073,0.104-1.57,0.312
			c-0.496,0.208-0.938,0.512-1.325,0.908c-0.387,0.393-0.682,0.843-0.886,1.353c-0.204,0.509-0.306,1.049-0.306,1.619
			c0,0.564,0.102,1.1,0.306,1.604c0.203,0.503,0.499,0.954,0.886,1.353c0.387,0.396,0.827,0.7,1.321,0.908
			c0.492,0.209,1.018,0.312,1.574,0.312c0.544,0,1.062-0.103,1.554-0.312c0.49-0.208,0.933-0.513,1.325-0.908
			c0.386-0.398,0.684-0.85,0.89-1.356C136.119,47.889,136.222,47.355,136.222,46.795z"/>
		<path fill="#231F20" d="M139.887,52.363l0.001-11.624l7.103,6.836c0.192,0.193,0.39,0.399,0.588,0.618
			c0.198,0.22,0.407,0.468,0.626,0.741l0.001-7.752h1.68V52.8l-7.247-6.959c-0.193-0.188-0.381-0.387-0.563-0.596
			c-0.179-0.209-0.353-0.429-0.515-0.657v7.775H139.887z"/>
		<path fill="#231F20" d="M151.497,50.127l1.451-0.672c0.138,0.497,0.39,0.879,0.756,1.141c0.366,0.263,0.834,0.394,1.405,0.394
			c0.539,0,0.968-0.149,1.286-0.451c0.318-0.299,0.478-0.702,0.478-1.207c0-0.655-0.544-1.24-1.635-1.756
			c-0.152-0.077-0.269-0.132-0.352-0.168c-1.231-0.601-2.052-1.144-2.462-1.631c-0.41-0.485-0.614-1.08-0.614-1.782
			c0-0.912,0.309-1.65,0.927-2.215c0.62-0.565,1.431-0.849,2.434-0.849c0.825,0,1.515,0.16,2.07,0.479
			c0.555,0.318,0.938,0.774,1.151,1.371l-1.42,0.732c-0.224-0.351-0.47-0.608-0.737-0.771s-0.573-0.245-0.92-0.245
			c-0.488,0-0.877,0.129-1.164,0.384c-0.288,0.254-0.433,0.595-0.433,1.021c0,0.673,0.633,1.299,1.895,1.879
			c0.098,0.046,0.173,0.082,0.229,0.107c1.105,0.51,1.863,1.009,2.275,1.493c0.412,0.486,0.618,1.094,0.618,1.821
			c0,1.061-0.334,1.901-1,2.524c-0.667,0.625-1.568,0.935-2.703,0.935c-0.953,0-1.732-0.219-2.341-0.656
			C152.083,51.568,151.684,50.941,151.497,50.127z"/>
		<path fill="#231F20" d="M160.286,40.655h2.079v0.419h-0.748v1.994h-0.575l0.001-1.994h-0.757V40.655z M162.885,40.655h0.757
			l0.628,1.603l0.592-1.603h0.758v2.414h-0.508v-1.906l-0.713,1.906h-0.262l-0.738-1.906v1.906h-0.514V40.655z"/>
	</g>
	<g>
		<path fill="#D82538" d="M65.271,36.618c0-16.908-13.754-30.66-30.66-30.66c-14.17,0-26.121,9.664-29.619,22.748
			c4.39-10.143,14.49-17.256,26.224-17.256c15.75,0,28.563,12.811,28.565,28.56c0,11.73-7.108,21.828-17.242,26.22
			C55.615,62.726,65.271,50.779,65.271,36.618z"/>
		<path fill="#D82538" d="M27.825,22.35c-5.616,0-10.901,2.193-14.882,6.175c-3.98,3.983-6.173,9.265-6.171,14.878
			c0,11.609,9.444,21.057,21.053,21.057S48.88,55.013,48.88,43.403C48.88,31.794,39.434,22.35,27.825,22.35z M27.825,59.14
			c-8.676,0-15.733-7.06-15.733-15.736c0-8.675,7.057-15.735,15.733-15.735c8.677,0,15.737,7.06,15.737,15.738
			C43.561,52.08,36.5,59.14,27.825,59.14z"/>
		<path fill="#D82538" d="M57.078,40.01c-0.003-14.257-11.604-25.858-25.861-25.858c-12.07,0-22.232,8.316-25.067,19.52
			c1.167-2.591,2.805-4.983,4.877-7.058c4.494-4.494,10.459-6.97,16.798-6.97c13.101,0,23.762,10.661,23.762,23.76
			c0,9.649-5.784,17.969-14.066,21.686C48.744,62.266,57.078,52.095,57.078,40.01z"/>
	</g>
</g>
</svg>
