<?xml version="1.0" encoding="utf-8"?>
<!-- Generator: Adobe Illustrator 16.0.4, SVG Export Plug-In . SVG Version: 6.00 Build 0)  -->
<!DOCTYPE svg PUBLIC "-//W3C//DTD SVG 1.1//EN" "http://www.w3.org/Graphics/SVG/1.1/DTD/svg11.dtd">
<svg version="1.1" id="Layer_1" xmlns="http://www.w3.org/2000/svg" xmlns:xlink="http://www.w3.org/1999/xlink" x="0px" y="0px"
	 width="651px" height="215px" viewBox="0 0 651 215" enable-background="new 0 0 651 215" xml:space="preserve">
<g>
	<path fill="#FFFFFF" d="M205.068,109.08c0-50.951-41.45-92.396-92.395-92.396c-42.704,0-78.718,29.123-89.259,68.55
		c13.231-30.563,43.668-52,79.028-52c47.462,0,86.075,38.606,86.081,86.067c0,35.348-21.421,65.78-51.957,79.014
		C175.968,187.757,205.068,151.756,205.068,109.08z"/>
	<path fill="#FFFFFF" d="M92.22,66.084c-16.922,0-32.851,6.609-44.849,18.609c-11.995,12.002-18.6,27.92-18.596,44.833
		c0,34.988,28.462,63.455,63.445,63.455c34.985,0,63.452-28.467,63.452-63.455C155.672,94.546,127.206,66.084,92.22,66.084z
		 M92.22,176.951c-26.145,0-47.412-21.274-47.412-47.425c0-26.142,21.267-47.415,47.412-47.415
		c26.148,0,47.425,21.273,47.425,47.424C139.639,155.677,118.364,176.951,92.22,176.951z"/>
	<path fill="#FFFFFF" d="M180.375,119.302c-0.011-42.964-34.971-77.926-77.933-77.926c-36.375,0-66.999,25.061-75.542,58.823
		c3.517-7.809,8.454-15.017,14.699-21.27c13.543-13.543,31.52-21.004,50.62-21.004c39.479,0,71.608,32.126,71.608,71.601
		c0,29.081-17.43,54.151-42.388,65.353C155.261,186.37,180.375,155.72,180.375,119.302z"/>
</g>
<g>
	<defs>
		<rect id="SVGID_1_" x="334" y="40.594" width="303" height="143.04"/>
	</defs>
	<clipPath id="SVGID_2_">
		<use xlink:href="#SVGID_1_"  overflow="visible"/>
	</clipPath>
	<g clip-path="url(#SVGID_2_)">
		<defs>
			<rect id="SVGID_3_" x="334" y="40.594" width="303" height="143.04"/>
		</defs>
		<clipPath id="SVGID_4_">
			<use xlink:href="#SVGID_3_"  overflow="visible"/>
		</clipPath>
		<g opacity="0.05" clip-path="url(#SVGID_4_)">
			<g>
				<defs>
					<rect id="SVGID_5_" x="334" y="40.594" width="303" height="143.04"/>
				</defs>
				<clipPath id="SVGID_6_">
					<use xlink:href="#SVGID_5_"  overflow="visible"/>
				</clipPath>
				<polygon clip-path="url(#SVGID_6_)" fill="#FFFFFF" points="334,181.057 359.248,181.057 359.248,121.079 412.733,121.079 
					412.733,99.953 359.248,99.953 359.248,64.296 421.803,64.296 421.803,43.169 334,43.169 				"/>
				<polygon clip-path="url(#SVGID_6_)" fill="#FFFFFF" points="540.524,43.17 426.34,43.17 426.34,64.297 470.859,64.297 
					470.859,181.057 496.108,181.057 496.108,64.297 540.524,64.297 				"/>
				<path clip-path="url(#SVGID_6_)" fill="#FFFFFF" d="M633.393,122.676c-2.405-4.638-5.669-8.398-9.79-11.284
					c-4.123-2.885-8.847-5.135-14.171-6.75c-5.323-1.614-10.906-3.041-16.744-4.276c-3.711-0.756-7.214-1.581-10.513-2.475
					c-3.298-0.892-6.22-2.077-8.76-3.555c-2.542-1.477-4.552-3.349-6.029-5.616c-1.476-2.268-2.214-5.153-2.214-8.656
					c0-6.045,2.248-10.579,6.751-13.604c4.497-3.023,10.903-4.534,19.218-4.534c5.772,0,11.937,0.635,18.498,1.905
					c6.561,1.273,13.414,3.315,20.558,6.132V48.323c-5.356-2.267-11.746-4.122-19.166-5.564c-7.419-1.443-14.806-2.165-22.158-2.165
					c-7.352,0-13.961,0.875-19.835,2.627c-5.875,1.751-10.993,4.399-15.355,7.936c-4.364,3.538-7.817,8.005-10.358,13.397
					c-2.541,5.394-3.812,11.732-3.812,19.012c0,6.597,1.099,12.093,3.299,16.489c2.197,4.397,5.151,8.021,8.861,10.872
					c3.712,2.853,8.002,5.085,12.882,6.698c4.879,1.616,9.997,3.008,15.357,4.174c4.049,0.825,7.914,1.667,11.592,2.525
					c3.674,0.859,6.99,1.976,9.944,3.349c2.954,1.375,5.29,3.145,7.007,5.306c1.718,2.167,2.577,4.999,2.577,8.504
					c0,3.986-0.926,7.335-2.783,10.047c-1.853,2.716-4.312,4.862-7.366,6.442c-3.06,1.579-6.511,2.697-10.357,3.35
					c-3.847,0.653-7.765,0.978-11.748,0.978c-6.871,0-13.536-0.67-19.994-2.01c-6.459-1.338-13.086-3.484-19.888-6.439v21.331
					c4.809,2.68,10.837,4.759,18.085,6.235c7.249,1.476,14.615,2.217,22.104,2.217c8.591,0,16.49-0.86,23.702-2.578
					c7.216-1.717,13.347-4.344,18.397-7.883c5.049-3.539,8.948-8.021,11.695-13.448s4.122-11.852,4.122-19.272
					C636.999,133.238,635.798,127.312,633.393,122.676"/>
			</g>
		</g>
	</g>
	<polygon clip-path="url(#SVGID_2_)" fill="#FFFFFF" points="593.117,120.474 593.117,115.675 591.323,115.675 591.323,115.036 
		595.631,115.036 595.631,115.675 593.837,115.675 593.837,120.474 	"/>
	<g clip-path="url(#SVGID_2_)">
		<defs>
			<rect id="SVGID_7_" x="334" y="40.594" width="303" height="143.04"/>
		</defs>
		<clipPath id="SVGID_8_">
			<use xlink:href="#SVGID_7_"  overflow="visible"/>
		</clipPath>
		<path clip-path="url(#SVGID_8_)" fill="#FFFFFF" d="M596.351,120.474v-5.438h1.08l1.289,3.849c0.121,0.36,0.207,0.632,0.257,0.81
			c0.066-0.199,0.162-0.493,0.296-0.875l1.299-3.783h0.971v5.438h-0.695v-4.552l-1.582,4.552h-0.647l-1.575-4.627v4.627H596.351z"/>
		<polygon clip-path="url(#SVGID_8_)" fill="#FFFFFF" points="378.52,106.687 373.34,106.687 373.34,78.409 391.347,78.409 
			391.347,82.743 378.52,82.743 378.52,90.054 389.488,90.054 389.488,94.387 378.52,94.387 		"/>
		<rect x="396.539" y="78.41" clip-path="url(#SVGID_8_)" fill="#FFFFFF" width="5.179" height="28.278"/>
		<path clip-path="url(#SVGID_8_)" fill="#FFFFFF" d="M423.86,91.555c2.03,2.888,3.678,5.453,4.946,7.694h0.126
			c-0.168-3.678-0.252-6.355-0.252-8.033V78.41h5.178v28.277h-5.433l-9.213-13.019c-1.622-2.254-3.299-4.868-5.03-7.841h-0.129
			c0.171,3.466,0.255,6.15,0.255,8.052v12.808h-5.178V78.41h5.432L423.86,91.555z"/>
		<path clip-path="url(#SVGID_8_)" fill="#FFFFFF" d="M457.456,99.48h-10.648l-2.771,7.208h-5.514l11.221-28.28h4.732l11.225,28.28
			h-5.474L457.456,99.48z M452.091,85.215c-0.989,2.957-1.872,5.43-2.647,7.417l-0.965,2.516h7.309l-0.968-2.516
			c-0.766-2.005-1.648-4.478-2.646-7.417H452.091z"/>
		<path clip-path="url(#SVGID_8_)" fill="#FFFFFF" d="M485.096,91.555c2.03,2.888,3.677,5.453,4.946,7.694h0.125
			c-0.167-3.678-0.253-6.355-0.253-8.033V78.41h5.177v28.277h-5.43l-9.213-13.019c-1.622-2.254-3.299-4.868-5.032-7.841h-0.128
			c0.17,3.466,0.254,6.15,0.254,8.052v12.808h-5.176V78.41h5.432L485.096,91.555z"/>
		<path clip-path="url(#SVGID_8_)" fill="#FFFFFF" d="M516.262,82.256c-1.408,0-2.708,0.232-3.898,0.697
			c-1.19,0.466-2.213,1.141-3.065,2.03c-0.853,0.887-1.516,1.983-1.998,3.286c-0.478,1.304-0.716,2.794-0.716,4.47
			c0,1.663,0.219,3.125,0.656,4.385c0.435,1.261,1.062,2.313,1.881,3.16c0.814,0.845,1.812,1.483,2.989,1.912
			c1.176,0.43,2.51,0.645,4.004,0.645c1.07,0,2.162-0.085,3.275-0.254c1.114-0.168,2.157-0.415,3.128-0.739v4.458
			c-0.986,0.282-2.052,0.503-3.19,0.665c-1.143,0.163-2.326,0.244-3.55,0.244c-2.397,0-4.504-0.343-6.32-1.025
			c-1.815-0.684-3.336-1.649-4.554-2.896c-1.22-1.248-2.135-2.741-2.749-4.48c-0.611-1.739-0.917-3.66-0.917-5.759
			c0-2.156,0.326-4.157,0.983-6.001c0.653-1.845,1.598-3.445,2.83-4.798c1.231-1.353,2.776-2.416,4.629-3.191
			c1.851-0.775,3.947-1.169,6.285-1.183c1.198,0,2.334,0.081,3.403,0.243c1.073,0.162,2.036,0.39,2.896,0.686v4.396
			c-1.127-0.352-2.177-0.598-3.146-0.741C518.141,82.326,517.192,82.256,516.262,82.256"/>
		<rect x="528.449" y="78.41" clip-path="url(#SVGID_8_)" fill="#FFFFFF" width="5.18" height="28.278"/>
		<path clip-path="url(#SVGID_8_)" fill="#FFFFFF" d="M557.229,99.48h-10.652l-2.768,7.208h-5.517l11.223-28.28h4.734l11.225,28.28
			h-5.479L557.229,99.48z M551.862,85.215c-0.988,2.957-1.871,5.43-2.646,7.417l-0.966,2.516h7.308l-0.966-2.516
			c-0.767-2.005-1.647-4.478-2.648-7.417H551.862z"/>
		<polygon clip-path="url(#SVGID_8_)" fill="#FFFFFF" points="575.316,78.409 575.316,102.354 588.545,102.354 588.545,106.687 
			570.136,106.687 570.136,78.409 		"/>
		<polygon clip-path="url(#SVGID_8_)" fill="#FFFFFF" points="387.648,142.926 382.471,142.926 382.471,118.981 373.341,118.981 
			373.341,114.648 396.758,114.648 396.758,118.981 387.648,118.981 		"/>
		<polygon clip-path="url(#SVGID_8_)" fill="#FFFFFF" points="405.518,138.595 419.424,138.595 419.424,142.926 400.34,142.926 
			400.34,114.648 418.664,114.648 418.664,118.981 405.518,118.981 405.518,126.295 416.805,126.295 416.805,130.627 
			405.518,130.627 		"/>
		<path clip-path="url(#SVGID_8_)" fill="#FFFFFF" d="M438.438,134.812c0-0.719-0.178-1.3-0.53-1.743
			c-0.351-0.444-0.83-0.806-1.437-1.089c-0.605-0.282-1.286-0.511-2.038-0.687c-0.755-0.176-1.549-0.349-2.38-0.52
			c-1.1-0.238-2.148-0.523-3.147-0.856c-1.001-0.329-1.882-0.786-2.643-1.372c-0.761-0.584-1.365-1.329-1.818-2.229
			c-0.45-0.901-0.674-2.028-0.674-3.381c0-1.494,0.26-2.794,0.781-3.9c0.521-1.105,1.229-2.021,2.123-2.747s1.943-1.268,3.147-1.628
			c1.207-0.358,2.562-0.54,4.07-0.54c1.507,0,3.021,0.148,4.545,0.445c1.52,0.298,2.831,0.678,3.929,1.143v4.438
			c-1.468-0.579-2.871-0.998-4.216-1.259c-1.346-0.26-2.61-0.393-3.792-0.393c-1.707,0-3.02,0.312-3.941,0.931
			c-0.924,0.622-1.386,1.55-1.386,2.79c0,0.72,0.151,1.311,0.453,1.775c0.305,0.464,0.716,0.851,1.236,1.152
			c0.522,0.303,1.121,0.546,1.799,0.729c0.677,0.185,1.393,0.353,2.155,0.509c1.196,0.253,2.343,0.545,3.435,0.875
			c1.091,0.332,2.06,0.794,2.905,1.386s1.515,1.363,2.009,2.314c0.491,0.949,0.737,2.166,0.737,3.645
			c0,1.522-0.281,2.841-0.845,3.951c-0.562,1.115-1.362,2.036-2.398,2.759c-1.035,0.726-2.292,1.266-3.771,1.616
			c-1.481,0.354-3.102,0.53-4.862,0.53c-1.537,0-3.048-0.152-4.533-0.455c-1.486-0.302-2.724-0.729-3.71-1.278v-4.375
			c1.396,0.605,2.754,1.046,4.079,1.319c1.324,0.276,2.69,0.414,4.101,0.414c0.817,0,1.62-0.066,2.409-0.202
			c0.789-0.135,1.496-0.362,2.123-0.687c0.628-0.324,1.132-0.765,1.511-1.32C438.245,136.316,438.438,135.628,438.438,134.812"/>
		<polygon clip-path="url(#SVGID_8_)" fill="#FFFFFF" points="460.638,142.926 455.46,142.926 455.46,118.981 446.331,118.981 
			446.331,114.648 469.748,114.648 469.748,118.981 460.638,118.981 		"/>
		<path clip-path="url(#SVGID_8_)" fill="#FFFFFF" d="M494.683,134.812c0-0.719-0.178-1.3-0.526-1.743
			c-0.354-0.444-0.835-0.806-1.438-1.089c-0.605-0.282-1.286-0.511-2.039-0.687c-0.754-0.176-1.548-0.349-2.38-0.52
			c-1.097-0.238-2.146-0.523-3.148-0.856c-0.999-0.329-1.88-0.786-2.641-1.372c-0.761-0.584-1.367-1.329-1.817-2.229
			c-0.45-0.901-0.677-2.028-0.677-3.381c0-1.494,0.26-2.794,0.782-3.9c0.521-1.105,1.229-2.021,2.122-2.747
			c0.896-0.727,1.946-1.268,3.149-1.628c1.206-0.358,2.562-0.54,4.069-0.54s3.022,0.148,4.544,0.445
			c1.521,0.298,2.832,0.678,3.933,1.143v4.438c-1.468-0.579-2.873-0.998-4.219-1.259c-1.345-0.26-2.61-0.393-3.795-0.393
			c-1.703,0-3.016,0.312-3.939,0.931c-0.924,0.622-1.385,1.55-1.385,2.79c0,0.72,0.152,1.311,0.454,1.775
			c0.303,0.464,0.716,0.851,1.236,1.152c0.524,0.303,1.12,0.546,1.796,0.729c0.677,0.185,1.396,0.353,2.158,0.509
			c1.197,0.253,2.341,0.545,3.434,0.875c1.091,0.332,2.06,0.794,2.904,1.386c0.847,0.592,1.517,1.363,2.011,2.314
			c0.491,0.949,0.739,2.166,0.739,3.645c0,1.522-0.285,2.841-0.847,3.951c-0.566,1.115-1.363,2.036-2.399,2.759
			c-1.034,0.726-2.294,1.266-3.772,1.616c-1.479,0.354-3.099,0.53-4.858,0.53c-1.538,0-3.048-0.152-4.535-0.455
			c-1.486-0.302-2.723-0.729-3.709-1.278v-4.375c1.395,0.605,2.754,1.046,4.079,1.319c1.324,0.276,2.689,0.414,4.1,0.414
			c0.817,0,1.621-0.066,2.41-0.202c0.789-0.135,1.498-0.362,2.124-0.687c0.625-0.324,1.13-0.765,1.511-1.32
			C494.492,136.316,494.683,135.628,494.683,134.812"/>
		<path clip-path="url(#SVGID_8_)" fill="#FFFFFF" d="M517.032,143.456c-1.478,0-2.81-0.146-3.995-0.435
			c-1.184-0.288-2.227-0.704-3.129-1.247c-0.898-0.542-1.668-1.204-2.301-1.985c-0.635-0.784-1.141-1.666-1.522-2.653
			c-0.309-0.788-0.53-1.662-0.665-2.621c-0.134-0.957-0.199-2.027-0.199-3.213v-16.653h5.177v16.19c0,2,0.239,3.563,0.718,4.69
			c0.534,1.255,1.317,2.159,2.348,2.716c1.026,0.558,2.238,0.836,3.634,0.836c1.395,0,2.604-0.278,3.635-0.836
			c1.028-0.557,1.811-1.461,2.346-2.716c0.479-1.127,0.72-2.69,0.72-4.69v-16.19h5.177v16.653c0,1.186-0.066,2.256-0.2,3.213
			c-0.137,0.959-0.355,1.833-0.666,2.621c-0.381,0.987-0.893,1.869-1.532,2.653c-0.641,0.781-1.423,1.443-2.347,1.985
			c-0.922,0.543-1.984,0.959-3.183,1.247C519.85,143.311,518.512,143.456,517.032,143.456"/>
		<rect x="535.198" y="114.648" clip-path="url(#SVGID_8_)" fill="#FFFFFF" width="5.179" height="28.277"/>
		<polygon clip-path="url(#SVGID_8_)" fill="#FFFFFF" points="558.31,142.926 553.13,142.926 553.13,118.981 544,118.981 
			544,114.648 567.418,114.648 567.418,118.981 558.31,118.981 		"/>
		<polygon clip-path="url(#SVGID_8_)" fill="#FFFFFF" points="576.179,138.595 590.086,138.595 590.086,142.926 571,142.926 
			571,114.648 589.323,114.648 589.323,118.981 576.179,118.981 576.179,126.295 587.463,126.295 587.463,130.627 576.179,130.627 
					"/>
	</g>
</g>
<rect x="269" y="65" fill="#FFFFFF" width="3" height="85"/>
</svg>
