<?xml version="1.0" encoding="utf-8"?>
<!-- Generator: Adobe Illustrator 16.0.0, SVG Export Plug-In . SVG Version: 6.00 Build 0)  -->
<!DOCTYPE svg PUBLIC "-//W3C//DTD SVG 1.1//EN" "http://www.w3.org/Graphics/SVG/1.1/DTD/svg11.dtd">
<svg version="1.1" id="Layer_1" xmlns="http://www.w3.org/2000/svg" xmlns:xlink="http://www.w3.org/1999/xlink" x="0px" y="0px"
	 width="48px" height="48px" viewBox="0 0 48 48" enable-background="new 0 0 48 48" xml:space="preserve">
<path fill="#77C3DE" d="M41.419,17.908l-0.817-1.978c2.799-6.461,2.614-6.653,2.069-7.212l-3.575-3.562L38.74,4.847h-0.414
	c-0.221,0-0.871,0-6.305,2.518l-2-0.822C27.432,0,27.165,0,26.412,0h-5.045c-0.758,0-1.051,0-3.448,6.564l-1.993,0.825
	c-3.675-1.582-5.83-2.384-6.408-2.384L9.039,5.017L5.193,8.868c-0.586,0.56-0.791,0.761,2.172,7.115l-0.814,1.972
	C0,20.541,0,20.792,0,21.58v5.048c0,0.794,0,1.069,6.571,3.476l0.814,1.967c-2.799,6.457-2.609,6.648-2.066,7.203l3.576,3.57
	l0.356,0.309h0.418c0.215,0,0.861,0,6.302-2.517l2,0.825C20.558,48.005,20.819,48,21.581,48h5.044c0.773,0,1.043,0,3.448-6.562
	l2.005-0.828c3.671,1.588,5.818,2.39,6.396,2.39l0.481-0.013l3.875-3.869c0.549-0.57,0.744-0.77-2.201-7.098l0.81-1.976
	C48,27.458,48,27.188,48,26.416v-5.045C48,20.579,48,20.302,41.419,17.908z M46.158,25.882c-0.954,0.483-3.501,1.552-5.707,2.419
	l-0.409,0.16l-1.517,3.688l0.199,0.427c0.982,2.091,2.068,4.573,2.428,5.589l-2.823,2.816c-1.004-0.32-3.581-1.375-5.759-2.323
	l-0.396-0.167l-3.655,1.504l-0.162,0.438c-0.795,2.188-1.795,4.734-2.254,5.69h-4.018c-0.482-0.942-1.554-3.494-2.425-5.698
	l-0.162-0.412l-3.651-1.513l-0.405,0.188c-2.16,1.004-4.712,2.125-5.625,2.448l-2.833-2.831c0.335-1.02,1.375-3.566,2.313-5.721
	l0.183-0.418L7.956,28.49L7.53,28.33c-2.187-0.796-4.729-1.782-5.691-2.251v-3.961c0.955-0.484,3.499-1.551,5.7-2.415l0.409-0.161
	l1.52-3.688l-0.201-0.425c-0.975-2.09-2.066-4.574-2.42-5.585l2.82-2.82c1.005,0.324,3.585,1.374,5.77,2.319l0.397,0.172
	l3.646-1.513l0.156-0.43c0.796-2.192,1.789-4.734,2.25-5.692H25.9c0.488,0.946,1.562,3.499,2.426,5.7l0.165,0.418l3.655,1.505
	l0.4-0.19c2.159-1.003,4.717-2.124,5.629-2.448l2.834,2.823c-0.335,1.024-1.38,3.571-2.318,5.729l-0.182,0.417l1.524,3.692
	l0.43,0.156c2.188,0.792,4.731,1.779,5.694,2.243V25.882z"/>
<g>
	<path fill="#77C3DE" d="M33.543,24.115c0-5.275-4.204-9.566-9.372-9.566c-4.332,0-7.985,3.016-9.054,7.097
		c1.342-3.163,4.429-5.384,8.016-5.384c4.814,0,8.73,3.999,8.73,8.911c0,3.659-2.172,6.81-5.271,8.181
		C30.591,32.26,33.543,28.533,33.543,24.115"/>
	<path fill="#77C3DE" d="M22.096,19.664c-1.717,0-3.333,0.685-4.549,1.927c-1.218,1.241-1.887,2.891-1.887,4.642
		c0,3.621,2.887,6.568,6.436,6.568c3.548,0,6.435-2.947,6.435-6.568C28.531,22.61,25.645,19.664,22.096,19.664 M22.096,31.141
		c-2.651,0-4.81-2.201-4.81-4.908c0-2.708,2.159-4.908,4.81-4.908c2.653,0,4.81,2.201,4.81,4.908
		C26.906,28.938,24.749,31.141,22.096,31.141"/>
	<path fill="#77C3DE" d="M31.038,25.173c0-4.448-3.546-8.066-7.904-8.066c-3.691,0-6.797,2.594-7.664,6.09
		c0.357-0.809,0.857-1.557,1.491-2.202c1.375-1.403,3.198-2.175,5.135-2.175c4.005,0,7.263,3.325,7.263,7.413
		c0,3.011-1.769,5.604-4.299,6.766C28.491,32.115,31.038,28.943,31.038,25.173"/>
</g>
</svg>
