<?xml version="1.0" encoding="UTF-8" standalone="no"?><!DOCTYPE svg PUBLIC "-//W3C//DTD SVG 1.1//EN" "http://www.w3.org/Graphics/SVG/1.1/DTD/svg11.dtd"><svg width="100%" height="100%" viewBox="0 0 230 150" version="1.1" xmlns="http://www.w3.org/2000/svg" xmlns:xlink="http://www.w3.org/1999/xlink" xml:space="preserve" style="fill-rule:evenodd;clip-rule:evenodd;stroke-linejoin:round;stroke-miterlimit:1.41421;"><rect id="o3.-bny.-mellon" x="0.395" y="0" width="230" height="150" style="fill:none;"/><path id="path3357" d="M72.764,68.964l-17.683,-6.914c-3.801,2.079 -6.907,4.486 -9.428,6.914c2.521,2.423 5.627,4.828 9.428,6.913l17.683,-6.913Z" style="fill:#fff;fill-rule:nonzero;"/><path id="path3361" d="M35.895,54.547c0,0 1.872,6.086 8.016,12.642c2.724,-2.094 6.008,-4.001 9.908,-5.637l-17.924,-7.005Z" style="fill:#fff;fill-rule:nonzero;"/><path id="path3365" d="M35.895,83.378c0,0 1.872,-6.083 8.016,-12.641c2.724,2.093 6.008,3.996 9.908,5.634l-17.924,7.007Z" style="fill:#fff;fill-rule:nonzero;"/><path id="path3369" d="M135.864,93.801l-5.003,0l0,-5.479l3.777,0l0,1.647l1.266,0l0,-4.514l-1.266,0l0,1.625l-3.777,0l0,-5.22l4.807,0l0,1.829l1.246,0l0,-3.695l-1.266,0l0,0.605l-8.808,0l0,1.068l1.605,0l0,12.295l-1.605,0l0,1.08l10.29,0l0,-3.136l-1.266,0l0,1.895Zm54.436,-13.202l0,1.068l1.63,0l0,9.158l-7.469,-10.226l-3.746,0l0,1.068l1.551,0l0.513,0.724l0,11.571l-1.627,0l0,1.08l4.611,0l0,-1.08l-1.632,0l0,-9.729l8.027,11.05l1.127,0l0,-13.616l1.61,0l0,-1.068l-4.595,0Zm-18.603,-0.261c-3.965,0 -7.195,3.366 -7.195,7.504c0,4.124 3.23,7.478 7.195,7.478c3.937,0 7.135,-3.365 7.135,-7.502c0,-4.125 -3.198,-7.48 -7.135,-7.48m0,13.585c-2.68,0 -4.545,-2.512 -4.545,-6.105c0,-3.584 1.882,-6.082 4.569,-6.082c2.627,0 4.463,2.498 4.463,6.082c0,3.593 -1.843,6.105 -4.487,6.105m-56.546,-2.941l-4.864,-10.383l-4.032,0l0,1.068l1.628,0l0,12.295l-1.628,0l0,1.08l4.613,0l0,-1.08l-1.628,0l0,-10.019l5.387,11.51l5.114,-11.256l0,9.765l-1.606,0l0,1.08l5.633,0l0,-1.08l-1.615,0l0,-12.295l1.615,0l0,-1.068l-3.832,0l-4.785,10.383Zm34.26,2.819l-4.75,0l0,-12.134l1.614,0l0,-1.068l-5.644,0l0,1.068l1.613,0l0,12.295l-1.613,0l0,1.08l10.048,0l0,-3.136l-1.268,0l0,1.895l0,0Zm12.379,0l-4.763,0l0,-12.134l1.61,0l0,-1.068l-5.637,0l0,1.068l1.616,0l0,12.295l-1.616,0l0,1.08l10.048,0l0,-3.136l-1.258,0l0,1.895l0,0Zm-68.401,-12.134l1.849,0l-3.104,5.12l-3.335,-5.12l1.674,0l0,-1.068l-5.832,0l0,1.068l1.302,0l4.392,6.753l0,5.542l-1.609,0l0,1.08l5.633,0l0,-1.08l-1.63,0l0,-5.669l4.061,-6.626l1.171,0l0,-1.068l-4.572,0l0,1.068l0,0Zm-29.554,5.75c1.371,-0.39 2.65,-1.458 2.65,-3.166c0,-2.219 -1.646,-3.652 -4.201,-3.652l-6.631,0l0,1.068l1.609,0l0,12.295l-1.609,0l0,1.08l7.01,0c2.705,0 4.511,-1.537 4.511,-3.832c0,-2.268 -1.629,-3.421 -3.339,-3.793m-4.156,-5.557l1.771,0c0.94,0 2.515,0.324 2.515,2.476c0,1.787 -1.323,2.591 -2.632,2.591l-1.654,0l0,-5.067Zm1.851,11.941l-1.851,0l0,-5.626l1.851,0c1.925,0 3.169,1.149 3.169,2.926c0,1.989 -1.703,2.7 -3.169,2.7m17.413,-12.134l1.636,0l0,9.158l-7.477,-10.226l-3.734,0l0,1.068l1.543,0l0.51,0.724l0,11.576l-1.632,0l0,1.075l4.614,0l0,-1.075l-1.625,0l0,-9.734l8.028,11.05l1.123,0l0,-13.616l1.61,0l0,-1.068l-4.596,0l0,1.068Z" style="fill:#fff;fill-rule:nonzero;"/></svg>