<?xml version="1.0" encoding="UTF-8" standalone="no"?><!DOCTYPE svg PUBLIC "-//W3C//DTD SVG 1.1//EN" "http://www.w3.org/Graphics/SVG/1.1/DTD/svg11.dtd"><svg width="100%" height="100%" viewBox="0 0 230 150" version="1.1" xmlns="http://www.w3.org/2000/svg" xmlns:xlink="http://www.w3.org/1999/xlink" xml:space="preserve" style="fill-rule:evenodd;clip-rule:evenodd;stroke-linejoin:round;stroke-miterlimit:1.41421;"><rect id="o3.-logo.-state" x="-0.168" y="0.009" width="230" height="150" style="fill:none;"/><path d="M208.127,88.665c0,0.878 -0.68,1.56 -1.56,1.56c-0.877,0 -1.56,-0.682 -1.56,-1.56c0,-0.886 0.683,-1.561 1.56,-1.561c0.88,0 1.56,0.675 1.56,1.561m-2.881,0c0,0.734 0.566,1.318 1.321,1.318c0.755,0 1.32,-0.584 1.32,-1.318c0,-0.756 -0.564,-1.339 -1.32,-1.339c-0.755,-0.001 -1.321,0.583 -1.321,1.339m0.975,0.903l-0.22,0l0,-1.812l0.686,0c0.409,0 0.587,0.171 0.587,0.493c0,0.334 -0.209,0.482 -0.452,0.509l0.54,0.81l-0.261,0l-0.509,-0.81l-0.371,0l0,0.81Zm0.293,-0.985c0.265,0 0.544,-0.016 0.544,-0.334c0,-0.241 -0.209,-0.305 -0.431,-0.305l-0.406,0l0,0.639l0.293,0" style="fill:#fff;fill-rule:nonzero;"/><path d="M205.829,77.963c-0.311,-1.393 -0.974,-2.02 -3.199,-2.02l-1.034,0l0,11.43c0,1.757 0.481,2.291 2.103,2.291l0,0.462l-6.739,0l0,-0.462c1.581,0 2.071,-0.534 2.071,-2.291l0,-11.43l-1.035,0c-2.216,0 -2.865,0.627 -3.168,2.02l-0.454,0l0,-2.962l11.881,0l0,2.962m-23.729,12.163l0,-0.462c1.576,0 2.1,-0.534 2.1,-2.291l0,-9.62c0,-1.771 -0.524,-2.298 -2.1,-2.298l0,-0.454l10.847,0l0,2.962l-0.433,0c-0.308,-1.393 -0.943,-2.02 -3.163,-2.02l-1.287,0c-1.118,0 -1.362,0.586 -1.362,1.865l0,3.844l2.614,0c1.22,0 1.611,-0.641 1.766,-1.555l0.425,0l0,4.321l-0.425,0c-0.155,-0.889 -0.546,-1.611 -1.766,-1.611l-2.614,0l0,4.712c0,1.532 0.174,1.656 1.362,1.656l2.078,0c1.798,0 2.746,-0.884 2.919,-2.073l0.424,0l0,3.024l-11.385,0l0,0Zm-15.66,0l-4.604,-7.952c2.078,-0.1 3.965,-1.074 3.965,-3.183c0,-2.222 -1.403,-3.049 -3.229,-3.049c-1.284,0 -1.586,0.183 -1.586,1.512l0,9.87c0,1.752 0.517,2.339 2.101,2.339l0,0.463l-6.732,0l0,-0.463c1.583,0 2.104,-0.587 2.104,-2.339l0,-9.6c0,-1.195 -0.031,-2.269 -1.644,-2.269l0,-0.454l5.756,0c2.957,0 5.817,0.734 5.817,3.749c0,2.623 -2.248,3.619 -3.598,3.882l3.018,4.933c0.852,1.373 1.189,2.099 2.377,2.099c1.399,0 1.739,-0.747 1.739,-2.321l0,-9.59c0,-1.771 -0.523,-2.298 -2.109,-2.298l0,-0.454l10.884,0l0,2.962l-0.466,0c-0.297,-1.393 -0.907,-2.021 -3.157,-2.021l-1.285,0c-1.136,0 -1.37,0.587 -1.37,1.866l0,3.843l2.612,0c1.226,0 1.621,-0.641 1.807,-1.554l0.394,0l0,4.32l-0.394,0c-0.15,-0.888 -0.581,-1.61 -1.807,-1.61l-2.612,0l0,4.712c0,1.531 0.185,1.656 1.37,1.656l2.072,0c1.791,0 2.732,-0.885 2.956,-2.073l0.427,0l0,3.024l-14.806,0l0,0Zm-10.597,-12.163c-0.316,-1.393 -0.952,-2.02 -3.172,-2.02l-1.038,0l0,11.43c0,1.757 0.49,2.291 2.069,2.291l0,0.462l-6.725,0l0,-0.462c1.61,0 2.105,-0.534 2.105,-2.291l0,-11.43l-1.045,0c-2.22,0 -2.896,0.627 -3.196,2.02l-0.432,0l0,-2.962l11.879,0l0,2.962l-0.445,0Zm-18.246,12.63c-2.204,0 -4.062,-0.634 -5.042,-0.995l0,-3.57l0.473,0c0.442,1.684 1.422,3.278 4.722,3.278c2.398,0 4.075,-1.295 4.017,-3.278c-0.067,-2.107 -1.551,-3.195 -4.66,-4.684c-3.419,-1.644 -4.512,-3.263 -4.486,-5.263c0,-3.228 2.592,-4.863 6.395,-4.863c1.863,0 3.506,0.381 4.388,0.661l0,3.122l-0.427,0c-0.244,-1.513 -1.523,-2.551 -3.961,-2.522c-2.221,0.026 -3.687,1.043 -3.77,2.803c-0.096,1.628 0.976,2.526 2.893,3.441c4.446,2.098 6.059,3.451 6.247,6.179c0.211,3.416 -2.293,5.691 -6.789,5.691m-22.553,-0.467l0,-0.462c1.585,0 2.136,-0.534 2.136,-2.291l0,-9.62c0,-1.771 -0.551,-2.298 -2.136,-2.298l0,-0.454l10.873,0l0,2.962l-0.45,0c-0.286,-1.393 -0.92,-2.02 -3.138,-2.02l-1.314,0c-1.09,0 -1.371,0.586 -1.371,1.865l0,3.844l2.616,0c1.218,0 1.649,-0.641 1.808,-1.555l0.423,0l0,4.321l-0.423,0c-0.158,-0.889 -0.549,-1.611 -1.808,-1.611l-2.616,0l0,4.712c0,1.532 0.18,1.656 1.371,1.656l2.104,0c1.792,0 2.742,-0.884 2.927,-2.073l0.431,0l0,3.024l-11.433,0l0,0Zm-1.005,-12.163c-0.27,-1.393 -0.939,-2.02 -3.17,-2.02l-1.025,0l0,11.43c0,1.757 0.477,2.291 2.063,2.291l0,0.462l-6.732,0l0,-0.462c1.616,0 2.1,-0.534 2.1,-2.291l0,-11.43l-1.038,0c-2.221,0 -2.886,0.627 -3.201,2.02l-0.41,0l0,-2.962l11.873,0l0,2.962l-0.46,0Zm-15.749,12.163l0,-0.462c0.878,0 1.553,-0.22 1.553,-0.906c0,-0.279 -0.059,-0.618 -0.218,-0.995l-0.795,-2.299l-5.692,0l-0.729,2.033c-0.119,0.333 -0.279,0.794 -0.279,1.15c0,0.659 0.279,1.017 1.436,1.017l0,0.462l-4.695,0l0,-0.462c1.195,0 1.583,-0.829 2.222,-2.562l4.458,-12.101l2.098,0l4.542,12.461c0.606,1.615 0.845,2.136 2.283,2.202l0,0.462l-6.184,0l0,0Zm-8.066,-12.163c-0.317,-1.393 -0.952,-2.02 -3.175,-2.02l-1.041,0l0,11.43c0,1.757 0.492,2.291 2.083,2.291l0,0.462l-6.738,0l0,-0.462c1.582,0 2.072,-0.534 2.072,-2.291l0,-11.43l-1.006,0c-2.26,0 -2.898,0.627 -3.2,2.02l-0.458,0l0,-2.962l11.91,0l0,2.962l-0.447,0Zm-18.26,12.63c-2.192,0 -4.051,-0.634 -5.026,-0.995l0,-3.57l0.468,0c0.447,1.684 1.423,3.278 4.721,3.278c2.401,0 4.075,-1.295 4.015,-3.278c-0.061,-2.107 -1.553,-3.195 -4.661,-4.684c-3.418,-1.644 -4.505,-3.263 -4.481,-5.263c0,-3.228 2.594,-4.863 6.402,-4.863c1.864,0 3.503,0.381 4.39,0.661l0,3.122l-0.434,0c-0.238,-1.513 -1.518,-2.551 -3.956,-2.522c-2.223,0.026 -3.686,1.043 -3.776,2.803c-0.105,1.628 0.966,2.526 2.896,3.441c4.448,2.098 6.064,3.451 6.238,6.179c0.218,3.416 -2.279,5.691 -6.796,5.691m24.076,-13.09l-2.44,6.708l4.78,0l-2.34,-6.708Z" style="fill:#fff;fill-rule:nonzero;"/><path d="M24.568,94.895c-0.745,-0.239 -2.076,-0.475 -3.03,-0.629l0,0.992c0.545,-0.086 1.158,-0.139 1.546,-0.103c-0.295,0.052 -0.94,0.156 -1.546,0.257l0,0.287l6.45,0c-0.946,-0.209 -1.685,-0.361 -2.079,-0.422c-1.676,-0.279 -1.504,-0.286 -1.341,-0.382" style="fill:#fff;fill-rule:nonzero;"/><path d="M21.837,81.916c0,0 -0.119,-0.01 -0.299,-0.021l0,0.301c0.215,0 0.335,0.015 0.335,0.015" style="fill:#fff;fill-rule:nonzero;"/><path d="M21.623,80.265c-0.033,0 -0.055,0 -0.085,-0.008l0,0.386c0.109,0 0.171,0.009 0.171,0.009" style="fill:#fff;fill-rule:nonzero;"/><path d="M21.773,81.062c-0.064,-0.01 -0.139,-0.01 -0.234,-0.019l0,0.327c0.17,0.012 0.269,0.02 0.269,0.02" style="fill:#fff;fill-rule:nonzero;"/><path d="M25.943,72.449l0.178,-0.57c0,0 -0.769,0 -1.626,0.027c-0.827,0.068 -2.256,0.246 -2.957,0.101l0,0.424c0.055,-0.007 0.13,-0.018 0.18,-0.034c1.486,-0.254 4.225,0.052 4.225,0.052" style="fill:#fff;fill-rule:nonzero;"/><path d="M26.188,71.661l0.153,-0.567c0,0 -0.337,0 -1.404,0.036c-0.968,0.037 -2.792,0.152 -3.398,0.083l0,0.407c0.784,-0.077 1.554,-0.104 2.179,-0.104c1.404,-0.001 2.47,0.145 2.47,0.145" style="fill:#fff;fill-rule:nonzero;"/><path d="M26.341,70.862c0.083,-0.107 0.03,-0.564 0.03,-0.564c-0.367,-0.066 -1.17,-0.038 -2.182,0.123c-0.852,0.127 -1.884,0.187 -2.65,0.103l0,0.403c1.238,-0.143 3.862,-0.172 4.802,-0.065" style="fill:#fff;fill-rule:nonzero;"/><path d="M26.452,69.997c0,0 0.147,-0.416 -0.294,-0.605c0,0 -0.55,0.059 -2.44,0.189c-1.166,0.095 -1.791,0.164 -2.179,0.171l0,0.302c1.425,-0.189 4.015,-0.309 4.913,-0.057" style="fill:#fff;fill-rule:nonzero;"/><path d="M23.162,76.364l0.162,-0.521c0,0 -0.12,-0.132 -1.372,0.138c-0.139,0.029 -0.281,0.046 -0.413,0.062l0,0.328c0.888,-0.033 1.623,-0.007 1.623,-0.007" style="fill:#fff;fill-rule:nonzero;"/><path d="M22.914,77.069l0.144,-0.415c-0.387,0 -0.929,0.064 -1.519,0.122l0,0.293c0.628,-0.033 1.375,0 1.375,0" style="fill:#fff;fill-rule:nonzero;"/><path d="M25.122,79.288c0,0 -1.96,-0.828 -2.694,-0.748c0,0 1.29,-0.114 2.694,0.594l-0.185,-0.645l-2.245,-0.441c0,0 0.098,0.441 -0.421,0.224c-0.124,0.146 -0.388,0.146 -0.733,0.146l0,0.363c1.461,0.061 3.07,0.395 3.663,0.843" style="fill:#fff;fill-rule:nonzero;"/><path d="M22.455,78.113l0.335,-0.739c-0.101,0.094 -0.604,0.198 -1.252,0.282l0,0.382c0.701,0 0.917,0.075 0.917,0.075" style="fill:#fff;fill-rule:nonzero;"/><path d="M23.388,75.522l0.072,-0.573c-0.282,-0.017 -1.128,0.084 -1.921,0.228l0,0.363c1.119,-0.12 1.849,-0.018 1.849,-0.018" style="fill:#fff;fill-rule:nonzero;"/><path d="M21.809,83.772c-0.054,-0.021 -0.15,-0.033 -0.271,-0.068l0,0.381c0.114,0.014 0.181,0.024 0.181,0.024" style="fill:#fff;fill-rule:nonzero;"/><path d="M21.686,84.629c0,0 -0.052,0 -0.147,-0.018l0,0.347l0.05,0" style="fill:#fff;fill-rule:nonzero;"/><path d="M23.46,74.858c0,0 0.114,-0.58 -0.184,-0.639c0,0 -1.015,0.041 -1.737,0.097l0,0.392c0.932,-0.074 1.731,-0.057 1.921,0.15" style="fill:#fff;fill-rule:nonzero;"/><path d="M21.846,82.838c0,0 -0.07,0 -0.307,-0.018l0,0.354c0.171,0.029 0.275,0.061 0.275,0.061" style="fill:#fff;fill-rule:nonzero;"/><path d="M25.278,80.593l-0.044,-0.563c0,0 -1.701,-0.484 -3.096,-0.774c-0.242,-0.053 -0.429,-0.086 -0.6,-0.123l0,0.265l0.176,0.419c0.229,-0.045 3.564,0.776 3.564,0.776" style="fill:#fff;fill-rule:nonzero;"/><path d="M25.048,58.534c2.027,0.02 4.955,0 6.608,-0.05c1.662,-0.031 3.153,0.171 3.153,0.171l0.465,-0.626c-0.257,-0.041 -1.239,0.058 -2.208,0.163c-0.959,0.109 -2.148,0.022 -2.245,-0.204c-1.424,0.077 -7.4,0.135 -9.282,0.107l0,0.438c1.4,-0.031 2.722,-0.022 3.509,0.001" style="fill:#fff;fill-rule:nonzero;"/><path d="M26.657,59.15c1.595,-0.088 3.932,0.131 5.298,0.131c1.363,0 2.403,0.242 2.403,0.242c0.015,-0.08 0.04,-0.149 0.072,-0.233l5.252,2.667c-2.252,-2.127 -4.513,-2.93 -5.064,-3.095c-0.558,-0.068 -1.808,0.034 -2.48,0.07c-0.659,0.033 -1.288,0.095 -1.773,-0.138c-1.104,0.044 -5.466,0 -6.791,0c-0.417,0 -1.153,0.019 -2.037,0.026l0,0.46c1.49,0.001 3.537,-0.072 5.12,-0.13" style="fill:#fff;fill-rule:nonzero;"/><path d="M25.166,60.09c1.801,-0.095 5.062,-0.062 6.648,-0.062c1.578,0 2.359,0.201 2.359,0.201c0.081,-0.201 0.152,-0.458 0.152,-0.458c-0.563,-0.162 -1.221,-0.196 -2.032,-0.077c-0.814,0.123 -1.336,0.077 -1.824,-0.149c-0.397,0 -2.059,-0.074 -3.58,0c-1.507,0.064 -3.542,0.139 -4.691,0.087c-0.171,0 -0.387,0 -0.659,-0.007l0,0.421c1.273,0.044 2.57,0.078 3.627,0.044" style="fill:#fff;fill-rule:nonzero;"/><path d="M27.411,60.741c0.846,0 2.143,0.032 2.955,0.074c0.806,0.045 1.674,-0.074 3.44,0.202c0,0 0.228,-0.303 0.255,-0.495c0,0 -0.889,-0.266 -1.738,-0.146c-0.844,0.112 -1.181,0.173 -1.617,0.112c-0.444,-0.077 -0.415,-0.164 -0.963,-0.164c-0.561,0 -3.663,0.128 -4.874,0.087c-0.68,-0.027 -2.022,-0.027 -3.331,0l0,0.397c0.174,0 0.335,0 0.483,0.007c1.072,0.067 4.543,-0.074 5.39,-0.074" style="fill:#fff;fill-rule:nonzero;"/><path d="M25.608,61.576l5.349,0c1.523,0 2.435,0.174 2.435,0.174l0.305,-0.474c-0.779,-0.235 -1.884,-0.113 -2.658,-0.037c-0.776,0.085 -1.341,0.111 -1.561,-0.154c-0.804,0 -3.319,-0.043 -4.355,0c-0.671,0.016 -2.16,0.004 -3.584,0.042l0,0.441c1.488,-0.001 3.005,0.008 4.069,0.008" style="fill:#fff;fill-rule:nonzero;"/><path d="M27.377,68.317l0.185,-0.427c0,0 -2.26,-0.122 -4.87,0.153l-0.827,-0.153c0,0 -0.128,0 -0.327,0.027l0,0.534c0.235,-0.025 0.441,-0.036 0.629,-0.061c1.877,-0.198 4.69,-0.274 5.21,-0.073" style="fill:#fff;fill-rule:nonzero;"/><path d="M27.634,65.149c1.739,-0.044 3.071,0.182 3.071,0.182c0.066,-0.106 0.146,-0.335 0.146,-0.335c0,0 -3.07,-0.344 -4.207,-0.192c-1.158,0.167 -1.997,0.192 -2.332,0c0,0 -1.117,0.062 -2.184,0.12c-0.16,0 -0.353,0.02 -0.589,0.027l0,0.357c0.215,0 0.429,-0.02 0.628,-0.02c1.877,0.001 3.731,-0.103 5.467,-0.139" style="fill:#fff;fill-rule:nonzero;"/><path d="M26.013,69.116l0.032,0.25l0.378,0.026c0,0 7.415,3.584 7.611,3.387c-0.822,-1.995 -4.773,-4.293 -6.507,-3.567l-0.224,-0.019l0.744,-0.656l-0.485,-0.147l-0.333,0.794l-0.159,-0.025l0.19,-0.622c0,0 -0.616,0 -1.475,0.078c-1.232,0.103 -3.29,0.219 -3.647,0.017c-0.186,0.046 -0.385,0.076 -0.6,0.095l0,0.514c0.999,-0.115 1.854,-0.213 2.293,-0.223c0.722,-0.038 1.551,0.01 2.182,0.098m2.037,0.361c0.116,-0.024 1.229,0.097 1.737,0.374c0.82,0.447 3.433,2.194 3.433,2.194c0,0 0,0.068 -0.048,0.118l-0.063,0.072l-0.07,-0.053c-0.009,-0.019 -0.622,-0.44 -1.767,-0.994l-1.485,-0.702l-1.884,-0.939c0,0 0.036,-0.05 0.147,-0.07" style="fill:#fff;fill-rule:nonzero;"/><path d="M29.924,62.25c1.406,0 2.958,0.267 2.958,0.267l0.364,-0.492c-0.484,-0.147 -1.739,-0.066 -2.54,-0.044c-0.821,0.044 -1.248,0.079 -1.626,-0.191c-0.94,0.045 -1.928,0.088 -3.035,0.088c-1.043,0 -3.146,0.023 -4.507,0.059l0,0.389c1.069,-0.015 2.255,-0.023 3.332,-0.023c1.659,0 3.659,-0.053 5.054,-0.053" style="fill:#fff;fill-rule:nonzero;"/><path d="M28.38,64.503c1.692,0.086 2.659,0.2 2.659,0.2c0.224,-0.114 0.289,-0.459 0.289,-0.459c-0.672,0 -2.248,-0.088 -2.884,-0.144c-0.622,-0.082 -2.073,-0.033 -2.993,0.117c-0.918,0.13 -1.139,0.027 -1.218,-0.199c-0.336,0.096 -1.385,0.049 -2.695,0.137l0,0.479c0.846,-0.019 1.651,-0.037 2.22,-0.046c1.29,-0.059 2.926,-0.157 4.622,-0.085" style="fill:#fff;fill-rule:nonzero;"/><path d="M29.635,66.89c-0.888,-0.199 -1.107,-0.157 -1.107,-0.157l0.873,0.402" style="fill:#fff;fill-rule:nonzero;"/><path d="M28.081,67.372l-0.067,0.135l0.733,0.26l0.333,-0.319" style="fill:#fff;fill-rule:nonzero;"/><path d="M27.679,68.192l0.428,0.223l0.421,-0.397l-0.706,-0.127" style="fill:#fff;fill-rule:nonzero;"/><path d="M37.939,58.191l-0.738,0.023l0.593,0.238" style="fill:#fff;fill-rule:nonzero;"/><path d="M37.683,58.707l-1.33,-0.154l1.144,0.542" style="fill:#fff;fill-rule:nonzero;"/><path d="M40.117,61.118c0,0 -0.88,-0.967 -1.364,-1.089c-0.481,-0.12 -0.937,-0.456 -1.432,-0.69l0.062,-0.141c0,0 -1.433,-0.359 -2.069,-0.301c0,0 1.184,0.505 1.958,0.919c0.78,0.413 2.034,1.302 2.519,1.908c0,0 0.225,-0.271 0.326,-0.606" style="fill:#fff;fill-rule:nonzero;"/><path d="M40.191,60.859c0,0 0.188,-0.233 0.188,-0.63c-0.561,-0.536 -1.41,-0.828 -2.515,-0.993c0,0 1.443,0.707 2.327,1.623" style="fill:#fff;fill-rule:nonzero;"/><path d="M39.602,62.222c0,0 -0.99,-0.343 -1.628,-0.387l1.416,0.786" style="fill:#fff;fill-rule:nonzero;"/><path d="M39.306,62.785c-0.664,-0.243 -1.808,-0.312 -1.808,-0.312l1.401,0.751" style="fill:#fff;fill-rule:nonzero;"/><path d="M36.315,61.959l-0.335,0l0.297,0.101" style="fill:#fff;fill-rule:nonzero;"/><path d="M36.169,62.447l-0.894,-0.092l0.78,0.267" style="fill:#fff;fill-rule:nonzero;"/><path d="M35.95,63.009c-0.78,-0.285 -1.482,-0.223 -1.482,-0.223c0.412,0.022 1.33,0.476 1.33,0.476" style="fill:#fff;fill-rule:nonzero;"/><path d="M38.338,63.897c-0.586,-0.207 -1.7,-0.579 -2.318,-0.484c0.996,0.22 2.217,1.558 2.217,1.558l0.292,-0.991l-0.011,0l0.272,-0.531c-1.18,-0.568 -1.917,-0.44 -1.917,-0.44c0.879,0.294 1.287,0.681 1.465,0.888" style="fill:#fff;fill-rule:nonzero;"/><path d="M37.752,65.972l0.378,-0.614c-0.632,-1.202 -3.184,-2.348 -4.958,-2.134c2.19,0.382 3.73,1.615 4.58,2.748" style="fill:#fff;fill-rule:nonzero;"/><path d="M43.328,62.942c-0.804,-0.425 -2.245,-0.277 -2.245,-0.277c0.438,0.035 2.102,0.715 2.102,0.715" style="fill:#fff;fill-rule:nonzero;"/><path d="M43.516,62.326c-0.698,-0.241 -1.437,-0.104 -1.437,-0.104c0.218,0 1.298,0.477 1.298,0.477" style="fill:#fff;fill-rule:nonzero;"/><path d="M43.589,61.79c-0.211,-0.101 -0.812,0 -0.812,0l0.738,0.235" style="fill:#fff;fill-rule:nonzero;"/><path d="M46.546,63.303c-0.258,-0.079 -0.664,-0.112 -0.664,-0.112l0.622,0.338" style="fill:#fff;fill-rule:nonzero;"/><path d="M46.443,63.907c-0.496,-0.217 -1.37,-0.458 -1.37,-0.458l1.215,0.841" style="fill:#fff;fill-rule:nonzero;"/><path d="M41.373,66.514l-0.55,0.177l0.409,0.087" style="fill:#fff;fill-rule:nonzero;"/><path d="M41.119,67.058c-0.408,-0.075 -1.146,0.078 -1.146,0.078l0.914,0.271" style="fill:#fff;fill-rule:nonzero;"/><path d="M40.78,67.662c-0.474,-0.117 -1.775,-0.076 -1.775,-0.076l1.522,0.432" style="fill:#fff;fill-rule:nonzero;"/><path d="M37.816,68.115l2.2,0.612l0.289,-0.412c-0.849,-0.273 -2.489,-0.2 -2.489,-0.2" style="fill:#fff;fill-rule:nonzero;"/><path d="M44.22,67.481c-0.228,-0.033 -0.593,0.064 -0.593,0.064l0.45,0.164" style="fill:#fff;fill-rule:nonzero;"/><path d="M43.992,68.042c-0.365,-0.052 -1.234,0 -1.234,0l0.982,0.348" style="fill:#fff;fill-rule:nonzero;"/><path d="M43.627,68.632c-0.586,-0.095 -1.732,-0.149 -1.732,-0.149l1.51,0.572" style="fill:#fff;fill-rule:nonzero;"/><path d="M45.947,69.018c-0.286,-0.075 -0.729,0 -0.729,0l0.703,0.348" style="fill:#fff;fill-rule:nonzero;"/><path d="M48.289,77.665l2.212,1.374l-0.332,-0.614l-1.152,-0.716" style="fill:#fff;fill-rule:nonzero;"/><path d="M48.462,78.728c0.901,0.224 2.559,1.466 2.559,1.466l0.103,-0.074l-0.225,-0.192l-0.258,-0.606c-0.657,-0.561 -1.688,-0.751 -2.179,-0.594" style="fill:#fff;fill-rule:nonzero;"/><path d="M46.143,74.409l-0.671,-0.26c0,0 -0.775,-0.127 -1.142,0.027c0,0 1.77,0.683 2.064,0.951" style="fill:#fff;fill-rule:nonzero;"/><path d="M37.135,66.949l0.25,-0.337c-0.665,-0.235 -1.507,-0.268 -1.507,-0.268" style="fill:#fff;fill-rule:nonzero;"/><path d="M36.757,67.508l0.222,-0.372c-0.372,-0.152 -1.402,-0.213 -1.402,-0.213" style="fill:#fff;fill-rule:nonzero;"/><path d="M36.209,68.115l0.322,-0.348c-0.698,-0.222 -1.328,-0.222 -1.328,-0.222" style="fill:#fff;fill-rule:nonzero;"/><path d="M35.727,68.632l0.328,-0.242c-0.523,-0.239 -1.333,-0.348 -1.333,-0.348" style="fill:#fff;fill-rule:nonzero;"/><path d="M35.314,69.211l0.262,-0.378c-0.631,-0.22 -1.443,-0.295 -1.443,-0.295" style="fill:#fff;fill-rule:nonzero;"/><path d="M32.735,68.017c0,0 0.369,0.024 0.51,0.173l0.147,-0.173c0,0 -0.442,-0.128 -0.657,0" style="fill:#fff;fill-rule:nonzero;"/><path d="M31.629,68.267l1.353,0.565l0.162,-0.373c0,0 -1.078,-0.417 -1.515,-0.192" style="fill:#fff;fill-rule:nonzero;"/><path d="M34.468,71.049c0,0 0.189,-0.627 0.109,-1.105c0,0 -1.473,-0.76 -1.816,-0.819l0.084,-0.109c0,0 -1.338,-0.533 -2.291,-0.533c-0.001,0.001 3.329,1.584 3.914,2.566" style="fill:#fff;fill-rule:nonzero;"/><path d="M34.392,71.281c0,0 -0.768,-0.921 -1.442,-1.085c-0.141,-0.025 -0.47,-0.513 -0.47,-0.513c0,0 -1.441,-0.849 -3.697,-0.824c0,0 3.719,0.688 5.35,3.539c0,0 0.371,-0.656 0.259,-1.117" style="fill:#fff;fill-rule:nonzero;"/><path d="M24.87,74.586l-0.965,0.121l0.657,0.283" style="fill:#fff;fill-rule:nonzero;"/><path d="M24.348,75.334l-0.703,-0.068l-0.07,0.154l0.589,0.225" style="fill:#fff;fill-rule:nonzero;"/><path d="M28.708,72.861c-0.18,-0.083 -0.451,0.088 -0.451,0.088c0,0 0.301,0.055 0.415,0.14c0,0 0.222,-0.14 0.036,-0.228" style="fill:#fff;fill-rule:nonzero;"/><path d="M28.625,73.424l-0.991,0.07l0.961,0.221" style="fill:#fff;fill-rule:nonzero;"/><path d="M28.444,74.15c-0.692,0.025 -1.618,0 -1.618,0l1.431,0.436" style="fill:#fff;fill-rule:nonzero;"/><path d="M33.549,73.494l0.213,-0.347c0,0 -3.76,-2.018 -4.361,-2.142l0.056,0.528c0,0.001 3.573,1.555 4.092,1.961" style="fill:#fff;fill-rule:nonzero;"/><path d="M32.041,73.52l0.171,-0.372l-0.851,0.09" style="fill:#fff;fill-rule:nonzero;"/><path d="M31.814,74.175l0.067,-0.367l-1.059,0.031" style="fill:#fff;fill-rule:nonzero;"/><path d="M31.446,74.806l0.141,-0.456c-0.324,-0.072 -1.441,-0.072 -1.441,-0.072" style="fill:#fff;fill-rule:nonzero;"/><path d="M33.584,73.807c-0.372,-0.166 -1.062,-0.166 -1.062,-0.166l0.622,0.344l0.247,0.122" style="fill:#fff;fill-rule:nonzero;"/><path d="M32.067,74.349c0.256,0.201 0.999,0.387 0.999,0.387l0.146,-0.327c-0.401,-0.259 -1.398,-0.234 -1.145,-0.06" style="fill:#fff;fill-rule:nonzero;"/><path d="M32.845,74.949c-0.737,-0.364 -1.399,-0.144 -1.399,-0.144l1.216,0.485" style="fill:#fff;fill-rule:nonzero;"/><path d="M32.139,76.027l0.411,-0.505c0,0 -0.07,-0.137 -0.51,-0.232c-0.453,-0.066 -0.41,-0.242 -0.826,-0.358c-0.394,-0.126 -2.468,-0.273 -2.068,-0.074c0.408,0.19 2.993,1.169 2.993,1.169" style="fill:#fff;fill-rule:nonzero;"/><path d="M31.984,76.204c0,0 -1.792,-0.914 -2.773,-0.938c-0.954,-0.043 -1.131,-0.559 -1.131,-0.559c0,0 -1.71,-0.187 -2.035,-0.121c0,0 4.873,1.777 5.87,2.119l-0.184,-0.239" style="fill:#fff;fill-rule:nonzero;"/><path d="M24.684,77.785c-0.254,-0.154 -1.339,-0.343 -1.658,-0.41l-0.154,0.447c0,0 1.292,0.081 1.998,0.525c0,0 0.067,-0.406 -0.186,-0.562" style="fill:#fff;fill-rule:nonzero;"/><path d="M21.783,80.265c0,0 0.062,0.413 0.112,0.42c0.428,0.052 2.075,0.405 3.393,0.856l-0.018,-0.595c0.001,0.001 -3.791,-0.951 -3.487,-0.681" style="fill:#fff;fill-rule:nonzero;"/><path d="M24.384,76.274l0.111,-0.146c0,0 1.112,0.259 2.033,0.425c0.923,0.152 2.845,0.843 3.993,1.35c1.135,0.494 2.797,0.858 3.175,1.161l0,-0.336c0,0 -1.924,-1.202 -3.917,-1.812c-1.998,-0.591 -4.139,-1.419 -5.431,-1.073l-0.473,0.673c-0.051,-0.058 -0.098,-0.137 -0.158,-0.191l0.292,-0.456l-0.476,-0.113l-0.187,0.63l0.486,0.2l0.15,0.218l-0.658,-0.218l-0.23,0.519l1.624,0.56c0,0 -0.431,-0.63 -0.814,-1.112l0.229,-0.086l0.101,0.255l9.498,2.824l0,-0.26c0,0 -3.504,-1.239 -4.143,-1.545c-0.62,-0.299 -4.719,-1.224 -5.205,-1.467" style="fill:#fff;fill-rule:nonzero;"/><path d="M39.045,77.374c3.62,0.568 6.173,2.106 6.173,2.106l0.034,-0.825c0,0 -0.724,-0.832 -3.974,-1.692c-3.246,-0.88 -6.886,-1.252 -8.954,-0.689c0.626,-0.022 3.105,0.529 6.721,1.1" style="fill:#fff;fill-rule:nonzero;"/><path d="M37.32,72.977c-0.229,0.066 -0.713,0.223 -0.713,0.223l0.593,0.058" style="fill:#fff;fill-rule:nonzero;"/><path d="M37.135,73.641c-0.481,-0.035 -1.156,0.197 -1.156,0.197l0.97,0.183" style="fill:#fff;fill-rule:nonzero;"/><path d="M36.831,74.474c-0.732,-0.066 -1.885,0.262 -1.885,0.262l1.623,0.213" style="fill:#fff;fill-rule:nonzero;"/><path d="M39.818,72.742l-0.256,0.155l0.296,0.079" style="fill:#fff;fill-rule:nonzero;"/><path d="M39.818,73.319l-0.773,0.175l0.746,0.191" style="fill:#fff;fill-rule:nonzero;"/><path d="M39.712,74.063c-0.744,-0.041 -1.626,0.112 -1.626,0.112l1.476,0.376" style="fill:#fff;fill-rule:nonzero;"/><path d="M39.192,75.497l0.301,-0.692c-1.407,-0.177 -2.513,0.241 -2.513,0.241" style="fill:#fff;fill-rule:nonzero;"/><path d="M42.555,74.247c0,0 -0.068,-0.072 -0.475,0l0.445,0.162" style="fill:#fff;fill-rule:nonzero;"/><path d="M42.404,74.932l-0.949,0.017l0.841,0.254" style="fill:#fff;fill-rule:nonzero;"/><path d="M45.109,76.422l-0.966,-0.441l-1.88,0.147l-0.295,-0.101l0.295,-0.529c-0.295,0.147 -2.003,0.213 -2.003,0.213c1.002,0.132 4.957,1.627 4.957,1.627" style="fill:#fff;fill-rule:nonzero;"/><path d="M45.029,75.455l-0.285,-0.164l-1.596,0.131l1.961,0.782" style="fill:#fff;fill-rule:nonzero;"/><path d="M45.217,77.596c-0.221,-0.2 -1.814,-0.875 -2.1,-0.875c-1.71,0 -1.369,-0.396 -1.369,-0.396l-0.991,-0.278l-1.788,0.08l0.118,-0.417c0,0 -0.269,-0.188 -1.034,-0.188c-1.596,0 -1.619,-0.369 -1.619,-0.369c-0.674,-0.067 -2.628,0.344 -2.628,0.344c3.174,0.185 9.012,1.268 11.445,2.849c0,0 0.189,-0.561 -0.034,-0.75" style="fill:#fff;fill-rule:nonzero;"/><path d="M37.385,79.398c0.627,-0.076 6.758,1.852 7.462,2.189l0.105,-0.713c0,0 -10.374,-2.645 -11.22,-3.089l0.074,0.193l1.839,0.973c0.41,0 1.304,0.182 1.74,0.447" style="fill:#fff;fill-rule:nonzero;"/><path d="M46.394,75.266l-1.321,-0.559l-1.294,0.099c0.672,0.053 2.918,1.242 2.918,1.242" style="fill:#fff;fill-rule:nonzero;"/><path d="M28.047,78.048c0,0 0.627,0.575 0.768,0.793c0,0 4.504,1.258 4.882,1.536l-0.044,-0.63c0,0 -4.803,-1.634 -5.606,-1.699" style="fill:#fff;fill-rule:nonzero;"/><path d="M29.182,79.747l-0.701,0l0.048,0.153l0.732,0.07" style="fill:#fff;fill-rule:nonzero;"/><path d="M32.108,80.376c0,0 -1.257,-0.058 -1.556,-0.044l1.489,0.476" style="fill:#fff;fill-rule:nonzero;"/><path d="M32.522,80.846l1.062,0.358l0.069,-0.525l-1.102,0.033" style="fill:#fff;fill-rule:nonzero;"/><path d="M29.401,80.846l-0.14,-0.443l-1.296,0.063" style="fill:#fff;fill-rule:nonzero;"/><path d="M31.984,81.186l-1.618,-0.097l3.026,1.024l0.192,-0.525l-1.477,-0.125" style="fill:#fff;fill-rule:nonzero;"/><path d="M29.301,81.587l0,-0.401l-1.807,-0.058" style="fill:#fff;fill-rule:nonzero;"/><path d="M29.745,81.697l3.528,1.203l0.104,-0.444c-1.534,-0.803 -3.632,-0.759 -3.632,-0.759" style="fill:#fff;fill-rule:nonzero;"/><path d="M29.301,81.896l-2.364,-0.12c0.815,0.035 6.046,1.917 6.046,1.917l0.189,-0.489c-0.362,-0.304 -2.133,-0.78 -3.024,-0.822c-0.887,-0.054 -0.847,-0.486 -0.847,-0.486" style="fill:#fff;fill-rule:nonzero;"/><path d="M28.969,82.553c-0.559,-0.096 -2.628,0 -2.628,0c1.221,0.166 6.394,1.925 6.394,1.925l0.215,-0.522l-2.548,-0.935c-1.553,0 -1.433,-0.468 -1.433,-0.468" style="fill:#fff;fill-rule:nonzero;"/><path d="M36.902,80.332l-0.219,0.311l0.266,0" style="fill:#fff;fill-rule:nonzero;"/><path d="M36.873,81.016l-1.113,0.346l0.962,0.084" style="fill:#fff;fill-rule:nonzero;"/><path d="M36.569,82.424l0.038,-0.613c-0.174,0.178 -1.662,0.517 -1.662,0.517" style="fill:#fff;fill-rule:nonzero;"/><path d="M41.035,83.235c-0.775,0 -1.432,-0.257 -1.432,-0.257c-0.598,-0.156 -3.249,0.12 -3.249,0.12l0.113,-0.461l-2.075,0.383c0,0 1.523,0.139 5.426,0.718c3.922,0.55 5.211,2.175 5.211,2.175l0.817,-0.373c-0.773,-1.061 -4.03,-2.305 -4.811,-2.305" style="fill:#fff;fill-rule:nonzero;"/><path d="M39.712,82.792l0.107,-0.723c-0.813,-0.138 -2.498,0.425 -2.498,0.425" style="fill:#fff;fill-rule:nonzero;"/><path d="M39.858,81.294l-1.134,0.359l1.134,0.191" style="fill:#fff;fill-rule:nonzero;"/><path d="M39.858,80.808l-0.364,0.208l0.399,0.046" style="fill:#fff;fill-rule:nonzero;"/><path d="M42.457,81.016l-1.083,0.187l1.031,0.299" style="fill:#fff;fill-rule:nonzero;"/><path d="M42.297,82.328l0.075,-0.584l-1.364,0.219" style="fill:#fff;fill-rule:nonzero;"/><path d="M44.518,82.176l0.248,-0.479c-0.839,-0.249 -1.916,-0.145 -1.916,-0.145" style="fill:#fff;fill-rule:nonzero;"/><path d="M44.085,82.666l0.3,-0.329c0,0 -1.057,-0.441 -1.928,-0.035c0,0 3.17,0.902 3.716,1.987l-0.252,0c-0.549,-0.517 -2.444,-1.569 -3.464,-1.652c-1.45,-0.611 -2.231,0.109 -2.231,0.109l1.007,0.297c3.033,0.497 4.79,2.422 4.79,2.422l0.674,-0.262c-0.337,-0.065 -0.222,-0.377 -0.222,-0.377l0.512,0.243l0.442,-0.124c-0.326,-0.05 -1.433,-0.533 -1.069,-0.715c0.367,-0.21 1.333,0.55 1.333,0.55l0.474,-0.151l-1.47,-0.633l-0.363,-0.571c-0.634,-0.281 -2.003,-0.632 -2.003,-0.632" style="fill:#fff;fill-rule:nonzero;"/><path d="M21.968,81.103l0.075,0.492c0,0 2.675,0.518 3.123,0.786l0.104,-0.569c0,0 -0.959,-0.271 -1.843,-0.46c-0.731,-0.166 -1.426,-0.225 -1.459,-0.249" style="fill:#fff;fill-rule:nonzero;"/><path d="M22.092,81.989l0.02,0.469c0,0 2.2,0.45 2.936,0.746l0.154,-0.567c-0.001,0 -3.329,-0.862 -3.11,-0.648" style="fill:#fff;fill-rule:nonzero;"/><path d="M22.126,82.746l-0.048,0.627c0,0 1.999,0.486 2.771,0.725c0,0 0.03,-0.214 0.093,-0.681c0,0 -2.364,-0.657 -2.816,-0.671" style="fill:#fff;fill-rule:nonzero;"/><path d="M25.823,83.235l5.624,1.762l1.104,-0.136c-4.471,-1.819 -6.728,-1.626 -6.728,-1.626" style="fill:#fff;fill-rule:nonzero;"/><path d="M45.472,76.364c0,0 1.365,0.704 1.593,0.937l-0.286,-0.914c0,0 -1.223,-0.818 -1.562,-0.889" style="fill:#fff;fill-rule:nonzero;"/><path d="M45.846,77.709l1.521,1.105c0,0 -0.049,-0.872 -0.226,-1.183c-0.186,-0.293 -1.585,-0.976 -1.585,-0.976" style="fill:#fff;fill-rule:nonzero;"/><path d="M48.768,83.956l-0.889,-0.531l-1.545,0c1.623,0.314 2.172,1.055 2.172,1.055l0.512,-0.16l-0.447,-0.3" style="fill:#fff;fill-rule:nonzero;"/><path d="M47.579,81.654l-0.853,0l0,0.157l1.329,0.683l0.049,0.191c-0.227,-0.132 -0.375,-0.191 -0.375,-0.191l-1.286,0.191c1.437,0.336 2.87,1.476 2.87,1.476l0.439,-0.104c-0.404,-0.08 -1.181,-0.553 -1.181,-0.553l-0.108,-0.361c0.222,0 1.522,0.774 1.522,0.774l0.545,-0.177c-0.519,-0.126 -1.53,-0.597 -2.183,-0.926l-0.02,-0.32c1.246,0.094 2.652,1.045 2.652,1.045l0.553,-0.165c-0.776,-0.396 -3.477,-1.442 -3.477,-1.442" style="fill:#fff;fill-rule:nonzero;"/><path d="M47.367,78.996c0,0 -1.034,-0.805 -1.42,-0.993l0.262,0.881c0,0 0.857,0.515 1.108,1.31l-0.215,0.044c0,0 -0.598,-0.952 -0.769,-1.063l0.141,0.923c0,0 0.561,0.22 0.697,0.523l-0.626,-0.155l0.181,0.513l0.74,0.411c0,0 0.451,0.073 0.525,0.354c0,0 1.916,0.245 3.951,1.415l0.397,-0.116c0,0 -1.584,-1.077 -4.865,-1.857c0,-0.477 0,-1.673 -0.107,-2.19" style="fill:#fff;fill-rule:nonzero;"/><path d="M29.383,62.733c-0.143,0 -0.247,0 -0.346,-0.009c-0.061,0.106 -0.115,0.226 -0.169,0.31c0.116,0 0.235,0.028 0.335,0.028c0.06,-0.111 0.12,-0.223 0.18,-0.329" style="fill:#fff;fill-rule:nonzero;"/><path d="M28.708,63.034c0.053,-0.128 0.12,-0.25 0.186,-0.364c-0.049,-0.021 -0.096,-0.055 -0.112,-0.128c-0.644,-0.025 -2.254,0.079 -2.959,0.182c-0.702,0.124 -0.993,0.084 -0.993,0.084l0.107,-0.213c-0.667,-0.045 -1.743,-0.053 -3.398,0l0,0.439c1.542,-0.008 3.198,-0.057 3.843,-0.066c0.707,-0.018 2.125,0.024 3.326,0.066" style="fill:#fff;fill-rule:nonzero;"/><path d="M31.546,63.709c0.913,0.226 4.602,2.031 5.981,2.72l0.114,-0.26c-1.287,-2.068 -4.273,-2.72 -5.458,-2.908l-0.04,0.058c-0.008,-0.016 -0.036,-0.049 -0.059,-0.058l0.099,0l0.479,-0.476c-0.479,-0.119 -1.216,-0.119 -2.193,-0.085c-0.34,0.008 -0.644,0.025 -0.904,0.034c-0.051,0.105 -0.128,0.217 -0.191,0.34c0.406,0.017 0.755,0.02 0.992,0.055c0.366,0.013 0.702,0.026 0.982,0.053l0.036,0.173c-0.317,0 -0.653,0.046 -1.46,0.094c-1.03,0.081 -1.48,-0.146 -2.245,-0.188c-0.79,-0.036 -1.634,0.243 -2.557,0.299c-0.089,0.012 -0.154,0.012 -0.224,0.012c-0.019,0.035 -0.039,0.101 -0.058,0.137c1.43,0 3.035,0.058 3.973,0.087c1.144,0.036 2.589,0.223 2.589,0.223c0.056,-0.102 0.098,-0.217 0.144,-0.31m5.108,1.692c0.177,0 0.177,0.192 0.177,0.192c-0.049,0 -0.133,-0.018 -0.232,-0.059l0.055,-0.133Zm-3.704,-1.636c0.6,0.144 2.412,0.823 3.219,1.385l-0.056,0.181c-0.864,-0.386 -2.23,-1.096 -2.824,-1.312c-0.137,-0.039 -0.259,-0.11 -0.379,-0.163l0.04,-0.091Z" style="fill:#fff;fill-rule:nonzero;"/><path d="M24.312,63.719c0.023,-0.113 0.094,-0.198 0.126,-0.293c-0.033,-0.082 0.024,-0.165 0.024,-0.165c-0.548,0 -1.821,0.059 -2.923,0.118l0,0.424c0.999,-0.036 1.855,-0.059 2.366,-0.084" style="fill:#fff;fill-rule:nonzero;"/><path d="M24.45,63.709c0.118,0 0.145,-0.019 0.283,-0.019c0.01,-0.057 0.034,-0.103 0.04,-0.138c-0.184,-0.008 -0.182,-0.008 -0.238,-0.059c-0.032,0.059 -0.066,0.121 -0.085,0.216" style="fill:#fff;fill-rule:nonzero;"/><path d="M33.622,78.489c0.14,0.196 -0.186,-1.002 -0.186,-1.002c0.186,0.179 1.926,0.492 1.926,0.492l-1.037,-0.719l0.035,-0.129l0.791,0.49l0.646,0.492c0.446,0.209 9.232,2.565 9.232,2.565l0,-0.147l-4.076,-1.243l0.116,-0.143c0.675,-0.042 4.041,1.121 4.041,1.121l0.044,-0.347l-0.103,0.087l-0.028,0.033l-0.047,-0.009c-0.036,-0.016 -3.538,-1.154 -4.312,-1.441l-0.064,-0.007l0.021,-0.07l0.043,-0.114l0.023,-0.076l0.068,0.009c0.146,0.061 3.683,1.278 4.389,1.471l0.03,0.016l0.007,-0.071c-0.887,-0.864 -2.573,-1.258 -4.193,-1.752c-1.375,-0.423 -2.362,-0.535 -3.051,-0.656c-4.454,-0.753 -6.023,-0.634 -6.023,-0.634l0.07,0.212c-0.213,0.076 -3.342,-1.036 -4.351,-1.419c-1.555,-0.604 -3.081,-0.113 -2.62,-0.113c1.587,0 7.735,2.083 8.609,3.104m4.527,-0.666l0.088,-0.038l0.509,0.053l0.033,0l0.012,0.008c0.245,0.122 1.264,0.33 1.27,0.33l0.056,0.015l0.008,0.039l0,0.162l0.004,0.032l-0.059,0.026c-0.118,0.029 -1.954,-0.483 -1.731,-0.413l-0.018,-0.008l-0.014,-0.026l-0.175,-0.035l0.017,-0.145Zm0.014,0.628l0.212,-0.059l0.032,-0.045l0.018,0.008l1.072,0.234l0.052,0.035l0.007,0.042l0.069,0.149l0.018,0.089l-0.094,-0.021c-0.192,-0.036 -1.051,-0.228 -1.4,-0.33l-0.062,-0.064l0.076,-0.038Zm-1.022,-1.076c0.121,0.059 0.75,0.448 0.75,0.448l0.017,0.08l-0.765,-0.435l-0.111,-0.093l0.109,0Zm-1.217,-0.141l0.086,0.026l0.037,-0.011l0.025,0.027l1.24,0.837l0.073,0.078l0.174,0.26l-1.652,-1.107l-0.114,-0.068l0.131,-0.042Z" style="fill:#fff;fill-rule:nonzero;"/><path d="M22.362,66.783c0.059,-0.119 0.109,-0.225 0.155,-0.32c-0.025,-0.015 -0.035,-0.033 -0.062,-0.086c-0.185,0.021 -0.504,0.035 -0.917,0.063l0,0.405c0.215,-0.016 0.413,-0.027 0.553,-0.046c0.095,0 0.18,-0.016 0.271,-0.016" style="fill:#fff;fill-rule:nonzero;"/><path d="M22.211,67.224c-0.034,-0.062 -0.009,-0.121 -0.009,-0.121c-0.131,0.025 -0.374,0.052 -0.664,0.077l0,0.528c0.199,-0.029 0.413,-0.046 0.606,-0.078c0.023,-0.15 0.042,-0.276 0.067,-0.406" style="fill:#fff;fill-rule:nonzero;"/><path d="M22.848,66.032c0.355,-0.319 0.663,-0.254 0.674,-0.254l0.01,0.02c0.017,0 0.027,0.027 0.027,0.042c0,0.013 -0.01,0.013 -0.027,0.013c-0.01,0 -0.209,0.007 -0.488,0.188c0.151,-0.009 0.279,-0.009 0.416,-0.034c1.187,-0.071 1.96,-0.098 3.397,-0.098c1.244,0 1.334,0.158 1.334,0.192l0.038,-0.26c0.74,0 1.655,0.734 1.655,0.734l0.229,-0.369l-0.189,-0.199l0.41,-0.071l0.187,-0.344c0,0 -0.887,0.044 -1.672,-0.069c-0.769,-0.123 -1.724,0 -3.093,0.069c-1.373,0.087 -1.478,-0.028 -1.478,-0.028c-0.486,0.028 -1.572,0.105 -2.74,0.14l0,0.432c0.404,-0.035 0.79,-0.05 1.196,-0.077" style="fill:#fff;fill-rule:nonzero;"/><path d="M22.269,67.632c0.115,-0.009 0.115,-0.045 0.213,-0.055c0.008,-0.086 0.032,-0.156 0.064,-0.223c-0.162,0 -0.154,-0.038 -0.213,-0.059c-0.027,0.102 -0.04,0.214 -0.064,0.337" style="fill:#fff;fill-rule:nonzero;"/><path d="M22.931,66.575c-0.19,0 -0.184,0 -0.283,-0.051c-0.041,0.077 -0.098,0.148 -0.135,0.255c0.144,0 0.144,-0.039 0.299,-0.039c0.044,-0.068 0.086,-0.128 0.119,-0.165" style="fill:#fff;fill-rule:nonzero;"/><path d="M22.974,67.33c-0.117,0.024 -0.223,0.024 -0.303,0.024c-0.03,0.067 -0.057,0.138 -0.065,0.223c0.552,-0.069 1.12,-0.119 1.778,-0.129c1.373,-0.041 3.25,0.139 3.25,0.139l0.221,-0.528c-0.813,-0.036 -3.95,0.148 -4.881,0.271" style="fill:#fff;fill-rule:nonzero;"/><path d="M27.965,66.799l0.143,-0.562c-0.581,-0.032 -2.907,0.076 -3.648,0.14c-0.416,0.052 -0.913,0.176 -1.329,0.199c-0.033,0.036 -0.074,0.089 -0.104,0.157c1.206,-0.08 2.571,-0.08 3.396,-0.08c1.028,0 1.542,0.146 1.542,0.146" style="fill:#fff;fill-rule:nonzero;"/><path d="M22.657,90.025c0.893,0.023 1.811,0.13 2.693,0.231c0.465,0.044 0.904,0.111 1.336,0.148c1.414,0.12 2.333,0.138 3.093,0.044c0.166,-0.035 0.333,-0.059 0.473,-0.059c-0.429,-0.089 -0.945,-0.113 -1.477,-0.174c-0.395,-0.026 -0.827,-0.078 -1.214,-0.122c-0.719,-0.079 -1.373,-0.123 -2.043,-0.146l-0.644,-0.008c-0.382,-0.011 -0.685,-0.051 -0.96,-0.087c-0.432,-0.061 -0.84,-0.128 -1.503,-0.087c-0.304,0.01 -0.598,0.01 -0.873,0.01l0,0.195c0.235,0.044 0.483,0.044 0.785,0.054" style="fill:#fff;fill-rule:nonzero;"/><path d="M23.323,57.024c1.172,-0.033 4.815,0 6.05,-0.033c0.668,-0.031 1.453,-0.009 2.182,0c0.08,-0.151 0.156,-0.254 0.231,-0.347c-0.063,-0.034 -0.13,-0.097 -0.157,-0.155c-0.923,0.075 -7.067,0.139 -9.574,0.075l-0.516,0l0,0.434c0.663,0.018 1.333,0.035 1.784,0.026" style="fill:#fff;fill-rule:nonzero;"/><path d="M26.045,57.764l4.101,0c1.146,0 2.404,-0.022 3.507,-0.022c1.119,0 1.85,0.071 1.85,0.071l0.413,-0.599c-0.459,0.072 -2.999,0.226 -3.669,0.298c-0.086,0.003 -0.18,0.003 -0.264,0.003c0,0.046 -0.022,0.082 -0.03,0.103c-0.005,0.006 -0.017,0.019 -0.038,0.03c-0.013,0.019 -0.039,0.019 -0.052,0.007c-0.021,-0.007 -0.045,-0.018 -0.047,-0.031c-0.002,-0.006 -0.009,-0.027 -0.002,-0.047c0.002,-0.016 0.004,-0.062 0.021,-0.086c-0.121,-0.007 -0.213,-0.036 -0.318,-0.062c-0.017,0.046 -0.03,0.086 -0.038,0.148c-0.012,0.027 -0.021,0.041 -0.038,0.047l-0.064,0c-0.016,0 -0.039,-0.02 -0.039,-0.027c-0.01,-0.021 -0.016,-0.036 -0.01,-0.082c0.02,-0.049 0.034,-0.086 0.057,-0.135c-0.15,-0.063 -0.241,-0.121 -0.241,-0.121c-0.323,0 -2.841,0.121 -4.123,0.121c-1.308,0 -3.817,-0.009 -5.335,-0.094l-0.147,0l0,0.479c1.076,0.048 3.109,-0.001 4.506,-0.001" style="fill:#fff;fill-rule:nonzero;"/><path d="M31.984,56.273l0.13,0c0.186,-0.183 0.317,-0.249 0.317,-0.249c0.028,-0.028 0.067,-0.028 0.096,0l0.01,0l0,0.026l0.008,0c0.013,0.022 0.005,0.066 -0.023,0.102c-0.021,0 -0.087,0.033 -0.176,0.121l0.251,0c0.247,-0.216 0.441,-0.249 0.478,-0.277l-0.314,0c-0.514,-0.035 -0.578,-0.284 -0.918,-0.249c-0.336,0.042 -4.707,0.018 -6.087,0.042c-0.594,0.009 -2.356,0.02 -4.217,0.024l0,0.451c2.129,-0.025 4.217,-0.045 4.991,-0.045c1.802,0 4.538,0.054 5.454,0.054" style="fill:#fff;fill-rule:nonzero;"/><path d="M36.315,56.411c-0.483,0 -2.33,0.275 -3.069,0.32c-0.317,0.006 -0.624,0.024 -0.879,0.016c-0.065,0.079 -0.104,0.156 -0.159,0.26c0.374,0 0.721,0 1.004,-0.017c0.962,-0.029 2.808,0 2.808,0" style="fill:#fff;fill-rule:nonzero;"/><path d="M31.731,56.997c0.102,0 0.205,0 0.312,0.01c0.037,-0.111 0.084,-0.199 0.14,-0.271c-0.099,-0.004 -0.178,-0.014 -0.257,-0.039c-0.063,0.079 -0.119,0.179 -0.195,0.3" style="fill:#fff;fill-rule:nonzero;"/><path d="M25.608,73.258l0.214,-0.542c-0.587,-0.077 -3.277,0 -4.283,0.181l0,0.251c0.516,-0.043 1.11,-0.078 1.737,-0.105c1.554,-0.039 2.332,0.215 2.332,0.215" style="fill:#fff;fill-rule:nonzero;"/><path d="M25.014,74.324l0.471,-0.874c-1.801,-0.25 -3.03,-0.026 -3.03,-0.026c-0.317,0.123 -0.631,0.217 -0.917,0.284l0,0.313c0.972,-0.035 1.85,-0.035 1.85,-0.035c-0.112,-0.637 1.626,0.338 1.626,0.338" style="fill:#fff;fill-rule:nonzero;"/><path d="M42.372,54.772c0.106,-0.2 0.242,-0.348 0.318,-0.451l-0.298,0c-0.036,0.054 -0.213,0.233 -0.345,0.451" style="fill:#fff;fill-rule:nonzero;"/><path d="M34.061,54.778c0.049,-0.13 0.116,-0.309 0.157,-0.389c0.021,-0.025 0.023,-0.031 0.04,-0.069l-0.315,0c-0.024,0.053 -0.056,0.095 -0.06,0.13c-0.034,0.052 -0.106,0.225 -0.137,0.328" style="fill:#fff;fill-rule:nonzero;"/><path d="M24.43,54.812c1.911,0 6.276,-0.041 7.049,-0.041c0.337,0 1.179,0 2.105,0.007c0.048,-0.148 0.112,-0.308 0.161,-0.39c0.009,-0.024 0.015,-0.029 0.028,-0.068l-12.234,0l0,0.492" style="fill:#fff;fill-rule:nonzero;"/><path d="M24.719,85.783l1.305,0.447c0,0 0.308,-0.152 0.464,-0.186c0.156,-0.078 0.69,-0.225 0.69,-0.225c0,0 -0.715,-0.3 -1.178,-0.396c-0.549,-0.1 -1.1,-0.186 -1.1,-0.186" style="fill:#fff;fill-rule:nonzero;"/><path d="M24.544,86.493l0.355,0.178l0.731,-0.368l-0.945,-0.337" style="fill:#fff;fill-rule:nonzero;"/><path d="M24.723,86.8l-0.235,-0.091l-0.195,0.56l1.211,0.397l-0.033,-0.268l-0.863,-0.327" style="fill:#fff;fill-rule:nonzero;"/><path d="M56.005,54.321l-13.084,0c-0.104,0.14 -0.263,0.345 -0.336,0.452c1.979,0 10.599,-0.037 13.42,-0.037" style="fill:#fff;fill-rule:nonzero;"/><path d="M56.005,55.047c-1.305,0.035 -2.785,0.077 -3.407,0.096c-1.11,0.04 -3.146,0.04 -3.645,0c-0.491,-0.038 -1.635,-0.202 -2.14,-0.122c-0.525,0.084 -1.078,0.162 -1.304,0.051c-0.213,-0.131 -0.257,-0.087 -0.512,-0.051c-0.252,0.051 -1.48,0.162 -2.395,0.189c-0.051,0.014 -0.094,0.014 -0.142,0.014c-0.033,0.1 -0.053,0.228 -0.06,0.296l0.233,0c1.952,-0.068 8.795,-0.043 9.895,-0.043c0.708,0 2.22,-0.026 3.477,-0.044" style="fill:#fff;fill-rule:nonzero;"/><path d="M56.005,74.135c-0.738,-0.279 -1.36,-0.494 -1.731,-0.552c-1.481,-0.329 -3.804,-0.813 -4.823,-1.316l-0.241,-0.518c1.067,0.76 2.425,0.722 4.802,1.377c0.642,0.179 1.313,0.387 1.993,0.635l0,-0.503c-0.82,-0.254 -1.548,-0.447 -2.069,-0.542c-1.48,-0.318 -2.886,-0.612 -3.917,-0.943c-0.611,-0.209 -0.898,-0.395 -1.053,-0.531l-0.169,-0.334c1.926,0.998 3.323,0.781 6.213,1.647c0.275,0.083 0.619,0.196 0.995,0.336l0,-0.501c-1.752,-0.546 -3.309,-0.819 -4.475,-1.004c-2.139,-0.355 -2.763,-0.759 -3.197,-1.182l0.003,-0.077c0.251,-0.122 0.494,0.059 0.95,0.242c1.044,0.493 4.433,1.052 6.343,1.537c0.122,0.069 0.264,0.087 0.376,0.127l0,-0.517c-0.978,-0.274 -2.028,-0.544 -3.14,-0.691c-2.796,-0.389 -3.182,-0.564 -3.954,-0.898c-0.212,-0.088 -0.379,-0.244 -0.488,-0.312l0.079,-0.232c0.169,0.139 0.379,0.251 0.6,0.3c0.729,0.244 3.323,0.781 4.646,0.962c0.542,0.076 1.32,0.252 2.257,0.516l0,-0.535c-0.527,-0.14 -1.061,-0.266 -1.552,-0.329c-1.89,-0.268 -4.801,-0.431 -5.936,-1.113l0.466,-0.167c0.739,0.167 2.701,0.598 4.065,0.808c1.163,0.143 1.953,0.18 2.957,0.447l0,-0.447c-1.052,-0.251 -2.125,-0.365 -2.7,-0.433c-0.777,-0.067 -3.07,-0.337 -3.622,-0.484c-0.546,-0.154 -0.222,-0.275 -0.886,-0.423c-0.62,-0.121 -0.78,-0.25 -1.198,-0.594c0,-0.009 0.006,-0.025 0.015,-0.025c1.647,0.682 4.823,1.13 7.69,1.499c0.248,0.027 0.474,0.07 0.701,0.111l0,-0.553c-0.896,-0.18 -1.845,-0.29 -2.957,-0.385c-2.911,-0.277 -4.521,-0.622 -5.293,-1.166c0.026,-0.069 0.043,-0.132 0.057,-0.209c1.179,0.664 3.883,0.966 6.597,1.226c0.584,0.061 1.099,0.114 1.596,0.197l0,-0.55c-1.658,-0.321 -3.074,-0.327 -4.399,-0.404c-2.42,-0.15 -3.191,-0.329 -3.683,-0.941c0.034,-0.108 0.049,-0.211 0.071,-0.293c0.677,0.625 3.056,0.897 4.533,0.932c1.194,0.042 2.354,0.162 3.477,0.413l0,-0.475c-1.198,-0.197 -2.438,-0.26 -3.773,-0.32c-3.045,-0.103 -3.729,-0.495 -4.148,-0.976c0.003,-0.051 0.026,-0.111 0.031,-0.147c0.934,0.572 3.364,0.758 5.087,0.829c1.052,0.037 1.977,0.128 2.803,0.257l0,-0.513c-1.078,-0.142 -2.135,-0.177 -3.139,-0.193c-2.448,-0.017 -3.998,-0.24 -4.691,-0.708c0.025,-0.148 0.047,-0.286 0.062,-0.397c1.305,0.613 2.853,0.679 5.962,0.873c0.683,0.033 1.269,0.087 1.806,0.144l0,-0.507c-1.421,-0.187 -2.668,-0.209 -3.407,-0.209c-1.473,0 -3.384,-0.071 -4.326,-0.597c0.018,-0.131 0.018,-0.216 0.018,-0.328c0.382,0.14 1.704,0.527 4.136,0.589c1.422,0.041 2.624,0.147 3.579,0.262l0,-0.489c-1.071,-0.09 -2.321,-0.203 -3.407,-0.213c-2.032,-0.036 -3.527,-0.122 -4.318,-0.469c0,-0.11 0.009,-0.238 0.029,-0.343c1.153,0.42 2.248,0.38 5.187,0.478c0.909,0.016 1.771,0.109 2.51,0.202l0,-0.456c-0.954,-0.095 -2.026,-0.157 -2.99,-0.163c-2.853,-0.072 -4.299,-0.107 -4.544,-0.445c0.158,-0.021 0.552,-0.074 1.393,-0.015c1.155,0.09 3.15,0 5.286,0.146c0.312,0.012 0.585,0.046 0.855,0.073l0,-0.433c-1.688,-0.137 -4.019,-0.01 -5.363,-0.045c-1.371,-0.025 -2.334,-0.204 -3.252,-0.258c-0.175,-0.093 -0.355,-0.196 -0.505,-0.266c0.614,0 4.95,0.07 6.375,0.155c0.834,0.023 1.826,0.063 2.745,0.122l0,-0.435c-2.069,-0.081 -5.734,-0.081 -6.76,-0.081c-1.253,0 -1.142,-0.22 -1.142,-0.22c-0.537,0.096 -1.658,0.096 -1.984,0.088c-0.115,-0.088 -0.232,-0.174 -0.347,-0.253c0.538,-0.016 2.249,-0.075 4.621,-0.024c1.938,0.06 4.082,0.103 5.612,0.154l0,-0.386c-1.851,-0.039 -4.925,-0.062 -6.174,-0.062c-1.589,0 -1.398,-0.235 -1.398,-0.235c-1.648,0.224 -2.992,0.182 -3.456,0.165c-0.147,-0.051 -0.291,-0.129 -0.442,-0.215l0.025,-0.079c0.743,-0.031 2.889,-0.06 3.796,-0.086c1.105,-0.035 4.034,0.086 5.243,0.149c0.644,0.04 1.538,0.04 2.406,0.049l0,-0.459c-0.679,-0.005 -1.677,-0.096 -2.839,-0.096c-0.741,0 -2.853,0.071 -3.633,0.071c-0.766,0 -0.913,-0.212 -0.913,-0.212c-0.475,-0.028 -1.345,0.12 -2.262,0.237c-0.471,0.053 -1.106,0.03 -1.728,-0.025l0.059,-0.372c0.364,0 0.72,0.01 1.009,0.01c1.115,0 3.835,-0.139 5.426,-0.069c1.251,0.059 3.376,0.1 4.881,0.12l0,-0.405c-0.538,-0.051 -0.919,-0.086 -1.668,-0.086c-1.077,0 -3.358,0.078 -4.684,0.078c-1.327,0 -1.327,-0.2 -1.327,-0.2c-0.334,-0.034 -1.546,0.096 -2.954,0.2c-0.197,0.008 -0.395,0.027 -0.619,0.027l0.077,-0.432c1.11,-0.026 2.278,-0.062 2.829,-0.053c1.068,0.046 5.94,0.138 7.39,0.138l0.956,0l0,-0.439l-5.431,0c-2.141,0 -2.47,-0.155 -2.769,-0.189c-0.294,-0.044 -2.404,0.243 -3.727,0.294l-1.926,0c-0.425,0 -0.929,-0.26 -1.144,-0.383l0.036,-0.058l2.033,0c1.033,0 2.996,-0.168 4.027,-0.105c1.042,0.028 5.238,0.067 6.645,0.067c0.835,-0.009 1.578,0 2.257,0.01l0,-0.369c-1.596,-0.019 -3.752,0.006 -5.25,0.006c-2.071,0 -2.399,-0.034 -2.912,-0.075c-0.525,-0.036 -2.471,0.075 -3.512,0.171c-0.918,0.058 -2.621,-0.096 -3.018,-0.121l0.016,-0.062l-0.683,-0.309c0.586,0.025 2.118,0.092 2.648,0.067c1.367,-0.084 4.024,-0.223 4.995,-0.153c0.956,0.069 5.096,0.153 6.606,0.153c0.325,0 0.705,0.008 1.11,0.008l0,-0.478c-0.978,0 -2.012,0 -3.029,0.021c-1.415,0.024 -3.585,0.122 -4.065,-0.021c-0.479,-0.18 -0.709,0.018 -1.069,0.018c-0.376,0 -2.889,-0.082 -4.549,0.027c-1.05,0.077 -3.169,-0.109 -3.659,-0.168l-0.295,-0.217c0,0 3.116,0.115 3.663,0.062c1.628,-0.106 3.286,-0.2 4.614,-0.154c1.336,0.049 6.357,0.112 7.762,0.112l0.626,0l0,-0.467c-0.351,0 -0.678,0 -0.92,0.014c-1.485,0.043 -3.431,0.115 -4.85,0.088c-1.404,-0.045 -1.355,-0.207 -1.355,-0.207c-0.524,-0.06 -3.507,0.119 -5.803,0.207c-0.591,0.02 -3.622,-0.102 -4.349,-0.128l0.067,-0.29c1.032,0.035 2.801,0.062 3.285,0.062c1.584,0 3.767,-0.127 5.06,-0.127c1.293,0 2.583,0 3.761,0.1c1.122,0.062 3.529,0.027 5.104,0l0,-0.431c-0.868,0 -1.835,0 -2.62,0.044c-1.339,0.075 -3.732,0.075 -4.099,0c-0.374,-0.077 -0.488,-0.103 -0.666,-0.103c-0.187,0 -1.078,0.026 -1.967,0.068c-0.881,0.035 -4.099,0.11 -5.618,0.11c-0.278,0 -1.237,-0.023 -2.165,-0.075l0.071,-0.284c1.486,0.014 3.374,0.014 3.981,0.014c1.259,0 4.291,-0.103 5.405,-0.058c1.097,0.024 5.763,0.024 7.085,0.024c0.141,0 0.337,0 0.593,-0.009l0,-0.411c-0.367,0.004 -0.594,0.024 -0.594,0.024c-1.179,0 -5.176,0.115 -5.838,0.115c-0.661,0 -0.805,-0.089 -0.918,-0.155c-0.122,-0.092 -0.892,-0.037 -1.842,0.04c-0.967,0.051 -1.258,0 -1.519,-0.04c-0.265,-0.037 -1.554,0.066 -3.181,0.155c-0.552,0.022 -1.258,-0.089 -1.951,-0.089c-0.289,0 -0.707,0.019 -1.157,0.025l0.082,-0.319c0.74,0 1.693,0.024 2.508,0.024l0.161,0c0.161,0 0.309,0 0.46,-0.024c0.012,-0.069 0.025,-0.198 0.047,-0.311c-0.161,-0.009 -0.291,-0.009 -0.407,-0.037l-0.167,-0.029c-0.179,-0.038 -0.308,-0.071 -0.426,-0.071c-0.184,0 -1.127,0.01 -2.081,0.025l0.066,-0.32c0.932,-0.006 1.912,-0.006 2.619,-0.006c0.166,-0.278 0.327,-0.413 0.327,-0.432c0.013,0 0.022,0 0.034,-0.019l-7.798,0c-0.032,0.054 -0.057,0.095 -0.068,0.129c-0.032,0.053 -0.104,0.226 -0.143,0.328c1.013,0.034 2.018,0.034 2.503,0.034c0.45,0 1.38,0 2.388,-0.034l-0.09,0.32c-0.323,0.008 -0.645,0.008 -0.934,0.008c-1.213,0 -3.883,0.159 -4.942,0.159c-1.078,0 -1.078,-0.192 -1.078,-0.192l-3.985,0c-0.677,0 -3.676,0.01 -6.543,0.01l0,0.47l0.918,0c1.891,0 6.072,-0.075 7.064,-0.075c1.002,0 2.96,0.075 4.133,0.075c1.186,0 4.03,-0.032 5.136,-0.032l0.111,0l-0.105,0.346c-0.577,0.037 -1.17,0.059 -1.475,0.059c-0.599,0 -0.563,-0.111 -0.927,-0.111c-0.321,0 -2.358,0.172 -3.276,0.181c0,0 0.019,0.03 0.027,0.03c0.014,0.006 0.027,0.024 0.027,0.032c0.011,0.033 0,0.053 -0.008,0.058c-0.011,0.012 -0.027,0.037 -0.055,0.045l0.009,0c-0.009,0 -0.099,0.015 -0.236,0.104c1.357,-0.026 3.556,-0.08 4.287,-0.08c0.278,0 0.863,0 1.544,0.02l-0.085,0.284c-0.959,-0.034 -1.831,-0.077 -1.831,-0.077l4.351,2.403l-0.093,0.112c-0.242,-0.088 -0.874,-0.323 -1.492,-0.323l1.248,0.743l-0.044,0.122c-0.106,-0.043 -0.169,-0.067 -0.169,-0.067c0,0 -0.704,-0.374 -1.74,-0.436c0,0 1.26,0.675 1.552,0.977l0.084,-0.241l3.247,1.648c0.712,0.26 3.473,1.779 3.988,1.993c0.264,0.106 0.35,0.244 0.376,0.423l-0.445,-0.133l0.404,0.631l-0.008,0.027c0,0.056 -0.008,0.18 -0.029,0.264l-0.448,-0.399l-0.26,0l0.665,0.821l0,0.026l-0.289,-0.165l-0.997,-0.212c0,0 0.842,0.749 1.196,1.252c-0.013,0.096 -0.022,0.208 -0.042,0.344c-0.135,-0.189 -0.43,-0.621 -0.605,-0.732c-0.211,-0.159 -0.741,-0.383 -0.803,-0.566c-0.084,-0.175 -0.183,-0.523 -0.496,-0.633c-0.286,-0.135 -1.766,-0.658 -2.569,-0.841c1.378,0.651 3.626,1.756 4.293,3.593c-0.044,0.03 -0.057,0.087 -0.103,0.121c-0.482,-1.026 -1.324,-2.029 -2.823,-2.763c-0.818,-0.245 -1.34,-0.466 -1.668,-0.709c-0.319,-0.277 -0.704,-0.562 -3.322,-0.618c1.653,0.308 6.092,1.704 7.348,4.513c-0.097,0.075 -0.189,0.075 -0.282,0.071c-0.533,-1.591 -3.284,-3.825 -7.696,-4.277l-0.483,0.529l7.834,3.834l0.991,0.408c0.376,0.202 0.679,0.482 0.679,0.482l-0.417,0c0,0 0.289,0.362 0.687,0.691l-0.079,0.128c-0.273,-0.23 -0.31,-0.242 -0.31,-0.242l-0.855,-0.026c0.226,0.292 0.912,0.814 1.071,0.943l-0.025,0.145l-0.788,-0.611c-0.395,-0.08 -1.071,-0.08 -1.071,-0.08c0.369,0.12 1.208,0.855 1.725,1.327l-0.058,0.258c-0.107,-0.118 -0.212,-0.238 -0.332,-0.383c-0.297,-0.319 -0.997,-0.586 -1.883,-0.857l0.036,-0.345c-0.446,-0.19 -1.703,-0.19 -1.703,-0.19c1.517,0.552 3.028,1.684 3.367,1.952c0.116,0.106 0.263,0.259 0.408,0.346l-0.026,0.183c-0.337,-0.253 -0.889,-0.659 -1.72,-1.202c-1.144,-0.744 -1.429,-0.727 -1.992,-0.82c-0.554,-0.112 -0.888,-0.189 -0.803,-0.568c-0.776,-0.098 -2.851,-0.424 -2.851,-0.424c3.03,0.88 5.667,2.217 6.84,3.505c0.166,0.172 0.26,0.363 0.326,0.448l-0.03,0.166c-1.49,-1.875 -4.418,-3.033 -5.953,-3.455c-0.888,0 -1.548,-0.157 -2.027,-0.338l0.072,-0.276c-0.855,-0.275 -2.805,-0.293 -3.805,-0.111c8.61,1.787 10.169,3.402 11.447,5.406l0,0.044c-0.157,-0.027 -0.258,-0.027 -0.258,-0.027c-1.367,-2.978 -7.684,-4.395 -9.425,-4.768c-1.735,-0.397 -1.881,-0.327 -2.255,-0.198l1.195,0.864l-0.157,0.053l-1.51,-0.988l-1.521,-0.326l-0.148,0.16l1.228,0.72l-0.042,-0.216l12.562,5.107c0.047,0.022 0.105,0.03 0.149,0.037l-0.076,0.139l-0.594,-0.219l0.082,0.273c0.512,0.034 0.839,0.344 0.839,0.344c-0.4,-0.156 -0.769,-0.254 -0.769,-0.254l0.442,0.808c0.853,0.291 1.772,1.094 1.772,1.094l-0.694,-0.334l-0.675,-0.153l0.512,0.672c0.857,0.224 2.079,1.286 2.079,1.286l-0.226,-0.457l-0.77,-0.605l0.03,-0.129l0.516,0.244l-0.031,-0.306c-0.341,-0.415 -1.993,-1.423 -1.993,-1.423l0.069,-0.148c0.598,0.024 1.955,1.207 1.955,1.207l-0.031,-0.452c0,0 -0.741,-0.496 -1.147,-0.798c-0.402,-0.301 -0.777,-0.465 -0.777,-0.465l0.053,-0.111c0.969,0.379 1.829,0.904 1.829,0.904l-0.037,-0.398c-0.287,-0.231 -1.519,-0.952 -1.845,-1.061c-0.076,-0.027 -0.161,-0.063 -0.218,-0.063l0.08,-0.423c0.383,0.105 1.914,1.111 1.914,1.111c-0.043,-0.29 -0.192,-0.475 -0.192,-0.475c0,0 -1.07,-0.667 -1.394,-0.892c-0.128,-0.097 -0.19,-0.183 -0.22,-0.262l0.035,-0.188c0.313,0.188 1.579,0.976 1.579,0.976l-0.145,-0.503c-0.215,-0.11 -0.662,-0.366 -0.95,-0.602c-0.2,-0.143 -0.32,-0.308 -0.375,-0.398l0.029,-0.134c0.274,-0.039 1.231,0.729 1.231,0.729l-0.271,-0.729c-0.369,-0.021 -0.442,-0.132 -0.663,-0.367c-0.048,-0.042 -0.114,-0.096 -0.195,-0.184l0.044,-0.171c0.204,0.124 0.44,0.259 0.75,0.415l-0.194,-0.631c-0.193,-0.084 -0.337,-0.174 -0.459,-0.291l0.053,-0.276c0.221,0.215 0.365,0.344 0.365,0.344l-0.243,-0.873l0.037,-0.191c0.145,0.444 0.3,0.69 0.411,0.829l0.654,1.53c0.22,0.111 0.593,0.293 1.437,0.484c0.856,0.169 2.583,0.517 4.032,1.019c0.319,0.095 0.71,0.243 1.145,0.424m-14.444,-14.649c-0.138,-0.085 -0.287,-0.155 -0.425,-0.251c0.294,0.12 0.74,0.232 1.2,0.251c0.383,0.021 1.33,-0.008 2.351,-0.051l-0.12,0.424c-0.978,0.007 -2.06,-0.07 -2.534,-0.096c-0.186,-0.113 -0.352,-0.217 -0.472,-0.277m2.836,1.037c-0.458,-0.059 -0.913,-0.112 -1.267,-0.158c-0.175,-0.083 -0.363,-0.182 -0.55,-0.274c0.178,0.013 1.044,0.034 1.908,0.061l-0.091,0.371Zm-0.77,4.369c0.33,0.07 1.707,0.879 1.707,0.879l-0.261,0.069l-1.485,-0.794l0.039,-0.154Zm-3.583,-1.354c0,0 0.483,0.084 0.923,0.541c-0.37,-0.185 -0.923,-0.541 -0.923,-0.541m3.072,1.701c0,0 -1.595,-0.759 -1.811,-0.832l0.024,-0.153c0,0 1.225,0.414 1.819,0.838l-0.032,0.147Zm0,-0.383l-1.852,-0.75l0,-0.189l1.922,0.791l-0.07,0.148Zm2.619,1.669l-2.295,-1.082l0.077,-0.162c0,0 1.512,0.598 2.329,1.15l-0.111,0.094Zm-7.723,3.499l-0.669,-0.655c0.451,0.084 0.788,0.568 0.788,0.568l-0.119,0.087Zm0.405,-0.477c0.197,-0.179 0.851,0.634 0.821,0.813c-0.113,-0.225 -0.821,-0.813 -0.821,-0.813m2.73,1.627l-1.355,-0.441l0.026,-0.164c0.56,0 1.446,0.393 1.446,0.393l-0.117,0.212Zm0.639,-0.441l-1.893,-0.46l-0.036,-0.184c0.899,-0.065 1.999,0.45 1.999,0.45l-0.07,0.194Zm3.324,2.07c-0.479,-0.074 -3.064,-1.294 -3.064,-1.294l0.106,-0.165c0.769,0.234 3.03,1.302 3.03,1.302l-0.072,0.157Zm0.331,-0.111c-0.922,-0.925 -3.213,-1.73 -3.213,-1.73l0.069,-0.263c2.182,0.593 3.402,1.993 3.402,1.993l-0.258,0Z" style="fill:#fff;fill-rule:nonzero;"/><path d="M56.005,75.033c-0.895,-0.405 -1.443,-0.717 -2.51,-0.925c-1.295,-0.269 -2.705,-0.525 -3.101,-0.734c-0.41,-0.174 -0.53,-0.513 -0.933,-0.594l0.222,0.594c0.631,0.209 0.711,0.342 1.074,0.434c0.367,0.059 2.292,0.438 3.518,0.9c0.409,0.15 1.011,0.411 1.73,0.719" style="fill:#fff;fill-rule:nonzero;"/><path d="M56.005,75.739c-0.466,-0.217 -0.955,-0.416 -1.473,-0.536c-1.62,-0.467 -2.517,-0.609 -3.265,-0.879c-1.213,-0.456 -1.134,-0.683 -1.435,-0.718l0.222,0.57c0.588,0.299 1.114,0.483 1.889,0.684c0.776,0.188 1.993,0.474 2.882,0.823c0.262,0.091 0.671,0.26 1.18,0.505" style="fill:#fff;fill-rule:nonzero;"/><path d="M56.005,76.568c-0.041,-0.014 -0.066,-0.041 -0.109,-0.051c-1.383,-0.519 -2.253,-0.835 -3.368,-1.062c-1.101,-0.232 -1.628,-0.675 -2.358,-1.022l0.254,0.652c1.52,0.483 2.698,0.82 3.985,1.24c0.487,0.141 1.035,0.397 1.596,0.693" style="fill:#fff;fill-rule:nonzero;"/><path d="M56.005,77.424c-0.785,-0.388 -1.752,-0.706 -2.171,-0.796c-0.574,-0.111 -1.672,-0.424 -2.149,-0.722c-0.486,-0.286 -0.664,-0.451 -1.111,-0.521l0.183,0.558c0.223,0 0.51,0.14 0.928,0.33c0.403,0.193 2.252,0.763 3.141,1.028c0.351,0.095 0.757,0.305 1.179,0.537" style="fill:#fff;fill-rule:nonzero;"/><path d="M56.005,78.285c-0.733,-0.382 -1.396,-0.575 -2.304,-0.816c-1.722,-0.45 -2.502,-1.264 -2.873,-1.264l0.254,0.599c0.418,0.084 1.08,0.534 1.08,0.534c0.96,0.204 2.427,0.74 3.843,1.451" style="fill:#fff;fill-rule:nonzero;"/><path d="M56.005,79.175c-1.003,-0.614 -1.954,-0.956 -3.028,-1.272c-0.379,-0.117 -0.586,-0.117 -0.89,-0.461c-0.291,-0.337 -0.74,-0.337 -0.85,-0.221l0.145,0.445l1.111,0.563c0.822,0.072 2.107,0.586 3.512,1.347" style="fill:#fff;fill-rule:nonzero;"/><path d="M56.005,80.145c-0.789,-0.51 -1.422,-0.888 -2.925,-1.417c-0.738,-0.267 -0.918,-0.562 -0.918,-0.562l-0.63,0l0.122,0.489c0,0 0.874,0.297 1.757,0.547c0.343,0.107 1.376,0.675 2.594,1.42" style="fill:#fff;fill-rule:nonzero;"/><path d="M51.895,80.03c0,0 2.031,0.816 4.108,2.182l0,-0.382c-0.338,-0.234 -0.637,-0.425 -0.92,-0.535c-0.766,-0.323 -1.641,-0.892 -1.673,-1.185c0.786,0.346 1.726,0.796 2.593,1.304l0,-0.339c-0.92,-0.602 -2.257,-1.433 -3.614,-2.079l-0.671,0.138l0.116,0.312c0,0 0.237,0.092 0.635,0.241l-0.575,0.131" style="fill:#fff;fill-rule:nonzero;"/><path d="M50.439,95.067c0.592,0.232 1.221,0.433 1.865,0.631l3.699,0l0,-0.048c-0.953,-0.227 -2.075,-0.477 -2.585,-0.618c-4.056,-1.155 -7.283,-1.689 -9.31,-1.556c-2.029,0.14 -3.314,-0.015 -3.314,-0.015l-0.091,-0.154c1.236,0.269 2.781,0.048 3.317,0.036c2.633,-0.123 4.907,0.45 4.907,0.45l-0.098,-0.152c0,0 1.61,0.492 2.313,0.694c1.519,0.433 3.497,0.838 4.86,1.141l0,-0.925c-0.602,-0.113 -1.751,-0.296 -3.052,-0.468c1.387,0.051 2.479,0.201 3.052,0.317l0,-0.575c-1.433,-0.22 -3.749,-0.423 -6.506,-0.331c2.745,-0.223 5.064,-0.024 6.506,0.177l0,-0.754l-0.072,0c-0.037,0 -0.076,-0.052 -0.076,-0.075c0,-0.039 0.045,-0.073 0.091,-0.073l0.057,0.027l0,-0.544c-0.51,-0.053 -0.844,-0.086 -0.844,-0.086c-0.031,0 -0.046,-0.036 -0.049,-0.045c-0.01,-0.007 -0.024,-0.023 -0.024,-0.04c0.014,-0.037 0.036,-0.062 0.09,-0.062c0,0 0.322,0.025 0.827,0.089l0,-0.521c-0.161,-0.008 -0.289,-0.008 -0.366,-0.008l-0.597,-0.068l-0.788,-0.052c-0.467,0.043 -1.01,0.136 -1.485,0.209c-0.659,0.103 -2.538,0.274 -4.147,0.032c-1.296,-0.189 -2.645,-0.032 -3.858,0.08l-0.782,0.102c-0.042,0 -0.074,-0.035 -0.074,-0.102c-0.017,-0.028 0.021,-0.055 0.05,-0.055l0.791,-0.069c1.22,-0.145 2.593,-0.275 3.882,-0.077c1.605,0.226 3.457,0.062 4.124,-0.033c0.198,-0.052 0.457,-0.087 0.719,-0.138c-0.673,-0.026 -1.141,-0.026 -1.452,0c-0.775,0.066 -3.198,0.086 -4.151,-0.416l0.029,-0.054c0.703,0.235 1.934,0.225 3.132,0.206l0.688,-0.008c1.392,0 2.484,0 3.958,0.175c0.092,0 0.215,0.028 0.327,0.037l0,-0.347c-0.891,-0.063 -1.801,-0.177 -2.341,-0.232l-0.019,0c-0.981,-0.114 -3.12,-0.063 -4.13,0l-0.572,0.042c-0.574,0.025 -1.065,0.063 -1.44,0c-0.497,-0.08 -1.02,-0.123 -2.166,-0.042c-0.014,0 -0.032,-0.011 -0.057,-0.011c-0.007,-0.008 -0.012,-0.052 -0.012,-0.07c0,-0.007 0,-0.022 0.007,-0.033c0.022,-0.008 0.032,-0.016 0.06,-0.027c1.148,-0.066 1.673,-0.043 2.198,0.045c0.347,0.058 0.836,0.015 1.41,-0.018l0.562,-0.028c1.012,-0.043 3.18,-0.102 4.15,0.011l0.026,0c0.531,0.042 1.438,0.146 2.324,0.235l0,-0.366c-0.51,-0.035 -0.917,-0.059 -1.18,-0.117c-1.134,-0.193 -2.57,-0.226 -3.136,-0.226l-0.004,-0.059c1.268,-0.203 2.367,-0.011 2.97,0.084c0.197,0.026 0.71,0.059 1.35,0.066l0,-0.354c-0.374,0 -0.721,-0.008 -1.031,-0.033c-1.646,-0.146 -2.159,-0.062 -2.871,0.033l-0.379,0.038c-0.308,0.025 -0.64,0.102 -0.942,0.155c-0.611,0.102 -1.197,0.188 -1.724,0.154l-0.033,0l0,-0.199l0.045,0c0.552,0 1.225,-0.11 1.883,-0.205c0.549,-0.08 1.063,-0.182 1.447,-0.187l0.227,0c0.794,-0.066 1.783,-0.107 2.427,0.026c0.136,0.04 0.48,0.03 0.952,0l0,-0.439c-0.382,0 -0.784,-0.007 -1.217,-0.023c-1.862,-0.062 -6.742,0.603 -6.792,0.612l-0.033,0.012l0,-0.187l0.03,0c1.635,-0.309 5.368,-0.659 6.945,-0.686c0.436,-0.011 0.777,-0.011 1.066,-0.011l0,-0.307c-1.885,0.111 -4.503,0.221 -6.085,0.412c-1.999,0.241 -2.703,0.525 -3.799,0.344l0.249,-0.166l-0.334,-0.369c0,0 0.052,-0.063 0.125,-0.163l0.607,0.57l0.374,-0.095c-0.425,-0.241 -0.662,-0.588 -0.792,-0.85c0.03,-0.049 0.055,-0.102 0.095,-0.177c0.481,0.317 1.147,0.949 1.147,0.949l0.329,-0.044l-1.361,-1.22c0.046,-0.099 0.079,-0.223 0.111,-0.349c0.743,0.314 1.919,1.495 1.919,1.495l0.318,-0.045c-0.18,-0.234 -1.373,-1.176 -2.177,-1.791c0.032,-0.164 0.037,-0.337 0.018,-0.485c1.064,0.693 2.949,2.168 2.949,2.168l0.329,-0.035c-0.342,-0.224 -2.613,-2.011 -3.328,-2.582c0.088,-0.031 0.189,-0.089 0.282,-0.127c1.166,0.527 3.744,2.6 3.744,2.6l0.297,0c-0.359,-0.291 -2.617,-2.073 -3.608,-2.782c0.131,-0.061 0.281,-0.131 0.431,-0.19c1.324,0.683 3.876,2.921 3.876,2.921l0.369,-0.036c-0.485,-0.448 -2.925,-2.352 -3.943,-3.033c0.163,-0.066 0.317,-0.152 0.485,-0.224c1.503,0.692 4.282,3.229 4.282,3.229l0.435,-0.025c-0.297,-0.433 -3.293,-2.582 -4.48,-3.319c0.156,-0.057 0.319,-0.143 0.471,-0.22c0.264,0.126 0.57,0.304 0.919,0.531l0.048,0.235l0.053,-0.178c1.555,1.052 3.533,2.891 3.533,2.891l0.71,-0.035c-0.731,-0.576 -2.942,-2.211 -4.161,-3.128l0.134,-0.413c0.544,0.317 1.296,0.804 1.824,1.254c0.918,0.785 2.389,1.743 2.612,2.277l0.556,-0.025c-0.415,-0.303 -1.034,-1.355 -1.818,-1.734c-0.637,-0.319 -2.191,-1.49 -3.092,-2.063l0.094,-0.308c0.048,-0.031 0.094,-0.057 0.13,-0.064c1.686,0.688 4.75,3.669 5.124,4.057l0,-0.471c-0.317,-0.374 -0.584,-0.85 -1.322,-1.41c-1.003,-0.762 -2.969,-2.071 -3.444,-2.376c0.122,-0.06 0.277,-0.139 0.446,-0.195c0.61,0.419 2.223,1.537 3.504,2.657c0.319,0.258 0.591,0.49 0.816,0.676l0,-0.762c-1.002,-0.864 -2.723,-2.175 -3.883,-2.745c0.094,-0.061 0.196,-0.084 0.295,-0.139c0.994,0.423 2.399,1.483 3.588,2.502l0,-0.717c-1.217,-0.86 -2.594,-1.69 -3.081,-1.976c0.144,-0.076 0.288,-0.138 0.438,-0.197c0.69,0.282 1.667,0.965 2.643,1.746l0,-0.451c-0.982,-0.675 -1.865,-1.236 -2.229,-1.444c0.116,-0.078 0.253,-0.127 0.366,-0.153c0.373,0.214 1.056,0.646 1.863,1.227l0,-0.659c-0.465,-0.328 -0.904,-0.612 -1.271,-0.801c0.212,-0.098 0.367,-0.146 0.427,-0.167c0.133,0.088 0.261,0.191 0.406,0.289c0.144,0.111 0.284,0.231 0.438,0.325l0,-0.518c-1.421,-0.93 -3.023,-1.787 -4.612,-2.193l-0.105,0.17l-0.705,-0.535c0,0 -1.295,-0.146 -1.628,-0.223c0,0 1.77,1.095 2.333,1.318l-0.04,0.15l-0.487,-0.223c0,0 -0.915,0.034 -1.331,0c0,0 0.807,0.073 1.107,0.758c0,0 1.444,0.51 2.257,1.083l0.415,-0.148c0,0 -1.553,-0.748 -1.553,-0.935c0,-0.187 -0.049,-0.222 -0.049,-0.222c0,0 1.219,0.433 2.077,0.969l0.549,-0.194c0,0 -2.554,-0.966 -2.884,-1.617c0.45,0.055 1.719,0.359 3.478,1.501l-9.559,3.797l-0.081,0.247c-3.034,-2.367 -4.521,-2.06 -6.685,-2.509c-1.959,-0.391 -2.839,-0.33 -2.839,-0.33l-1.965,0.559c0,0 4.804,0.08 6.769,0.694c1.942,0.589 3.28,1.425 3.509,1.787l1.208,-0.174l-0.037,0.112l0.711,0.043c-0.274,0.055 -0.61,0.116 -1.078,0.185c-1.507,0.215 -3.709,0.614 -6.502,0.982c-2.548,0.364 -4.988,0.733 -8.453,0.821c0.001,-0.022 0.011,-0.174 0.027,-0.381c0.008,-0.119 0.034,-0.271 0.059,-0.423l1.129,0.397l0.825,-0.093c-0.091,0 -0.215,-0.009 -0.376,-0.04l0.106,0l0.118,-0.523l1.174,0.563l0.599,-0.051l-1.726,-0.776l0.119,-0.562l2.334,1.209l0.805,-0.064l-0.245,-0.135c0.021,-0.064 0.068,-0.222 0.143,-0.406c0.269,0.162 0.474,0.283 0.593,0.406l0.78,-0.024c0,0 -0.241,-0.133 -0.625,-0.34c0.032,-0.053 0.066,-0.15 0.113,-0.272l0.579,0.303l-0.067,0.309l1.286,-0.198c0,0 -0.599,-0.617 -1.464,-1.23c0.039,-0.087 0.069,-0.164 0.119,-0.234c0.51,0.329 1.032,0.727 1.422,1.209l0.156,-0.907c-0.894,-0.57 -2.299,-1.458 -2.418,-1.494c0.519,0.036 1.718,0.878 2.428,1.399l0.147,-0.761c-0.343,-0.257 -0.773,-0.566 -0.828,-0.566c0.126,-0.036 0.533,0.164 0.848,0.428l0.069,-0.389l0.411,0.101l-0.143,0.592c0.048,0.067 0.084,0.121 0.096,0.175c0,0 -0.045,-0.036 -0.11,-0.08l-0.19,0.715c0.238,0.174 0.342,0.271 0.197,0.189c-0.059,-0.041 -0.134,-0.077 -0.211,-0.139l-0.228,0.971l2.141,-0.296l-1.066,-0.232l0.07,-0.381c0.344,0.098 1.194,0.358 1.399,0.516l0.962,-0.135l-0.278,-0.074c0.01,-0.105 0.017,-0.264 0.034,-0.426c0.348,0.13 0.65,0.262 0.8,0.416l0.626,-0.035c0,0 -0.666,-0.284 -1.426,-0.578c0,-0.183 -0.017,-0.39 -0.057,-0.539c0.735,0.243 1.522,0.59 2.003,0.998l0.515,0c0,0 -2.771,-1.832 -6.429,-2.144c-3.657,-0.294 -4.164,0.235 -4.164,0.235l-0.478,0.599l2.545,1.327c-0.045,0.103 -0.082,0.199 -0.117,0.276c-0.848,-0.414 -1.95,-0.952 -2.869,-1.312l0.053,-0.259l0.387,-0.032l-0.046,-0.196l-0.775,0.069l-0.068,0.252c-0.275,-0.115 -0.502,-0.173 -0.708,-0.21l-0.543,0.06c0.018,-0.06 0.037,-0.136 0.047,-0.185l0.418,-0.052c-2.885,-1.08 -4.975,-1.055 -5.573,-1.01l3.917,1.241l0.301,-0.054c-0.018,0.085 -0.039,0.191 -0.075,0.346l-0.098,-0.063l-0.522,0.123c0.013,-0.038 0.042,-0.092 0.049,-0.173l0.345,-0.067c-1.038,-0.482 -3.994,-0.769 -3.994,-0.769l-0.153,0.343c0.592,0 2.547,0.868 2.547,0.868l1.097,-0.324l-0.019,0.031c0,0 -0.01,0.053 -0.031,0.119l-0.055,0.019l0.038,0c-0.028,0.104 -0.058,0.267 -0.115,0.449c-0.377,-0.13 -0.644,-0.215 -0.644,-0.215l-0.702,0.113l1.262,0.377c-0.029,0.174 -0.067,0.338 -0.123,0.512c-0.927,-0.374 -1.659,-0.656 -1.659,-0.656l-0.516,0.176l-0.104,0.425c-0.303,-0.119 -0.494,-0.186 -0.494,-0.186l-0.482,0.146c0.103,0.058 0.456,0.176 0.899,0.364l-0.234,0.941c-0.251,-0.078 -0.562,-0.165 -0.873,-0.265c-0.306,-0.083 -1.016,-0.238 -1.757,-0.384c0.049,-0.208 0.112,-0.374 0.183,-0.572c0.538,0.128 0.899,0.214 0.899,0.214l0.068,-0.257c0,0 -0.206,-0.074 -0.849,-0.233c0.068,-0.148 0.128,-0.293 0.207,-0.448c0.307,0.038 0.597,0.127 0.823,0.256l0.081,-0.342c0,0 -0.414,-0.068 -0.768,-0.156c0.097,-0.184 0.176,-0.285 0.275,-0.455c0.223,0.027 0.428,0.112 0.613,0.17l0.098,-0.309c0,0 -0.283,-0.048 -0.48,-0.159c0.115,-0.12 0.218,-0.225 0.328,-0.319c0.086,0.034 0.157,0.044 0.206,0.044l0.107,-0.505l-2.801,-0.696l-0.104,0.63c0,0 1.748,0.394 2.5,0.524c-0.105,0.066 -0.197,0.125 -0.298,0.217c-0.006,-0.012 -0.006,-0.022 -0.006,-0.032l-2.269,-0.494l-0.122,0.623l1.26,0.238l-0.052,0.091l-1.263,-0.196l-0.18,0.555l0,0.71c0.355,0.062 0.722,0.13 1.04,0.187c-0.06,0.158 -0.123,0.364 -0.169,0.564c-0.326,-0.06 -0.617,-0.102 -0.871,-0.131l0,0.259c0.284,0.027 0.569,0.053 0.815,0.096c-0.03,0.08 -0.057,0.214 -0.082,0.307c-0.258,-0.004 -0.496,-0.028 -0.733,-0.047l0,0.291c0.238,0 0.458,0.021 0.675,0.026c-0.011,0.089 -0.027,0.202 -0.037,0.313c-0.224,-0.02 -0.439,-0.028 -0.638,-0.069l0,0.703l0.39,0.007c1.078,0.067 2.839,0.17 4.244,0.239l1.805,0.111c0.899,0.055 2.182,0.203 3.419,0.335c0.644,0.082 1.234,0.141 1.747,0.205l0.166,0.005c0.668,0.054 2.219,0.213 3.972,0.362c1.213,0.084 1.593,0.037 1.72,0.021c-0.528,-0.079 -0.605,-0.469 -0.605,-0.469l-0.001,-0.024l-0.263,0.024l-0.018,0l-0.012,-0.016c-0.006,-0.015 -0.016,-0.044 -0.025,-0.067l-0.012,-0.048l0.037,0l0.62,-0.092l0.022,0l0.009,0.027l0.028,0.065l0.007,0.048l-0.044,0l-0.293,0.051l0.007,0.008c0.207,0.188 0.882,0.188 1.061,0.188l-0.023,-0.056l-0.004,-0.027l0.036,0c0.216,-0.043 0.5,-0.23 0.508,-0.23c0.618,-0.255 1.292,-0.222 2.029,0.108l0.197,-0.043l0.035,0l0.009,0.043l0.008,0.058l0.013,0.028l-0.044,0.008c0.173,0.08 0.326,0.181 0.483,0.295l0.017,0.009l-0.006,0.025l-0.021,0.087c0.385,0.224 0.506,0.597 0.506,0.604l-0.063,0.025c0,0 -0.693,-0.994 -1.996,-0.958c0.365,0.102 1.079,0.277 1.375,0.544c0.022,0.009 0.852,0.786 1.289,0.857c0.022,-0.044 0.06,-0.082 0.117,-0.149c0.082,-0.096 0.158,-0.183 0.228,-0.262c0.246,-0.291 0.437,-0.524 0.778,-0.721c0.381,-0.246 0.621,-0.633 0.722,-0.786c0.015,-0.027 0.02,-0.075 0.039,-0.075l0.066,0.048c-0.066,0.273 -0.281,0.526 -0.442,0.723c-0.034,0.029 -0.055,0.063 -0.08,0.09l0.037,0.084l0.002,0.03l-0.014,0.009l-0.298,0.366l-0.046,-0.025l0.018,-0.053c-0.22,0.253 -0.619,0.683 -0.945,0.813c-0.029,0.018 -0.11,0.061 -0.165,0.061l-0.017,0.044l-0.022,-0.035c-0.022,-0.008 -0.635,-0.172 -1.051,-0.494c-0.423,-0.31 -1.647,-0.921 -2.303,-0.921l-0.114,0.031c0.881,0.165 2.337,0.709 2.835,1.225l0.022,0.011l-0.01,0.018l-0.039,0.165l-0.016,0.041l-0.036,-0.036c-0.976,-0.695 -1.911,-1.146 -3.337,-1.089l-0.163,0.045l0.605,0.159l0.039,0.007l-0.018,0.033c0,0 -0.004,0.052 -0.08,0.105c-0.135,0.095 -0.485,0.161 -1.334,-0.031l-0.149,0.056l-0.014,0.02l-0.018,-0.02c-0.599,-0.25 -1.423,-0.374 -2.748,-0.374c-0.467,0 -1.145,-0.071 -2.22,-0.185l-1.168,-0.121c-1.2,-0.14 -2.838,-0.331 -4.001,-0.432c-0.875,-0.106 -1.999,-0.131 -3.078,-0.165c-0.897,-0.026 -1.739,-0.038 -2.356,-0.098l-1.021,-0.105c-0.177,-0.007 -0.357,-0.019 -0.534,-0.048l0,0.303l0.854,0c0.692,-0.027 1.12,0.048 1.544,0.095c0.29,0.06 0.567,0.085 0.943,0.102l0.639,0.017c0.68,0.028 1.329,0.045 2.064,0.116c0.383,0.075 0.806,0.101 1.2,0.134l0.001,0c0.576,0.064 1.106,0.123 1.574,0.181c0.512,0.075 2.122,0.193 3.554,0.311c0.674,0.062 1.321,0.107 1.751,0.122c1.12,0.123 2.74,0.249 4.093,0.283c0.015,0 0.037,0.014 0.048,0.02c0.015,0.01 0.024,0.025 0.024,0.042c0,0.012 -0.014,0.028 -0.024,0.046c-0.011,0.024 -0.032,0.024 -0.049,0.024c-1.357,-0.058 -2.978,-0.165 -4.109,-0.268c-0.424,-0.024 -1.068,-0.078 -1.743,-0.147c-1.129,-0.06 -2.405,-0.172 -3.13,-0.24c-0.686,0.24 -1.276,0.387 -3.729,0.207c-0.875,-0.07 -1.746,-0.148 -2.583,-0.224c-1.024,-0.101 -2.005,-0.207 -2.922,-0.242l0,0.31c0.475,0.093 1.132,0.173 2.15,0.188c1.664,0.07 4.605,0.228 5.635,0.66l-0.02,0.059c-0.403,0 -1.062,-0.102 -1.771,-0.218c-0.633,-0.11 -1.293,-0.203 -1.747,-0.231c-0.136,0 -0.334,-0.009 -0.585,-0.009c-0.922,-0.011 -2.51,-0.011 -3.662,-0.268l0,0.225c0.933,0.23 1.931,0.32 2.601,0.372c0.162,0.016 0.312,0.027 0.429,0.033c0.902,0.071 3.567,0.403 4.467,0.702l0,-0.106l0.066,0c1.171,0.468 4.07,0.928 4.934,1.011c1.161,0.162 3.212,0.036 4.732,-0.083l0.124,0l-0.009,0c0.279,-0.031 0.579,0 0.845,-0.031c-1.219,0.202 -3.272,0.45 -4.848,0.381c-1.464,0 -4.786,-0.638 -5.714,-1.018l-0.662,-0.137c-0.812,-0.148 -1.52,-0.315 -3.435,-0.45c-1.653,-0.163 -2.773,-0.259 -3.529,-0.476l0,0.476c0.367,0.054 0.766,0.088 1.103,0.088c0.096,0 0.201,-0.011 0.277,-0.026c0,0 -0.108,0.015 -0.277,0.026c-0.257,0.013 -0.673,0.032 -1.103,0.013l0,0.355c0.768,0.086 1.856,0.132 3.185,-0.217c0,0 -1.448,0.591 -3.185,0.425l0,0.266c1.623,0.13 3.98,-0.437 4.305,-0.497c-0.182,-0.333 0.134,-0.194 0.134,-0.194c1.169,1.271 5.523,1.136 5.523,1.136c-4.272,0.249 -4.982,-0.546 -5.523,-0.856c-2.11,0.656 -3.551,0.698 -4.439,0.579l0,0.526c2.172,0.373 4.042,0.843 4.042,0.843c0,0 0.033,0.028 -0.027,-0.144c2.55,1.097 5.801,1.521 7.195,1.375c3.32,-0.408 5.29,-0.07 5.29,-0.07c-2.052,-0.14 -4.063,0.07 -5.183,0.158c-1.127,0.124 -2.295,0.195 -5.206,-0.611c-1.953,-0.552 -4.616,-1.083 -6.111,-1.391l0,0.77c0.357,0.061 0.731,0.121 0.972,0.184c0.821,0.215 3.201,0.779 5.926,1.381l15.556,0c-2.797,-0.77 -4.893,-1.083 -6.18,-1.298c2.289,0.225 4.56,0.719 6.684,1.298l3.317,0c-4.657,-1.874 -12.549,-2.122 -15.199,-2.094c-2.848,0.036 -5.404,-0.143 -6.447,-0.757c1.387,0.564 4.858,0.7 6.447,0.676c3.857,-0.087 7.625,0.336 8.008,0.413c0.385,0.11 0.461,0.11 0.413,-0.034c3.654,0.584 5.75,1.242 7.109,1.796l3.81,0c-0.548,-0.172 -1.082,-0.353 -1.599,-0.545c-2.114,-0.733 -4.274,-1.251 -6.879,-1.107c1.267,-0.197 3.943,-0.11 6.962,1.021m-2.883,-3.988l0.142,0c0.017,0 0.035,0 0.043,0.023c0.015,0.011 0.022,0.027 0.022,0.033c0,0.027 -0.008,0.037 -0.022,0.053c-0.008,0.011 -0.026,0.037 -0.043,0.037l-0.142,0c-0.018,0 -0.041,-0.026 -0.055,-0.037c-0.022,-0.016 -0.022,-0.026 -0.022,-0.053c0,-0.022 0.036,-0.056 0.077,-0.056m-0.67,0l0.293,0c0.024,0 0.036,0 0.052,0.023c0.015,0.011 0.019,0.027 0.019,0.033c0,0.027 -0.004,0.037 -0.019,0.053c-0.016,0.011 -0.028,0.037 -0.052,0.037l-0.293,0c-0.021,0 -0.043,-0.026 -0.057,-0.037c-0.008,-0.016 -0.017,-0.026 -0.017,-0.053c0,-0.022 0.025,-0.056 0.074,-0.056m-0.713,0.017c0.008,-0.017 0.035,-0.017 0.05,-0.017l0.38,0.034c0.019,0 0.028,0.016 0.039,0.022c0.011,0.008 0.011,0.037 0.011,0.053c0,0.011 -0.005,0.053 -0.017,0.053c-0.01,0.025 -0.033,0.025 -0.05,0.025l-0.378,-0.041c-0.014,0 -0.036,-0.026 -0.038,-0.037c-0.011,-0.016 -0.019,-0.026 -0.011,-0.053c0,-0.013 0.008,-0.033 0.014,-0.039m-0.664,0.017l0.373,-0.034c0.039,-0.019 0.065,0.023 0.065,0.056c0.021,0.027 0,0.037 -0.01,0.053c-0.005,0.011 -0.022,0.037 -0.05,0.037l-0.351,0.041c-0.054,0 -0.082,-0.025 -0.093,-0.078c0,-0.045 0.027,-0.075 0.066,-0.075m4.587,-6.444c0.065,0.036 0.133,0.073 0.202,0.111l-0.069,0.422c-0.21,-0.163 -0.376,-0.283 -0.49,-0.349c0.126,-0.073 0.247,-0.14 0.357,-0.184m-9.539,1.899c0.005,-0.137 0.017,-0.292 0.026,-0.473c0.12,0.034 0.243,0.079 0.366,0.12c0,0.157 0.019,0.339 0.069,0.464l-0.461,-0.111Zm0.424,-1.05c-0.015,0.102 -0.032,0.301 -0.032,0.491c-0.127,-0.045 -0.246,-0.089 -0.366,-0.131c0,-0.19 -0.021,-0.36 -0.051,-0.527c0.156,0.047 0.294,0.105 0.449,0.167m-1.713,-0.479c0,0 0.523,0.103 1.205,0.313c-0.008,0.111 -0.01,0.269 -0.04,0.467c-0.483,-0.198 -0.937,-0.346 -1.231,-0.457l0.066,-0.323Zm-0.123,0.684c0.247,0.059 0.762,0.172 1.286,0.326c-0.005,0.173 0,0.346 0.034,0.489l-1.42,-0.347l0.1,-0.468Zm-3.47,-0.175c0.128,0.064 0.264,0.14 0.397,0.218c-0.026,0.095 -0.063,0.165 -0.094,0.243c-0.138,-0.078 -0.259,-0.157 -0.402,-0.26c0.038,-0.08 0.066,-0.145 0.099,-0.201m-1.838,-0.604l0.198,-0.119c0,0 0.68,0.214 1.513,0.663c-0.026,0.06 -0.062,0.116 -0.093,0.181c-0.501,-0.318 -1.057,-0.575 -1.618,-0.725m1.328,1.679l0.468,0.231c-0.035,0.111 -0.073,0.208 -0.105,0.288c-0.147,-0.08 -0.315,-0.151 -0.492,-0.264c0.035,-0.085 0.074,-0.177 0.129,-0.255m-3.153,-0.762c0.965,0.361 2.094,0.819 2.827,1.238c-0.102,0.227 -0.159,0.384 -0.181,0.424l-2.741,-1.221l0.095,-0.441Zm-0.486,-0.192l-0.64,2.077c-0.293,-0.08 -0.614,-0.199 -0.963,-0.322c0.022,-0.181 0.057,-0.381 0.086,-0.605l0.696,0.214l0.066,-0.258c-0.146,-0.066 -0.395,-0.153 -0.706,-0.247c0.035,-0.155 0.065,-0.313 0.094,-0.459l0.798,0.213l0.037,-0.239l-0.762,-0.278c0.039,-0.172 0.082,-0.343 0.133,-0.507c0.196,0.074 0.629,0.23 1.161,0.411m-1.839,-0.532l0.647,-0.098c-0.019,0.055 -0.035,0.13 -0.049,0.188c-0.042,0.124 -0.084,0.32 -0.126,0.506l-0.597,-0.194c0.051,-0.164 0.086,-0.28 0.125,-0.402m-0.21,0.724l0.616,0.182c-0.039,0.148 -0.068,0.276 -0.11,0.45c-0.196,-0.062 -0.404,-0.12 -0.611,-0.199c0.025,-0.13 0.068,-0.295 0.105,-0.433m-0.703,-0.201l0.564,0.159c-0.029,0.137 -0.06,0.284 -0.107,0.447c-0.196,-0.071 -0.389,-0.134 -0.576,-0.188c0.036,-0.147 0.079,-0.296 0.119,-0.418m-0.205,0.735l0.599,0.173c-0.032,0.194 -0.071,0.378 -0.123,0.562c-0.2,-0.087 -0.403,-0.166 -0.609,-0.252c0.039,-0.144 0.092,-0.324 0.133,-0.483m-3.962,1.591c-0.202,-0.025 -0.88,-0.1 -1.644,-0.145c0.012,-0.095 0.043,-0.175 0.064,-0.279c0.982,0.195 1.58,0.424 1.58,0.424m-1.235,-2.563c0,0 0.311,-0.062 0.495,-0.048c-0.092,0.164 -0.179,0.272 -0.264,0.444c-0.168,-0.07 -0.363,-0.215 -0.363,-0.215l0.132,-0.181Zm-0.339,0.626c0.142,0 0.291,0.02 0.448,0.04c-0.081,0.133 -0.145,0.284 -0.206,0.439c-0.13,-0.035 -0.277,-0.071 -0.464,-0.105c0.066,-0.129 0.135,-0.249 0.222,-0.374m-0.455,0.301c-0.13,-0.031 -0.284,-0.056 -0.486,-0.074l0.258,-0.277l0.076,0.044c0,0 0.188,-0.034 0.447,0c-0.061,0.086 -0.118,0.207 -0.167,0.352c-0.049,-0.006 -0.092,-0.022 -0.128,-0.045m0.118,0.359c0.177,0.044 0.331,0.066 0.48,0.091c-0.083,0.207 -0.149,0.383 -0.213,0.571c-0.153,-0.024 -0.306,-0.059 -0.452,-0.092c0.039,-0.167 0.103,-0.377 0.185,-0.57m-0.039,1.695c-0.11,-0.013 -0.222,-0.031 -0.327,-0.031c0,-0.016 0,-0.137 0.032,-0.32c0.121,0.029 0.252,0.029 0.38,0.037c-0.036,0.13 -0.072,0.247 -0.085,0.314m-0.265,-0.617c0.028,-0.096 0.041,-0.191 0.056,-0.304c0.166,0.018 0.307,0.039 0.465,0.064c-0.036,0.112 -0.065,0.199 -0.101,0.283c-0.14,-0.02 -0.267,-0.034 -0.42,-0.043m5.556,0.691c-1.683,0.007 -3.564,0.007 -5.071,-0.074c0.01,-0.115 0.029,-0.194 0.037,-0.303c1.122,0.059 3.35,0.109 3.35,0.109l0.094,-0.293l0.468,0.243l1.166,-0.026c-0.027,0.135 -0.044,0.27 -0.044,0.344m0.064,-0.377l-1.583,-0.41l0.118,-0.379c0.51,0.184 1.064,0.37 1.515,0.518c-0.016,0.087 -0.04,0.188 -0.05,0.271m-1.363,-1.085l0.139,-0.427l1.452,0.482c-0.035,0.166 -0.084,0.327 -0.112,0.476c-0.517,-0.165 -1.042,-0.364 -1.479,-0.531m1.654,1.444l0.107,-0.251l-0.271,-0.087c0,0 0.034,-0.083 0.071,-0.238c0.265,0.077 0.481,0.155 0.617,0.198c-0.036,0.164 -0.072,0.291 -0.08,0.343l0.11,0.025c-0.179,0 -0.365,0.01 -0.554,0.01m-0.04,-0.855c0.04,-0.138 0.077,-0.301 0.125,-0.476l0.617,0.196c-0.037,0.176 -0.074,0.341 -0.105,0.47c-0.209,-0.049 -0.419,-0.113 -0.637,-0.19m1.112,0.836c-0.144,0 -0.274,0 -0.428,0.009c0.002,-0.025 0.028,-0.162 0.052,-0.328l0.688,-0.04c-0.025,0.127 -0.04,0.232 -0.052,0.343l0.075,0c-0.097,0.016 -0.215,0.016 -0.335,0.016m0.316,-0.423c-0.177,-0.032 -0.391,-0.102 -0.647,-0.172c0.035,-0.127 0.066,-0.299 0.099,-0.464l0.623,0.214c-0.011,0.131 -0.055,0.288 -0.075,0.422m-0.51,-0.854c0.03,-0.173 0.08,-0.364 0.121,-0.542l0.621,0.17c-0.041,0.199 -0.08,0.391 -0.11,0.598c-0.216,-0.065 -0.424,-0.147 -0.632,-0.226m4.03,1.754l-0.234,0.043l-0.005,0c-0.023,0 -0.031,0 -0.055,-0.015c-0.007,-0.012 -0.014,-0.018 -0.027,-0.055c0,-0.016 0,-0.023 0.013,-0.039c0.008,-0.013 0.024,-0.029 0.044,-0.029l0.234,-0.029l0.03,-0.022l0,0.04l0.019,0.056l0.015,0.049l-0.034,0l0,0.001Zm14.415,1.382l-0.513,0.043c-0.037,0.023 -0.078,-0.013 -0.078,-0.06c0,-0.008 0,-0.028 0.025,-0.035c0.013,-0.025 0.02,-0.033 0.042,-0.033l0.521,-0.026c0.035,0 0.069,0.017 0.069,0.059c0.006,0.028 -0.022,0.052 -0.066,0.052m0.83,-0.136c0.005,-0.01 0.03,-0.027 0.048,-0.027l0.321,-0.032c0.053,0 0.086,0.021 0.086,0.059c0.004,0.033 -0.024,0.085 -0.061,0.085l-0.334,0.027c-0.038,0.007 -0.071,-0.021 -0.071,-0.06c-0.001,-0.019 0,-0.027 0.011,-0.052m-0.215,-0.058c0.027,0 0.048,0 0.052,0.02c0.014,0.012 0.033,0.029 0.035,0.038c0,0.025 -0.001,0.033 -0.021,0.052c-0.014,0.008 -0.027,0.033 -0.044,0.033l-0.413,0.027c-0.037,0 -0.07,-0.021 -0.07,-0.06c-0.006,-0.027 0.025,-0.061 0.063,-0.078l0.398,-0.032Zm-0.974,-0.273c0.006,-0.026 0.028,-0.026 0.05,-0.026l0.439,-0.084l0.055,0c0.01,0.043 0.032,0.052 0.032,0.067c0,0.017 0,0.034 -0.022,0.055l-0.01,0.007l-0.031,0.008l-0.44,0.08l-0.041,0l0,-0.01l-0.01,0c-0.017,-0.019 -0.027,-0.027 -0.027,-0.042c0,-0.028 0,-0.036 0.005,-0.055m-0.604,0.012l0.41,0c0.011,0 0.029,0.007 0.047,0.007c0.02,0.036 0.02,0.041 0.02,0.058c0,0.019 0,0.029 -0.02,0.037c-0.018,0.018 -0.036,0.018 -0.047,0.018l-0.41,0c-0.015,0 -0.032,0 -0.041,-0.018c-0.019,-0.008 -0.026,-0.018 -0.026,-0.037c0,-0.041 0.03,-0.065 0.067,-0.065m0.157,0.41c0.029,0 0.066,0.028 0.066,0.075c0,0.046 -0.049,0.06 -0.082,0.06l-0.339,-0.047c-0.032,-0.005 -0.062,-0.043 -0.055,-0.068c0.016,-0.027 0.049,-0.06 0.071,-0.06l0.339,0.04Zm-0.697,-0.449l0.304,0.082c0.031,0.005 0.054,0.041 0.048,0.059c-0.01,0.068 -0.042,0.077 -0.084,0.077l-0.293,-0.085c-0.04,-0.01 -0.065,-0.046 -0.054,-0.087c0.014,-0.046 0.042,-0.062 0.079,-0.046m0.156,0.41c0.017,0.008 0.031,0.008 0.037,0.039c0.017,0.021 0.017,0.028 0.013,0.037c-0.013,0.028 -0.024,0.047 -0.041,0.047c-0.009,0.005 -0.028,0.028 -0.05,0l-0.258,-0.063c-0.039,0 -0.06,-0.052 -0.048,-0.079c0.004,-0.019 0.015,-0.033 0.044,-0.042c0.009,-0.017 0.026,-0.017 0.041,-0.017l0.262,0.078Zm-4.184,-2.869c0.179,-0.022 0.308,-0.035 0.398,-0.022c0.03,0 0.061,0.038 0.061,0.065c0,0.034 -0.03,0.077 -0.064,0.077c-0.083,0 -0.207,0 -0.377,0.016l-0.029,0l-0.005,-0.045l-0.015,-0.022l-0.003,-0.026l-0.013,-0.043l0.047,0Zm-0.778,0.077l0.439,-0.043l0.03,-0.01l0,0.027c0,0.026 0,0.04 0.006,0.085c0,0 0.012,0.029 0,0.029l-0.026,0.011l-0.43,0.024l-0.024,0.015l-0.006,-0.026l-0.014,-0.053l-0.01,-0.059l0.035,0Zm-0.928,0.123l0.646,-0.064l0.048,-0.016l0,0.138l-0.029,0l-0.636,0.086l-0.029,0.028l-0.011,-0.037l-0.008,-0.077l-0.007,-0.058l0.026,0l0,0Zm-0.163,0.586l0.006,0.027l0.007,0.076l0.007,0.01l0.01,0.022l-0.034,0.02l-0.571,0.103l-0.027,0l-0.004,-0.034l-0.031,-0.069l0,-0.019l-0.003,-0.023l0.038,0l0.582,-0.105l0.02,-0.008Zm-0.741,-0.414l0.631,-0.114l0.046,-0.009l0.004,0.034l0,0.116l-0.037,0l-0.619,0.1l-0.025,0l-0.016,-0.036l-0.014,-0.064l-0.019,-0.027l0.049,0Zm-0.921,0.145l0.591,-0.107l0.037,-0.011l0,0.028c0,0.036 0,0.067 0.01,0.101l0,0.011l-0.036,0l-0.572,0.101l-0.029,0.01l-0.008,-0.029l-0.019,-0.082l-0.01,-0.012l0.036,-0.01Zm-0.106,0.561l0,0.035l0.006,0.055l0.009,0.01l0.008,0.038l-0.03,0.017l-0.639,0.074l-0.018,0.031l-0.008,-0.042l-0.01,-0.044l-0.006,-0.019l-0.011,-0.025l0.04,0l0.617,-0.114l0.042,-0.016Zm-0.787,-0.423l0.659,-0.116l0.024,0l0.006,0.03l0,0.009c0,0.036 0,0.061 0.008,0.071l0.003,0.033l-0.034,0.01l-0.641,0.094l-0.029,0l-0.003,-0.026l-0.023,-0.063l-0.012,-0.026l0.042,-0.016Zm-0.945,0.147l0.609,-0.096l0.031,0l0,0.037c0.003,0.017 0.019,0.043 0.019,0.059l0,0.044l-0.027,0.016l-0.592,0.079l-0.04,0l-0.005,-0.026l-0.011,-0.053l-0.014,-0.049l0.03,-0.011Zm-0.774,0.139l0.392,-0.068l0.049,0l0,0.109l0.013,0.028l-0.044,0.016l-0.366,0.052l-0.026,0l-0.017,-0.022l-0.021,-0.066l-0.008,-0.049l0.028,0l0,0Zm-2.281,0.551l-0.008,-0.035l-0.015,-0.085l0,-0.024l0.029,0l0.263,-0.051l0.036,-0.02l0.001,0.03c0.006,0.041 0.006,0.065 0.017,0.084l0.007,0.034l-0.025,0.022l-0.27,0.029l-0.035,0.016Zm0.135,0.487c-0.015,0 -0.03,-0.019 -0.033,-0.044c0,-0.038 0,-0.045 0.018,-0.061c0.005,-0.01 0.026,-0.025 0.038,-0.025l0.27,-0.037l0.028,0l0.004,0.029l0.032,0.049l0.012,0.045l-0.044,0.007l-0.275,0.047c-0.019,0 -0.039,0 -0.05,-0.01m0.553,0.498c-0.083,0.021 -0.148,0.028 -0.197,0.036c-0.029,0.009 -0.051,0 -0.056,-0.008c-0.008,0 -0.025,-0.019 -0.029,-0.045c-0.006,-0.017 0,-0.024 0.004,-0.032c0.018,-0.029 0.028,-0.052 0.046,-0.052c0.049,-0.009 0.115,-0.018 0.178,-0.039l0.038,-0.008l0.012,0.029l0.018,0.078l0.017,0.024l-0.031,0.017Zm0.081,-1.129l-0.004,-0.041l-0.006,0l-0.012,-0.055l-0.018,-0.036l0.04,0l0.24,-0.048l0.035,0l0,0.04c0.008,0.025 0.008,0.035 0.021,0.053l0.002,0.036l-0.031,0l-0.223,0.051l-0.044,0l0,0Zm0.156,0.516l-0.002,-0.023l-0.035,-0.071l-0.007,-0.051l0.044,0l0.227,-0.027l0.024,-0.018l0.003,0.024l0.028,0.087c0,0 0.013,0.027 0.013,0.036l-0.043,0l-0.217,0.028l-0.035,0.015Zm0.45,0.472l-0.217,0.04l-0.021,0l-0.008,-0.01c-0.008,-0.03 -0.025,-0.055 -0.025,-0.055l-0.032,-0.067l0.057,0l0.21,-0.033l0.025,-0.007l0.011,0.021l0.029,0.086l0.018,0.018l-0.047,0.007Zm0.07,-1.103l-0.006,-0.025l-0.002,-0.077l-0.006,-0.037l0.034,0l0.309,-0.049l0.02,0l0.021,0.034l0,0.06l0.019,0.029l-0.048,0l-0.304,0.065l-0.037,0l0,0Zm0.146,0.529l-0.014,-0.043l-0.024,-0.067l-0.011,-0.038l0.049,-0.007l0.319,-0.063l0.033,0l0.012,0.037l0.016,0.044l0.003,0.02l0.017,0.029l-0.036,0.018l-0.338,0.07l-0.026,0l0,0Zm0.187,0.501l-0.011,-0.019c-0.009,-0.019 -0.019,-0.034 -0.031,-0.059l-0.019,-0.037l0.041,-0.006l0.368,-0.059l0.021,0l0.016,0.03l0.007,0.01l0.037,0.049l0.004,0.031l-0.041,0.007l-0.376,0.053l-0.016,0l0,0Zm0.655,0.496l-0.189,0.02l-0.03,0l0,0.012l-0.003,0l0.003,-0.012c-0.008,0.012 -0.042,0 -0.044,-0.02c-0.028,0 -0.033,-0.011 -0.038,-0.057c0,0 0.005,-0.008 0.01,-0.025c0.021,-0.009 0.03,-0.054 0.065,-0.054l0.188,-0.023l0.014,0l0.02,0.023l0.032,0.079l0.017,0.046l-0.045,0.011Zm0.028,-1.16l-0.01,-0.018l-0.01,-0.037l-0.012,-0.039l-0.021,-0.04l0.053,0l0.322,-0.058l0.029,0l0,0.04l0.014,0.018l0.004,0.04l0.017,0.023l-0.041,0l-0.31,0.071l-0.035,0l0,0Zm0.182,0.543l-0.01,-0.029l-0.007,-0.025l-0.01,-0.032l-0.017,-0.055l0.034,0l0.304,-0.041l0.029,-0.018l0.011,0.037l0.006,0.022l0.008,0.055l0.014,0.032l-0.037,0l-0.295,0.054l-0.03,0Zm0.516,0.481l-0.234,0.054l-0.028,0.017l-0.008,-0.026c-0.008,-0.045 -0.029,-0.068 -0.034,-0.076l-0.025,-0.037l0.051,0l0.017,-0.009l0.232,-0.041l0.023,0l0.006,0.036l0.023,0.051l0.019,0.031l-0.042,0l0,0Zm0.058,-1.147l-0.008,-0.019l-0.008,-0.066l-0.012,-0.019l-0.007,-0.024l0.035,-0.01l0.558,-0.095l0.041,0l0,0.025l0.015,0.07l0.005,0.034l-0.039,0l-0.556,0.093l-0.024,0.011Zm0.182,0.532l-0.004,-0.007l-0.019,-0.066l-0.006,0l-0.002,-0.053l0.027,-0.008l0.527,-0.061l0.027,0l0.009,0.028l0,0.008l0.021,0.042l0.014,0.045l-0.044,0.006l-0.518,0.066l-0.032,0l0,0Zm0.724,0.497l-0.454,0.077l-0.019,0l-0.009,-0.027c-0.022,-0.014 -0.038,-0.05 -0.051,-0.057l-0.014,-0.055l0.054,0l0.459,-0.067l0.035,0l0.005,0.042l0.007,0.018l0.006,0.024l0.004,0.045l-0.023,0Zm0.797,-0.693l-0.622,0.07l-0.031,0.008l-0.005,-0.027l-0.011,-0.014l-0.014,-0.064l0,-0.016l0.03,-0.007l0.618,-0.111l0.035,0l0.002,0.041l0.026,0.077l0.001,0.016l-0.029,0.027Zm0.154,-0.644l-0.022,0.01l-0.016,-0.03l-0.011,-0.045l-0.007,-0.024l-0.007,-0.022l0.041,-0.012l0.524,-0.103l0.03,0l0.024,0.04l0.005,0.075l0.005,0.022l-0.034,0.015l-0.532,0.074Zm0.145,0.601l-0.009,-0.043l-0.011,-0.035l-0.013,-0.04l-0.005,-0.027l0.038,0l0.535,-0.096l0.025,0l0.005,0.042l0.03,0.054l0.006,0.05l-0.036,0l-0.537,0.088l-0.028,0.007Zm0.76,0.475l-0.532,0.085l-0.034,0l-0.014,-0.018l-0.026,-0.075l-0.008,-0.032l0.042,0l0.542,-0.081l0.028,0l0.014,0.019l0.021,0.062l0,0.007l0.012,0.033l-0.045,0l0,0Zm0.141,-0.619l-0.01,-0.026l-0.011,-0.012l-0.015,-0.059l-0.001,-0.036l0.038,0l0.542,-0.074l0.029,0l0.007,0.029l0.008,0.019l0.011,0.039l0.01,0.039l-0.036,0l-0.545,0.081l-0.027,0l0,0Zm0.726,0.517l-0.516,0.069l-0.028,0l-0.022,-0.026l-0.012,-0.062l-0.02,-0.04l0.044,0l0.518,-0.082l0.035,0l0.004,0.007l0.011,0.08l0.025,0.054l-0.039,0Zm0.004,-1.243l0,-0.026l-0.029,-0.087l-0.011,-0.026l0.046,-0.006l0.584,-0.083l0.025,0l0.011,0.026l0,0.063l0.012,0.026l-0.041,0.008l-0.562,0.105l-0.035,0l0,0Zm0.149,0.606l-0.006,-0.029l-0.013,-0.069l-0.006,-0.034l0.043,0l0.544,-0.076l0.027,-0.02l0.004,0.03l0.019,0.084l0,0.034l-0.032,0.022l-0.547,0.058l-0.033,0Zm0.71,0.503l-0.536,0.08l-0.023,0l-0.01,-0.005l-0.022,-0.082l-0.009,-0.041l0.042,0l0.538,-0.086l0.029,0l0.003,0.023l0.015,0.092l0.023,0.019l-0.05,0Zm0.057,-1.254l-0.007,-0.019l-0.007,-0.064l-0.016,-0.05l0.03,0l0.403,-0.069l0.026,0l0.006,0.026l0.008,0.077l0.016,0.037l-0.04,0.005l-0.389,0.057l-0.03,0Zm0.149,0.637l0,-0.026l-0.025,-0.088l-0.004,-0.025l0.038,0l0.377,-0.044l0.036,0l0.006,0.025l0.01,0.035l0.009,0.009l0.004,0.03l-0.032,0.031l-0.388,0.034l-0.031,0.019Zm0.561,0.544l-0.391,0.044l-0.029,0l-0.006,-0.037l-0.024,-0.068l-0.004,-0.033l0.035,0l0.385,-0.056l0.038,0l0,0.027l0.026,0.062l0.007,0.023l-0.037,0.038Zm0.076,-1.296l-0.029,0.01l-0.01,-0.028l0,-0.043l-0.008,-0.039l-0.018,-0.022l0.047,0l0.551,-0.094l0.027,0l0.004,0.025c0,0.034 0.008,0.05 0.008,0.088l0.021,0.015l-0.04,0l-0.553,0.088Zm0.104,0.638l-0.013,-0.025l0,-0.019l-0.005,-0.025l-0.012,-0.06l0.038,0l0.549,-0.069l0.033,0l0.004,0.024l0.023,0.065l0,0.048l-0.029,0l-0.553,0.062l-0.035,0l0,-0.001Zm0.129,0.597l-0.008,-0.025l-0.022,-0.028l0,-0.036l-0.008,-0.023l0.041,0l0.559,-0.088l0.042,0l0.004,0.024l0,0.064l0.011,0.007l0.007,0.043l-0.031,0l-0.565,0.061l-0.03,0l0,0.001Zm1.353,-0.78l-0.574,0.074l-0.036,0l-0.004,-0.029l-0.017,-0.06l-0.008,-0.034l0.041,0l0.57,-0.078l0.043,-0.025l0,0.049l0.005,0.066l0.01,0.037l-0.03,0l0,0Zm0.066,0.477l0.046,0l0.006,0.028l0,0.075l0.012,0.024l-0.032,0l-0.575,0.079l-0.021,0.008l-0.008,-0.023l-0.011,-0.088l-0.009,-0.049l0.029,0l0.563,-0.054Zm-0.181,-1.144l-0.578,0.101l-0.034,0l-0.006,-0.034l-0.011,-0.07l-0.005,-0.043l0.032,0l0.585,-0.069l0.03,0l0.016,0.023l0.01,0.064l0,0.029l-0.039,0l0,-0.001Zm-1.093,2.032l-0.031,0.018l0,-0.034l-0.008,-0.015l-0.008,-0.052l-0.003,-0.039l0.028,-0.008c0.216,-0.018 0.407,-0.059 0.578,-0.084l0.038,0l0.005,0.025l0.014,0.088l0.011,0.019l-0.039,0.023c-0.173,0.028 -0.369,0.043 -0.585,0.059m0.702,0.418l-0.104,0.025c-0.021,0 -0.043,0 -0.052,-0.025c-0.014,-0.008 -0.019,-0.027 -0.027,-0.035c0,-0.025 0.008,-0.051 0.008,-0.051c0.019,-0.032 0.04,-0.032 0.058,-0.032l0.089,-0.011l0.036,0l0,0.031l0.008,0.028l0.009,0.043l0.015,0.026l-0.04,0l0,0.001Zm0.11,-0.501l-0.01,-0.04l-0.008,-0.073l-0.004,-0.027l0.04,-0.011c0.235,-0.021 0.424,-0.021 0.543,-0.021c0.017,0 0.032,0 0.047,0.007c0,0.014 0.015,0.025 0.015,0.044c0,0.015 -0.015,0.056 -0.015,0.056c-0.015,0.018 -0.03,0.018 -0.047,0.018c-0.115,0 -0.29,0.008 -0.529,0.038l-0.032,0.009Zm1.074,-1.366l-0.382,0.047l-0.039,0l0,-0.031l-0.019,-0.059l-0.007,-0.052l0.044,0l0.388,-0.042l0.029,0l0.008,0.026l0.009,0.068l0.008,0.043l-0.039,0Zm0.109,0.495c0.005,0 0.035,0.016 0.053,0.023c0.008,0.01 0.011,0.043 0.011,0.059c0,0.012 -0.003,0.038 -0.011,0.038c-0.018,0.019 -0.048,0.019 -0.053,0.019c-0.071,0 -0.211,0.007 -0.399,0.03l-0.027,0l-0.007,-0.03l-0.021,-0.057l0,-0.059l0.039,0c0.195,-0.007 0.337,-0.023 0.415,-0.023m-0.2,-1.133l-0.404,0.038l-0.036,0l0,-0.03l-0.017,-0.068l0,-0.037l0.041,0l0.406,-0.06l0.019,-0.015l0.008,0.049l0.019,0.07l0.006,0.054l-0.042,0l0,-0.001Zm-0.86,2.497l-0.038,0l-0.002,-0.027l-0.01,-0.063l-0.002,-0.052l0.03,0c0.108,-0.025 0.18,-0.025 0.231,-0.025c0.021,0 0.036,0.025 0.055,0.046c0.009,0.011 0.023,0.031 0.023,0.043c0,0.017 -0.014,0.026 -0.023,0.051c-0.019,0.008 -0.034,0.017 -0.055,0.017c-0.039,0 -0.111,0.01 -0.209,0.01m1.242,-0.142c-0.211,0.142 -0.402,0.256 -0.484,0.374c-0.258,0.376 -0.448,0.543 -0.448,0.543l-0.08,0.042l0.015,-0.076c0.126,-0.496 0.756,-1.088 0.786,-1.105l0.013,-0.008l0.005,0c0.418,-0.121 0.903,-0.442 0.972,-0.806l0.07,0c0.049,0.494 -0.426,0.786 -0.849,1.036m-0.026,-1.914l0.026,0l0.217,-0.027c0.019,0 0.028,0.008 0.055,0.016c0.016,0.011 0.022,0.044 0.022,0.06c0.005,0.011 0,0.037 -0.02,0.043c-0.002,0.01 -0.029,0.017 -0.044,0.017l-0.209,0.045l-0.037,0.01l-0.006,-0.056l-0.004,-0.048l0,-0.06l0,0Zm0.365,0l0.054,-0.019l0.217,-0.144l0.013,-0.01l0.021,0.01l0.115,0.042l0.032,0.006l-0.014,0.046l-0.16,0.223l-0.016,0.024l-0.018,-0.009l-0.19,-0.119l-0.054,-0.05Zm0.057,-0.478l-0.029,0l0,-0.023c-0.095,0 -0.252,0.007 -0.423,0.023l-0.025,0l0,-0.023l-0.011,-0.097l0,-0.025l0.03,-0.009c0.174,-0.005 0.313,-0.005 0.429,-0.026l0,-0.034l0.521,0l0.035,-0.326c-0.306,0.051 -1.979,0.454 -2.736,0.355l-0.022,0l0,-0.013l-0.037,-0.205l-0.018,-0.036l0.032,-0.006l3,-0.418l0.027,0l0.02,0.019l0.029,0.17l0.174,0.134l0.005,0.014l0,0.008c0,0 -0.056,0.319 -0.319,0.467c-0.18,0.115 -0.413,0.126 -0.682,0.051m-0.291,3.506l0.291,-0.045c0.027,0 0.043,0 0.058,0.029c0.019,0 0.019,0.016 0.019,0.053c0.015,0.016 0,0.041 -0.005,0.052c-0.014,0.016 -0.029,0.027 -0.045,0.027l-0.308,0.034c-0.01,0 -0.031,0 -0.046,-0.019c-0.016,-0.009 -0.024,-0.026 -0.024,-0.042c-0.003,-0.036 0.019,-0.089 0.06,-0.089m-0.396,0.053l0.19,0c0.012,0 0.033,0 0.039,0.025c0.005,0.011 0.027,0.027 0.027,0.038c0,0.015 -0.022,0.043 -0.027,0.047c-0.006,0.011 -0.028,0.011 -0.039,0.011l-0.19,0c-0.019,0 -0.029,0 -0.049,-0.011c-0.024,-0.004 -0.034,-0.032 -0.034,-0.047c0.001,-0.027 0.048,-0.063 0.083,-0.063m-13.725,2.841c2.934,-0.111 4.331,0.235 4.331,0.235c-3.826,-0.381 -3.153,0.138 -6.312,-0.216c-3.718,-0.407 -4.237,-1.064 -4.237,-1.064c0.744,0.27 3.708,1.139 6.218,1.045m23.738,-2.133l0.377,0.037c0.035,0.009 0.06,0.033 0.056,0.075c-0.007,0.037 -0.037,0.059 -0.075,0.053l-0.368,-0.034c-0.021,0 -0.038,-0.008 -0.04,-0.036c-0.021,0 -0.033,-0.025 -0.023,-0.032c0.002,-0.026 0.042,-0.071 0.073,-0.063m-0.78,-0.043l0.482,0c0.008,0 0.029,0.008 0.05,0.035c0,0 0.022,0.028 0.022,0.046c0,0.008 -0.022,0.025 -0.022,0.032c-0.021,0.016 -0.042,0.025 -0.05,0.025l-0.482,0c-0.019,0 -0.038,-0.009 -0.05,-0.025c-0.014,-0.007 -0.017,-0.024 -0.017,-0.032c0,-0.046 0.029,-0.081 0.067,-0.081m-0.825,0c0.027,-0.025 0.036,-0.025 0.056,-0.025l0.409,0.025c0.033,0.008 0.059,0.043 0.05,0.08c0,0.026 0,0.033 -0.017,0.043c-0.008,0.005 -0.019,0.015 -0.05,0.015l-0.402,-0.032c-0.016,0 -0.029,-0.017 -0.055,-0.025c-0.001,0 -0.005,-0.038 -0.005,-0.046c0,-0.027 0.003,-0.035 0.014,-0.035m-0.857,0.08c0.007,-0.017 0.03,-0.037 0.048,-0.037l0.407,-0.044c0.034,0 0.072,0.036 0.072,0.081c0.01,0.025 -0.032,0.048 -0.061,0.057l-0.403,0.037c-0.023,0 -0.046,0 -0.056,-0.008c-0.009,-0.029 -0.022,-0.038 -0.022,-0.053c-0.002,-0.007 0,-0.033 0.015,-0.033m-0.841,0.026c0.012,-0.017 0.03,-0.026 0.041,-0.026l0.445,-0.037c0.035,0 0.07,0.037 0.07,0.063c0,0.031 -0.027,0.068 -0.066,0.068l-0.436,0.034c-0.018,0.006 -0.042,-0.007 -0.053,-0.017c-0.016,0 -0.024,-0.017 -0.024,-0.054c-0.001,-0.009 0.007,-0.024 0.023,-0.031m-0.662,-0.063l0.372,0c0.024,0 0.043,0 0.048,0.02c0.011,0.017 0.024,0.026 0.024,0.043c0,0.017 -0.013,0.032 -0.024,0.06c-0.005,0.008 -0.024,0.008 -0.048,0.008l-0.372,0c-0.009,0 -0.03,0 -0.039,-0.008c-0.022,-0.028 -0.026,-0.043 -0.026,-0.06c0,-0.026 0.031,-0.063 0.065,-0.063m-0.691,-0.058c0.012,-0.01 0.021,-0.01 0.047,-0.01l0.374,0.068c0.011,0 0.027,0.02 0.039,0.037c0.009,0.009 0.009,0.026 0.009,0.033c-0.009,0.025 -0.015,0.042 -0.034,0.053c-0.012,0.008 -0.038,0.008 -0.038,0.008l-0.376,-0.068c-0.045,-0.017 -0.055,-0.043 -0.055,-0.071c0.006,-0.035 0.01,-0.035 0.034,-0.05m-6.129,-0.045c0.018,0 0.036,0.009 0.046,0.035c0.017,0 0.017,0.025 0.017,0.025c0,0.035 -0.012,0.043 -0.027,0.063c-0.011,0 -0.028,0.017 -0.057,0.017c-0.729,-0.08 -2.526,-0.787 -2.592,-0.814c-0.046,-0.01 -0.066,-0.059 -0.046,-0.093c0.019,-0.034 0.061,-0.063 0.092,-0.046c0.012,0.012 1.854,0.718 2.567,0.813m-0.49,0.095c0,0.008 -0.012,0.045 -0.015,0.045c-0.011,0.009 -0.032,0.026 -0.054,0.026c-0.578,0.031 -1.239,0.068 -2.438,0.031c-0.048,0 -0.067,-0.031 -0.067,-0.057c0,-0.017 0.003,-0.046 0.013,-0.046c0.023,-0.027 0.039,-0.035 0.054,-0.035c1.196,0.043 1.852,0 2.429,-0.025c0.023,0 0.038,0 0.052,0.025c0.014,0.001 0.026,0.009 0.026,0.036m-2.651,-1.314c0.038,0.011 0.928,0.152 1.23,0.31l-0.018,0.064c-0.03,0 -0.753,-0.01 -1.23,-0.321l0.018,-0.053Zm-1.757,0.762c0.029,-0.008 0.035,-0.008 0.053,-0.008l0.036,0c0.303,0.008 2.711,0.121 3.335,0.231c0.021,0 0.033,0.021 0.042,0.028c0.014,0.015 0.023,0.027 0.023,0.039c-0.009,0.02 -0.023,0.044 -0.034,0.044c-0.01,0.022 -0.01,0 -0.029,0.022l-0.02,0c-0.658,-0.105 -3.332,-0.235 -3.352,-0.235c-0.023,0 -0.047,-0.008 -0.053,-0.017c-0.005,-0.009 -0.023,-0.028 -0.023,-0.053c0,-0.024 0.017,-0.033 0.022,-0.051m1.414,0.597c0,0.009 -0.01,0.026 -0.018,0.033c-0.007,0.015 -0.033,0.025 -0.047,0.025l-0.374,0c-0.022,0 -0.037,-0.01 -0.048,-0.025c-0.017,-0.007 -0.023,-0.024 -0.023,-0.033c0,-0.045 0.033,-0.08 0.071,-0.08l0.374,0c0.014,0 0.04,0.008 0.047,0.035c0,0 0.018,0.028 0.018,0.045m-0.669,-0.037c0,0.02 -0.006,0.037 -0.021,0.046c-0.013,0.017 -0.031,0.017 -0.05,0.017l-0.366,-0.026c-0.041,-0.017 -0.076,-0.045 -0.076,-0.08c0.012,-0.025 0.021,-0.025 0.035,-0.051c0.014,-0.009 0.034,-0.009 0.053,-0.009l0.373,0.035c0.009,0 0.031,0.01 0.046,0.025c0.006,0 0.017,0.035 0.006,0.043m-1.242,-0.294c0.017,0 0.034,-0.015 0.052,0l0.373,0.096c0.037,0.018 0.05,0.053 0.044,0.104c-0.007,0.036 -0.044,0.05 -0.092,0.05l-0.36,-0.136c-0.016,0 -0.03,-0.018 -0.04,-0.024c-0.02,-0.022 -0.02,-0.032 -0.012,-0.047c0.011,-0.019 0.021,-0.031 0.035,-0.043m-0.803,-0.162l0.373,0.085c0.032,0.008 0.057,0.034 0.049,0.077c-0.006,0.024 -0.048,0.058 -0.077,0.044l-0.364,-0.059c-0.03,0 -0.041,-0.007 -0.052,-0.037c-0.014,-0.008 -0.014,-0.024 -0.014,-0.052c0.006,-0.05 0.054,-0.067 0.085,-0.058m-0.847,-0.216l0.436,0.104c0.047,0.008 0.065,0.035 0.058,0.092c-0.011,0.029 -0.041,0.072 -0.085,0.037l-0.441,-0.121c-0.039,0 -0.056,-0.038 -0.045,-0.07c0.003,-0.026 0.044,-0.042 0.077,-0.042m-0.857,-0.164l0.335,0.075c0.04,0.011 0.073,0.053 0.05,0.105c0,0.011 -0.01,0.017 -0.02,0.026c-0.028,0.019 -0.041,0.019 -0.056,0.019l-0.329,-0.072c-0.023,0 -0.039,-0.025 -0.044,-0.041c-0.01,-0.026 -0.021,-0.037 -0.01,-0.053c0.01,-0.043 0.044,-0.059 0.074,-0.059m-0.63,-0.08l0.266,0.046c0.008,0 0.016,0.017 0.037,0.023c0.019,0.02 0.02,0.033 0.019,0.06c0,0.01 -0.019,0.026 -0.04,0.037c-0.009,0.026 -0.02,0.026 -0.037,0.026l-0.262,-0.053c-0.017,0 -0.029,-0.01 -0.05,-0.037c-0.006,-0.006 -0.009,-0.022 -0.009,-0.033c0.003,-0.057 0.042,-0.069 0.076,-0.069m-0.552,-0.096l0.341,0.034c0.033,0.014 0.044,0.039 0.044,0.062c0,0.046 -0.029,0.08 -0.071,0.07l-0.327,-0.042c-0.041,-0.016 -0.067,-0.045 -0.066,-0.07c0,-0.034 0.032,-0.054 0.079,-0.054m-5.5,0.288l-0.03,-0.082c1.22,-0.682 5.779,0.123 7.309,0.536l-0.016,0.066c-0.166,0 -1.17,-0.142 -2.219,-0.305l-1.512,-0.215c-1.2,-0.18 -2.42,-0.18 -3.532,0m4.453,1.166c-0.635,-0.104 -1.948,-0.271 -2.813,-0.271l0,-0.077c0.526,-0.138 2.132,0.054 2.892,0.166l0.264,0.042c0.017,0 2.416,0.304 3.057,0.248l0.018,0.079c-0.658,0.13 -1.836,0.06 -3.418,-0.187m6.332,0.345l-0.089,-0.059l-0.073,-0.072l0.104,0.008c0.364,0.095 0.739,0.156 1.149,0.198l0.029,0c2.106,0.268 4.076,-0.075 5.242,-0.256l0.502,-0.08c0.333,-0.05 0.632,-0.114 0.858,-0.163c0.232,-0.045 0.354,-0.069 0.416,-0.096c-0.085,-0.031 -0.178,-0.096 -0.256,-0.129c-1.07,0.287 -5.274,0.796 -8.343,0.412c-5.629,-0.695 -9.052,-0.905 -10.177,-0.619l-0.037,-0.101c0.675,-0.364 3.641,-0.269 5.312,-0.028c1.615,0.235 5.825,0.561 7.013,0.61c1.919,0.064 3.935,-0.094 6.001,-0.42l-0.024,-0.027l-0.009,-0.008c0,-0.015 -0.002,-0.025 -0.012,-0.025c-0.007,-0.026 0.01,-0.035 0.016,-0.063c0.005,-0.014 0.029,-0.039 0.041,-0.039c0.022,0 0.045,0.025 0.048,0.039c0.518,0.449 1.766,0.625 2.731,0.69c0.964,0.07 3.99,0.191 5.319,0.228c0.038,0 0.068,0.033 0.068,0.075c0,0.036 -0.03,0.054 -0.078,0.054c-1.328,-0.031 -4.24,0 -5.204,-0.096c-1.575,-0.164 -1.695,-0.344 -2.134,-0.464c-3.3,0.648 -4.762,1.164 -8.413,0.431" style="fill:#fff;fill-rule:nonzero;"/></svg>