<?xml version="1.0" encoding="UTF-8" standalone="no"?><!DOCTYPE svg PUBLIC "-//W3C//DTD SVG 1.1//EN" "http://www.w3.org/Graphics/SVG/1.1/DTD/svg11.dtd"><svg width="100%" height="100%" viewBox="0 0 230 150" version="1.1" xmlns="http://www.w3.org/2000/svg" xmlns:xlink="http://www.w3.org/1999/xlink" xml:space="preserve" style="fill-rule:evenodd;clip-rule:evenodd;stroke-linejoin:round;stroke-miterlimit:1.41421;"><rect id="o3.-logo.-sunlite" x="0.277" y="0.009" width="230" height="150" style="fill:none;"/><g><g><path d="M186.37,86.78c-3.827,-2.023 -5.037,-7.209 -2.601,-11.15c2.651,-4.29 10.211,-4.576 12.287,-0.465c1.129,2.237 1.054,2.387 -1.69,3.37c-1.369,0.49 -3.58,1.156 -4.914,1.48c-2.334,0.567 -2.417,0.62 -2.213,1.436c0.374,1.5 1.466,2.918 2.696,3.502c1.121,0.532 3.101,0.568 5.924,0.107c1.244,-0.203 0.694,0.873 -0.83,1.62c-2.028,0.996 -6.859,1.051 -8.659,0.1Zm3.08,-8.468c3.396,-0.704 3.269,-0.623 2.915,-1.856c-0.665,-2.317 -3.121,-3.459 -4.385,-2.038c-0.743,0.836 -1.635,4.396 -1.101,4.396c0.079,0 1.236,-0.226 2.571,-0.502Z" style="fill:#fff;"/><path id="path2215" d="M143.935,86.652c0,-0.25 0.429,-0.541 0.952,-0.646c0.624,-0.125 1.023,-0.454 1.157,-0.954c0.336,-1.254 0.24,-15.746 -0.11,-16.667c-0.229,-0.604 -0.567,-0.851 -1.161,-0.851c-0.62,0 -0.838,-0.175 -0.838,-0.673c0,-0.648 0.17,-0.67 4.562,-0.581c3.779,0.077 4.562,0.177 4.562,0.587c0,0.29 -0.412,0.566 -0.995,0.667l-0.995,0.172l-0.089,8.832l-0.088,8.832l0.752,0.201c2.461,0.659 4.929,-0.284 5.879,-2.247c0.373,-0.771 0.679,-1.578 0.679,-1.794c0,-0.217 0.39,-0.393 0.867,-0.393c0.845,0 0.861,0.039 0.639,1.576c-0.126,0.866 -0.384,2.21 -0.575,2.986l-0.346,1.41l-7.426,0c-6.079,0 -7.426,-0.083 -7.426,-0.457Z" style="fill:#fff;fill-rule:nonzero;"/><path id="path2213" d="M161.188,86.611c0,-0.274 0.269,-0.498 0.597,-0.498c1.237,0 1.393,-0.636 1.393,-5.679c0,-2.686 -0.09,-5.119 -0.201,-5.408c-0.111,-0.289 -0.559,-0.525 -0.995,-0.525c-0.556,0 -0.794,-0.187 -0.794,-0.624c0,-0.678 1.333,-1.133 4.555,-1.555l1.735,-0.227l0.179,13.852l0.913,0.105c0.522,0.061 0.912,0.309 0.912,0.581c0,0.388 -0.767,0.476 -4.147,0.476c-3.465,0 -4.147,-0.082 -4.147,-0.498Z" style="fill:#fff;fill-rule:nonzero;"/><path id="path2211" d="M171.224,86.694c0.076,-0.228 0.424,-0.467 0.774,-0.53c0.35,-0.063 0.785,-0.257 0.968,-0.43c0.194,-0.185 0.402,-3.656 0.5,-8.346c0.155,-7.405 0.224,-8.133 0.882,-9.357c1.429,-2.657 3.793,-4.147 6.581,-4.147c1.528,0 3.816,0.736 3.814,1.227c-0.002,0.446 -1.298,2.423 -1.588,2.423c-0.15,0 -0.779,-0.374 -1.397,-0.83c-1.421,-1.049 -2.805,-1.082 -3.459,-0.083c-0.3,0.457 -0.528,1.776 -0.589,3.401l-0.099,2.654l2.073,0.099c1.802,0.086 2.074,0.184 2.074,0.747c0,0.514 -0.23,0.647 -1.12,0.647c-0.616,0 -1.586,0.094 -2.156,0.208l-1.037,0.207l0,4.914c0,5.913 0.193,6.615 1.817,6.615c0.818,0 1.169,0.15 1.169,0.498c0,0.419 -0.74,0.498 -4.673,0.498c-3.59,0 -4.64,-0.096 -4.534,-0.415Z" style="fill:#fff;fill-rule:nonzero;"/><path id="path2209" d="M163.203,68.982c-0.903,-1.148 -0.869,-1.962 0.126,-2.956c0.996,-0.996 2.129,-1.039 3.288,-0.127c1.11,0.872 1.155,2.251 0.107,3.236c-1.087,1.021 -2.652,0.953 -3.521,-0.153Z" style="fill:#fff;fill-rule:nonzero;"/></g><g><path id="path2203" d="M67.529,97.384c-0.402,-0.483 -1.361,-1.343 -2.13,-1.91l-1.399,-1.031l1.217,-0.874c0.669,-0.48 1.332,-0.874 1.473,-0.874c0.468,0 1.923,3.9 1.932,5.178c0.004,0.623 -0.272,0.5 -1.093,-0.489Z" style="fill:#fff;fill-rule:nonzero;"/><path id="path2195" d="M50.392,97.067c-3.278,-0.585 -7.003,-2.295 -9.176,-4.213l-0.975,-0.86l1.584,0.508c1.823,0.584 6.129,0.706 8.094,0.23c1.149,-0.279 1.154,-0.277 2.924,0.901c1.886,1.255 3.669,2.077 5.062,2.333c0.526,0.097 0.183,-0.114 -0.899,-0.551c-1.789,-0.723 -4.74,-2.671 -4.626,-3.054c0.034,-0.116 1.045,-0.565 2.246,-0.996c4.071,-1.463 7.341,-3.417 9.993,-5.971c1.673,-1.611 2.829,-3.02 3.406,-4.15c0.612,-1.199 0.716,-0.555 0.131,0.809c-1.242,2.898 -3.923,5.968 -6.977,7.991c-0.863,0.571 -1.569,1.142 -1.569,1.27c0,0.127 0.603,0.977 1.34,1.889c0.737,0.913 1.34,1.717 1.34,1.789c0,0.262 -1.948,1.114 -2.548,1.114c-0.34,0 -0.619,0.091 -0.619,0.202c0,0.652 -6.274,1.198 -8.731,0.759Z" style="fill:#fff;fill-rule:nonzero;"/><path id="path2193" d="M71.987,92.935c-0.629,-0.384 -1.698,-0.895 -2.375,-1.135c-0.677,-0.241 -1.231,-0.535 -1.231,-0.655c0,-0.227 1.667,-2.171 1.972,-2.299c0.334,-0.142 1.69,1.55 2.549,3.179c0.971,1.843 0.836,1.977 -0.915,0.91Z" style="fill:#fff;fill-rule:nonzero;"/><path id="path2191" d="M42.729,91.85c-4.273,-0.893 -6.134,-2.657 -7.835,-7.427c-0.548,-1.537 -0.58,-1.756 -0.208,-1.429c1.477,1.3 4.366,1.998 7.733,1.867l2.177,-0.084l0.99,1.441c0.544,0.793 1.778,2.344 2.742,3.446c1.747,1.998 1.751,2.006 1.097,2.147c-1.612,0.349 -5.114,0.369 -6.696,0.039Z" style="fill:#fff;fill-rule:nonzero;"/><path id="path2189" d="M49.62,89.84c-1.544,-1.679 -4.027,-5.136 -3.831,-5.332c0.06,-0.06 0.889,-0.325 1.843,-0.589c3.537,-0.98 8.009,-3.187 10.947,-5.402c3.289,-2.48 5.471,-4.931 7.172,-8.057c0.758,-1.394 0.93,-1.595 0.824,-0.959c-0.197,1.17 -1.708,4.06 -3.116,5.962c-1.673,2.257 -4.93,5.218 -7.278,6.615l-1.951,1.16l0.66,1.135c0.362,0.624 1.194,1.933 1.849,2.909l1.191,1.774l-1.351,0.598c-1.167,0.516 -3.074,1.172 -4.919,1.691c-0.417,0.118 -0.823,-0.182 -2.04,-1.505Z" style="fill:#fff;fill-rule:nonzero;"/><path id="path2187" d="M75.489,87.686c-0.58,-0.182 -1.704,-0.404 -2.498,-0.494c-0.793,-0.09 -1.442,-0.221 -1.442,-0.29c0,-0.383 1.314,-2.734 1.528,-2.734c0.549,0 3.631,2.607 4.103,3.472c0.286,0.522 -0.14,0.534 -1.691,0.046Z" style="fill:#fff;fill-rule:nonzero;"/><path id="path2185" d="M37.616,83.449c-0.773,-0.248 -1.799,-0.75 -2.279,-1.116c-1.387,-1.058 -1.635,-1.952 -1.484,-5.352c0.071,-1.608 0.242,-3.213 0.379,-3.565l0.25,-0.641l1.238,0.613c0.812,0.401 1.81,0.654 2.894,0.731l1.655,0.119l0.667,2.224c0.367,1.223 1.178,3.3 1.802,4.615c0.945,1.991 1.076,2.429 0.781,2.616c-0.625,0.395 -4.387,0.24 -5.903,-0.244Z" style="fill:#fff;fill-rule:nonzero;"/><path id="path2183" d="M44.441,82.377c-1.275,-2.281 -3.094,-6.965 -3.101,-7.984c-0.002,-0.289 0.316,-0.437 1.186,-0.553c1.33,-0.176 3.817,-0.993 5.957,-1.956c3.629,-1.634 8.364,-5.738 9.791,-8.486c0.733,-1.41 1.256,-1.869 0.973,-0.853c-0.652,2.345 -3.095,5.825 -5.515,7.856c-1.027,0.862 -3.754,2.631 -4.439,2.881c-0.175,0.063 0.409,1.47 1.546,3.727c1.005,1.995 1.86,3.695 1.899,3.779c0.154,0.332 -6.368,2.649 -7.456,2.649c-0.136,0 -0.515,-0.477 -0.841,-1.06Z" style="fill:#fff;fill-rule:nonzero;"/><path id="path2181" d="M73.587,81.468c0.092,-0.458 0.234,-1.247 0.315,-1.753c0.127,-0.791 0.22,-0.9 0.663,-0.78c0.927,0.25 4.626,2.18 4.713,2.46c0.058,0.183 -0.734,0.312 -2.421,0.396c-1.379,0.068 -2.716,0.211 -2.972,0.317c-0.42,0.174 -0.449,0.113 -0.298,-0.64Z" style="fill:#fff;fill-rule:nonzero;"/><path id="path2179" d="M74.113,76.554c-0.256,-0.772 -0.231,-2.865 0.034,-2.966c0.394,-0.151 3.216,0.268 4.348,0.645c1.369,0.456 1.28,0.783 -0.303,1.121c-0.773,0.164 -1.953,0.569 -2.623,0.9c-1.431,0.705 -1.329,0.684 -1.456,0.3Z" style="fill:#fff;fill-rule:nonzero;"/><path id="path2177" d="M37.805,73.044c-1.22,-0.259 -2.802,-1.158 -2.802,-1.592c0,-0.686 1.333,-3.48 2.462,-5.157c1.366,-2.032 3.159,-3.856 3.617,-3.681c0.199,0.077 0.295,0.072 0.213,-0.01c-0.209,-0.209 0.73,-1.174 1.735,-1.783l0.84,-0.51l1.008,2.975c0.554,1.636 1.457,4.016 2.006,5.289c0.913,2.114 0.964,2.342 0.595,2.625c-0.53,0.408 -4.565,1.693 -5.649,1.799c-0.833,0.082 -0.851,0.064 -1.133,-1.135c-0.357,-1.514 -0.416,-6.05 -0.095,-7.173c0.132,-0.459 0.193,-0.881 0.137,-0.938c-0.057,-0.057 -0.285,0.521 -0.507,1.283c-0.414,1.424 -0.555,6.196 -0.222,7.52c0.155,0.621 0.123,0.647 -0.778,0.62c-0.517,-0.016 -1.159,-0.075 -1.427,-0.132Z" style="fill:#fff;fill-rule:nonzero;"/><path id="path2175" d="M72.764,70.029c-0.303,-0.808 -0.504,-1.516 -0.447,-1.572c0.056,-0.057 1.092,-0.235 2.301,-0.396c2.072,-0.275 3.509,-0.188 3.509,0.215c0,0.098 -0.508,0.447 -1.129,0.777c-0.62,0.329 -1.65,1.014 -2.288,1.522c-0.638,0.508 -1.213,0.924 -1.278,0.924c-0.065,0 -0.366,-0.662 -0.668,-1.47Z" style="fill:#fff;fill-rule:nonzero;"/><path id="path2173" d="M70.316,65.469c-0.461,-0.637 -0.871,-1.229 -0.912,-1.317c-0.102,-0.221 2.282,-1.318 3.606,-1.658c0.603,-0.156 1.289,-0.338 1.523,-0.406c0.722,-0.21 0.478,0.325 -0.705,1.542c-0.623,0.641 -1.405,1.577 -1.738,2.08c-0.333,0.504 -0.68,0.916 -0.771,0.916c-0.09,0 -0.541,-0.521 -1.003,-1.157Z" style="fill:#fff;fill-rule:nonzero;"/><path id="path2171" d="M66.795,61.706c-0.669,-0.534 -1.248,-1.058 -1.287,-1.164c-0.104,-0.279 2.314,-2.152 3.665,-2.838c0.637,-0.324 1.157,-0.469 1.157,-0.323c0,0.146 -0.293,0.766 -0.652,1.378c-0.358,0.612 -0.88,1.744 -1.16,2.515l-0.508,1.403l-1.215,-0.971Z" style="fill:#fff;fill-rule:nonzero;"/><path id="path2169" d="M62.108,58.881c-0.704,-0.343 -1.279,-0.759 -1.279,-0.924c0,-0.623 3.159,-4.228 3.715,-4.24c0.251,-0.005 0.23,0.19 -0.162,1.479c-0.186,0.615 -0.417,1.848 -0.513,2.741c-0.095,0.893 -0.243,1.611 -0.328,1.595c-0.085,-0.016 -0.73,-0.309 -1.433,-0.651Z" style="fill:#fff;fill-rule:nonzero;"/><path id="path2167" d="M44.988,58.487c-0.388,-1.089 -0.61,-4.91 -0.297,-5.104c0.142,-0.087 0.577,0.411 0.98,1.122c0.399,0.704 1.17,1.782 1.714,2.396l0.988,1.116l-1.558,0.612l-1.558,0.612l-0.269,-0.754Z" style="fill:#fff;fill-rule:nonzero;"/><path id="path2165" d="M50.177,57.195c-0.272,-0.708 0.707,-5.431 1.126,-5.431c0.094,0 0.423,0.795 0.73,1.766c0.308,0.972 0.773,2.137 1.033,2.589c0.26,0.453 0.433,0.863 0.385,0.911c-0.049,0.049 -0.776,0.183 -1.616,0.298c-1.227,0.168 -1.553,0.142 -1.658,-0.133Z" style="fill:#fff;fill-rule:nonzero;"/><path id="path2161" d="M56.714,57.348c-0.588,-0.115 -1.11,-0.251 -1.16,-0.301c-0.366,-0.366 2.038,-5.283 2.582,-5.283c0.109,0 0.214,0.914 0.233,2.032c0.019,1.118 0.142,2.405 0.273,2.861c0.13,0.456 0.237,0.857 0.237,0.892c0,0.113 -1.076,0.013 -2.165,-0.201Z" style="fill:#fff;fill-rule:nonzero;"/></g><g><path id="path2201" d="M87.588,87.099c-0.694,-0.194 -1.498,-0.714 -1.787,-1.155c-0.729,-1.112 -1.025,-5.393 -0.401,-5.788c0.889,-0.563 1.243,-0.29 1.799,1.386c1.04,3.129 3.446,4.943 5.938,4.475c1.621,-0.304 2.347,-1.29 2.347,-3.186c0,-1.972 -0.746,-2.863 -3.816,-4.559c-3.915,-2.163 -5.009,-3.052 -5.715,-4.649c-0.803,-1.816 -0.626,-3.932 0.457,-5.452c1.399,-1.965 5.475,-3 8.962,-2.276c2.742,0.569 2.984,0.845 3.183,3.615l0.17,2.38l-0.874,0c-0.566,0 -0.874,-0.18 -0.874,-0.511c0,-0.839 -1.264,-3.056 -2.06,-3.614c-1.073,-0.751 -3.306,-0.665 -4.365,0.168c-0.699,0.55 -0.874,0.97 -0.874,2.095c0,1.778 0.797,2.584 4.645,4.694c4.675,2.565 5.802,3.998 5.577,7.097c-0.16,2.218 -1.029,3.562 -3.036,4.698c-1.159,0.656 -1.913,0.794 -4.698,0.858c-1.825,0.042 -3.885,-0.083 -4.578,-0.276Z" style="fill:#fff;fill-rule:nonzero;"/><path id="path2199" d="M105.674,86.984c-1.642,-0.713 -2.056,-2.07 -2.095,-6.872c-0.04,-4.964 -0.215,-5.731 -1.307,-5.74c-0.488,-0.004 -0.852,-0.226 -0.916,-0.559c-0.124,-0.644 1.361,-1.154 4.291,-1.473l1.868,-0.204l0.138,5.6c0.146,5.951 0.337,6.714 1.846,7.402c1.053,0.48 2.817,0.449 3.515,-0.062c0.504,-0.368 0.559,-1.014 0.478,-5.557l-0.092,-5.14l-0.913,0.013c-0.651,0.009 -0.912,-0.153 -0.912,-0.565c0,-0.682 1.562,-1.216 4.396,-1.503l1.908,-0.194l0,5.991c0,3.295 0.091,6.227 0.201,6.516c0.111,0.288 0.559,0.524 0.996,0.524c0.554,0 0.794,0.188 0.794,0.62c0,0.472 -0.46,0.749 -1.93,1.162c-2.499,0.701 -3.131,0.682 -3.625,-0.109c-0.402,-0.644 -0.419,-0.644 -1.822,-0.007c-1.707,0.775 -5.212,0.855 -6.819,0.157Z" style="fill:#fff;fill-rule:nonzero;"/><path id="path2197" d="M121.922,86.572c0.061,-0.32 0.43,-0.627 0.82,-0.683c0.961,-0.137 1.099,-0.857 1.104,-5.766c0.006,-4.791 -0.284,-6.005 -1.397,-5.848c-0.466,0.065 -0.777,-0.09 -0.843,-0.42c-0.123,-0.618 1.738,-1.263 4.456,-1.543c1.645,-0.17 1.77,-0.132 1.77,0.527c0,0.86 -0.097,0.857 1.581,0.047c1.681,-0.812 4.973,-0.895 6.393,-0.161c1.778,0.92 2.128,2.097 2.311,7.777l0.166,5.129l0.828,0.194c0.455,0.107 0.877,0.45 0.937,0.761c0.098,0.51 -0.311,0.566 -4.087,0.566c-3.777,0 -4.185,-0.056 -4.087,-0.566c0.06,-0.311 0.481,-0.654 0.937,-0.762l0.827,-0.197l0,-4.907l0,-4.907l-0.93,-0.8c-1.082,-0.929 -2.711,-1.051 -3.807,-0.284c-0.709,0.497 -0.737,0.718 -0.737,5.765l0,5.248l0.995,0.199c0.584,0.117 0.996,0.408 0.996,0.705c0,0.427 -0.655,0.506 -4.172,0.506c-3.794,0 -4.161,-0.052 -4.061,-0.58Z" style="fill:#fff;fill-rule:nonzero;"/></g><g><path d="M86.182,95.738c0,0.332 -0.019,1.686 -0.031,1.78c-0.026,0.15 -0.157,0.169 -0.282,0.169l-0.182,0c-0.032,0 -0.05,0.013 -0.05,0.038l0,0.169c0,0.037 0.018,0.05 0.05,0.05c0.069,0 0.338,-0.019 0.996,-0.019c0.596,0 0.846,0.019 0.922,0.019c0.037,0 0.056,-0.013 0.056,-0.038l0,-0.175c0,-0.031 -0.019,-0.044 -0.05,-0.044l-0.257,0c-0.119,0 -0.213,-0.031 -0.213,-0.226c0,-0.056 -0.019,-1.504 -0.019,-1.566l0,-0.483c0,-0.075 0.019,-1.46 0.019,-1.523c0,-0.113 0.094,-0.163 0.25,-0.163l0.182,0c0.032,0 0.05,-0.012 0.05,-0.044l0,-0.156c0,-0.038 -0.012,-0.057 -0.044,-0.057c-0.087,0 -0.288,0.019 -0.927,0.019c-0.614,0 -0.934,-0.019 -1.009,-0.019c-0.025,0 -0.044,0.013 -0.044,0.038l0,0.182c0,0.025 0.019,0.037 0.05,0.037l0.301,0c0.132,0 0.194,0.063 0.207,0.213c0.006,0.082 0.025,1.21 0.025,1.36l0,0.439Z" style="fill:#fff;fill-rule:nonzero;"/><path d="M92.888,96.672l-0.025,0c-0.069,-0.082 -0.984,-1.229 -1.072,-1.335c-0.188,-0.232 -1.423,-1.742 -1.454,-1.78c-0.05,-0.056 -0.1,-0.081 -0.182,-0.081c-0.075,0 -0.263,0.012 -0.476,0.012c-0.326,0 -0.527,-0.006 -0.652,-0.012c-0.119,0 -0.169,-0.007 -0.2,-0.007c-0.032,0 -0.038,0.013 -0.038,0.038l0,0.169c0,0.019 0.006,0.044 0.038,0.044l0.156,0.006c0.314,0.007 0.539,0.358 0.539,0.727l0,0.564c0,0.928 -0.05,1.931 -0.056,2.05c-0.032,0.42 -0.132,0.62 -0.27,0.62l-0.219,0c-0.031,0 -0.038,0.019 -0.038,0.038l0,0.163c0,0.043 0.007,0.056 0.032,0.056c0.062,0 0.495,-0.019 0.689,-0.019c0.295,0 0.671,0.019 0.733,0.019c0.044,0 0.05,-0.013 0.05,-0.05l0,-0.151c0,-0.037 -0.006,-0.056 -0.05,-0.056l-0.156,0c-0.264,0 -0.376,-0.188 -0.389,-0.551c-0.006,-0.239 -0.063,-1.009 -0.063,-1.53l0,-1.266l0.051,0c0.144,0.207 1.009,1.285 1.115,1.411c0.119,0.137 0.621,0.739 1.072,1.272c0.376,0.445 0.683,0.777 0.789,0.877c0.069,0.069 0.151,0.1 0.245,0.1c0.088,0 0.094,-0.112 0.094,-0.206l0,-1.072c0,-0.827 0.1,-2.244 0.144,-2.664c0.019,-0.225 0.081,-0.332 0.188,-0.332l0.176,0c0.025,0 0.031,-0.025 0.031,-0.056l0,-0.151c0,-0.037 -0.006,-0.05 -0.063,-0.05c-0.069,0 -0.219,0.019 -0.595,0.019c-0.464,0 -0.665,-0.019 -0.733,-0.019c-0.051,0 -0.057,0.013 -0.057,0.044l0,0.157c0,0.037 0.006,0.056 0.038,0.056l0.2,0c0.144,0 0.295,0.088 0.332,0.245c0.019,0.094 0.051,0.708 0.057,0.952c0.012,0.314 0.019,0.621 0.019,1.179l0,0.57Z" style="fill:#fff;fill-rule:nonzero;"/><path d="M97.538,93.67c0,0.037 0.006,0.056 0.031,0.056l0.194,0c0.182,0 0.257,0.132 0.257,0.207c0,0.075 0,0.182 -0.062,0.345c-0.101,0.282 -0.295,0.808 -0.414,1.115c-0.081,0.226 -0.388,1.009 -0.57,1.429l-0.025,0c-0.082,-0.244 -0.395,-1.165 -0.477,-1.397c-0.131,-0.364 -0.369,-1.11 -0.419,-1.335c-0.019,-0.088 -0.019,-0.163 -0.019,-0.213c0,-0.082 0.119,-0.151 0.269,-0.151l0.27,0c0.044,0 0.05,-0.025 0.05,-0.056l0,-0.144c0,-0.038 -0.006,-0.057 -0.063,-0.057c-0.056,0 -0.338,0.019 -0.99,0.019c-0.752,0 -0.959,-0.019 -1.022,-0.019c-0.037,0 -0.043,0.013 -0.043,0.044l0,0.151c0,0.031 0.006,0.062 0.031,0.062l0.163,0c0.131,0 0.207,0.063 0.269,0.207c0.076,0.176 0.389,1.084 0.564,1.517c0.176,0.432 0.746,1.949 0.978,2.444c0.038,0.081 0.063,0.157 0.144,0.157c0.069,0 0.1,-0.032 0.144,-0.107c0.107,-0.182 0.815,-1.861 0.972,-2.2c0.238,-0.526 0.507,-1.266 0.758,-1.692c0.163,-0.282 0.357,-0.326 0.464,-0.326l0.144,0c0.038,0 0.044,-0.019 0.044,-0.044l0,-0.156c0,-0.044 -0.006,-0.057 -0.044,-0.057c-0.056,0 -0.213,0.019 -0.796,0.019c-0.42,0 -0.708,-0.019 -0.765,-0.019c-0.031,0 -0.037,0.013 -0.037,0.044l0,0.157Z" style="fill:#fff;fill-rule:nonzero;"/><path d="M101.354,93.701l0.828,0.025c0.169,0.007 0.344,0.088 0.476,0.169c0.144,0.088 0.708,0.652 0.74,0.702c0.018,0.032 0.05,0.038 0.075,0.025l0.1,-0.05c0.031,-0.018 0.031,-0.031 0.019,-0.062c-0.025,-0.063 -0.232,-0.922 -0.257,-1.009c-0.006,-0.019 -0.019,-0.032 -0.05,-0.032c-0.032,0 -0.151,0.013 -0.251,0.013l-2.2,0.006c-0.57,0 -0.789,-0.019 -0.927,-0.019c-0.038,0 -0.044,0.025 -0.044,0.044l0,0.151c0,0.043 0.006,0.062 0.031,0.062l0.245,0c0.169,0 0.232,0.044 0.257,0.245c0.006,0.062 0.018,0.833 0.018,1.353l0,2.1c0,0.219 -0.025,0.263 -0.313,0.263l-0.188,0c-0.044,0 -0.063,0.019 -0.063,0.056l0,0.132c0,0.05 0.013,0.069 0.057,0.069c0.056,0 0.138,-0.006 0.269,-0.013c0.126,0 0.301,-0.006 0.533,-0.006c1.084,0 1.748,0.006 2.156,0.006c0.401,0.007 0.539,0.013 0.57,0.013c0.075,0 0.119,-0.038 0.138,-0.094l0.282,-0.946c0.006,-0.019 0,-0.038 -0.025,-0.05l-0.107,-0.063c-0.018,-0.013 -0.037,-0.006 -0.062,0.019c-0.126,0.15 -0.477,0.539 -0.639,0.67c-0.163,0.132 -0.351,0.195 -0.477,0.207c-0.131,0.013 -0.395,0.019 -0.501,0.019c-0.313,0 -0.433,-0.019 -0.527,-0.057c-0.081,-0.037 -0.15,-0.15 -0.15,-0.476c0,-0.113 -0.031,-0.721 -0.031,-1.059l0,-0.376c0.275,0 0.47,0.013 0.639,0.038c0.125,0.018 0.276,0.1 0.345,0.219c0.037,0.075 0.1,0.219 0.125,0.32c0.012,0.043 0.025,0.056 0.05,0.05l0.151,-0.032c0.031,-0.006 0.056,-0.012 0.05,-0.05c-0.013,-0.131 -0.038,-0.432 -0.038,-0.714c0,-0.22 0,-0.545 0.019,-0.652c0.006,-0.038 -0.019,-0.044 -0.05,-0.05l-0.17,-0.019c-0.031,0 -0.05,0.013 -0.05,0.056c0,0.12 -0.075,0.295 -0.144,0.389c-0.094,0.113 -0.182,0.169 -0.288,0.194c-0.075,0.019 -0.351,0.038 -0.639,0.038l0.018,-1.824Z" style="fill:#fff;fill-rule:nonzero;"/><path d="M105.159,96.528c-0.025,0 -0.044,0 -0.051,0.044l-0.1,1.19c-0.006,0.069 0.019,0.101 0.088,0.101c0.044,0 0.075,-0.007 0.113,-0.076c0.037,-0.062 0.062,-0.106 0.1,-0.106c0.031,0 0.069,0.019 0.144,0.069c0.263,0.175 0.558,0.269 1.122,0.269c0.827,0 1.372,-0.62 1.372,-1.385c0,-0.438 -0.1,-0.714 -0.344,-0.934c-0.257,-0.231 -0.502,-0.388 -0.802,-0.476c-0.307,-0.088 -0.665,-0.238 -0.828,-0.407c-0.156,-0.157 -0.163,-0.345 -0.163,-0.577c0,-0.163 0.195,-0.57 0.665,-0.57c0.282,0 0.47,0.088 0.626,0.263c0.213,0.226 0.32,0.47 0.389,0.652c0.019,0.044 0.05,0.056 0.081,0.044l0.138,-0.044c0.019,-0.006 0.032,-0.013 0.032,-0.038l-0.101,-1.071c-0.006,-0.038 -0.018,-0.107 -0.062,-0.107c-0.038,0 -0.069,0.013 -0.094,0.038l-0.082,0.081c-0.037,0.044 -0.081,0.057 -0.144,0.031c-0.132,-0.05 -0.376,-0.125 -0.833,-0.125c-0.383,0 -0.621,0.088 -0.903,0.301c-0.376,0.282 -0.47,0.539 -0.47,0.921c0,0.364 0.094,0.696 0.313,0.89c0.32,0.276 0.721,0.476 0.909,0.545c0.815,0.307 0.915,0.458 0.915,0.978c0,0.495 -0.482,0.696 -0.783,0.696c-0.301,0 -0.608,-0.138 -0.79,-0.426c-0.15,-0.245 -0.238,-0.514 -0.251,-0.709c0,-0.044 -0.018,-0.05 -0.043,-0.05l-0.163,-0.012Z" style="fill:#fff;fill-rule:nonzero;"/><path d="M110.818,95.324c0,0.119 0,2.043 -0.013,2.175c-0.012,0.113 -0.087,0.188 -0.213,0.188l-0.319,0c-0.038,0 -0.044,0.019 -0.044,0.063l0,0.119c0,0.05 0.006,0.075 0.056,0.075c0.088,0 0.351,-0.019 1.015,-0.019c0.696,0 0.897,0.019 0.959,0.019c0.057,0 0.063,-0.019 0.063,-0.05l0,-0.144c0,-0.044 -0.006,-0.063 -0.063,-0.063l-0.282,0c-0.15,0 -0.2,-0.094 -0.213,-0.251c-0.006,-0.094 -0.006,-1.848 -0.006,-1.936l0,-1.724l0.207,0c0.144,0 0.702,0.025 0.858,0.119c0.157,0.151 0.401,0.477 0.539,0.702c0.025,0.044 0.038,0.063 0.063,0.057l0.132,-0.05c0.018,-0.007 0.031,-0.032 0.025,-0.057c-0.051,-0.332 -0.17,-1.109 -0.188,-1.247c-0.013,-0.075 -0.032,-0.1 -0.076,-0.1c-0.044,0 -0.081,0.031 -0.144,0.094c-0.075,0.075 -0.319,0.15 -0.457,0.157c-0.263,0.012 -0.533,0.037 -1.216,0.037l-0.364,0c-0.651,0 -0.915,-0.019 -1.247,-0.037c-0.225,-0.013 -0.344,-0.069 -0.413,-0.157c-0.057,-0.069 -0.076,-0.094 -0.119,-0.094c-0.044,0 -0.076,0.025 -0.094,0.106c-0.026,0.126 -0.232,0.953 -0.301,1.216c-0.007,0.019 0,0.05 0.025,0.057l0.138,0.05c0.025,0.006 0.044,-0.013 0.062,-0.044c0.157,-0.226 0.433,-0.608 0.571,-0.708c0.263,-0.094 0.639,-0.101 0.839,-0.101l0.22,0l0,1.548Z" style="fill:#fff;fill-rule:nonzero;"/><path d="M115.506,95.625c0,-0.075 0.012,-1.661 0.037,-1.748c0.05,0.075 0.627,1.479 0.74,1.767c0.044,0.113 0.871,2.056 0.89,2.099c0.031,0.069 0.069,0.113 0.112,0.113c0.076,0 0.12,-0.094 0.151,-0.144c0.031,-0.056 0.589,-1.448 0.721,-1.736c0.112,-0.257 0.814,-1.961 0.877,-2.068l0.038,0l0,1.911c0,0.439 -0.019,1.58 -0.026,1.655c-0.012,0.175 -0.068,0.213 -0.175,0.213l-0.351,0c-0.044,0 -0.05,0.013 -0.05,0.044l0,0.157c0,0.037 0.006,0.056 0.05,0.056c0.082,0 0.326,-0.019 0.965,-0.019c0.74,0 0.852,0.019 0.928,0.019c0.05,0 0.056,-0.019 0.056,-0.056l0,-0.157c0,-0.025 -0.006,-0.044 -0.044,-0.044l-0.301,0c-0.087,0 -0.144,-0.1 -0.144,-0.338c0,-0.113 -0.019,-1.486 -0.019,-1.611c-0.006,-0.132 -0.012,-1.673 -0.012,-1.767c0,-0.132 0.019,-0.245 0.163,-0.245l0.276,0c0.044,0 0.05,-0.019 0.05,-0.056l0,-0.144c0,-0.038 -0.006,-0.057 -0.038,-0.057c-0.069,0 -0.282,0.019 -1.26,0.019c-0.188,0 -0.269,0.006 -0.288,0.075c-0.031,0.126 -0.658,1.624 -0.683,1.686c-0.038,0.088 -0.514,1.254 -0.583,1.373c-0.351,-0.94 -0.802,-1.981 -1.203,-3.046c-0.038,-0.1 -0.088,-0.107 -0.15,-0.107c-0.076,0 -0.27,0.019 -0.564,0.019c-0.74,0 -0.909,-0.019 -0.972,-0.019c-0.037,0 -0.044,0.019 -0.044,0.038l0,0.175c0,0.025 0.007,0.044 0.044,0.044l0.207,0c0.282,0 0.345,0.188 0.345,0.477l0.006,0.958c0,0.113 -0.057,1.592 -0.113,2.037c-0.025,0.201 -0.1,0.489 -0.301,0.489l-0.257,0c-0.031,0 -0.037,0.019 -0.037,0.038l0,0.163c0,0.05 0.006,0.056 0.056,0.056c0.057,0 0.276,-0.019 0.809,-0.019c0.457,0 0.626,0.019 0.695,0.019c0.05,0 0.057,-0.019 0.057,-0.044l0,-0.169c0,-0.025 -0.007,-0.044 -0.044,-0.044l-0.245,0c-0.206,0 -0.307,-0.351 -0.326,-0.583c-0.037,-0.551 -0.043,-1.404 -0.043,-1.479Z" style="fill:#fff;fill-rule:nonzero;"/><path d="M123.176,93.701l0.828,0.025c0.169,0.007 0.344,0.088 0.476,0.169c0.144,0.088 0.708,0.652 0.74,0.702c0.018,0.032 0.05,0.038 0.075,0.025l0.1,-0.05c0.031,-0.018 0.031,-0.031 0.019,-0.062c-0.025,-0.063 -0.232,-0.922 -0.257,-1.009c-0.006,-0.019 -0.019,-0.032 -0.05,-0.032c-0.032,0 -0.151,0.013 -0.251,0.013l-2.2,0.006c-0.57,0 -0.789,-0.019 -0.927,-0.019c-0.038,0 -0.044,0.025 -0.044,0.044l0,0.151c0,0.043 0.006,0.062 0.031,0.062l0.245,0c0.169,0 0.232,0.044 0.257,0.245c0.006,0.062 0.018,0.833 0.018,1.353l0,2.1c0,0.219 -0.025,0.263 -0.313,0.263l-0.188,0c-0.044,0 -0.063,0.019 -0.063,0.056l0,0.132c0,0.05 0.013,0.069 0.057,0.069c0.056,0 0.138,-0.006 0.269,-0.013c0.126,0 0.301,-0.006 0.533,-0.006c1.084,0 1.748,0.006 2.156,0.006c0.401,0.007 0.539,0.013 0.57,0.013c0.075,0 0.119,-0.038 0.138,-0.094l0.282,-0.946c0.006,-0.019 0,-0.038 -0.025,-0.05l-0.107,-0.063c-0.018,-0.013 -0.037,-0.006 -0.062,0.019c-0.126,0.15 -0.477,0.539 -0.639,0.67c-0.163,0.132 -0.351,0.195 -0.477,0.207c-0.131,0.013 -0.395,0.019 -0.501,0.019c-0.313,0 -0.433,-0.019 -0.527,-0.057c-0.081,-0.037 -0.15,-0.15 -0.15,-0.476c0,-0.113 -0.031,-0.721 -0.031,-1.059l0,-0.376c0.275,0 0.47,0.013 0.639,0.038c0.125,0.018 0.276,0.1 0.345,0.219c0.037,0.075 0.1,0.219 0.125,0.32c0.012,0.043 0.025,0.056 0.05,0.05l0.151,-0.032c0.031,-0.006 0.056,-0.012 0.05,-0.05c-0.013,-0.131 -0.038,-0.432 -0.038,-0.714c0,-0.22 0,-0.545 0.019,-0.652c0.006,-0.038 -0.019,-0.044 -0.05,-0.05l-0.17,-0.019c-0.031,0 -0.05,0.013 -0.05,0.056c0,0.12 -0.075,0.295 -0.144,0.389c-0.094,0.113 -0.182,0.169 -0.288,0.194c-0.075,0.019 -0.351,0.038 -0.639,0.038l0.018,-1.824Z" style="fill:#fff;fill-rule:nonzero;"/><path d="M130.578,96.672l-0.025,0c-0.069,-0.082 -0.984,-1.229 -1.072,-1.335c-0.188,-0.232 -1.422,-1.742 -1.454,-1.78c-0.05,-0.056 -0.1,-0.081 -0.182,-0.081c-0.075,0 -0.263,0.012 -0.476,0.012c-0.326,0 -0.526,-0.006 -0.652,-0.012c-0.119,0 -0.169,-0.007 -0.2,-0.007c-0.031,0 -0.038,0.013 -0.038,0.038l0,0.169c0,0.019 0.007,0.044 0.038,0.044l0.157,0.006c0.313,0.007 0.538,0.358 0.538,0.727l0,0.564c0,0.928 -0.05,1.931 -0.056,2.05c-0.031,0.42 -0.132,0.62 -0.269,0.62l-0.22,0c-0.031,0 -0.037,0.019 -0.037,0.038l0,0.163c0,0.043 0.006,0.056 0.031,0.056c0.063,0 0.495,-0.019 0.689,-0.019c0.295,0 0.671,0.019 0.734,0.019c0.043,0 0.05,-0.013 0.05,-0.05l0,-0.151c0,-0.037 -0.007,-0.056 -0.05,-0.056l-0.157,0c-0.263,0 -0.376,-0.188 -0.389,-0.551c-0.006,-0.239 -0.062,-1.009 -0.062,-1.53l0,-1.266l0.05,0c0.144,0.207 1.009,1.285 1.115,1.411c0.119,0.137 0.621,0.739 1.072,1.272c0.376,0.445 0.683,0.777 0.79,0.877c0.069,0.069 0.15,0.1 0.244,0.1c0.088,0 0.094,-0.112 0.094,-0.206l0,-1.072c0,-0.827 0.1,-2.244 0.144,-2.664c0.019,-0.225 0.082,-0.332 0.188,-0.332l0.176,0c0.025,0 0.031,-0.025 0.031,-0.056l0,-0.151c0,-0.037 -0.006,-0.05 -0.063,-0.05c-0.069,0 -0.219,0.019 -0.595,0.019c-0.464,0 -0.664,-0.019 -0.733,-0.019c-0.05,0 -0.057,0.013 -0.057,0.044l0,0.157c0,0.037 0.007,0.056 0.038,0.056l0.201,0c0.144,0 0.294,0.088 0.332,0.245c0.019,0.094 0.05,0.708 0.056,0.952c0.013,0.314 0.019,0.621 0.019,1.179l0,0.57Z" style="fill:#fff;fill-rule:nonzero;"/><path d="M134.15,95.324c0,0.119 0,2.043 -0.012,2.175c-0.013,0.113 -0.088,0.188 -0.213,0.188l-0.32,0c-0.038,0 -0.044,0.019 -0.044,0.063l0,0.119c0,0.05 0.006,0.075 0.056,0.075c0.088,0 0.351,-0.019 1.016,-0.019c0.695,0 0.896,0.019 0.959,0.019c0.056,0 0.062,-0.019 0.062,-0.05l0,-0.144c0,-0.044 -0.006,-0.063 -0.062,-0.063l-0.282,0c-0.151,0 -0.201,-0.094 -0.214,-0.251c-0.006,-0.094 -0.006,-1.848 -0.006,-1.936l0,-1.724l0.207,0c0.144,0 0.702,0.025 0.859,0.119c0.156,0.151 0.401,0.477 0.539,0.702c0.025,0.044 0.037,0.063 0.062,0.057l0.132,-0.05c0.019,-0.007 0.031,-0.032 0.025,-0.057c-0.05,-0.332 -0.169,-1.109 -0.188,-1.247c-0.013,-0.075 -0.031,-0.1 -0.075,-0.1c-0.044,0 -0.082,0.031 -0.144,0.094c-0.076,0.075 -0.32,0.15 -0.458,0.157c-0.263,0.012 -0.533,0.037 -1.216,0.037l-0.363,0c-0.652,0 -0.915,-0.019 -1.247,-0.037c-0.226,-0.013 -0.345,-0.069 -0.414,-0.157c-0.056,-0.069 -0.075,-0.094 -0.119,-0.094c-0.044,0 -0.075,0.025 -0.094,0.106c-0.025,0.126 -0.232,0.953 -0.301,1.216c-0.006,0.019 0,0.05 0.025,0.057l0.138,0.05c0.025,0.006 0.044,-0.013 0.063,-0.044c0.156,-0.226 0.432,-0.608 0.57,-0.708c0.263,-0.094 0.639,-0.101 0.84,-0.101l0.219,0l0,1.548Z" style="fill:#fff;fill-rule:nonzero;"/><path d="M140.749,95.625c0,-0.075 0.013,-1.661 0.038,-1.748c0.05,0.075 0.627,1.479 0.74,1.767c0.043,0.113 0.871,2.056 0.889,2.099c0.032,0.069 0.069,0.113 0.113,0.113c0.075,0 0.119,-0.094 0.151,-0.144c0.031,-0.056 0.589,-1.448 0.72,-1.736c0.113,-0.257 0.815,-1.961 0.878,-2.068l0.037,0l0,1.911c0,0.439 -0.018,1.58 -0.025,1.655c-0.012,0.175 -0.069,0.213 -0.175,0.213l-0.351,0c-0.044,0 -0.05,0.013 -0.05,0.044l0,0.157c0,0.037 0.006,0.056 0.05,0.056c0.081,0 0.326,-0.019 0.965,-0.019c0.74,0 0.852,0.019 0.928,0.019c0.05,0 0.056,-0.019 0.056,-0.056l0,-0.157c0,-0.025 -0.006,-0.044 -0.044,-0.044l-0.301,0c-0.087,0 -0.144,-0.1 -0.144,-0.338c0,-0.113 -0.019,-1.486 -0.019,-1.611c-0.006,-0.132 -0.012,-1.673 -0.012,-1.767c0,-0.132 0.019,-0.245 0.163,-0.245l0.275,0c0.044,0 0.051,-0.019 0.051,-0.056l0,-0.144c0,-0.038 -0.007,-0.057 -0.038,-0.057c-0.069,0 -0.282,0.019 -1.26,0.019c-0.188,0 -0.269,0.006 -0.288,0.075c-0.031,0.126 -0.658,1.624 -0.683,1.686c-0.038,0.088 -0.514,1.254 -0.583,1.373c-0.351,-0.94 -0.802,-1.981 -1.203,-3.046c-0.038,-0.1 -0.088,-0.107 -0.151,-0.107c-0.075,0 -0.269,0.019 -0.564,0.019c-0.739,0 -0.908,-0.019 -0.971,-0.019c-0.038,0 -0.044,0.019 -0.044,0.038l0,0.175c0,0.025 0.006,0.044 0.044,0.044l0.207,0c0.282,0 0.344,0.188 0.344,0.477l0.007,0.958c0,0.113 -0.057,1.592 -0.113,2.037c-0.025,0.201 -0.1,0.489 -0.301,0.489l-0.257,0c-0.031,0 -0.037,0.019 -0.037,0.038l0,0.163c0,0.05 0.006,0.056 0.056,0.056c0.056,0 0.276,-0.019 0.808,-0.019c0.458,0 0.627,0.019 0.696,0.019c0.05,0 0.056,-0.019 0.056,-0.044l0,-0.169c0,-0.025 -0.006,-0.044 -0.043,-0.044l-0.245,0c-0.207,0 -0.307,-0.351 -0.326,-0.583c-0.037,-0.551 -0.044,-1.404 -0.044,-1.479Z" style="fill:#fff;fill-rule:nonzero;"/><path d="M149.279,96.208c0.075,0.226 0.32,1.028 0.376,1.253c0.038,0.163 -0.019,0.226 -0.188,0.226l-0.176,0c-0.031,0 -0.037,0.025 -0.037,0.056l0,0.12c0,0.043 0.006,0.081 0.069,0.081c0.125,0 0.344,-0.019 0.865,-0.019c0.802,0 0.933,0.019 1.053,0.019c0.05,0 0.056,-0.044 0.056,-0.081l0,-0.12c0,-0.031 -0.006,-0.056 -0.044,-0.056l-0.213,0c-0.094,0 -0.257,-0.075 -0.364,-0.282c-0.087,-0.169 -0.495,-1.335 -0.639,-1.824c-0.119,-0.401 -0.608,-1.805 -0.727,-2.199c-0.019,-0.069 -0.031,-0.107 -0.069,-0.107c-0.031,0 -0.05,0.025 -0.081,0.056c-0.094,0.107 -0.502,0.27 -0.702,0.314c-0.05,0.012 -0.063,0.037 -0.063,0.056c0,0.025 0.025,0.057 0.044,0.082c0.044,0.069 0.013,0.15 -0.006,0.213c-0.057,0.169 -0.564,1.516 -0.614,1.642c-0.207,0.551 -0.652,1.642 -0.74,1.773c-0.125,0.188 -0.276,0.276 -0.426,0.276l-0.163,0c-0.038,0 -0.044,0.019 -0.044,0.056l0,0.12c0,0.043 0.006,0.081 0.044,0.081c0.088,0 0.226,-0.019 0.683,-0.019c0.514,0 0.771,0.019 0.852,0.019c0.051,0 0.057,-0.019 0.057,-0.069l0,-0.138c0,-0.025 -0.006,-0.05 -0.069,-0.05l-0.219,0c-0.188,0 -0.245,-0.15 -0.245,-0.288c0,-0.201 0.307,-1.059 0.357,-1.191l1.373,0Zm-1.291,-0.251c0.05,-0.156 0.589,-1.635 0.62,-1.717c0.019,-0.056 0.038,-0.081 0.076,-0.081c0.031,0 0.043,0.044 0.068,0.138c0.044,0.156 0.414,1.472 0.471,1.66l-1.235,0Z" style="fill:#fff;fill-rule:nonzero;"/><path d="M156.104,96.672l-0.025,0c-0.069,-0.082 -0.984,-1.229 -1.072,-1.335c-0.188,-0.232 -1.423,-1.742 -1.454,-1.78c-0.05,-0.056 -0.1,-0.081 -0.182,-0.081c-0.075,0 -0.263,0.012 -0.476,0.012c-0.326,0 -0.526,-0.006 -0.652,-0.012c-0.119,0 -0.169,-0.007 -0.2,-0.007c-0.032,0 -0.038,0.013 -0.038,0.038l0,0.169c0,0.019 0.006,0.044 0.038,0.044l0.156,0.006c0.314,0.007 0.539,0.358 0.539,0.727l0,0.564c0,0.928 -0.05,1.931 -0.056,2.05c-0.031,0.42 -0.132,0.62 -0.27,0.62l-0.219,0c-0.031,0 -0.037,0.019 -0.037,0.038l0,0.163c0,0.043 0.006,0.056 0.031,0.056c0.063,0 0.495,-0.019 0.689,-0.019c0.295,0 0.671,0.019 0.733,0.019c0.044,0 0.051,-0.013 0.051,-0.05l0,-0.151c0,-0.037 -0.007,-0.056 -0.051,-0.056l-0.156,0c-0.263,0 -0.376,-0.188 -0.389,-0.551c-0.006,-0.239 -0.062,-1.009 -0.062,-1.53l0,-1.266l0.05,0c0.144,0.207 1.009,1.285 1.115,1.411c0.119,0.137 0.621,0.739 1.072,1.272c0.376,0.445 0.683,0.777 0.79,0.877c0.068,0.069 0.15,0.1 0.244,0.1c0.088,0 0.094,-0.112 0.094,-0.206l0,-1.072c0,-0.827 0.1,-2.244 0.144,-2.664c0.019,-0.225 0.082,-0.332 0.188,-0.332l0.176,0c0.025,0 0.031,-0.025 0.031,-0.056l0,-0.151c0,-0.037 -0.006,-0.05 -0.063,-0.05c-0.069,0 -0.219,0.019 -0.595,0.019c-0.464,0 -0.664,-0.019 -0.733,-0.019c-0.05,0 -0.057,0.013 -0.057,0.044l0,0.157c0,0.037 0.007,0.056 0.038,0.056l0.2,0c0.145,0 0.295,0.088 0.333,0.245c0.018,0.094 0.05,0.708 0.056,0.952c0.012,0.314 0.019,0.621 0.019,1.179l0,0.57Z" style="fill:#fff;fill-rule:nonzero;"/><path d="M160.34,96.208c0.076,0.226 0.32,1.028 0.376,1.253c0.038,0.163 -0.018,0.226 -0.188,0.226l-0.175,0c-0.031,0 -0.038,0.025 -0.038,0.056l0,0.12c0,0.043 0.007,0.081 0.069,0.081c0.126,0 0.345,-0.019 0.865,-0.019c0.802,0 0.934,0.019 1.053,0.019c0.05,0 0.056,-0.044 0.056,-0.081l0,-0.12c0,-0.031 -0.006,-0.056 -0.044,-0.056l-0.213,0c-0.094,0 -0.257,-0.075 -0.363,-0.282c-0.088,-0.169 -0.495,-1.335 -0.639,-1.824c-0.119,-0.401 -0.608,-1.805 -0.727,-2.199c-0.019,-0.069 -0.032,-0.107 -0.069,-0.107c-0.032,0 -0.05,0.025 -0.082,0.056c-0.094,0.107 -0.501,0.27 -0.702,0.314c-0.05,0.012 -0.062,0.037 -0.062,0.056c0,0.025 0.025,0.057 0.044,0.082c0.043,0.069 0.012,0.15 -0.007,0.213c-0.056,0.169 -0.564,1.516 -0.614,1.642c-0.207,0.551 -0.652,1.642 -0.739,1.773c-0.126,0.188 -0.276,0.276 -0.427,0.276l-0.163,0c-0.037,0 -0.043,0.019 -0.043,0.056l0,0.12c0,0.043 0.006,0.081 0.043,0.081c0.088,0 0.226,-0.019 0.684,-0.019c0.513,0 0.77,0.019 0.852,0.019c0.05,0 0.056,-0.019 0.056,-0.069l0,-0.138c0,-0.025 -0.006,-0.05 -0.069,-0.05l-0.219,0c-0.188,0 -0.244,-0.15 -0.244,-0.288c0,-0.201 0.307,-1.059 0.357,-1.191l1.372,0Zm-1.291,-0.251c0.05,-0.156 0.589,-1.635 0.621,-1.717c0.019,-0.056 0.037,-0.081 0.075,-0.081c0.031,0 0.044,0.044 0.069,0.138c0.044,0.156 0.414,1.472 0.47,1.66l-1.235,0Z" style="fill:#fff;fill-rule:nonzero;"/><path d="M167.403,96.49c0,-0.182 0.082,-0.226 0.195,-0.226l0.181,0c0.038,0 0.044,-0.012 0.044,-0.05l0,-0.156c0,-0.032 -0.006,-0.051 -0.056,-0.051c-0.05,0 -0.282,0.019 -0.859,0.019c-0.564,0 -0.871,-0.019 -0.927,-0.019c-0.038,0 -0.044,0.019 -0.044,0.044l0,0.157c0,0.031 0.006,0.056 0.044,0.056l0.263,0c0.157,0 0.219,0.063 0.219,0.289l0,0.451c0,0.326 -0.012,0.526 -0.144,0.589c-0.207,0.1 -0.382,0.125 -0.708,0.125c-0.426,0 -0.664,-0.131 -0.959,-0.426c-0.338,-0.338 -0.545,-0.984 -0.545,-1.723c0,-0.564 0.213,-1.084 0.501,-1.429c0.295,-0.364 0.608,-0.47 0.947,-0.47c0.426,0 0.745,0.157 0.99,0.388c0.269,0.245 0.47,0.646 0.57,0.953c0.019,0.056 0.038,0.069 0.075,0.063l0.176,-0.038c0.025,-0.006 0.031,-0.038 0.025,-0.113l-0.094,-1.291c0,-0.069 -0.019,-0.113 -0.088,-0.113c-0.038,0 -0.05,0.019 -0.081,0.063l-0.063,0.1c-0.038,0.051 -0.082,0.063 -0.157,0.019c-0.207,-0.131 -0.677,-0.307 -1.31,-0.307c-0.752,0 -1.316,0.213 -1.773,0.614c-0.458,0.395 -0.727,1.003 -0.727,1.573c0,0.759 0.194,1.291 0.576,1.724c0.433,0.507 1.166,0.714 1.818,0.714c0.796,0 1.328,-0.144 1.836,-0.401c0.063,-0.025 0.1,-0.05 0.1,-0.1c0,-0.05 -0.025,-0.113 -0.025,-0.201l0,-0.827Z" style="fill:#fff;fill-rule:nonzero;"/><path d="M170.531,93.701l0.827,0.025c0.169,0.007 0.345,0.088 0.476,0.169c0.144,0.088 0.708,0.652 0.74,0.702c0.018,0.032 0.05,0.038 0.075,0.025l0.1,-0.05c0.031,-0.018 0.031,-0.031 0.019,-0.062c-0.025,-0.063 -0.232,-0.922 -0.257,-1.009c-0.006,-0.019 -0.019,-0.032 -0.05,-0.032c-0.031,0 -0.151,0.013 -0.251,0.013l-2.2,0.006c-0.57,0 -0.789,-0.019 -0.927,-0.019c-0.038,0 -0.044,0.025 -0.044,0.044l0,0.151c0,0.043 0.006,0.062 0.031,0.062l0.245,0c0.169,0 0.232,0.044 0.257,0.245c0.006,0.062 0.019,0.833 0.019,1.353l0,2.1c0,0.219 -0.026,0.263 -0.314,0.263l-0.188,0c-0.044,0 -0.063,0.019 -0.063,0.056l0,0.132c0,0.05 0.013,0.069 0.057,0.069c0.056,0 0.138,-0.006 0.269,-0.013c0.126,0 0.301,-0.006 0.533,-0.006c1.084,0 1.749,0.006 2.156,0.006c0.401,0.007 0.539,0.013 0.57,0.013c0.075,0 0.119,-0.038 0.138,-0.094l0.282,-0.946c0.006,-0.019 0,-0.038 -0.025,-0.05l-0.106,-0.063c-0.019,-0.013 -0.038,-0.006 -0.063,0.019c-0.125,0.15 -0.476,0.539 -0.639,0.67c-0.163,0.132 -0.351,0.195 -0.477,0.207c-0.131,0.013 -0.394,0.019 -0.501,0.019c-0.313,0 -0.432,-0.019 -0.526,-0.057c-0.082,-0.037 -0.151,-0.15 -0.151,-0.476c0,-0.113 -0.031,-0.721 -0.031,-1.059l0,-0.376c0.276,0 0.47,0.013 0.639,0.038c0.125,0.018 0.276,0.1 0.345,0.219c0.037,0.075 0.1,0.219 0.125,0.32c0.013,0.043 0.025,0.056 0.05,0.05l0.151,-0.032c0.031,-0.006 0.056,-0.012 0.05,-0.05c-0.013,-0.131 -0.038,-0.432 -0.038,-0.714c0,-0.22 0,-0.545 0.019,-0.652c0.006,-0.038 -0.019,-0.044 -0.05,-0.05l-0.169,-0.019c-0.032,0 -0.051,0.013 -0.051,0.056c0,0.12 -0.075,0.295 -0.144,0.389c-0.094,0.113 -0.181,0.169 -0.288,0.194c-0.075,0.019 -0.351,0.038 -0.639,0.038l0.019,-1.824Z" style="fill:#fff;fill-rule:nonzero;"/><path d="M174.83,95.625c0,-0.075 0.012,-1.661 0.037,-1.748c0.051,0.075 0.627,1.479 0.74,1.767c0.044,0.113 0.871,2.056 0.89,2.099c0.031,0.069 0.069,0.113 0.113,0.113c0.075,0 0.119,-0.094 0.15,-0.144c0.031,-0.056 0.589,-1.448 0.721,-1.736c0.113,-0.257 0.815,-1.961 0.877,-2.068l0.038,0l0,1.911c0,0.439 -0.019,1.58 -0.025,1.655c-0.013,0.175 -0.069,0.213 -0.176,0.213l-0.351,0c-0.044,0 -0.05,0.013 -0.05,0.044l0,0.157c0,0.037 0.006,0.056 0.05,0.056c0.082,0 0.326,-0.019 0.965,-0.019c0.74,0 0.853,0.019 0.928,0.019c0.05,0 0.056,-0.019 0.056,-0.056l0,-0.157c0,-0.025 -0.006,-0.044 -0.044,-0.044l-0.3,0c-0.088,0 -0.144,-0.1 -0.144,-0.338c0,-0.113 -0.019,-1.486 -0.019,-1.611c-0.007,-0.132 -0.013,-1.673 -0.013,-1.767c0,-0.132 0.019,-0.245 0.163,-0.245l0.276,0c0.044,0 0.05,-0.019 0.05,-0.056l0,-0.144c0,-0.038 -0.006,-0.057 -0.038,-0.057c-0.069,0 -0.282,0.019 -1.259,0.019c-0.188,0 -0.27,0.006 -0.289,0.075c-0.031,0.126 -0.658,1.624 -0.683,1.686c-0.037,0.088 -0.514,1.254 -0.583,1.373c-0.35,-0.94 -0.802,-1.981 -1.203,-3.046c-0.037,-0.1 -0.088,-0.107 -0.15,-0.107c-0.075,0 -0.27,0.019 -0.564,0.019c-0.74,0 -0.909,-0.019 -0.972,-0.019c-0.037,0 -0.044,0.019 -0.044,0.038l0,0.175c0,0.025 0.007,0.044 0.044,0.044l0.207,0c0.282,0 0.345,0.188 0.345,0.477l0.006,0.958c0,0.113 -0.056,1.592 -0.113,2.037c-0.025,0.201 -0.1,0.489 -0.3,0.489l-0.257,0c-0.032,0 -0.038,0.019 -0.038,0.038l0,0.163c0,0.05 0.006,0.056 0.056,0.056c0.057,0 0.276,-0.019 0.809,-0.019c0.457,0 0.627,0.019 0.695,0.019c0.051,0 0.057,-0.019 0.057,-0.044l0,-0.169c0,-0.025 -0.006,-0.044 -0.044,-0.044l-0.244,0c-0.207,0 -0.308,-0.351 -0.326,-0.583c-0.038,-0.551 -0.044,-1.404 -0.044,-1.479Z" style="fill:#fff;fill-rule:nonzero;"/><path d="M182.501,93.701l0.827,0.025c0.169,0.007 0.345,0.088 0.476,0.169c0.144,0.088 0.708,0.652 0.74,0.702c0.019,0.032 0.05,0.038 0.075,0.025l0.1,-0.05c0.032,-0.018 0.032,-0.031 0.019,-0.062c-0.025,-0.063 -0.232,-0.922 -0.257,-1.009c-0.006,-0.019 -0.019,-0.032 -0.05,-0.032c-0.031,0 -0.15,0.013 -0.251,0.013l-2.199,0.006c-0.571,0 -0.79,-0.019 -0.928,-0.019c-0.038,0 -0.044,0.025 -0.044,0.044l0,0.151c0,0.043 0.006,0.062 0.032,0.062l0.244,0c0.169,0 0.232,0.044 0.257,0.245c0.006,0.062 0.019,0.833 0.019,1.353l0,2.1c0,0.219 -0.025,0.263 -0.314,0.263l-0.188,0c-0.044,0 -0.062,0.019 -0.062,0.056l0,0.132c0,0.05 0.012,0.069 0.056,0.069c0.056,0 0.138,-0.006 0.27,-0.013c0.125,0 0.3,-0.006 0.532,-0.006c1.084,0 1.749,0.006 2.156,0.006c0.401,0.007 0.539,0.013 0.57,0.013c0.076,0 0.119,-0.038 0.138,-0.094l0.282,-0.946c0.007,-0.019 0,-0.038 -0.025,-0.05l-0.106,-0.063c-0.019,-0.013 -0.038,-0.006 -0.063,0.019c-0.125,0.15 -0.476,0.539 -0.639,0.67c-0.163,0.132 -0.351,0.195 -0.477,0.207c-0.131,0.013 -0.394,0.019 -0.501,0.019c-0.313,0 -0.432,-0.019 -0.526,-0.057c-0.082,-0.037 -0.151,-0.15 -0.151,-0.476c0,-0.113 -0.031,-0.721 -0.031,-1.059l0,-0.376c0.276,0 0.47,0.013 0.639,0.038c0.126,0.018 0.276,0.1 0.345,0.219c0.037,0.075 0.1,0.219 0.125,0.32c0.013,0.043 0.025,0.056 0.05,0.05l0.151,-0.032c0.031,-0.006 0.056,-0.012 0.05,-0.05c-0.013,-0.131 -0.038,-0.432 -0.038,-0.714c0,-0.22 0,-0.545 0.019,-0.652c0.006,-0.038 -0.019,-0.044 -0.05,-0.05l-0.169,-0.019c-0.032,0 -0.05,0.013 -0.05,0.056c0,0.12 -0.076,0.295 -0.145,0.389c-0.094,0.113 -0.181,0.169 -0.288,0.194c-0.075,0.019 -0.351,0.038 -0.639,0.038l0.019,-1.824Z" style="fill:#fff;fill-rule:nonzero;"/><path d="M189.902,96.672l-0.025,0c-0.069,-0.082 -0.984,-1.229 -1.072,-1.335c-0.188,-0.232 -1.422,-1.742 -1.454,-1.78c-0.05,-0.056 -0.1,-0.081 -0.181,-0.081c-0.075,0 -0.264,0.012 -0.477,0.012c-0.325,0 -0.526,-0.006 -0.651,-0.012c-0.119,0 -0.17,-0.007 -0.201,-0.007c-0.031,0 -0.038,0.013 -0.038,0.038l0,0.169c0,0.019 0.007,0.044 0.038,0.044l0.157,0.006c0.313,0.007 0.539,0.358 0.539,0.727l0,0.564c0,0.928 -0.05,1.931 -0.057,2.05c-0.031,0.42 -0.131,0.62 -0.269,0.62l-0.219,0c-0.032,0 -0.038,0.019 -0.038,0.038l0,0.163c0,0.043 0.006,0.056 0.031,0.056c0.063,0 0.495,-0.019 0.69,-0.019c0.294,0 0.67,0.019 0.733,0.019c0.044,0 0.05,-0.013 0.05,-0.05l0,-0.151c0,-0.037 -0.006,-0.056 -0.05,-0.056l-0.157,0c-0.263,0 -0.376,-0.188 -0.388,-0.551c-0.007,-0.239 -0.063,-1.009 -0.063,-1.53l0,-1.266l0.05,0c0.144,0.207 1.009,1.285 1.116,1.411c0.119,0.137 0.62,0.739 1.071,1.272c0.376,0.445 0.683,0.777 0.79,0.877c0.069,0.069 0.15,0.1 0.244,0.1c0.088,0 0.094,-0.112 0.094,-0.206l0,-1.072c0,-0.827 0.101,-2.244 0.145,-2.664c0.018,-0.225 0.081,-0.332 0.188,-0.332l0.175,0c0.025,0 0.031,-0.025 0.031,-0.056l0,-0.151c0,-0.037 -0.006,-0.05 -0.062,-0.05c-0.069,0 -0.22,0.019 -0.596,0.019c-0.463,0 -0.664,-0.019 -0.733,-0.019c-0.05,0 -0.056,0.013 -0.056,0.044l0,0.157c0,0.037 0.006,0.056 0.037,0.056l0.201,0c0.144,0 0.294,0.088 0.332,0.245c0.019,0.094 0.05,0.708 0.056,0.952c0.013,0.314 0.019,0.621 0.019,1.179l0,0.57Z" style="fill:#fff;fill-rule:nonzero;"/><path d="M193.474,95.324c0,0.119 0,2.043 -0.012,2.175c-0.013,0.113 -0.088,0.188 -0.213,0.188l-0.32,0c-0.037,0 -0.044,0.019 -0.044,0.063l0,0.119c0,0.05 0.007,0.075 0.057,0.075c0.087,0 0.351,-0.019 1.015,-0.019c0.696,0 0.896,0.019 0.959,0.019c0.056,0 0.063,-0.019 0.063,-0.05l0,-0.144c0,-0.044 -0.007,-0.063 -0.063,-0.063l-0.282,0c-0.151,0 -0.201,-0.094 -0.213,-0.251c-0.007,-0.094 -0.007,-1.848 -0.007,-1.936l0,-1.724l0.207,0c0.144,0 0.702,0.025 0.859,0.119c0.157,0.151 0.401,0.477 0.539,0.702c0.025,0.044 0.037,0.063 0.063,0.057l0.131,-0.05c0.019,-0.007 0.031,-0.032 0.025,-0.057c-0.05,-0.332 -0.169,-1.109 -0.188,-1.247c-0.012,-0.075 -0.031,-0.1 -0.075,-0.1c-0.044,0 -0.081,0.031 -0.144,0.094c-0.075,0.075 -0.32,0.15 -0.458,0.157c-0.263,0.012 -0.532,0.037 -1.215,0.037l-0.364,0c-0.652,0 -0.915,-0.019 -1.247,-0.037c-0.226,-0.013 -0.345,-0.069 -0.414,-0.157c-0.056,-0.069 -0.075,-0.094 -0.119,-0.094c-0.044,0 -0.075,0.025 -0.094,0.106c-0.025,0.126 -0.232,0.953 -0.301,1.216c-0.006,0.019 0,0.05 0.025,0.057l0.138,0.05c0.025,0.006 0.044,-0.013 0.063,-0.044c0.157,-0.226 0.432,-0.608 0.57,-0.708c0.263,-0.094 0.64,-0.101 0.84,-0.101l0.219,0l0,1.548Z" style="fill:#fff;fill-rule:nonzero;"/></g></g></svg>