<?xml version="1.0" encoding="UTF-8" standalone="no"?><!DOCTYPE svg PUBLIC "-//W3C//DTD SVG 1.1//EN" "http://www.w3.org/Graphics/SVG/1.1/DTD/svg11.dtd"><svg width="100%" height="100%" viewBox="0 0 230 150" version="1.1" xmlns="http://www.w3.org/2000/svg" xmlns:xlink="http://www.w3.org/1999/xlink" xml:space="preserve" style="fill-rule:evenodd;clip-rule:evenodd;stroke-linejoin:round;stroke-miterlimit:1.41421;"><rect id="o3.-logo.-hsbc" x="0" y="0.009" width="230" height="150" style="fill:none;"/><path d="M48.624,76.212c-0.021,0 0,10.915 0,10.915c0,1.373 -1.18,2.576 -2.724,2.576l-1.48,0l0,0.556l12.524,0l0,-0.556l-1.479,0c-1.524,0 -2.724,-1.223 -2.724,-2.576l0,-24.318c0,-1.33 1.179,-2.573 2.724,-2.573l1.479,0l0,-0.559l-12.524,0l0,0.559l1.48,0c1.565,0 2.724,1.243 2.724,2.573l0,11.859l-14.839,0l0,-11.859c0,-1.33 1.2,-2.573 2.723,-2.573l1.479,0l0,-0.559l-12.524,0l0,0.559l1.481,0c1.543,0 2.723,1.243 2.723,2.573l0,13.232l0,11.086c0,1.353 -1.18,2.576 -2.723,2.576l-1.481,0l0,0.556l12.524,0l0,-0.556l-1.479,0c-1.523,0 -2.723,-1.223 -2.723,-2.576c0,0 0.02,-10.915 0,-10.915l14.839,0Z" style="fill:#fff;fill-rule:nonzero;"/><path d="M78.406,82.257c0.109,1.797 -1.006,4.525 -2.552,5.917c-1.485,1.342 -3.602,2.51 -6.432,2.51c-3.216,0 -5.983,-1.715 -6.991,-2.101c-0.611,-0.235 -1.411,-0.209 -1.889,0.085c-0.557,0.344 -0.899,0.9 -1.029,1.931l-0.471,0l0,-10.595l0.471,0c0.43,3.26 1.952,5.175 2.897,6.262c1.544,1.781 4.46,2.789 7.269,2.338c2.232,-0.358 4.675,-2.78 4.406,-5.78c-0.095,-1.082 -0.332,-2.657 -2.583,-4.127c-1.412,-0.924 -3.418,-2.234 -5.319,-3.496c-2.399,-1.59 -4.576,-3.313 -5.188,-4.01c-0.803,-0.914 -1.803,-2.23 -1.803,-4.333c0,-1.801 0.686,-3.859 2.145,-5.232c1.459,-1.371 3.431,-2.4 6.261,-2.4c2.832,0 4.977,1.5 5.705,1.843c0.729,0.342 1.535,0.262 1.994,0c0.451,-0.259 0.751,-0.645 0.88,-1.674l0.472,0l0,10.038l-0.472,0c-0.429,-3.261 -1.845,-5.704 -2.831,-6.605c-0.986,-0.901 -2.916,-2.145 -5.79,-1.588c-2.757,0.535 -4.099,1.782 -4.353,3.988c-0.194,1.682 0.719,2.717 1.244,3.346c1.072,1.286 7.877,5.142 10.958,7.807c1.588,1.371 2.832,3.002 3.001,5.876" style="fill:#fff;fill-rule:nonzero;"/><path d="M88.376,88.53c2.118,0.655 6.152,1.159 8.962,-0.855c3.372,-2.414 4.082,-8.311 -0.677,-11.384c-1.916,-1.238 -6.697,-1.153 -8.285,-0.779l0,13.018Zm0,-14.742c1.501,0.384 5.92,0.488 7.634,-0.601c2.687,-1.706 3.619,-4.443 3.124,-6.864c-0.298,-1.454 -1.067,-2.796 -2.395,-3.73c-2.616,-1.844 -6.389,-1.545 -8.363,-0.944l0,12.139l0,0Zm9.865,0.856c5.451,1.871 7.005,5.719 5.993,9.684c-1.188,4.661 -6.444,5.608 -8.148,5.834c-0.769,0.1 -2.733,0.091 -4.675,0.091c-3.465,0.005 -7.848,-0.007 -11.367,-0.007l0,-0.557l1.803,0c1.145,0 2.454,-0.966 2.454,-2.423l0,-24.416c0,-1.458 -1.309,-2.444 -2.445,-2.444l-1.801,0l0,-0.559c3.108,0 7.636,-0.001 10.873,0c2.615,0 4.036,0.252 4.954,0.43c1.543,0.299 6.048,1.63 7.119,5.832c0.83,3.254 -0.793,7.356 -4.76,8.535" style="fill:#fff;fill-rule:nonzero;"/><path d="M132.9,60.213l0.441,10.357l-0.622,0.023c-0.301,-2.618 -1.288,-4.462 -2.532,-5.663c-0.358,-0.346 -1.037,-1.045 -2.017,-1.663c-1.633,-1.029 -4.061,-1.938 -6.946,-1.424c-4.332,0.772 -6.563,3.634 -7.678,6.39c-1.373,3.387 -2.242,9.181 0.087,14.069c1.888,3.968 5.519,5.62 8.319,6.047c2.387,0.363 7.678,0.251 11.71,-5.189l0.643,0.428c-3.132,4.418 -7.292,7.248 -12.052,7.205c-6.09,-0.054 -9.917,-3.41 -11.666,-5.404c-1.845,-2.101 -3.26,-6.09 -3.278,-9.564c-0.014,-3.089 0.667,-6.525 1.776,-8.535c1.909,-3.453 5.897,-6.884 11.151,-7.399c3.935,-0.384 6.52,0.386 8.73,1.651c1.104,0.633 1.724,0.706 2.325,0.451c0.599,-0.259 1.084,-0.772 1.084,-1.78l0.525,0Z" style="fill:#fff;fill-rule:nonzero;"/><path d="M143.423,74.983l15.278,15.276l0,-30.554l-15.278,15.278l0,0Z" style="fill:#fff;fill-rule:nonzero;"/><path d="M158.703,90.258l30.555,0l-15.278,-15.276l-15.277,15.276Z" style="fill:#fff;fill-rule:nonzero;"/><path d="M173.98,74.982l15.279,-15.278l-30.555,0l15.276,15.278l0,0Z" style="fill:#fff;fill-rule:nonzero;"/><path d="M189.259,59.705l0,30.554l15.278,-15.276l-15.278,-15.278Z" style="fill:#fff;fill-rule:nonzero;"/></svg>