<?xml version="1.0" encoding="utf-8"?>
<!-- Generator: Adobe Illustrator 16.0.0, SVG Export Plug-In . SVG Version: 6.00 Build 0)  -->
<!DOCTYPE svg PUBLIC "-//W3C//DTD SVG 1.1//EN" "http://www.w3.org/Graphics/SVG/1.1/DTD/svg11.dtd">
<svg version="1.1" id="Layer_1" xmlns="http://www.w3.org/2000/svg" xmlns:xlink="http://www.w3.org/1999/xlink" x="0px" y="0px"
	 width="160px" height="160px" viewBox="0 0 160 160" enable-background="new 0 0 160 160" xml:space="preserve">
<g>
	<path fill="#FBFDFE" d="M6.45,111.5C18.681,140.02,47.004,160,80,160c32.997,0,61.32-19.98,73.551-48.5H6.45z"/>
	<rect x="7.001" y="110.641" fill="#EBF6FA" width="146" height="1"/>
	<path fill="#77C3DE" d="M80,1c43.561,0,79,35.439,79,79c0,43.561-35.439,79-79,79c-43.561,0-79-35.439-79-79
		C1,36.439,36.439,1,80,1 M80,0C35.818,0,0,35.817,0,80c0,44.184,35.818,80,80,80c44.184,0,80-35.816,80-80
		C160,35.817,124.184,0,80,0L80,0z"/>
</g>
<polygon fill="#243757" points="114.014,127.854 114.014,101.979 100.014,101.979 100.014,51.979 92.182,51.979 92.182,35.936 
	84.906,35.936 84.906,30.936 75.133,30.936 75.133,35.936 67.826,35.936 67.826,51.979 60.015,51.979 60.015,101.979 
	46.015,101.979 46.015,127.854 40.25,127.854 40.25,130.979 119.75,130.979 119.75,127.854 "/>
<g>
	<polygon fill="#FFFFFF" points="97.014,104.979 97.014,54.979 63.015,54.979 63.015,104.979 49.015,104.979 49.015,127.979 
		111.014,127.979 111.014,104.979 	"/>
	<rect x="77.85" y="34.178" fill="#FFFFFF" width="4.309" height="17.782"/>
	<rect x="84.85" y="38.637" fill="#FFFFFF" width="4.311" height="13.323"/>
	<rect x="70.85" y="38.637" fill="#FFFFFF" width="4.31" height="13.323"/>
</g>
<rect x="79.718" y="11.021" fill="#D30B16" width="0.604" height="22.333"/>
<g>
	<path fill="#243757" d="M77.85,76.936H67.826v13.023H77.85V76.936z M76.066,88.177h-6.457v-9.459h6.457V88.177z"/>
	<path fill="#243757" d="M82.158,89.959h10.023V76.936H82.158V89.959z M83.941,78.718h6.457v9.459h-6.457V78.718z"/>
	<path fill="#243757" d="M77.85,59.936H67.826v13.023H77.85V59.936z M76.066,71.177h-6.457v-9.459h6.457V71.177z"/>
	<path fill="#243757" d="M82.158,72.959h10.023V59.936H82.158V72.959z M83.941,61.718h6.457v9.459h-6.457V61.718z"/>
	<path fill="#243757" d="M77.85,94.514H67.826v13.023H77.85V94.514z M76.066,105.755h-6.457v-9.459h6.457V105.755z"/>
	<path fill="#243757" d="M82.158,107.537h10.023V94.514H82.158V107.537z M83.941,96.296h6.457v9.459h-6.457V96.296z"/>
	<path fill="#243757" d="M53.492,122.537h10.023v-13.023H53.492V122.537z M55.275,111.296h6.457v9.459h-6.457V111.296z"/>
	<path fill="#243757" d="M96.492,109.514v13.023h10.023v-13.023H96.492z M104.732,120.755h-6.457v-9.459h6.457V120.755z"/>
	<path fill="#243757" d="M68.333,116.396h2.53v13.225h8.25h1.774h8.25v-13.225h2.528v-2H68.333V116.396z M80.469,116.396h6.375
		v11.44h-6.375V116.396z M73.136,116.396h6.375v11.44h-6.375V116.396z"/>
	<rect x="73.167" y="111.396" fill="#D30B16" width="13.666" height="2"/>
</g>
</svg>
