<?xml version="1.0" encoding="utf-8"?>
<!-- Generator: Adobe Illustrator 16.0.0, SVG Export Plug-In . SVG Version: 6.00 Build 0)  -->
<!DOCTYPE svg PUBLIC "-//W3C//DTD SVG 1.1//EN" "http://www.w3.org/Graphics/SVG/1.1/DTD/svg11.dtd">
<svg version="1.1" id="Layer_1" xmlns="http://www.w3.org/2000/svg" xmlns:xlink="http://www.w3.org/1999/xlink" x="0px" y="0px"
	 width="160px" height="160px" viewBox="0 0 160 160" enable-background="new 0 0 160 160" xml:space="preserve">
<g>
	<path fill="#FBFDFE" d="M6.45,111.5C18.681,140.02,47.004,160,80,160c32.997,0,61.32-19.98,73.551-48.5H6.45z"/>
	<rect x="7.001" y="110.641" fill="#EBF6FA" width="146" height="1"/>
	<path fill="#77C3DE" d="M80,1c43.561,0,79,35.439,79,79c0,43.561-35.439,79-79,79c-43.561,0-79-35.439-79-79
		C1,36.439,36.439,1,80,1 M80,0C35.818,0,0,35.817,0,80c0,44.184,35.818,80,80,80c44.184,0,80-35.816,80-80
		C160,35.817,124.184,0,80,0L80,0z"/>
</g>
<rect x="42" y="39" fill="#243757" width="76" height="92"/>
<rect x="45" y="42" fill="#FFFFFF" width="70" height="86"/>
<g>
	<polygon fill="#243757" points="64.954,58.135 64.954,65.26 52.492,65.26 52.492,52.796 61.394,52.796 61.394,51.014 
		50.708,51.014 50.708,67.037 66.732,67.037 66.732,58.135 	"/>
	<polygon fill="#D30B16" points="55.073,57.335 53.826,58.582 57.829,62.585 66.732,53.683 65.489,52.439 57.829,60.095 	"/>
</g>
<g>
	<polygon fill="#D30B16" points="55.073,82.335 53.826,83.582 57.829,87.585 66.732,78.683 65.489,77.439 57.829,85.096 	"/>
	<polygon fill="#243757" points="64.954,83.135 64.954,90.26 52.492,90.26 52.492,77.796 61.394,77.796 61.394,76.014 
		50.708,76.014 50.708,92.037 66.732,92.037 66.732,83.135 	"/>
</g>
<path fill="#243757" d="M50.708,102.014v16.023h16.023v-16.023H50.708z M64.949,116.255l-12.457,0.005v-12.464l12.457-0.005V116.255
	z"/>
<path fill="#D20C18" d="M64.954,116.26"/>
<polygon fill="#243757" points="107.794,58.979 107.794,57.104 76.208,57.104 76.208,51.021 74.333,51.021 74.333,66.979 
	74.334,66.979 97.71,66.979 97.71,65.104 76.208,65.104 76.208,62.979 107.794,62.979 107.794,61.104 76.208,61.104 76.208,58.979 
	"/>
<polygon fill="#243757" points="107.794,88.037 107.794,86.162 76.208,86.162 76.208,84.037 104.877,84.037 104.877,82.162 
	76.208,82.162 76.208,76.078 74.333,76.078 74.333,92.037 90.71,92.037 90.71,90.162 76.208,90.162 76.208,88.037 "/>
</svg>
