<?xml version="1.0" encoding="utf-8"?>
<!-- Generator: Adobe Illustrator 16.0.0, SVG Export Plug-In . SVG Version: 6.00 Build 0)  -->
<!DOCTYPE svg PUBLIC "-//W3C//DTD SVG 1.1//EN" "http://www.w3.org/Graphics/SVG/1.1/DTD/svg11.dtd">
<svg version="1.1" id="Layer_1" xmlns="http://www.w3.org/2000/svg" xmlns:xlink="http://www.w3.org/1999/xlink" x="0px" y="0px"
	 width="160px" height="160px" viewBox="0 0 160 160" enable-background="new 0 0 160 160" xml:space="preserve">
<g>
	<path fill="#FBFDFE" d="M6.45,111.5C18.681,140.02,47.004,160,80,160c32.997,0,61.32-19.98,73.551-48.5H6.45z"/>
	<rect x="7.001" y="110.641" fill="#EBF6FA" width="146" height="1"/>
	<path fill="#77C3DE" d="M80,1c43.561,0,79,35.439,79,79c0,43.561-35.439,79-79,79c-43.561,0-79-35.439-79-79
		C1,36.439,36.439,1,80,1 M80,0C35.818,0,0,35.817,0,80c0,44.184,35.818,80,80,80c44.184,0,80-35.816,80-80
		C160,35.817,124.184,0,80,0L80,0z"/>
</g>
<path fill="#243757" d="M132,41H28v79h47.545c0.247,1.979,1.915,3.516,3.961,3.516c2.044,0,3.715-1.535,3.961-3.516H132V41z"/>
<rect x="31" y="44" fill="#FFFFFF" width="98" height="71"/>
<polygon fill="#243757" points="95,128 95,121 65,121 65,128 50,128 50,131 65,131 95,131 109,131 109,128 "/>
<circle fill="#FFFFFF" cx="79.507" cy="119.505" r="2.036" stroke="#D30B16"/>
<path fill="#C42126" d="M79.751,73.176"/>
<path fill="#243757" d="M98.73,72.93l-0.902-2.14c3.089-6.986,2.886-7.194,2.283-7.799l-3.944-3.852l-0.394-0.334h-0.457
	c-0.243,0-0.961,0-6.959,2.723l-2.207-0.89c-2.858-7.075-3.151-7.075-3.983-7.075H76.6c-0.835,0-1.16,0-3.807,7.099l-2.198,0.893
	c-4.055-1.711-6.433-2.577-7.072-2.577l-0.528,0.013l-4.244,4.163c-0.647,0.605-0.873,0.822,2.397,7.694l-0.898,2.133
	c-7.229,2.795-7.229,3.066-7.229,3.919v5.459c0,0.859,0,1.156,7.252,3.759l0.898,2.127c-3.089,6.981-2.88,7.188-2.28,7.79
	l3.946,3.859l0.394,0.334h0.46c0.236,0,0.949,0,6.954-2.722l2.208,0.894c2.854,7.076,3.143,7.07,3.984,7.07h5.567
	c0.853,0,1.15,0,3.806-7.097l2.213-0.896c4.052,1.717,6.421,2.584,7.058,2.584l0.533-0.015l4.277-4.185
	c0.604-0.615,0.82-0.832-2.432-7.674l0.894-2.138c7.239-2.795,7.239-3.088,7.239-3.923v-5.455
	C105.992,75.818,105.992,75.518,98.73,72.93z M104.157,81.566c-1.062,0.528-3.896,1.693-6.349,2.638l-0.457,0.174l-1.686,4.021
	l0.221,0.465c1.094,2.279,2.301,4.986,2.701,6.093l-3.143,3.067c-1.115-0.348-3.982-1.498-6.403-2.531L88.6,95.311l-4.063,1.639
	l-0.181,0.479c-0.887,2.385-1.998,5.159-2.508,6.201h-4.469c-0.537-1.027-1.73-3.809-2.696-6.214l-0.18-0.45l-4.062-1.648
	l-0.45,0.207c-2.403,1.094-5.242,2.314-6.257,2.668l-3.152-3.086c0.374-1.11,1.53-3.887,2.573-6.234l0.203-0.455l-1.696-4.006
	l-0.473-0.176c-2.435-0.866-5.261-1.941-6.331-2.452v-4.317c1.062-0.529,3.893-1.692,6.34-2.633l0.455-0.175l1.69-4.019
	l-0.224-0.464c-1.085-2.278-2.298-4.984-2.692-6.087l3.137-3.074c1.117,0.354,3.987,1.498,6.418,2.528l0.441,0.188l4.057-1.649
	l0.174-0.469c0.887-2.39,1.99-5.159,2.503-6.203h4.466c0.543,1.03,1.736,3.814,2.695,6.212l0.185,0.455l4.067,1.641l0.443-0.207
	c2.404-1.093,5.248-2.315,6.264-2.669l3.15,3.078c-0.371,1.116-1.535,3.89-2.578,6.243l-0.201,0.456l1.695,4.024l0.477,0.169
	c2.436,0.863,5.266,1.94,6.337,2.444V81.566z"/>
<g>
	<path fill="#D30B16" d="M90.039,79.643c0-5.705-4.641-10.345-10.344-10.345c-4.78,0-8.812,3.261-9.991,7.674
		c1.48-3.421,4.888-5.821,8.847-5.821c5.312,0,9.635,4.323,9.635,9.636c0,3.956-2.396,7.363-5.814,8.845
		C86.779,88.45,90.039,84.42,90.039,79.643"/>
	<path fill="#D30B16" d="M77.406,74.828c-1.895,0-3.679,0.74-5.021,2.085c-1.344,1.342-2.082,3.125-2.082,5.019
		c0,3.916,3.186,7.104,7.103,7.104c3.917,0,7.102-3.188,7.102-7.104C84.508,78.015,81.322,74.828,77.406,74.828 M77.406,87.239
		c-2.927,0-5.309-2.382-5.309-5.31c0-2.927,2.382-5.308,5.309-5.308c2.928,0,5.309,2.381,5.309,5.31
		C82.715,84.857,80.334,87.239,77.406,87.239"/>
	<path fill="#D30B16" d="M87.273,80.786c0-4.811-3.914-8.724-8.723-8.724c-4.074,0-7.502,2.806-8.458,6.586
		c0.394-0.875,0.945-1.683,1.646-2.381c1.517-1.518,3.528-2.352,5.667-2.352c4.42,0,8.016,3.595,8.016,8.015
		c0,3.256-1.951,6.062-4.744,7.315C84.463,88.294,87.273,84.863,87.273,80.786"/>
</g>
</svg>
