<?xml version="1.0" encoding="utf-8"?>
<!-- Generator: Adobe Illustrator 16.0.4, SVG Export Plug-In . SVG Version: 6.00 Build 0)  -->
<!DOCTYPE svg PUBLIC "-//W3C//DTD SVG 1.1//EN" "http://www.w3.org/Graphics/SVG/1.1/DTD/svg11.dtd">
<svg version="1.1" id="Layer_1" xmlns="http://www.w3.org/2000/svg" xmlns:xlink="http://www.w3.org/1999/xlink" x="0px" y="0px"
	 width="250px" height="140px" viewBox="0 0 250 140" enable-background="new 0 0 250 140" xml:space="preserve">
<g>
	<g opacity="0.8">
		<path fill="#E1E8EE" d="M24.748,137.049H4.75V27.831h69.547v16.734H24.748v28.243h42.365v16.733H24.748V137.049z"/>
		<path fill="#E1E8EE" d="M133.153,137.049h-19.999V44.565H77.892V27.831h90.441v16.734h-35.18V137.049z"/>
		<path fill="#E1E8EE" d="M224.181,105.704c0-2.775-0.682-5.02-2.041-6.735c-1.36-1.713-3.211-3.114-5.55-4.204
			c-2.342-1.088-4.967-1.971-7.878-2.652c-2.912-0.68-5.973-1.348-9.184-2c-4.244-0.925-8.299-2.027-12.162-3.307
			c-3.864-1.278-7.264-3.046-10.203-5.305c-2.938-2.258-5.279-5.129-7.02-8.612c-1.742-3.482-2.612-7.836-2.612-13.061
			c0-5.767,1.007-10.788,3.021-15.06c2.013-4.271,4.746-7.809,8.203-10.612c3.455-2.802,7.51-4.898,12.163-6.286
			s9.89-2.081,15.712-2.081c5.823,0,11.673,0.571,17.551,1.714c5.877,1.143,10.938,2.612,15.182,4.407v17.142
			c-5.659-2.23-11.087-3.849-16.284-4.856c-5.197-1.007-10.08-1.51-14.652-1.51c-6.584,0-11.659,1.197-15.223,3.591
			c-3.565,2.396-5.347,5.987-5.347,10.775c0,2.775,0.584,5.061,1.755,6.857c1.17,1.795,2.762,3.279,4.774,4.449
			c2.013,1.17,4.326,2.109,6.939,2.816c2.612,0.708,5.388,1.361,8.326,1.959c4.624,0.979,9.046,2.109,13.265,3.387
			c4.217,1.279,7.958,3.062,11.224,5.346c3.264,2.286,5.849,5.265,7.754,8.938c1.904,3.674,2.856,8.367,2.856,14.081
			c0,5.878-1.089,10.966-3.265,15.265c-2.177,4.3-5.266,7.851-9.265,10.652c-4,2.803-8.855,4.885-14.57,6.245
			c-5.715,1.359-11.973,2.041-18.774,2.041c-5.932,0-11.769-0.586-17.509-1.755c-5.743-1.169-10.517-2.816-14.325-4.938V115.5
			c5.387,2.34,10.638,4.041,15.753,5.101c5.115,1.062,10.395,1.592,15.836,1.592c3.156,0,6.258-0.257,9.307-0.774
			c3.046-0.517,5.78-1.401,8.203-2.654c2.42-1.251,4.367-2.951,5.837-5.102C223.446,111.514,224.181,108.861,224.181,105.704z"/>
	</g>
	<g>
		<polygon fill="#21495F" points="209.992,89.062 209.992,85.262 208.571,85.262 208.571,84.755 211.983,84.755 211.983,85.262 
			210.562,85.262 210.562,89.062 		"/>
		<path fill="#21495F" d="M212.554,89.062v-4.307h0.854l1.022,3.048c0.093,0.286,0.163,0.5,0.202,0.641
			c0.053-0.158,0.128-0.389,0.235-0.693l1.028-2.997h0.769v4.307h-0.553v-3.605l-1.251,3.605h-0.513l-1.247-3.665v3.665H212.554z"/>
	</g>
	<g>
		<path fill="#5AB5D9" d="M40.013,78.142h-4.101V55.744h14.262v3.432H40.013v5.792h8.688v3.432h-8.688V78.142z"/>
		<path fill="#5AB5D9" d="M54.286,78.142V55.744h4.103v22.398H54.286z"/>
		<path fill="#5AB5D9" d="M75.927,66.156c1.608,2.288,2.913,4.319,3.918,6.093h0.101c-0.134-2.912-0.201-5.033-0.201-6.361V55.744
			h4.101v22.398h-4.302L72.244,67.83c-1.283-1.786-2.61-3.855-3.983-6.21H68.16c0.134,2.745,0.2,4.871,0.2,6.377v10.145H64.26
			V55.744h4.302L75.927,66.156z"/>
		<path fill="#5AB5D9" d="M102.538,72.434h-8.436l-2.193,5.708h-4.37l8.89-22.398h3.75l8.888,22.398h-4.334L102.538,72.434z
			 M98.286,61.134c-0.782,2.343-1.48,4.301-2.095,5.875l-0.765,1.993h5.788l-0.766-1.993c-0.607-1.587-1.306-3.546-2.097-5.875
			H98.286z"/>
		<path fill="#5AB5D9" d="M124.431,66.156c1.606,2.288,2.911,4.319,3.916,6.093h0.101c-0.134-2.912-0.2-5.033-0.2-6.361V55.744
			h4.101v22.398h-4.303l-7.297-10.312c-1.284-1.786-2.613-3.855-3.984-6.21h-0.101c0.134,2.745,0.201,4.871,0.201,6.377v10.145
			h-4.102V55.744h4.301L124.431,66.156z"/>
		<path fill="#5AB5D9" d="M149.116,58.791c-1.116,0-2.146,0.185-3.087,0.552c-0.943,0.369-1.754,0.904-2.429,1.608
			c-0.676,0.703-1.202,1.57-1.583,2.603c-0.378,1.032-0.568,2.212-0.568,3.54c0,1.317,0.174,2.476,0.52,3.474
			c0.346,0.998,0.842,1.833,1.49,2.502c0.646,0.67,1.437,1.175,2.367,1.515c0.933,0.341,1.99,0.511,3.173,0.511
			c0.847,0,1.714-0.066,2.595-0.201c0.882-0.133,1.708-0.328,2.478-0.585v3.532c-0.782,0.223-1.624,0.398-2.527,0.527
			c-0.904,0.128-1.842,0.192-2.812,0.192c-1.896,0-3.566-0.271-5.005-0.812c-1.438-0.542-2.643-1.306-3.608-2.293
			s-1.69-2.171-2.176-3.549c-0.485-1.377-0.728-2.899-0.728-4.562c0-1.707,0.259-3.292,0.779-4.754
			c0.518-1.461,1.265-2.729,2.241-3.8c0.977-1.072,2.199-1.914,3.666-2.527c1.467-0.614,3.127-0.926,4.98-0.938
			c0.948,0,1.849,0.064,2.695,0.192c0.849,0.128,1.611,0.309,2.293,0.543v3.482c-0.893-0.279-1.724-0.474-2.494-0.586
			C150.605,58.847,149.853,58.791,149.116,58.791z"/>
		<path fill="#5AB5D9" d="M158.77,78.142V55.744h4.103v22.398H158.77z"/>
		<path fill="#5AB5D9" d="M181.565,72.434h-8.437l-2.193,5.708h-4.368l8.889-22.398h3.749l8.891,22.398h-4.338L181.565,72.434z
			 M177.314,61.134c-0.783,2.343-1.482,4.301-2.096,5.875l-0.766,1.993h5.789l-0.766-1.993c-0.606-1.587-1.306-3.546-2.097-5.875
			H177.314z"/>
		<path fill="#5AB5D9" d="M195.891,55.744V74.71h10.479v3.432h-14.581V55.744H195.891z"/>
	</g>
	<path fill="#21495F" d="M47.244,106.846h-4.101V87.881h-7.231v-3.433h18.547v3.433h-7.215V106.846z"/>
	<path fill="#21495F" d="M61.398,103.415h11.015v3.431H57.297V84.448H71.81v3.433H61.398v5.792h8.939v3.432h-8.939V103.415z"/>
	<path fill="#21495F" d="M87.473,100.418c0-0.568-0.141-1.029-0.42-1.381c-0.278-0.351-0.658-0.638-1.138-0.862
		c-0.479-0.223-1.019-0.403-1.615-0.544c-0.597-0.139-1.226-0.276-1.883-0.41c-0.871-0.189-1.703-0.416-2.495-0.678
		c-0.792-0.262-1.489-0.625-2.092-1.088c-0.604-0.463-1.083-1.052-1.44-1.765c-0.356-0.715-0.536-1.607-0.536-2.679
		c0-1.183,0.207-2.213,0.62-3.088c0.413-0.876,0.974-1.601,1.683-2.176c0.708-0.576,1.54-1.004,2.494-1.29
		c0.954-0.284,2.027-0.428,3.223-0.428c1.194,0,2.394,0.118,3.6,0.353c1.204,0.235,2.242,0.537,3.112,0.905v3.516
		c-1.161-0.458-2.273-0.791-3.339-0.997c-1.066-0.207-2.068-0.31-3.006-0.31c-1.351,0-2.39,0.245-3.122,0.736
		c-0.73,0.492-1.096,1.228-1.096,2.209c0,0.57,0.12,1.038,0.36,1.406c0.24,0.369,0.564,0.673,0.979,0.913
		c0.412,0.24,0.887,0.433,1.423,0.577c0.535,0.146,1.104,0.279,1.707,0.403c0.948,0.2,1.855,0.431,2.72,0.693
		c0.864,0.263,1.633,0.627,2.302,1.097c0.671,0.469,1.2,1.08,1.591,1.833c0.39,0.753,0.586,1.716,0.586,2.887
		c0,1.206-0.224,2.25-0.67,3.13c-0.446,0.882-1.08,1.612-1.899,2.185c-0.82,0.574-1.816,1.001-2.988,1.28
		c-1.172,0.279-2.455,0.419-3.85,0.419c-1.218,0-2.414-0.12-3.593-0.359c-1.176-0.24-2.156-0.578-2.937-1.013v-3.465
		c1.104,0.48,2.182,0.828,3.23,1.045c1.049,0.219,2.132,0.328,3.248,0.328c0.647,0,1.283-0.053,1.908-0.16
		c0.624-0.107,1.186-0.287,1.683-0.544c0.496-0.256,0.896-0.606,1.196-1.047C87.321,101.611,87.473,101.067,87.473,100.418z"/>
	<path fill="#21495F" d="M105.058,106.846h-4.102V87.881h-7.231v-3.433h18.548v3.433h-7.215V106.846z"/>
	<path fill="#21495F" d="M132.022,100.418c0-0.568-0.139-1.029-0.418-1.381c-0.278-0.351-0.659-0.638-1.138-0.862
		c-0.479-0.223-1.019-0.403-1.616-0.544c-0.597-0.139-1.225-0.276-1.884-0.41c-0.869-0.189-1.7-0.416-2.493-0.678
		c-0.793-0.262-1.49-0.625-2.093-1.088c-0.602-0.463-1.082-1.052-1.439-1.765c-0.357-0.715-0.535-1.607-0.535-2.679
		c0-1.183,0.206-2.213,0.619-3.088c0.413-0.876,0.974-1.601,1.682-2.176c0.71-0.576,1.54-1.004,2.495-1.29
		c0.954-0.284,2.028-0.428,3.222-0.428c1.195,0,2.394,0.118,3.599,0.353c1.207,0.235,2.244,0.537,3.115,0.905v3.516
		c-1.162-0.458-2.274-0.791-3.341-0.997c-1.065-0.207-2.067-0.31-3.005-0.31c-1.35,0-2.392,0.245-3.121,0.736
		c-0.73,0.492-1.098,1.228-1.098,2.209c0,0.57,0.121,1.038,0.361,1.406c0.238,0.369,0.565,0.673,0.979,0.913
		c0.413,0.24,0.886,0.433,1.422,0.577c0.535,0.146,1.105,0.279,1.708,0.403c0.949,0.2,1.855,0.431,2.72,0.693
		c0.864,0.263,1.633,0.627,2.302,1.097c0.67,0.469,1.201,1.08,1.592,1.833c0.389,0.753,0.584,1.716,0.584,2.887
		c0,1.206-0.223,2.25-0.669,3.13c-0.447,0.882-1.079,1.612-1.899,2.185c-0.819,0.574-1.817,1.001-2.989,1.28
		c-1.172,0.279-2.453,0.419-3.849,0.419c-1.219,0-2.413-0.12-3.592-0.359c-1.177-0.24-2.156-0.578-2.938-1.013v-3.465
		c1.104,0.48,2.182,0.828,3.231,1.045c1.048,0.219,2.13,0.328,3.247,0.328c0.646,0,1.283-0.053,1.908-0.16
		c0.624-0.107,1.186-0.287,1.682-0.544c0.496-0.256,0.896-0.606,1.197-1.047C131.873,101.611,132.022,101.067,132.022,100.418z"/>
	<path fill="#21495F" d="M149.728,107.266c-1.173,0-2.228-0.114-3.166-0.344c-0.938-0.228-1.764-0.558-2.478-0.987
		c-0.714-0.43-1.321-0.954-1.823-1.574c-0.503-0.62-0.903-1.319-1.206-2.101c-0.244-0.624-0.42-1.316-0.527-2.075
		c-0.105-0.759-0.158-1.607-0.158-2.545V84.448h4.102v12.824c0,1.585,0.189,2.823,0.568,3.716c0.424,0.994,1.043,1.71,1.859,2.151
		c0.813,0.442,1.773,0.662,2.879,0.662c1.104,0,2.063-0.22,2.878-0.662c0.815-0.44,1.436-1.157,1.858-2.151
		c0.381-0.893,0.569-2.131,0.569-3.716V84.448h4.102V97.64c0,0.938-0.053,1.786-0.159,2.545c-0.107,0.759-0.281,1.451-0.527,2.075
		c-0.301,0.782-0.707,1.481-1.213,2.101c-0.508,0.62-1.127,1.144-1.858,1.574c-0.731,0.429-1.571,0.759-2.521,0.987
		C151.958,107.151,150.898,107.266,149.728,107.266z"/>
	<path fill="#21495F" d="M164.114,106.846V84.448h4.102v22.398H164.114z"/>
	<path fill="#21495F" d="M182.421,106.846h-4.102V87.881h-7.232v-3.433h18.55v3.433h-7.216V106.846z"/>
	<path fill="#21495F" d="M196.575,103.415h11.014v3.431h-15.115V84.448h14.514v3.433h-10.412v5.792h8.938v3.432h-8.938V103.415z"/>
	<g>
		<path fill="#E1E8EE" d="M10.03,3.18c0,0.843-0.288,1.492-0.862,1.946C8.592,5.579,7.77,5.806,6.698,5.806h-0.98v3.275H4.75V0.753
			h2.158C8.99,0.753,10.03,1.562,10.03,3.18z M5.718,4.974H6.59c0.857,0,1.479-0.138,1.863-0.416
			c0.383-0.277,0.575-0.722,0.575-1.333c0-0.551-0.181-0.961-0.541-1.23c-0.361-0.27-0.923-0.404-1.687-0.404H5.718V4.974z"/>
		<path fill="#E1E8EE" d="M33.576,9.082l-1.037-2.649H29.2l-1.025,2.649h-0.979l3.293-8.362h0.813l3.276,8.362H33.576z
			 M32.236,5.561L31.268,2.98c-0.124-0.327-0.254-0.728-0.387-1.202c-0.084,0.365-0.202,0.766-0.358,1.202l-0.98,2.581H32.236z"/>
		<path fill="#E1E8EE" d="M53.259,5.618v3.463H52.29V0.753h2.285c1.021,0,1.775,0.196,2.264,0.587s0.731,0.98,0.731,1.766
			c0,1.101-0.558,1.846-1.675,2.233l2.262,3.743h-1.145l-2.017-3.463H53.259z M53.259,4.786h1.327c0.684,0,1.185-0.136,1.503-0.407
			c0.319-0.271,0.479-0.679,0.479-1.222c0-0.551-0.161-0.948-0.486-1.191c-0.324-0.243-0.847-0.364-1.563-0.364h-1.259V4.786z"/>
		<path fill="#E1E8EE" d="M78.632,9.082h-0.969V1.613h-2.637v-0.86h6.244v0.86h-2.639V9.082z"/>
		<path fill="#E1E8EE" d="M125.916,4.906c0,1.333-0.337,2.381-1.011,3.145c-0.675,0.764-1.612,1.145-2.812,1.145
			c-1.228,0-2.174-0.375-2.84-1.125c-0.667-0.75-0.999-1.809-0.999-3.175c0-1.356,0.333-2.407,1.002-3.154
			c0.668-0.746,1.617-1.119,2.849-1.119c1.196,0,2.13,0.38,2.803,1.139C125.58,2.521,125.916,3.569,125.916,4.906z M119.28,4.906
			c0,1.128,0.239,1.983,0.72,2.567c0.479,0.583,1.179,0.874,2.094,0.874c0.923,0,1.62-0.291,2.09-0.872
			c0.472-0.581,0.707-1.438,0.707-2.569c0-1.12-0.234-1.97-0.704-2.549c-0.469-0.58-1.162-0.869-2.081-0.869
			c-0.924,0-1.626,0.292-2.105,0.875C119.52,2.946,119.28,3.793,119.28,4.906z"/>
		<path fill="#E1E8EE" d="M145.309,9.082h-0.969V0.753h4.643v0.86h-3.674v3.048h3.452v0.86h-3.452V9.082z"/>
		<path fill="#E1E8EE" d="M189.089,9.082h-0.97V1.613h-2.638v-0.86h6.243v0.86h-2.636V9.082z"/>
		<path fill="#E1E8EE" d="M215.869,9.082H214.9V5.163h-4.386v3.919h-0.97V0.753h0.97v3.543h4.386V0.753h0.969V9.082z"/>
		<path fill="#E1E8EE" d="M239.362,9.082h-4.643V0.753h4.643v0.86h-3.674v2.683h3.452v0.855h-3.452v3.065h3.674V9.082z"/>
	</g>
</g>
</svg>
