<?xml version="1.0" encoding="utf-8"?>
<!-- Generator: Adobe Illustrator 16.0.4, SVG Export Plug-In . SVG Version: 6.00 Build 0)  -->
<!DOCTYPE svg PUBLIC "-//W3C//DTD SVG 1.1//EN" "http://www.w3.org/Graphics/SVG/1.1/DTD/svg11.dtd">
<svg version="1.1" id="Layer_1" xmlns="http://www.w3.org/2000/svg" xmlns:xlink="http://www.w3.org/1999/xlink" x="0px" y="0px"
	 width="160px" height="160px" viewBox="0 0 160 160" enable-background="new 0 0 160 160" xml:space="preserve">
<circle opacity="0.5" fill="#FFFFFF" enable-background="new    " cx="80" cy="80" r="79.75"/>
<path fill="#FBFDFE" d="M6.45,111.5C18.681,140.02,47.003,160,80,160s61.32-19.98,73.551-48.5H6.45z"/>
<rect x="7" y="110.641" fill="#EBF6FA" width="146" height="1"/>
<path fill="#77C3DE" d="M80,1c43.561,0,79,35.439,79,79c0,43.561-35.439,79-79,79c-43.561,0-79-35.439-79-79C1,36.439,36.439,1,80,1
	 M80,0C35.818,0,0,35.817,0,80c0,44.184,35.818,80,80,80c44.184,0,80-35.816,80-80C160,35.817,124.184,0,80,0L80,0z"/>
<g>
	<rect x="46.901" y="30" fill="#263758" width="66.196" height="2.041"/>
	<rect x="44.079" y="33.062" fill="#263758" width="71.842" height="2.041"/>
	<rect x="41" y="36.123" fill="#263758" width="78" height="93.877"/>
	<rect x="44.079" y="39.184" fill="#FFFFFF" width="71.842" height="87.755"/>
</g>
<rect x="49.417" y="45.787" fill="#263758" width="1.964" height="49.225"/>
<rect x="107.457" y="45.787" fill="#263758" width="1.964" height="49.225"/>
<rect x="49.417" y="45.787" fill="#263758" width="60.004" height="1.964"/>
<rect x="49.417" y="50.542" fill="#263758" width="60.004" height="1.964"/>
<rect x="54.437" y="45.786" fill="#263758" width="1.964" height="6.719"/>
<rect x="59.437" y="45.786" fill="#263758" width="1.964" height="6.719"/>
<rect x="64.437" y="45.786" fill="#263758" width="1.964" height="6.719"/>
<rect x="49.417" y="93.542" fill="#263758" width="60.004" height="1.964"/>
<g>
	<path fill="#D30C18" d="M94.582,72.135c0-8.214-6.656-14.898-14.839-14.898c-6.852,0-12.634,4.701-14.324,11.06
		c2.121-4.936,7.009-8.389,12.689-8.389c7.615,0,13.816,6.231,13.816,13.884c0,5.696-3.436,10.596-8.338,12.734
		C89.908,84.827,94.582,79.017,94.582,72.135"/>
	<path fill="#D30C18" d="M76.462,65.204c-2.718,0-5.274,1.067-7.199,3.001c-1.929,1.94-2.986,4.502-2.986,7.226
		c0,5.64,4.568,10.233,10.185,10.233c5.62,0,10.185-4.593,10.185-10.233C86.648,69.79,82.08,65.204,76.462,65.204 M76.462,83.079
		c-4.194,0-7.612-3.429-7.612-7.647c0-4.213,3.417-7.642,7.612-7.642c4.2,0,7.616,3.429,7.616,7.642
		C84.078,79.65,80.662,83.079,76.462,83.079"/>
	<path fill="#D30C18" d="M90.615,73.786c0-6.93-5.613-12.565-12.514-12.565c-5.84,0-10.758,4.044-12.132,9.487
		c0.57-1.26,1.359-2.423,2.362-3.429c2.179-2.188,5.06-3.387,8.13-3.387c6.341,0,11.495,5.177,11.495,11.541
		c0,4.687-2.795,8.732-6.803,10.534C86.584,84.599,90.615,79.656,90.615,73.786"/>
</g>
</svg>
