<?xml version="1.0" encoding="utf-8"?>
<!-- Generator: Adobe Illustrator 16.0.4, SVG Export Plug-In . SVG Version: 6.00 Build 0)  -->
<!DOCTYPE svg PUBLIC "-//W3C//DTD SVG 1.1//EN" "http://www.w3.org/Graphics/SVG/1.1/DTD/svg11.dtd">
<svg version="1.1" id="Layer_1" xmlns="http://www.w3.org/2000/svg" xmlns:xlink="http://www.w3.org/1999/xlink" x="0px" y="0px"
	 width="160px" height="160px" viewBox="0 0 160 160" enable-background="new 0 0 160 160" xml:space="preserve">
<circle opacity="0.5" fill="#FFFFFF" enable-background="new    " cx="80" cy="80" r="79.75"/>
<path fill="#FBFDFE" d="M6.45,111.5C18.681,140.02,47.003,160,80,160s61.32-19.98,73.551-48.5H6.45z"/>
<rect x="7" y="110.641" fill="#EBF6FA" width="146" height="1"/>
<path fill="#77C3DE" d="M80,1c43.561,0,79,35.439,79,79c0,43.561-35.439,79-79,79c-43.561,0-79-35.439-79-79C1,36.439,36.439,1,80,1
	 M80,0C35.818,0,0,35.817,0,80c0,44.184,35.818,80,80,80c44.184,0,80-35.816,80-80C160,35.817,124.184,0,80,0L80,0z"/>
<g>
	<rect x="46.901" y="30" fill="#263758" width="66.197" height="2.041"/>
	<rect x="44.079" y="33.062" fill="#263758" width="71.842" height="2.041"/>
	<rect x="41" y="36.123" fill="#263758" width="78" height="93.877"/>
	<rect x="44.079" y="39.184" fill="#FFFFFF" width="71.842" height="87.755"/>
</g>
<rect x="49.417" y="45.787" fill="#263758" width="1.964" height="16.719"/>
<rect x="107.457" y="45.787" fill="#263758" width="1.964" height="16.719"/>
<rect x="49.417" y="45.787" fill="#263758" width="60.004" height="1.964"/>
<rect x="49.417" y="60.542" fill="#263758" width="60.004" height="1.964"/>
<rect x="49.417" y="65.787" fill="#263758" width="1.964" height="16.719"/>
<rect x="77.501" y="65.787" fill="#263758" width="1.964" height="16.719"/>
<rect x="49.417" y="65.787" fill="#263758" width="30.048" height="1.964"/>
<rect x="49.417" y="80.542" fill="#263758" width="30.048" height="1.964"/>
<rect x="49.417" y="98.787" fill="#D30C18" width="1.964" height="16.719"/>
<rect x="63.876" y="98.787" fill="#D30C18" width="1.964" height="16.719"/>
<rect x="49.417" y="98.787" fill="#D30C18" width="16.423" height="1.964"/>
<rect x="49.417" y="113.542" fill="#D30C18" width="16.423" height="1.964"/>
<rect x="82.371" y="65.787" fill="#D30C18" width="1.964" height="16.719"/>
<rect x="107.457" y="65.787" fill="#D30C18" width="1.964" height="16.719"/>
<rect x="82.367" y="65.787" fill="#D30C18" width="27.098" height="1.964"/>
<rect x="82.367" y="80.542" fill="#D30C18" width="27.098" height="1.964"/>
<rect x="49.417" y="85.787" fill="#263758" width="1.964" height="9.213"/>
<rect x="107.457" y="85.787" fill="#263758" width="1.964" height="9.213"/>
<rect x="49.417" y="85.787" fill="#263758" width="60.004" height="1.964"/>
<rect x="49.417" y="93.542" fill="#263758" width="60.004" height="1.964"/>
</svg>
