<?xml version="1.0" encoding="utf-8"?>
<!-- Generator: Adobe Illustrator 16.0.4, SVG Export Plug-In . SVG Version: 6.00 Build 0)  -->
<!DOCTYPE svg PUBLIC "-//W3C//DTD SVG 1.1//EN" "http://www.w3.org/Graphics/SVG/1.1/DTD/svg11.dtd">
<svg version="1.1" id="Layer_1" xmlns="http://www.w3.org/2000/svg" xmlns:xlink="http://www.w3.org/1999/xlink" x="0px" y="0px"
	 width="160px" height="160px" viewBox="0 0 160 160" enable-background="new 0 0 160 160" xml:space="preserve">
<circle opacity="0.5" fill="#FFFFFF" enable-background="new    " cx="80" cy="80" r="79.75"/>
<path fill="#FBFDFE" d="M6.45,111.5C18.681,140.02,47.003,160,80,160s61.32-19.98,73.551-48.5H6.45z"/>
<rect x="7" y="110.641" fill="#EBF6FA" width="146" height="1"/>
<path fill="#77C3DE" d="M80,1c43.561,0,79,35.439,79,79c0,43.561-35.439,79-79,79c-43.561,0-79-35.439-79-79C1,36.439,36.439,1,80,1
	 M80,0C35.818,0,0,35.817,0,80c0,44.184,35.818,80,80,80c44.184,0,80-35.816,80-80C160,35.817,124.184,0,80,0L80,0z"/>
<g>
	<rect x="46.901" y="30" fill="#263758" width="66.197" height="2.041"/>
	<rect x="44.079" y="33.062" fill="#263758" width="71.842" height="2.041"/>
	<rect x="41" y="36.123" fill="#263758" width="78" height="93.877"/>
	<rect x="44.079" y="39.184" fill="#FFFFFF" width="71.842" height="87.755"/>
</g>
<polygon fill="#263758" points="106.477,58.315 106.477,56.351 51.381,56.351 51.381,54.125 103.421,54.125 103.421,52.16 
	51.381,52.16 51.381,45.787 49.417,45.787 49.417,62.506 88.578,62.506 88.578,60.542 51.381,60.542 51.381,58.315 "/>
<g>
	<path fill="#D30C18" d="M52.762,113.858c0-1.133-0.279-1.919-0.839-2.354s-1.368-0.652-2.425-0.652v-2.332
		c1.073,0,1.884-0.229,2.436-0.688c0.55-0.457,0.827-1.2,0.827-2.226v-2.984c0-1.18,0.307-2.106,0.922-2.772
		c0.613-0.669,1.526-1.003,2.738-1.003h3.497v2.564h-1.865c-0.451,0-0.828,0.031-1.13,0.094c-0.303,0.062-0.548,0.178-0.734,0.35
		c-0.186,0.17-0.319,0.408-0.396,0.709c-0.078,0.302-0.116,0.696-0.116,1.178v2.657c0,1.025-0.281,1.782-0.84,2.271
		c-0.56,0.489-1.291,0.774-2.192,0.852v0.232c0.886,0.062,1.613,0.362,2.179,0.897c0.567,0.536,0.852,1.309,0.852,2.318v2.657
		c0,0.481,0.038,0.876,0.116,1.178c0.077,0.304,0.21,0.54,0.396,0.712c0.187,0.17,0.435,0.285,0.747,0.348
		c0.311,0.062,0.691,0.094,1.143,0.094h1.841v2.563h-3.497c-1.166,0-2.067-0.309-2.704-0.932c-0.638-0.622-0.957-1.562-0.957-2.82
		v-2.911H52.762z"/>
	<path fill="#D30C18" d="M66.317,98.847h4.872v10.07c0,1.166,0.063,2.315,0.187,3.451c0,0.076,0.008,0.155,0.023,0.232h1.492v2.564
		h-3.754l-0.304-1.491h-0.093c-0.154,0.279-0.365,0.527-0.628,0.746c-0.265,0.218-0.56,0.408-0.886,0.572
		c-0.326,0.163-0.685,0.287-1.073,0.373c-0.389,0.084-0.778,0.127-1.166,0.127c-0.731,0-1.419-0.116-2.063-0.35
		c-0.645-0.232-1.208-0.595-1.69-1.083c-0.481-0.489-0.862-1.111-1.143-1.864c-0.281-0.753-0.42-1.643-0.42-2.67
		c0-0.994,0.152-1.88,0.455-2.657s0.724-1.436,1.26-1.97c0.537-0.537,1.169-0.948,1.9-1.235c0.731-0.289,1.531-0.433,2.401-0.433
		c0.481,0,0.937,0.026,1.364,0.081c0.427,0.057,0.796,0.145,1.108,0.269v-2.168h-1.842V98.847L66.317,98.847z M65.689,112.927
		c0.59,0,1.116-0.144,1.574-0.432c0.458-0.287,0.757-0.704,0.898-1.247v-4.941c-0.218-0.171-0.518-0.3-0.898-0.387
		c-0.381-0.083-0.78-0.126-1.2-0.126s-0.828,0.068-1.223,0.208c-0.397,0.141-0.747,0.361-1.05,0.663
		c-0.303,0.304-0.544,0.697-0.724,1.178c-0.179,0.481-0.268,1.072-0.268,1.771c0,0.994,0.249,1.795,0.746,2.402
		C64.04,112.624,64.755,112.927,65.689,112.927z"/>
	<path fill="#D30C18" d="M85.343,113.93c-0.202,0.187-0.463,0.369-0.781,0.547c-0.319,0.18-0.691,0.346-1.119,0.502
		c-0.43,0.155-0.896,0.279-1.409,0.373c-0.516,0.094-1.059,0.14-1.634,0.14c-0.995,0-1.885-0.14-2.669-0.42
		s-1.449-0.688-1.993-1.224c-0.544-0.536-0.959-1.181-1.248-1.935c-0.288-0.755-0.431-1.612-0.431-2.576
		c0-1.025,0.163-1.924,0.489-2.692c0.327-0.77,0.773-1.41,1.341-1.923c0.567-0.514,1.231-0.896,1.993-1.154
		c0.761-0.257,1.585-0.384,2.471-0.384c0.591,0,1.201,0.076,1.829,0.231c0.629,0.156,1.21,0.424,1.737,0.804
		c0.527,0.381,0.959,0.89,1.295,1.527c0.335,0.638,0.501,1.445,0.501,2.424c0,0.669-0.078,1.393-0.233,2.168h-8.392
		c0.015,0.498,0.12,0.919,0.314,1.26c0.194,0.344,0.45,0.622,0.769,0.84c0.318,0.219,0.684,0.378,1.096,0.479
		s0.851,0.152,1.317,0.152c0.933,0,1.698-0.109,2.297-0.327c0.599-0.216,1.083-0.481,1.458-0.792L85.343,113.93z M80.307,105.606
		c-0.404,0-0.785,0.056-1.142,0.167c-0.358,0.112-0.681,0.273-0.968,0.486c-0.287,0.214-0.524,0.479-0.711,0.796
		c-0.186,0.316-0.296,0.672-0.326,1.069h5.733c0-0.775-0.212-1.389-0.64-1.841C81.827,105.834,81.177,105.606,80.307,105.606z"/>
	<path fill="#D30C18" d="M93.401,111.645h0.162l2.612-8.135h3.265l-4.452,11.655h-3.241l-5.014-11.655h3.521L93.401,111.645z"/>
	<path fill="#D30C18" d="M107.239,116.773c0,1.258-0.32,2.198-0.958,2.821c-0.637,0.62-1.536,0.932-2.702,0.932h-3.497v-2.564h1.842
		c0.449,0,0.831-0.031,1.143-0.094c0.309-0.062,0.558-0.178,0.744-0.348c0.188-0.172,0.318-0.407,0.397-0.711
		c0.077-0.302,0.115-0.696,0.115-1.178v-2.657c0-1.011,0.284-1.782,0.849-2.319c0.57-0.535,1.296-0.835,2.181-0.896v-0.233
		c-0.901-0.076-1.631-0.361-2.191-0.851c-0.561-0.49-0.839-1.248-0.839-2.271v-2.657c0-0.482-0.043-0.876-0.129-1.178
		s-0.222-0.54-0.408-0.71c-0.187-0.172-0.432-0.288-0.734-0.35c-0.302-0.062-0.672-0.094-1.107-0.094h-1.863v-2.563h3.498
		c1.212,0,2.123,0.333,2.738,1.002c0.612,0.668,0.922,1.593,0.922,2.773v2.984c0,1.025,0.274,1.768,0.826,2.225
		c0.552,0.46,1.362,0.688,2.437,0.688v2.331c-1.059,0-1.864,0.218-2.426,0.652c-0.558,0.436-0.837,1.221-0.837,2.355
		L107.239,116.773L107.239,116.773z"/>
</g>
<polygon fill="#263758" points="96.477,84.377 96.477,82.412 51.381,82.412 51.381,80.187 109.421,80.187 109.421,78.222 
	51.381,78.222 51.381,71.849 49.417,71.849 49.417,88.567 68.578,88.567 68.578,86.604 51.381,86.604 51.381,84.377 "/>
</svg>
