<?xml version="1.0" encoding="utf-8"?>
<!-- Generator: Adobe Illustrator 16.0.4, SVG Export Plug-In . SVG Version: 6.00 Build 0)  -->
<!DOCTYPE svg PUBLIC "-//W3C//DTD SVG 1.1//EN" "http://www.w3.org/Graphics/SVG/1.1/DTD/svg11.dtd">
<svg version="1.1" id="Layer_1" xmlns="http://www.w3.org/2000/svg" xmlns:xlink="http://www.w3.org/1999/xlink" x="0px" y="0px"
	 width="560px" height="375px" viewBox="0 0 560 375" enable-background="new 0 0 560 375" xml:space="preserve">
<g>
	<polygon fill-rule="evenodd" clip-rule="evenodd" fill="#FFFFFF" points="36.888,343.382 36.888,34.527 524.486,34.527 
		525.01,343.382 	"/>
	<path fill="#67B6D3" d="M523.487,35.527l0.521,306.855H37.888V35.527H523.487 M525.484,33.527H35.888v310.855h490.124
		L525.484,33.527L525.484,33.527z"/>
</g>
<rect x="37.717" y="35.464" fill="#F8F8F8" width="42.439" height="249.707"/>
<rect x="126.396" y="35.464" fill="#F8F8F8" width="42.439" height="249.707"/>
<rect x="215.074" y="35.464" fill="#F8F8F8" width="42.439" height="249.707"/>
<rect x="303.752" y="35.464" fill="#F8F8F8" width="42.439" height="249.707"/>
<rect x="392.431" y="35.464" fill="#F8F8F8" width="42.44" height="249.707"/>
<rect x="481.108" y="35.464" fill="#F8F8F8" width="42.437" height="249.707"/>
<polygon fill="#313B54" points="37.668,256.183 115.605,209.819 229.71,262.238 296.791,192.023 352.807,218.232 524.132,123.75 
	524.132,188.854 524.132,341.738 37.717,341.738 "/>
<path fill="#67B6D3" d="M36.9,338.553v-67.512l69.716-48.476c0,0,43.616,54.339,43.616,52.14s36.113-14.657,36.113-14.657
	l51.497,30.046l64.925-42.503l78.957,8.791l143.175-59.358v63.024v78.505H36.9z"/>
<path fill="#FFFFFF" d="M37.717,342.074v-67.224l70.209-48.271c0,0,43.753,54.106,43.753,51.919c0-2.191,36.23-14.593,36.23-14.593
	l51.658,29.918l65.131-42.323l79.205,8.754l140.228-59.106v62.758v78.168H37.717z"/>
<g>
	<line fill="none" stroke="#C50F1A" stroke-width="2" stroke-miterlimit="10" x1="40.654" y1="238.574" x2="42.366" y2="237.656"/>
	
		<line fill="none" stroke="#C50F1A" stroke-width="2" stroke-miterlimit="10" stroke-dasharray="2.0609,4.1217" x1="41.51" y1="238.114" x2="185.665" y2="160.887"/>
	<polyline fill="none" stroke="#C50F1A" stroke-width="2" stroke-miterlimit="10" points="187.078,160.15 188.791,159.233 
		190.647,159.806 	"/>
	
		<line fill="none" stroke="#C50F1A" stroke-width="2" stroke-miterlimit="10" stroke-dasharray="2.0316,4.0632" x1="192.128" y1="160.317" x2="271.331" y2="184.764"/>
	<polyline fill="none" stroke="#C50F1A" stroke-width="2" stroke-miterlimit="10" points="277.393,186.581 279.249,187.154 
		280.409,185.598 	"/>
	
		<line fill="none" stroke="#C50F1A" stroke-width="2" stroke-miterlimit="10" stroke-dasharray="1.9548,3.9095" x1="280.409" y1="185.598" x2="330.396" y2="118.646"/>
	<polyline fill="none" stroke="#C50F1A" stroke-width="2" stroke-miterlimit="10" points="332.667,115.603 333.83,114.046 
		335.757,114.283 	"/>
	<polyline fill="none" stroke="#C50F1A" stroke-width="2" stroke-miterlimit="10" stroke-dasharray="1.9527,3.9055" points="
		335.757,113.437 421.448,124.38 516.968,63.097 	"/>
	<line fill="none" stroke="#C50F1A" stroke-width="2" stroke-miterlimit="10" x1="519.616" y1="66.956" x2="521.269" y2="65.935"/>
</g>
<path fill="#313B54" d="M153.615,199.957v-6.496c0-4.68-3.792-8.474-8.474-8.474h-15.254c0-3.744-3.035-6.777-6.777-6.777
	c-3.743,0-6.779,3.034-6.779,6.777h-15.253c-4.679,0-8.473,3.794-8.473,8.474v6.496h-33.33v155.915h128.799V199.957H153.615z
	 M123.11,181.598c1.871,0,3.388,1.518,3.388,3.389c0,1.871-1.517,3.389-3.388,3.389c-0.234,0-0.462-0.023-0.683-0.069
	c-1.544-0.315-2.706-1.683-2.707-3.319C119.721,183.116,121.239,181.598,123.11,181.598z"/>
<rect x="64.359" y="205.042" fill="#FFFFFF" width="118.631" height="145.747"/>
<polygon fill="#313B54" points="98.176,232.385 98.176,244.46 77.057,244.46 77.057,223.337 92.143,223.337 92.143,220.318 
	74.033,220.318 74.033,247.473 101.189,247.473 101.189,232.385 "/>
<polygon fill="#C50F1A" points="81.432,231.03 79.318,233.145 86.102,239.927 101.189,224.842 99.083,222.732 86.102,235.707 "/>
<polygon fill="#C50F1A" points="81.432,273.397 79.318,275.512 86.102,282.296 101.189,267.209 99.083,265.101 86.102,278.076 "/>
<polygon fill="#313B54" points="98.176,274.752 98.176,286.828 77.057,286.828 77.057,265.706 92.143,265.706 92.143,262.686 
	74.033,262.686 74.033,289.84 101.189,289.84 101.189,274.752 "/>
<path fill="#313B54" d="M74.033,306.748v27.154h27.155v-27.154H74.033z M98.168,330.883l-21.111,0.007v-21.12l21.111-0.008V330.883z
	"/>
<path fill="#C40F1A" d="M98.176,330.89"/>
<polyline fill="#313B54" points="117.249,230.64 117.249,220.33 114.07,220.33 114.07,247.375 114.073,247.375 153.688,247.375 
	153.688,244.196 117.249,244.196 117.249,240.595 170.777,240.595 170.777,237.417 117.249,237.417 117.249,233.815 "/>
<polygon fill="#313B54" points="170.777,283.062 170.777,279.883 117.249,279.883 117.249,276.281 165.834,276.281 165.834,273.105 
	117.249,273.105 117.249,262.795 114.07,262.795 114.07,289.84 117.249,289.84 117.249,286.664 117.249,286.664 117.249,283.062 "/>
</svg>
