<?xml version="1.0" encoding="utf-8"?>
<!-- Generator: Adobe Illustrator 16.0.4, SVG Export Plug-In . SVG Version: 6.00 Build 0)  -->
<!DOCTYPE svg PUBLIC "-//W3C//DTD SVG 1.1//EN" "http://www.w3.org/Graphics/SVG/1.1/DTD/svg11.dtd">
<svg version="1.1" id="Layer_1" xmlns="http://www.w3.org/2000/svg" xmlns:xlink="http://www.w3.org/1999/xlink" x="0px" y="0px"
	 width="160px" height="160px" viewBox="0 0 160 160" enable-background="new 0 0 160 160" xml:space="preserve">
<circle opacity="0.5" fill="#FFFFFF" enable-background="new    " cx="80" cy="80" r="79.75"/>
<path fill="#FBFDFE" d="M6.45,111.5C18.681,140.02,47.003,160,80,160s61.32-19.98,73.551-48.5H6.45z"/>
<rect x="7" y="110.641" fill="#EBF6FA" width="146" height="1"/>
<path fill="#77C3DE" d="M80,1c43.561,0,79,35.439,79,79c0,43.561-35.439,79-79,79c-43.561,0-79-35.439-79-79C1,36.439,36.439,1,80,1
	 M80,0C35.818,0,0,35.817,0,80c0,44.184,35.818,80,80,80c44.184,0,80-35.816,80-80C160,35.817,124.184,0,80,0L80,0z"/>
<g>
	<rect x="46.901" y="30" fill="#263758" width="66.197" height="2.041"/>
	<rect x="44.079" y="33.062" fill="#263758" width="71.842" height="2.041"/>
	<rect x="41" y="36.123" fill="#263758" width="78" height="93.877"/>
	<rect x="44.079" y="39.184" fill="#FFFFFF" width="71.842" height="87.755"/>
</g>
<polygon fill="#263758" points="106.477,58.315 106.477,56.351 51.381,56.351 51.381,54.125 103.421,54.125 103.421,52.16 
	51.381,52.16 51.381,45.787 49.417,45.787 49.417,62.506 88.578,62.506 88.578,60.542 51.381,60.542 51.381,58.315 "/>
<polygon fill="#263758" points="96.477,84.377 96.477,82.412 51.381,82.412 51.381,80.187 109.421,80.187 109.421,78.222 
	51.381,78.222 51.381,71.849 49.417,71.849 49.417,88.567 68.578,88.567 68.578,86.604 51.381,86.604 51.381,84.377 "/>
<path fill="#D30C18" d="M86.293,78.739c-4.211,0-8.17,1.639-11.15,4.617c-6.146,6.148-6.146,16.152,0.001,22.301
	c2.976,2.976,6.934,4.613,11.142,4.613c3.062,0,6.029-0.877,8.582-2.535l0.372-0.241l9.314,9.314c1.08,1.078,2.961,1.077,4.041,0
	c1.112-1.114,1.112-2.928,0-4.042l-9.315-9.312l0.242-0.372c4.028-6.197,3.154-14.493-2.078-19.726
	C94.466,80.379,90.506,78.739,86.293,78.739z"/>
<path fill="#FFFFFF" d="M95.033,103.246c-2.335,2.335-5.438,3.62-8.74,3.62c-3.301,0-6.404-1.285-8.74-3.62
	c-4.818-4.82-4.818-12.661,0-17.479c2.335-2.334,5.439-3.62,8.74-3.62c3.302,0,6.405,1.286,8.74,3.62
	C99.851,90.586,99.851,98.427,95.033,103.246z"/>
</svg>
