<?xml version="1.0" encoding="utf-8"?>
<!-- Generator: Adobe Illustrator 16.0.4, SVG Export Plug-In . SVG Version: 6.00 Build 0)  -->
<!DOCTYPE svg PUBLIC "-//W3C//DTD SVG 1.1//EN" "http://www.w3.org/Graphics/SVG/1.1/DTD/svg11.dtd">
<svg version="1.1" id="Layer_1" xmlns="http://www.w3.org/2000/svg" xmlns:xlink="http://www.w3.org/1999/xlink" x="0px" y="0px"
	 width="560px" height="560px" viewBox="0 0 560 560" enable-background="new 0 0 560 560" xml:space="preserve">
<g>
	<g opacity="0.8">
		<path fill="#E1E8EE" d="M192.895,332.471h-21.182V216.793h73.66v17.724h-52.479v29.914h44.87v17.723h-44.87V332.471z"/>
		<path fill="#E1E8EE" d="M307.711,332.471h-21.183v-97.954h-37.348v-17.724h95.791v17.724h-37.261V332.471z"/>
		<path fill="#E1E8EE" d="M404.122,299.271c0-2.939-0.722-5.316-2.161-7.133c-1.441-1.814-3.401-3.299-5.879-4.452
			c-2.479-1.152-5.261-2.088-8.344-2.81c-3.084-0.72-6.326-1.427-9.726-2.118c-4.496-0.979-8.79-2.146-12.882-3.502
			c-4.094-1.354-7.694-3.227-10.807-5.619c-3.112-2.392-5.592-5.432-7.436-9.121c-1.845-3.688-2.767-8.3-2.767-13.833
			c0-6.108,1.066-11.426,3.199-15.95c2.132-4.524,5.027-8.271,8.688-11.239c3.66-2.968,7.954-5.188,12.882-6.658
			c4.929-1.469,10.475-2.204,16.642-2.204c6.168,0,12.364,0.605,18.589,1.816c6.225,1.21,11.585,2.766,16.08,4.668v18.155
			c-5.994-2.362-11.743-4.076-17.247-5.144c-5.505-1.066-10.677-1.6-15.52-1.6c-6.974,0-12.349,1.269-16.123,3.804
			c-3.776,2.537-5.663,6.341-5.663,11.412c0,2.939,0.619,5.36,1.858,7.263c1.239,1.901,2.925,3.473,5.058,4.712
			c2.132,1.239,4.582,2.234,7.35,2.982c2.767,0.749,5.706,1.441,8.818,2.075c4.897,1.037,9.581,2.234,14.049,3.588
			c4.466,1.354,8.429,3.242,11.888,5.662c3.457,2.421,6.195,5.576,8.213,9.467c2.017,3.891,3.025,8.861,3.025,14.913
			c0,6.226-1.153,11.615-3.458,16.168c-2.306,4.554-5.576,8.314-9.812,11.282c-4.236,2.969-9.38,5.174-15.433,6.614
			c-6.052,1.439-12.68,2.161-19.885,2.161c-6.282,0-12.464-0.621-18.544-1.859c-6.082-1.238-11.139-2.982-15.173-5.23v-17.896
			c5.706,2.479,11.268,4.28,16.686,5.402c5.418,1.124,11.009,1.687,16.772,1.687c3.342,0,6.628-0.272,9.856-0.82
			c3.227-0.548,6.123-1.484,8.688-2.811c2.563-1.325,4.626-3.126,6.182-5.404C403.345,305.425,404.122,302.615,404.122,299.271z"/>
	</g>
	<g>
		<polygon fill="#3E4A68" points="389.095,281.646 389.095,277.621 387.59,277.621 387.59,277.084 391.203,277.084 391.203,277.621 
			389.697,277.621 389.697,281.646 		"/>
		<path fill="#3E4A68" d="M391.808,281.646v-4.562h0.905l1.082,3.229c0.1,0.303,0.174,0.53,0.215,0.68
			c0.056-0.168,0.136-0.412,0.249-0.734l1.089-3.174h0.814v4.562h-0.585v-3.818l-1.325,3.818h-0.543l-1.321-3.882v3.882H391.808z"/>
	</g>
	<g>
		<path fill="#5AB5D9" d="M209.062,270.08h-4.344v-23.724h15.105v3.635h-10.762v6.135h9.202v3.635h-9.202V270.08z"/>
		<path fill="#5AB5D9" d="M224.18,270.08v-23.724h4.344v23.724H224.18z"/>
		<path fill="#5AB5D9" d="M247.1,257.385c1.703,2.423,3.085,4.574,4.149,6.454h0.106c-0.142-3.085-0.213-5.331-0.213-6.738v-10.744
			h4.344v23.724h-4.557l-7.73-10.922c-1.359-1.892-2.766-4.084-4.22-6.578h-0.106c0.143,2.908,0.213,5.16,0.213,6.755v10.745h-4.344
			v-23.724h4.557L247.1,257.385z"/>
		<path fill="#5AB5D9" d="M275.285,264.034h-8.935l-2.323,6.046h-4.628l9.415-23.724h3.972l9.414,23.724h-4.592L275.285,264.034z
			 M270.782,252.066c-0.829,2.481-1.569,4.555-2.22,6.222l-0.811,2.11h6.132l-0.812-2.11c-0.643-1.682-1.383-3.756-2.22-6.222
			H270.782z"/>
		<path fill="#5AB5D9" d="M298.472,257.385c1.702,2.423,3.084,4.574,4.148,6.454h0.106c-0.142-3.085-0.213-5.331-0.213-6.738
			v-10.744h4.344v23.724h-4.557l-7.729-10.922c-1.359-1.892-2.767-4.084-4.22-6.578h-0.106c0.142,2.908,0.213,5.16,0.213,6.755
			v10.745h-4.344v-23.724h4.556L298.472,257.385z"/>
		<path fill="#5AB5D9" d="M324.618,249.584c-1.182,0-2.273,0.195-3.271,0.585c-0.999,0.39-1.856,0.957-2.572,1.702
			c-0.715,0.744-1.272,1.664-1.676,2.757c-0.4,1.094-0.602,2.344-0.602,3.75c0,1.395,0.184,2.621,0.55,3.679
			c0.365,1.058,0.892,1.941,1.578,2.65c0.685,0.71,1.521,1.244,2.508,1.604c0.987,0.361,2.107,0.541,3.36,0.541
			c0.897,0,1.814-0.07,2.748-0.213c0.934-0.142,1.809-0.348,2.624-0.62v3.741c-0.828,0.236-1.721,0.422-2.677,0.559
			c-0.958,0.136-1.951,0.203-2.979,0.203c-2.009,0-3.776-0.286-5.301-0.859c-1.523-0.573-2.799-1.383-3.821-2.43
			c-1.022-1.046-1.791-2.299-2.305-3.759c-0.514-1.459-0.771-3.07-0.771-4.831c0-1.809,0.274-3.486,0.825-5.035
			c0.548-1.548,1.34-2.89,2.374-4.024s2.329-2.027,3.883-2.677c1.554-0.65,3.312-0.981,5.274-0.993c1.005,0,1.958,0.068,2.855,0.203
			c0.898,0.137,1.707,0.328,2.429,0.576v3.688c-0.946-0.296-1.826-0.502-2.642-0.621
			C326.195,249.643,325.398,249.584,324.618,249.584z"/>
		<path fill="#5AB5D9" d="M334.843,270.08v-23.724h4.345v23.724H334.843z"/>
		<path fill="#5AB5D9" d="M358.986,264.034h-8.936l-2.322,6.046h-4.628l9.415-23.724h3.971l9.416,23.724h-4.594L358.986,264.034z
			 M354.483,252.066c-0.829,2.481-1.569,4.555-2.219,6.222l-0.812,2.11h6.132l-0.811-2.11c-0.644-1.682-1.383-3.756-2.222-6.222
			H354.483z"/>
		<path fill="#5AB5D9" d="M374.159,246.356v20.089h11.099v3.635h-15.443v-23.724H374.159z"/>
	</g>
	<path fill="#3E4A68" d="M216.721,300.481h-4.344v-20.087h-7.659v-3.636h19.645v3.636h-7.642V300.481z"/>
	<path fill="#3E4A68" d="M231.712,296.848h11.666v3.634h-16.01v-23.723h15.371v3.636h-11.027v6.134h9.468v3.635h-9.468V296.848z"/>
	<path fill="#3E4A68" d="M259.328,293.674c0-0.603-0.148-1.091-0.444-1.463c-0.295-0.372-0.697-0.676-1.205-0.913
		c-0.508-0.236-1.079-0.428-1.711-0.576c-0.633-0.147-1.298-0.292-1.994-0.435c-0.923-0.2-1.804-0.44-2.643-0.718
		s-1.578-0.661-2.216-1.152c-0.639-0.49-1.146-1.114-1.525-1.87c-0.378-0.757-0.567-1.702-0.567-2.837
		c0-1.253,0.219-2.344,0.656-3.271s1.031-1.695,1.782-2.305c0.75-0.609,1.631-1.063,2.642-1.365s2.147-0.453,3.413-0.453
		c1.265,0,2.535,0.124,3.812,0.373c1.275,0.249,2.375,0.568,3.297,0.958v3.724c-1.229-0.485-2.408-0.837-3.537-1.056
		s-2.189-0.328-3.183-0.328c-1.431,0-2.532,0.26-3.307,0.78s-1.161,1.3-1.161,2.34c0,0.604,0.127,1.1,0.381,1.489
		c0.255,0.391,0.6,0.713,1.038,0.967c0.437,0.254,0.939,0.458,1.507,0.611c0.567,0.154,1.17,0.296,1.809,0.427
		c1.004,0.212,1.965,0.457,2.881,0.734c0.915,0.278,1.729,0.665,2.438,1.162c0.71,0.496,1.271,1.144,1.685,1.941
		c0.413,0.798,0.62,1.817,0.62,3.058c0,1.277-0.236,2.383-0.709,3.315c-0.473,0.935-1.144,1.707-2.012,2.314
		c-0.869,0.608-1.924,1.061-3.165,1.355c-1.241,0.296-2.601,0.444-4.078,0.444c-1.289,0-2.557-0.127-3.804-0.381
		c-1.246-0.254-2.284-0.612-3.111-1.073v-3.67c1.171,0.509,2.311,0.877,3.422,1.107c1.111,0.231,2.258,0.347,3.44,0.347
		c0.686,0,1.358-0.056,2.021-0.169s1.256-0.304,1.782-0.576c0.525-0.271,0.949-0.642,1.268-1.108
		C259.168,294.937,259.328,294.36,259.328,293.674z"/>
	<path fill="#3E4A68" d="M277.953,300.481h-4.344v-20.087h-7.659v-3.636h19.645v3.636h-7.642V300.481z"/>
	<path fill="#3E4A68" d="M306.514,293.674c0-0.603-0.147-1.091-0.442-1.463c-0.296-0.372-0.699-0.676-1.206-0.913
		c-0.508-0.236-1.078-0.428-1.711-0.576c-0.633-0.147-1.298-0.292-1.995-0.435c-0.921-0.2-1.802-0.44-2.642-0.718
		c-0.839-0.277-1.578-0.661-2.216-1.152c-0.638-0.49-1.146-1.114-1.524-1.87c-0.379-0.757-0.567-1.702-0.567-2.837
		c0-1.253,0.218-2.344,0.655-3.271s1.031-1.695,1.782-2.305s1.631-1.063,2.642-1.365s2.148-0.453,3.413-0.453
		s2.535,0.124,3.812,0.373c1.277,0.249,2.376,0.568,3.299,0.958v3.724c-1.23-0.485-2.409-0.837-3.538-1.056
		s-2.189-0.328-3.183-0.328c-1.43,0-2.532,0.26-3.306,0.78c-0.774,0.521-1.162,1.3-1.162,2.34c0,0.604,0.128,1.1,0.382,1.489
		c0.253,0.391,0.6,0.713,1.037,0.967s0.938,0.458,1.507,0.611c0.566,0.154,1.171,0.296,1.809,0.427
		c1.005,0.212,1.965,0.457,2.881,0.734c0.915,0.278,1.729,0.665,2.438,1.162c0.71,0.496,1.271,1.144,1.686,1.941
		c0.412,0.798,0.62,1.817,0.62,3.058c0,1.277-0.237,2.383-0.71,3.315c-0.474,0.935-1.143,1.707-2.012,2.314
		c-0.868,0.608-1.925,1.061-3.165,1.355c-1.242,0.296-2.6,0.444-4.077,0.444c-1.29,0-2.556-0.127-3.804-0.381
		c-1.247-0.254-2.284-0.612-3.111-1.073v-3.67c1.17,0.509,2.311,0.877,3.422,1.107c1.11,0.231,2.257,0.347,3.439,0.347
		c0.685,0,1.359-0.056,2.021-0.169c0.662-0.113,1.257-0.304,1.782-0.576c0.525-0.271,0.949-0.642,1.269-1.108
		C306.354,294.937,306.514,294.36,306.514,293.674z"/>
	<path fill="#3E4A68" d="M325.265,300.926c-1.241,0-2.358-0.121-3.352-0.364c-0.993-0.241-1.868-0.591-2.625-1.046
		c-0.756-0.455-1.399-1.01-1.932-1.666c-0.532-0.657-0.957-1.397-1.276-2.226c-0.26-0.661-0.445-1.395-0.559-2.198
		c-0.112-0.804-0.168-1.702-0.168-2.695v-13.972h4.344v13.582c0,1.679,0.2,2.99,0.603,3.936c0.448,1.053,1.104,1.812,1.969,2.278
		c0.862,0.468,1.879,0.701,3.049,0.701s2.187-0.233,3.05-0.701c0.862-0.467,1.52-1.226,1.968-2.278
		c0.402-0.945,0.604-2.257,0.604-3.936v-13.582h4.343v13.972c0,0.993-0.056,1.892-0.168,2.695c-0.113,0.804-0.298,1.537-0.559,2.198
		c-0.319,0.828-0.748,1.568-1.285,2.226c-0.538,0.656-1.193,1.211-1.968,1.666s-1.664,0.805-2.67,1.046
		C327.628,300.805,326.506,300.926,325.265,300.926z"/>
	<path fill="#3E4A68" d="M340.503,300.481v-23.723h4.345v23.723H340.503z"/>
	<path fill="#3E4A68" d="M359.893,300.481h-4.345v-20.087h-7.659v-3.636h19.646v3.636h-7.642V300.481z"/>
	<path fill="#3E4A68" d="M374.884,296.848h11.666v3.634h-16.011v-23.723h15.372v3.636h-11.027v6.134h9.467v3.635h-9.467V296.848z"/>
	<path fill="#5AB5D9" d="M55.463,329.463c10.857,43.201,33.32,82.761,64.96,114.402c32.28,32.278,72.674,54.942,116.853,65.568
		l-0.214-4.137c-11.279-2.776-22.479-6.407-33.295-10.794c-30.192-12.243-57.281-30.232-80.515-53.467
		c-23.234-23.234-41.224-50.323-53.469-80.517c-4.089-10.084-7.535-20.562-10.243-31.146l-0.337-1.317l35.58,25.168l2.721-3.849
		l-41.931-29.658l-29.659,41.931l3.847,2.722l25.437-35.961L55.463,329.463z"/>
	<path fill="#5AB5D9" d="M512.93,151.058l-2.943,2.944c4.074,7.609,7.758,15.457,10.949,23.331
		c11.828,29.163,17.824,59.979,17.824,91.593s-5.996,62.43-17.824,91.594c-12.242,30.192-30.231,57.281-53.467,80.516
		c-23.234,23.235-50.323,41.225-80.516,53.468c-2.303,0.936-4.786,1.886-7.814,2.991l-1.121,0.409l18.159-39.873l-4.289-1.953
		l-21.287,46.741l46.741,21.286l1.954-4.288l-39.89-18.167l1.146-0.419c33.888-12.402,64.083-31.703,89.746-57.366
		c38.554-38.555,62.817-87.411,70.167-141.289C547.549,250.656,537.77,196.874,512.93,151.058z"/>
	<path fill="#5AB5D9" d="M419.101,56.688L404.176,7.544l-4.509,1.369l12.763,42.022l-1.062-0.564
		c-35.499-18.857-75.628-28.825-116.047-28.825c-66.07,0-128.183,25.728-174.898,72.442c-26.341,26.342-45.946,57.361-58.277,92.21
		l4.178,0.217c1.183-3.286,2.316-6.261,3.46-9.082c12.243-30.19,30.232-57.28,53.468-80.516
		c23.235-23.235,50.325-41.225,80.516-53.469c29.162-11.825,59.979-17.821,91.594-17.821s62.432,5.996,91.593,17.821
		c7.464,3.026,15.004,6.552,22.411,10.478l1.071,0.567l-41.848,12.709l1.369,4.509L419.101,56.688z"/>
	<polygon fill="#C40F1A" points="33.788,245.801 27.67,251.916 47.302,271.55 90.966,227.894 84.873,221.795 47.302,259.336 	"/>
	<path fill="#3E4A68" d="M82.246,284.669H21.126v-61.13h43.658v-3.835H21.126c-4.823,0,4.639,0-3.84,0v68.777
		c15.427,0-0.983,0,3.84,0h61.119c4.794,0-3.759,0,3.814,0v-38.755h-3.814V284.669z"/>
	<path fill="#C40F1A" d="M80.246,298.669"/>
	<g>
		<path fill="#3E4A68" d="M429.805,66.204h-0.002v68.775h0.002h68.771V96.225V66.204H429.805z M433.646,131.161V70.044h61.099
			l0.019,61.122L433.646,131.161z"/>
		<path fill="#C40F1A" d="M494.763,131.166"/>
		<polygon fill="#C50F1A" points="486.511,96.351 479.626,78.854 469.994,97.727 462.326,91.238 459.969,92.024 454.266,87.506 
			437.998,97.138 437.998,102.642 491.031,102.642 491.031,93.405 		"/>
		<rect x="437.998" y="112.181" fill="#3E4A68" width="53.051" height="4.028"/>
		<rect x="437.998" y="121.39" fill="#3E4A68" width="53.051" height="4.029"/>
	</g>
	<g>
		<path fill="#3F4B68" d="M336.516,542.573l7.502-7.342c0.57-0.578,0.955-0.973-4.65-12.771c-0.131-0.275-0.138-0.59-0.02-0.869
			l1.627-3.904c0.112-0.27,0.328-0.479,0.603-0.587c12.521-4.833,12.521-5.359,12.521-6.155v-9.951c0-0.813,0-1.35-12.539-5.814
			c-0.282-0.101-0.51-0.315-0.626-0.592l-1.643-3.904c-0.114-0.272-0.112-0.578,0.007-0.846c5.34-12.079,4.959-12.461,4.383-13.04
			l-7.544-7.321h-0.442c-0.568,0-2.916,0.635-12.255,4.871c-0.266,0.119-0.571,0.125-0.839,0.02l-4.027-1.623
			c-0.267-0.109-0.479-0.323-0.59-0.592c-4.939-12.236-5.47-12.236-6.273-12.236h-10.155c-0.796,0-1.373,0-5.94,12.254
			c-0.105,0.279-0.322,0.504-0.6,0.617l-4.01,1.627c-0.259,0.107-0.553,0.105-0.816-0.006c-9.874-4.166-12.019-4.616-12.481-4.616
			l-0.52,0.015l-7.439,7.297c-0.637,0.595-1.044,0.977,4.589,12.812c0.131,0.275,0.138,0.594,0.02,0.875l-1.639,3.887
			c-0.112,0.268-0.33,0.477-0.6,0.581c-12.501,4.837-12.501,5.331-12.501,6.153v9.957c0,0.818,0,1.359,12.519,5.85
			c0.281,0.102,0.507,0.316,0.623,0.592l1.638,3.879c0.115,0.271,0.112,0.576-0.007,0.846c-5.336,12.064-4.955,12.445-4.38,13.023
			l7.55,7.334h0.449c0.561,0,2.896-0.633,12.243-4.867c0.139-0.064,0.291-0.098,0.441-0.098c0.135,0,0.271,0.025,0.4,0.078
			l4.027,1.633c0.27,0.109,0.482,0.322,0.59,0.592c4.932,12.227,5.463,12.227,6.27,12.227h10.163c0.816,0,1.354,0,5.94-12.254
			c0.105-0.281,0.321-0.504,0.6-0.617l4.034-1.633c0.263-0.107,0.558-0.102,0.818,0.008c9.856,4.176,11.994,4.627,12.456,4.627
			L336.516,542.573z M334.788,538.966c-1.448-0.484-4.356-1.566-10.002-3.959l-1.63-0.689l-7.417,3.002l-0.656,1.758
			c-1.729,4.625-3.016,7.84-3.817,9.557c-0.174,0.377-0.55,0.617-0.967,0.617h-6.53c-0.404,0-0.774-0.229-0.954-0.592
			c-0.846-1.693-2.236-4.934-4.132-9.629l-0.677-1.682l-7.406-3l-1.67,0.754c-5.453,2.473-8.293,3.609-9.714,4.127
			c-0.39,0.145-0.817,0.045-1.113-0.24l-4.527-4.426c-0.297-0.291-0.398-0.727-0.261-1.119c0.635-1.805,1.982-5.039,4.007-9.611
			l0.746-1.689l-3.086-7.307l-1.764-0.635c-4.699-1.686-7.985-2.946-9.766-3.745c-0.383-0.173-0.63-0.553-0.63-0.974v-6.229
			c0-0.41,0.237-0.785,0.608-0.964c2.608-1.245,7.865-3.28,9.845-4.044l1.69-0.654l3.088-7.325l-0.824-1.729
			c-2.085-4.381-3.488-7.509-4.171-9.297c-0.151-0.396-0.054-0.846,0.25-1.143l4.522-4.437c0.285-0.28,0.703-0.378,1.085-0.251
			c1.439,0.48,4.347,1.553,10.026,3.949l1.631,0.688l7.386-3l0.656-1.76c1.725-4.623,3.007-7.838,3.814-9.555
			c0.176-0.375,0.553-0.613,0.967-0.613h6.521c0.405,0,0.774,0.229,0.956,0.591c0.848,1.7,2.242,4.943,4.139,9.642l0.678,1.683
			l7.406,2.987l1.669-0.757c5.454-2.476,8.292-3.612,9.712-4.128c0.385-0.142,0.818-0.051,1.113,0.238l4.525,4.42
			c0.298,0.291,0.4,0.727,0.262,1.119c-0.635,1.803-1.984,5.041-4.012,9.624l-0.745,1.687l3.09,7.341l1.774,0.632
			c4.71,1.677,7.998,2.928,9.776,3.724c0.383,0.172,0.632,0.552,0.632,0.975v6.196c0,0.41-0.236,0.787-0.607,0.963
			c-1.742,0.835-5.059,2.2-9.865,4.057l-1.701,0.657l-3.063,7.345l0.818,1.721c2.089,4.398,3.493,7.529,4.175,9.311
			c0.152,0.398,0.053,0.848-0.252,1.146l-4.521,4.424C335.59,538.999,335.17,539.093,334.788,538.966z"/>
		<g>
			<path fill="#77C3DE" d="M326.066,506.413c0-10.406-8.464-18.866-18.867-18.866c-8.715,0-16.07,5.948-18.223,13.998
				c2.701-6.243,8.916-10.62,16.139-10.62c9.686,0,17.572,7.889,17.572,17.578c0,7.216-4.371,13.43-10.604,16.133
				C320.121,522.479,326.066,515.128,326.066,506.413"/>
			<path fill="#77C3DE" d="M303.023,497.632c-3.453,0-6.707,1.351-9.155,3.805c-2.452,2.449-3.798,5.699-3.798,9.152
				c0,7.142,5.811,12.959,12.953,12.959c7.147,0,12.955-5.817,12.955-12.959C315.979,503.445,310.168,497.632,303.023,497.632
				 M303.023,520.269c-5.334,0-9.68-4.344-9.68-9.683c0-5.341,4.346-9.683,9.68-9.683c5.344,0,9.683,4.342,9.683,9.686
				C312.706,515.925,308.367,520.269,303.023,520.269"/>
			<path fill="#77C3DE" d="M321.022,508.5c0-8.776-7.138-15.913-15.912-15.913c-7.429,0-13.681,5.118-15.427,12.012
				c0.721-1.596,1.727-3.068,3.002-4.342c2.77-2.768,6.436-4.291,10.338-4.291c8.059,0,14.618,6.562,14.618,14.62
				c0,5.938-3.554,11.056-8.651,13.341C315.896,522.194,321.022,515.935,321.022,508.5"/>
		</g>
		<g>
			<path fill="#D30C18" d="M326.066,506.413c0-10.406-8.464-18.866-18.867-18.866c-8.715,0-16.07,5.948-18.223,13.998
				c2.701-6.243,8.916-10.62,16.139-10.62c9.686,0,17.572,7.889,17.572,17.578c0,7.216-4.371,13.43-10.604,16.133
				C320.121,522.479,326.066,515.128,326.066,506.413"/>
			<path fill="#D30C18" d="M303.023,497.632c-3.453,0-6.707,1.351-9.155,3.805c-2.452,2.449-3.798,5.699-3.798,9.152
				c0,7.142,5.811,12.959,12.953,12.959c7.147,0,12.955-5.817,12.955-12.959C315.979,503.445,310.168,497.632,303.023,497.632
				 M303.023,520.269c-5.334,0-9.68-4.344-9.68-9.683c0-5.341,4.346-9.683,9.68-9.683c5.344,0,9.683,4.342,9.683,9.686
				C312.706,515.925,308.367,520.269,303.023,520.269"/>
			<path fill="#D30C18" d="M321.022,508.5c0-8.776-7.138-15.913-15.912-15.913c-7.429,0-13.681,5.118-15.427,12.012
				c0.721-1.596,1.727-3.068,3.002-4.342c2.77-2.768,6.436-4.291,10.338-4.291c8.059,0,14.618,6.562,14.618,14.62
				c0,5.938-3.554,11.056-8.651,13.341C315.896,522.194,321.022,515.935,321.022,508.5"/>
		</g>
	</g>
</g>
</svg>
