<?xml version="1.0" encoding="utf-8"?>
<!-- Generator: Adobe Illustrator 16.0.4, SVG Export Plug-In . SVG Version: 6.00 Build 0)  -->
<!DOCTYPE svg PUBLIC "-//W3C//DTD SVG 1.1//EN" "http://www.w3.org/Graphics/SVG/1.1/DTD/svg11.dtd">
<svg version="1.1" id="Layer_1" xmlns="http://www.w3.org/2000/svg" xmlns:xlink="http://www.w3.org/1999/xlink" x="0px" y="0px"
	 width="160px" height="160px" viewBox="0 0 160 160" enable-background="new 0 0 160 160" xml:space="preserve">
<circle opacity="0.5" fill="#FFFFFF" enable-background="new    " cx="80" cy="80.25" r="79.75"/>
<path fill="#FBFDFE" d="M6.45,111.5C18.681,140.02,47.003,160,80,160s61.32-19.98,73.551-48.5H6.45z"/>
<rect x="7" y="110.641" fill="#EBF6FA" width="146" height="1"/>
<path fill="#C42126" d="M80,71.887"/>
<path fill="#77C3DE" d="M80,1c43.561,0,79,35.439,79,79c0,43.561-35.439,79-79,79c-43.561,0-79-35.439-79-79C1,36.439,36.439,1,80,1
	 M80,0C35.818,0,0,35.817,0,80c0,44.184,35.818,80,80,80c44.184,0,80-35.816,80-80C160,35.817,124.184,0,80,0L80,0z"/>
<rect x="31.5" y="38.5" fill="#263758" width="96" height="79"/>
<rect x="34.5" y="47" fill="#FFFFFF" width="90" height="67.5"/>
<rect x="34.5" y="119.5" fill="#263758" width="90" height="3"/>
<rect x="37.583" y="124.5" fill="#263758" width="83.833" height="3"/>
<circle fill="#FFFFFF" cx="36.169" cy="43.169" r="1.753"/>
<circle fill="#FFFFFF" cx="41.906" cy="43.169" r="1.753"/>
<circle fill="#FFFFFF" cx="47.643" cy="43.169" r="1.753"/>
<g>
	<path fill="#D30C18" d="M42.802,55.368h3.719v4.245c0,0.789-0.188,1.39-0.564,1.803c-0.375,0.413-0.917,0.62-1.625,0.62
		c-0.182,0-0.36-0.016-0.535-0.047c-0.176-0.031-0.338-0.073-0.489-0.126c-0.15-0.053-0.28-0.111-0.39-0.174
		s-0.189-0.122-0.239-0.179l0.338-0.62c0.069,0.044,0.146,0.091,0.23,0.141c0.084,0.05,0.179,0.099,0.282,0.146
		c0.104,0.047,0.219,0.086,0.348,0.118s0.274,0.047,0.437,0.047c0.47,0,0.825-0.147,1.066-0.441c0.241-0.294,0.361-0.77,0.361-1.428
		v-3.409h-2.939V55.368z"/>
	<path fill="#D30C18" d="M47.906,57.612c0.269-0.156,0.573-0.269,0.911-0.338s0.67-0.104,0.996-0.104c0.319,0,0.581,0.05,0.784,0.15
		c0.203,0.1,0.363,0.23,0.479,0.39c0.116,0.16,0.194,0.341,0.235,0.545c0.041,0.203,0.061,0.408,0.061,0.615
		c0,0.238-0.006,0.492-0.019,0.761c-0.013,0.27-0.022,0.539-0.028,0.808c0,0.313,0.019,0.61,0.056,0.892h0.629v0.61h-1.24
		l-0.084-0.705h-0.047c-0.038,0.057-0.094,0.128-0.169,0.216c-0.076,0.088-0.174,0.174-0.297,0.258s-0.271,0.158-0.447,0.221
		s-0.383,0.094-0.622,0.094c-0.464,0-0.832-0.119-1.102-0.357c-0.27-0.238-0.405-0.563-0.405-0.977c0-0.319,0.07-0.585,0.212-0.798
		c0.141-0.213,0.344-0.375,0.607-0.488s0.583-0.179,0.956-0.197c0.374-0.019,0.793,0.006,1.258,0.075
		c0.031-0.288,0.036-0.527,0.014-0.719c-0.022-0.191-0.072-0.343-0.151-0.456c-0.079-0.112-0.188-0.192-0.33-0.239
		c-0.142-0.047-0.316-0.07-0.523-0.07c-0.283,0-0.553,0.039-0.811,0.117c-0.258,0.079-0.487,0.158-0.688,0.24L47.906,57.612z
		 M49.296,61.397c0.175,0,0.338-0.028,0.488-0.084c0.15-0.056,0.282-0.128,0.395-0.216s0.207-0.183,0.282-0.287
		c0.075-0.103,0.131-0.202,0.169-0.296v-0.657c-0.326-0.056-0.626-0.084-0.901-0.084c-0.276,0-0.514,0.03-0.714,0.089
		c-0.201,0.06-0.357,0.152-0.47,0.277c-0.113,0.125-0.169,0.288-0.169,0.488c0,0.207,0.07,0.387,0.211,0.54
		C48.728,61.321,48.964,61.397,49.296,61.397z"/>
	<path fill="#D30C18" d="M54.687,61.031h0.102l1.471-3.785h0.817l-1.981,4.696h-0.817l-2.019-4.696h0.864L54.687,61.031z"/>
	<path fill="#D30C18" d="M58.035,57.612c0.269-0.156,0.573-0.269,0.911-0.338s0.67-0.104,0.996-0.104c0.319,0,0.581,0.05,0.784,0.15
		c0.203,0.1,0.363,0.23,0.479,0.39c0.116,0.16,0.194,0.341,0.235,0.545c0.041,0.203,0.061,0.408,0.061,0.615
		c0,0.238-0.006,0.492-0.019,0.761c-0.013,0.27-0.022,0.539-0.028,0.808c0,0.313,0.019,0.61,0.056,0.892h0.629v0.61h-1.24
		l-0.084-0.705h-0.047c-0.038,0.057-0.094,0.128-0.169,0.216c-0.076,0.088-0.174,0.174-0.297,0.258s-0.271,0.158-0.447,0.221
		s-0.383,0.094-0.622,0.094c-0.464,0-0.832-0.119-1.102-0.357c-0.27-0.238-0.405-0.563-0.405-0.977c0-0.319,0.07-0.585,0.212-0.798
		c0.141-0.213,0.344-0.375,0.607-0.488s0.583-0.179,0.956-0.197c0.374-0.019,0.793,0.006,1.258,0.075
		c0.031-0.288,0.036-0.527,0.014-0.719c-0.022-0.191-0.072-0.343-0.151-0.456c-0.079-0.112-0.188-0.192-0.33-0.239
		c-0.142-0.047-0.316-0.07-0.523-0.07c-0.283,0-0.553,0.039-0.811,0.117c-0.258,0.079-0.487,0.158-0.688,0.24L58.035,57.612z
		 M59.425,61.397c0.175,0,0.338-0.028,0.488-0.084c0.15-0.056,0.282-0.128,0.395-0.216s0.207-0.183,0.282-0.287
		c0.075-0.103,0.131-0.202,0.169-0.296v-0.657c-0.326-0.056-0.626-0.084-0.901-0.084c-0.276,0-0.514,0.03-0.714,0.089
		c-0.201,0.06-0.357,0.152-0.47,0.277c-0.113,0.125-0.169,0.288-0.169,0.488c0,0.207,0.07,0.387,0.211,0.54
		C58.856,61.321,59.093,61.397,59.425,61.397z"/>
	<path fill="#D30C18" d="M63.778,61.425c0-0.188,0.061-0.339,0.183-0.456c0.122-0.116,0.28-0.174,0.474-0.174
		c0.238,0,0.423,0.083,0.554,0.249c0.131,0.166,0.197,0.399,0.197,0.7c0,0.244-0.041,0.458-0.122,0.644
		c-0.082,0.185-0.183,0.341-0.305,0.469s-0.254,0.232-0.395,0.31c-0.141,0.078-0.271,0.136-0.39,0.174l-0.235-0.366
		c0.225-0.088,0.419-0.213,0.582-0.376c0.163-0.163,0.244-0.36,0.244-0.591c-0.087,0.019-0.156,0.028-0.207,0.028
		c-0.182,0-0.324-0.051-0.427-0.155S63.778,61.626,63.778,61.425z"/>
	<path fill="#D30C18" d="M76.447,56.082c-0.106-0.044-0.225-0.077-0.353-0.099c-0.129-0.022-0.285-0.033-0.466-0.033
		c-0.258,0-0.511,0.047-0.759,0.141s-0.468,0.248-0.66,0.46c-0.191,0.213-0.345,0.491-0.461,0.835
		c-0.116,0.345-0.174,0.767-0.174,1.268c0,0.451,0.052,0.845,0.155,1.184c0.104,0.338,0.248,0.62,0.434,0.845
		c0.185,0.225,0.408,0.394,0.669,0.507c0.26,0.113,0.551,0.169,0.871,0.169c0.164,0,0.316-0.014,0.457-0.042
		s0.271-0.067,0.391-0.118v-0.939h0.695v1.268l0.009,0.019c-0.188,0.144-0.426,0.265-0.713,0.362
		c-0.288,0.097-0.639,0.146-1.052,0.146c-0.394,0-0.759-0.067-1.094-0.202c-0.335-0.134-0.625-0.339-0.869-0.615
		c-0.244-0.275-0.434-0.627-0.568-1.056c-0.135-0.429-0.202-0.938-0.202-1.526c0-0.614,0.075-1.135,0.226-1.564
		c0.15-0.429,0.354-0.779,0.61-1.052s0.556-0.471,0.897-0.596c0.341-0.125,0.706-0.188,1.094-0.188c0.213,0,0.397,0.008,0.554,0.023
		c0.156,0.016,0.294,0.038,0.413,0.066c0.119,0.028,0.224,0.064,0.314,0.108c0.091,0.044,0.18,0.094,0.268,0.15h0.01v1.484h-0.695
		V56.082z"/>
	<path fill="#D30C18" d="M80.617,59.829h-1.362l-0.366,1.568h-0.648l0.366-1.568h-0.92l0.131-0.601h0.93l0.291-1.23h-0.883
		l0.131-0.601h0.892l0.357-1.484h0.647l-0.356,1.484h1.361l0.357-1.484h0.648l-0.357,1.484h0.91l-0.15,0.601h-0.9l-0.291,1.23h0.873
		l-0.15,0.601h-0.863l-0.367,1.568H80.25L80.617,59.829z M79.396,59.228h1.362l0.291-1.23h-1.361L79.396,59.228z"/>
	<path fill="#D30C18" d="M83.601,61.425c0-0.188,0.062-0.339,0.184-0.456c0.122-0.116,0.28-0.174,0.475-0.174
		c0.237,0,0.422,0.083,0.554,0.249c0.132,0.166,0.197,0.399,0.197,0.7c0,0.244-0.041,0.458-0.122,0.644
		c-0.082,0.185-0.184,0.341-0.306,0.469s-0.253,0.232-0.395,0.31c-0.141,0.078-0.271,0.136-0.39,0.174l-0.234-0.366
		c0.226-0.088,0.419-0.213,0.582-0.376c0.163-0.163,0.244-0.36,0.244-0.591c-0.088,0.019-0.156,0.028-0.206,0.028
		c-0.182,0-0.324-0.051-0.428-0.155S83.601,61.626,83.601,61.425z"/>
	<path fill="#D30C18" d="M94.157,61.425c0-0.2,0.056-0.355,0.169-0.465c0.112-0.109,0.263-0.165,0.451-0.165
		c0.2,0,0.356,0.055,0.469,0.165c0.113,0.11,0.169,0.265,0.169,0.465c0,0.182-0.056,0.332-0.169,0.451
		c-0.112,0.119-0.269,0.179-0.469,0.179c-0.188,0-0.339-0.06-0.451-0.179C94.213,61.757,94.157,61.607,94.157,61.425z"/>
	<path fill="#D30C18" d="M98.402,57.828l-0.504-0.948H97.86l0.095,0.948v4.114h-0.742v-6.574h0.514l2.636,4.095l0.486,0.902h0.047
		l-0.104-0.902v-4.095h0.742v6.574h-0.514L98.402,57.828z"/>
	<path fill="#D30C18" d="M102.774,55.368h3.86v0.695h-3.081v2.151h2.846v0.695h-2.846v2.339h3.128v0.695h-3.907V55.368z"/>
	<path fill="#D30C18" d="M107.404,55.368h4.884v1.719h-0.695v-1.024h-1.362v5.185h1.033v0.695h-2.846v-0.695h1.033v-5.185h-1.353
		v1.024h-0.694V55.368z"/>
	<path fill="#D30C18" d="M113.291,61.425c0-0.188,0.062-0.339,0.184-0.456c0.122-0.116,0.28-0.174,0.475-0.174
		c0.237,0,0.422,0.083,0.554,0.249c0.132,0.166,0.197,0.399,0.197,0.7c0,0.244-0.041,0.458-0.122,0.644
		c-0.082,0.185-0.184,0.341-0.306,0.469s-0.253,0.232-0.395,0.31c-0.141,0.078-0.271,0.136-0.39,0.174l-0.234-0.366
		c0.226-0.088,0.419-0.213,0.582-0.376c0.163-0.163,0.244-0.36,0.244-0.591c-0.088,0.019-0.156,0.028-0.206,0.028
		c-0.182,0-0.324-0.051-0.428-0.155S113.291,61.626,113.291,61.425z"/>
	<path fill="#D30C18" d="M46.192,70.676c-0.106-0.044-0.225-0.077-0.353-0.099c-0.129-0.022-0.285-0.033-0.466-0.033
		c-0.258,0-0.511,0.047-0.759,0.141s-0.468,0.248-0.66,0.46c-0.191,0.213-0.345,0.491-0.461,0.835
		c-0.116,0.345-0.174,0.767-0.174,1.268c0,0.451,0.052,0.845,0.155,1.184c0.104,0.338,0.248,0.62,0.434,0.845
		c0.185,0.225,0.408,0.394,0.669,0.507c0.26,0.113,0.551,0.169,0.871,0.169c0.164,0,0.316-0.014,0.457-0.042
		s0.271-0.067,0.391-0.118v-0.939h0.695v1.268L47,76.142c-0.188,0.144-0.426,0.265-0.713,0.362
		c-0.288,0.097-0.639,0.146-1.052,0.146c-0.394,0-0.759-0.067-1.094-0.202c-0.335-0.134-0.625-0.339-0.869-0.615
		c-0.244-0.275-0.434-0.627-0.568-1.056c-0.135-0.429-0.202-0.938-0.202-1.526c0-0.614,0.075-1.135,0.226-1.564
		c0.15-0.429,0.354-0.779,0.61-1.052s0.556-0.471,0.897-0.596c0.341-0.125,0.706-0.188,1.094-0.188c0.213,0,0.397,0.008,0.554,0.023
		c0.156,0.016,0.294,0.038,0.413,0.066c0.119,0.028,0.224,0.064,0.314,0.108c0.091,0.044,0.18,0.094,0.268,0.15h0.01v1.484h-0.695
		V70.676z"/>
	<path fill="#D30C18" d="M51.024,69.849l0.591,0.263l-3.428,7.739l-0.592-0.263L51.024,69.849z"/>
	<path fill="#D30C18" d="M55.826,70.676c-0.106-0.044-0.225-0.077-0.353-0.099c-0.129-0.022-0.285-0.033-0.466-0.033
		c-0.258,0-0.511,0.047-0.759,0.141s-0.468,0.248-0.66,0.46c-0.191,0.213-0.345,0.491-0.461,0.835
		c-0.116,0.345-0.174,0.767-0.174,1.268c0,0.451,0.052,0.845,0.155,1.184c0.104,0.338,0.248,0.62,0.434,0.845
		c0.185,0.225,0.408,0.394,0.669,0.507c0.26,0.113,0.551,0.169,0.871,0.169c0.164,0,0.316-0.014,0.457-0.042
		s0.271-0.067,0.391-0.118v-0.939h0.695v1.268l0.009,0.019c-0.188,0.144-0.426,0.265-0.713,0.362
		c-0.288,0.097-0.639,0.146-1.052,0.146c-0.394,0-0.759-0.067-1.094-0.202c-0.335-0.134-0.625-0.339-0.869-0.615
		c-0.244-0.275-0.434-0.627-0.568-1.056c-0.135-0.429-0.202-0.938-0.202-1.526c0-0.614,0.075-1.135,0.226-1.564
		c0.15-0.429,0.354-0.779,0.61-1.052s0.556-0.471,0.897-0.596c0.341-0.125,0.706-0.188,1.094-0.188c0.213,0,0.397,0.008,0.554,0.023
		c0.156,0.016,0.294,0.038,0.413,0.066c0.119,0.028,0.224,0.064,0.314,0.108c0.091,0.044,0.18,0.094,0.268,0.15h0.01v1.484h-0.695
		V70.676z"/>
	<path fill="#D30C18" d="M56.896,73.023h2.029v-2.075h0.676v2.075h2.028V73.7h-2.028v2.076h-0.676V73.7h-2.029V73.023z"/>
	<path fill="#D30C18" d="M62.275,73.023h2.029v-2.075h0.676v2.075h2.028V73.7H64.98v2.076h-0.676V73.7h-2.029V73.023z"/>
	<path fill="#D30C18" d="M68.006,76.02c0-0.188,0.061-0.339,0.183-0.456c0.122-0.116,0.28-0.174,0.474-0.174
		c0.238,0,0.423,0.083,0.554,0.249c0.131,0.166,0.197,0.399,0.197,0.7c0,0.244-0.041,0.458-0.122,0.644
		c-0.082,0.185-0.183,0.341-0.305,0.469s-0.254,0.232-0.395,0.31c-0.141,0.078-0.271,0.136-0.39,0.174l-0.235-0.366
		c0.225-0.088,0.419-0.213,0.582-0.376c0.163-0.163,0.244-0.36,0.244-0.591c-0.087,0.019-0.156,0.028-0.207,0.028
		c-0.182,0-0.324-0.051-0.427-0.155S68.006,76.22,68.006,76.02z"/>
	<path fill="#D30C18" d="M78.731,73.193l-1.982-3.231h0.939l1.315,2.226l0.234,0.441l0.226-0.441l1.4-2.226h0.863l-2.057,3.165
		l2.15,3.409h-0.91l-1.475-2.357l-0.253-0.47l-0.244,0.47l-1.503,2.357h-0.873L78.731,73.193z"/>
	<path fill="#D30C18" d="M86.115,72.169l0.094-0.892h-0.047l-0.451,0.808l-0.957,1.606h-0.235l-1.005-1.615l-0.432-0.798h-0.047
		l0.112,0.883v4.376h-0.761v-6.574h0.724l1.559,2.498h0.019l1.503-2.498h0.704v6.574h-0.779V72.169z"/>
	<path fill="#D30C18" d="M87.999,69.962h0.779v5.879h2.657v-1.634h0.695v2.329h-4.132V69.962z"/>
	<path fill="#D30C18" d="M93.898,76.02c0-0.188,0.062-0.339,0.184-0.456c0.122-0.116,0.28-0.174,0.475-0.174
		c0.237,0,0.422,0.083,0.554,0.249c0.132,0.166,0.197,0.399,0.197,0.7c0,0.244-0.041,0.458-0.122,0.644
		c-0.082,0.185-0.184,0.341-0.306,0.469s-0.253,0.232-0.395,0.31c-0.141,0.078-0.271,0.136-0.39,0.174l-0.234-0.366
		c0.226-0.088,0.419-0.213,0.582-0.376c0.163-0.163,0.244-0.36,0.244-0.591c-0.088,0.019-0.156,0.028-0.206,0.028
		c-0.182,0-0.324-0.051-0.428-0.155S93.898,76.22,93.898,76.02z"/>
	<path fill="#D30C18" d="M42.341,87.844c0-1.09,0.192-1.93,0.577-2.518s0.976-0.883,1.776-0.883c0.438,0,0.808,0.082,1.111,0.244
		s0.548,0.393,0.736,0.689c0.188,0.299,0.322,0.656,0.403,1.072c0.082,0.416,0.122,0.881,0.122,1.395
		c0,1.09-0.192,1.928-0.576,2.516c-0.385,0.59-0.983,0.883-1.795,0.883c-0.431,0-0.796-0.08-1.096-0.244
		c-0.3-0.162-0.544-0.393-0.731-0.689s-0.322-0.654-0.403-1.07C42.382,88.822,42.341,88.357,42.341,87.844z M43.159,87.844
		c0,0.363,0.023,0.707,0.07,1.033c0.047,0.324,0.13,0.611,0.25,0.859c0.12,0.246,0.276,0.443,0.471,0.592
		c0.195,0.146,0.443,0.221,0.744,0.221c0.54,0,0.935-0.221,1.183-0.658c0.248-0.438,0.372-1.121,0.372-2.047
		c0-0.357-0.024-0.699-0.071-1.029c-0.047-0.328-0.13-0.617-0.25-0.863c-0.12-0.248-0.28-0.445-0.48-0.592
		c-0.201-0.146-0.452-0.221-0.754-0.221c-0.534,0-0.923,0.221-1.168,0.662C43.281,86.242,43.159,86.924,43.159,87.844z"/>
	<path fill="#D30C18" d="M47.829,91.131v-0.629h1.268v-3.438h-1.268v-0.631h1.756l0.15,0.611h0.047
		c0.213-0.193,0.451-0.359,0.714-0.498c0.263-0.137,0.576-0.207,0.939-0.207c0.213,0,0.384,0.041,0.512,0.123
		c0.128,0.082,0.229,0.201,0.3,0.357s0.121,0.346,0.146,0.568c0.025,0.221,0.038,0.473,0.038,0.756l-0.657,0.008
		c0-0.396-0.039-0.688-0.118-0.875c-0.078-0.186-0.221-0.279-0.427-0.279c-0.194,0-0.369,0.027-0.526,0.084
		s-0.292,0.125-0.409,0.207c-0.116,0.08-0.214,0.162-0.295,0.242c-0.082,0.082-0.141,0.15-0.179,0.207v2.764h1.803v0.629H47.829z"/>
	<path fill="#D30C18" d="M53.371,86.801c0.269-0.156,0.573-0.27,0.911-0.338s0.67-0.104,0.996-0.104c0.319,0,0.581,0.051,0.784,0.15
		c0.203,0.1,0.363,0.23,0.479,0.389c0.116,0.16,0.194,0.342,0.235,0.545c0.041,0.205,0.061,0.41,0.061,0.615
		c0,0.238-0.006,0.492-0.019,0.762s-0.022,0.539-0.028,0.807c0,0.314,0.019,0.611,0.056,0.893h0.629v0.611h-1.24l-0.084-0.705
		h-0.047c-0.038,0.057-0.094,0.129-0.169,0.217c-0.076,0.088-0.174,0.174-0.297,0.258s-0.271,0.158-0.447,0.221
		s-0.383,0.094-0.622,0.094c-0.464,0-0.832-0.119-1.102-0.357c-0.27-0.236-0.405-0.562-0.405-0.977c0-0.318,0.07-0.584,0.212-0.799
		c0.141-0.211,0.344-0.375,0.607-0.488c0.264-0.111,0.583-0.178,0.956-0.197c0.374-0.018,0.793,0.008,1.258,0.076
		c0.031-0.287,0.036-0.527,0.014-0.719s-0.072-0.342-0.151-0.455s-0.188-0.193-0.33-0.24c-0.142-0.047-0.316-0.07-0.523-0.07
		c-0.283,0-0.553,0.039-0.811,0.117c-0.258,0.078-0.487,0.158-0.688,0.24L53.371,86.801z M54.761,90.586
		c0.175,0,0.338-0.029,0.488-0.084c0.15-0.057,0.282-0.129,0.395-0.217s0.207-0.184,0.282-0.287s0.131-0.201,0.169-0.295v-0.658
		c-0.326-0.057-0.626-0.084-0.901-0.084c-0.276,0-0.514,0.029-0.714,0.09c-0.201,0.059-0.357,0.15-0.47,0.277
		c-0.113,0.125-0.169,0.287-0.169,0.488c0,0.205,0.07,0.387,0.211,0.539C54.192,90.51,54.429,90.586,54.761,90.586z"/>
	<path fill="#D30C18" d="M61.627,87.158c-0.144-0.051-0.299-0.094-0.465-0.127c-0.166-0.035-0.331-0.053-0.493-0.053
		c-0.614,0-1.071,0.145-1.371,0.434c-0.301,0.289-0.451,0.748-0.451,1.375c0,0.275,0.043,0.523,0.131,0.74
		c0.087,0.215,0.213,0.4,0.375,0.551s0.358,0.266,0.587,0.348s0.48,0.123,0.756,0.123c0.294,0,0.581-0.051,0.859-0.154
		c0.278-0.102,0.512-0.234,0.7-0.4l0.329,0.545c-0.088,0.074-0.197,0.152-0.329,0.234c-0.132,0.082-0.284,0.158-0.456,0.23
		c-0.172,0.072-0.363,0.129-0.573,0.174c-0.209,0.043-0.437,0.064-0.681,0.064c-0.407,0-0.766-0.057-1.075-0.174
		c-0.31-0.115-0.568-0.281-0.775-0.496c-0.207-0.217-0.363-0.477-0.47-0.779c-0.106-0.305-0.16-0.641-0.16-1.01
		c0-0.395,0.055-0.746,0.165-1.053c0.109-0.307,0.268-0.562,0.474-0.77s0.457-0.365,0.751-0.475
		c0.294-0.109,0.623-0.164,0.986-0.164c0.463,0,0.841,0.041,1.132,0.121c0.291,0.082,0.537,0.172,0.737,0.273l-0.009,0.027v1.307
		h-0.676V87.158z"/>
	<path fill="#D30C18" d="M63.308,84.557h1.568v4.996c0,0.381,0.064,0.65,0.192,0.807c0.128,0.158,0.318,0.236,0.568,0.236
		c0.175,0,0.343-0.031,0.502-0.094s0.336-0.17,0.531-0.32l0.338,0.518c-0.101,0.086-0.21,0.166-0.33,0.234
		c-0.12,0.068-0.242,0.127-0.368,0.174s-0.251,0.082-0.377,0.107c-0.125,0.025-0.242,0.037-0.349,0.037
		c-0.232,0-0.439-0.029-0.622-0.088c-0.183-0.061-0.335-0.156-0.457-0.287c-0.123-0.131-0.215-0.305-0.278-0.521
		c-0.062-0.217-0.094-0.484-0.094-0.803v-4.367h-0.826V84.557z"/>
	<path fill="#D30C18" d="M72.122,90.539c-0.113,0.1-0.246,0.193-0.399,0.281c-0.153,0.088-0.321,0.162-0.502,0.225
		c-0.182,0.064-0.371,0.111-0.568,0.146s-0.396,0.051-0.597,0.051c-0.375,0-0.708-0.057-0.995-0.174
		c-0.288-0.115-0.529-0.281-0.723-0.496c-0.194-0.217-0.342-0.475-0.441-0.775c-0.101-0.301-0.15-0.639-0.15-1.014
		c0-0.395,0.055-0.746,0.164-1.053c0.11-0.307,0.268-0.562,0.475-0.77s0.457-0.365,0.751-0.475c0.294-0.109,0.623-0.164,0.986-0.164
		c0.263,0,0.523,0.033,0.779,0.104c0.257,0.068,0.484,0.197,0.681,0.389s0.349,0.455,0.456,0.789
		c0.106,0.336,0.144,0.77,0.113,1.301h-3.625c0,0.564,0.151,0.984,0.455,1.264c0.303,0.279,0.707,0.418,1.213,0.418
		c0.168,0,0.335-0.021,0.501-0.061c0.166-0.041,0.323-0.09,0.473-0.146s0.283-0.119,0.398-0.188
		c0.115-0.068,0.204-0.131,0.267-0.188L72.122,90.539z M70.145,86.941c-0.206,0-0.401,0.021-0.585,0.066
		c-0.184,0.043-0.347,0.117-0.487,0.221c-0.141,0.104-0.256,0.238-0.346,0.404c-0.091,0.166-0.148,0.369-0.173,0.615h2.912
		c-0.031-0.414-0.164-0.734-0.398-0.963C70.833,87.057,70.525,86.941,70.145,86.941z"/>
	<path fill="#D30C18" d="M73.851,90.613c0-0.188,0.061-0.34,0.183-0.455s0.28-0.174,0.474-0.174c0.238,0,0.423,0.084,0.554,0.25
		s0.197,0.398,0.197,0.699c0,0.244-0.041,0.459-0.122,0.643c-0.082,0.186-0.183,0.342-0.305,0.471
		c-0.122,0.127-0.254,0.23-0.395,0.309c-0.141,0.078-0.271,0.137-0.39,0.174l-0.235-0.365c0.225-0.088,0.419-0.213,0.582-0.377
		c0.163-0.162,0.244-0.359,0.244-0.592c-0.087,0.02-0.156,0.029-0.207,0.029c-0.182,0-0.324-0.053-0.427-0.156
		C73.902,90.967,73.851,90.814,73.851,90.613z"/>
	<path fill="#D30C18" d="M83.628,90.201c0.188,0.1,0.398,0.182,0.634,0.248c0.234,0.066,0.471,0.1,0.709,0.1
		c0.206,0,0.4-0.021,0.582-0.062c0.182-0.039,0.34-0.105,0.475-0.197c0.135-0.09,0.24-0.205,0.319-0.342
		c0.078-0.139,0.117-0.301,0.117-0.488c0-0.258-0.086-0.467-0.259-0.629c-0.172-0.164-0.386-0.307-0.643-0.434
		c-0.257-0.125-0.535-0.246-0.836-0.365s-0.579-0.26-0.836-0.422c-0.257-0.164-0.472-0.363-0.644-0.598s-0.258-0.533-0.258-0.896
		c0-0.256,0.052-0.488,0.154-0.695c0.104-0.207,0.249-0.381,0.437-0.525c0.188-0.145,0.415-0.256,0.682-0.334
		c0.266-0.078,0.562-0.117,0.888-0.117c0.375,0,0.717,0.027,1.023,0.08s0.551,0.123,0.732,0.211l0.019-0.01v0.02h0.01l-0.01,0.027
		v1.504h-0.694V85.27c-0.157-0.037-0.329-0.068-0.517-0.094c-0.188-0.025-0.389-0.037-0.602-0.037c-0.206,0-0.393,0.025-0.559,0.074
		c-0.166,0.051-0.307,0.117-0.423,0.203c-0.116,0.084-0.205,0.184-0.268,0.295c-0.062,0.113-0.094,0.232-0.094,0.357
		c0,0.244,0.086,0.447,0.258,0.609c0.173,0.164,0.387,0.309,0.644,0.438s0.535,0.256,0.836,0.381s0.579,0.271,0.836,0.436
		c0.257,0.166,0.471,0.365,0.644,0.598c0.172,0.23,0.258,0.52,0.258,0.863c0,0.281-0.052,0.535-0.155,0.762
		c-0.103,0.225-0.25,0.418-0.441,0.582c-0.19,0.162-0.426,0.287-0.704,0.375s-0.593,0.131-0.943,0.131
		c-0.238,0-0.464-0.018-0.677-0.055c-0.213-0.039-0.408-0.086-0.587-0.143c-0.179-0.055-0.338-0.115-0.479-0.178
		c-0.142-0.062-0.252-0.115-0.334-0.16l0.01-0.027v-1.521h0.695V90.201z"/>
	<path fill="#D30C18" d="M90.257,90.406h0.356l1.165-3.973h0.761l-1.306,4.219c-0.069,0.219-0.14,0.467-0.211,0.746
		c-0.072,0.277-0.174,0.539-0.306,0.783c-0.131,0.244-0.31,0.451-0.535,0.621c-0.226,0.168-0.52,0.254-0.883,0.254
		c-0.081,0-0.168-0.01-0.258-0.029c-0.092-0.02-0.181-0.043-0.269-0.07c-0.087-0.027-0.169-0.061-0.244-0.098
		c-0.075-0.039-0.131-0.076-0.169-0.113l0.264-0.676c0.037,0.031,0.089,0.062,0.154,0.094c0.066,0.031,0.138,0.057,0.216,0.08
		c0.079,0.021,0.155,0.039,0.23,0.055s0.138,0.023,0.188,0.023c0.47,0,0.789-0.396,0.958-1.191H89.74l-1.973-4.697h0.846
		L90.257,90.406z"/>
	<path fill="#D30C18" d="M92.65,84.557h1.503v2.414H94.2c0.163-0.207,0.372-0.367,0.629-0.48c0.257-0.111,0.536-0.168,0.836-0.168
		c1.378,0,2.066,0.795,2.066,2.385c0,0.809-0.223,1.426-0.667,1.855c-0.444,0.428-1.077,0.643-1.896,0.643
		c-0.389,0-0.739-0.037-1.052-0.111c-0.313-0.076-0.542-0.164-0.687-0.264v-5.645H92.65V84.557z M95.571,86.951
		c-0.376,0-0.68,0.105-0.911,0.318s-0.4,0.514-0.507,0.902v2.16c0.144,0.074,0.316,0.135,0.517,0.178
		c0.2,0.045,0.41,0.066,0.629,0.066c0.251,0,0.478-0.035,0.682-0.107c0.203-0.072,0.377-0.186,0.521-0.338
		c0.145-0.154,0.255-0.35,0.334-0.588c0.078-0.238,0.117-0.52,0.117-0.846c0-0.236-0.025-0.463-0.075-0.676s-0.13-0.398-0.239-0.559
		c-0.11-0.16-0.252-0.285-0.428-0.375C96.035,86.996,95.822,86.951,95.571,86.951z"/>
	<path fill="#D30C18" d="M98.905,86.801c0.269-0.156,0.572-0.27,0.911-0.338c0.338-0.068,0.669-0.104,0.995-0.104
		c0.319,0,0.581,0.051,0.784,0.15s0.363,0.23,0.479,0.389c0.116,0.16,0.194,0.342,0.235,0.545c0.04,0.205,0.061,0.41,0.061,0.615
		c0,0.238-0.006,0.492-0.019,0.762s-0.021,0.539-0.028,0.807c0,0.314,0.02,0.611,0.057,0.893h0.629v0.611h-1.24l-0.084-0.705h-0.047
		c-0.038,0.057-0.094,0.129-0.17,0.217c-0.075,0.088-0.174,0.174-0.296,0.258c-0.123,0.084-0.272,0.158-0.448,0.221
		s-0.383,0.094-0.621,0.094c-0.465,0-0.832-0.119-1.103-0.357c-0.27-0.236-0.405-0.562-0.405-0.977c0-0.318,0.071-0.584,0.212-0.799
		c0.142-0.211,0.344-0.375,0.608-0.488c0.264-0.111,0.582-0.178,0.956-0.197c0.373-0.018,0.793,0.008,1.258,0.076
		c0.031-0.287,0.035-0.527,0.014-0.719s-0.072-0.342-0.15-0.455c-0.079-0.113-0.188-0.193-0.33-0.24s-0.315-0.07-0.523-0.07
		c-0.282,0-0.553,0.039-0.811,0.117c-0.257,0.078-0.486,0.158-0.688,0.24L98.905,86.801z M100.295,90.586
		c0.175,0,0.338-0.029,0.488-0.084c0.15-0.057,0.282-0.129,0.395-0.217s0.207-0.184,0.282-0.287
		c0.074-0.104,0.131-0.201,0.169-0.295v-0.658c-0.326-0.057-0.627-0.084-0.902-0.084s-0.513,0.029-0.714,0.09
		c-0.2,0.059-0.356,0.15-0.469,0.277c-0.113,0.125-0.169,0.287-0.169,0.488c0,0.205,0.07,0.387,0.211,0.539
		C99.727,90.51,99.963,90.586,100.295,90.586z"/>
	<path fill="#D30C18" d="M107.255,89.863c0-0.201-0.078-0.355-0.234-0.465s-0.35-0.197-0.58-0.264
		c-0.231-0.066-0.482-0.127-0.754-0.184c-0.272-0.057-0.523-0.131-0.754-0.225c-0.231-0.094-0.425-0.221-0.581-0.381
		s-0.233-0.383-0.233-0.672c0-0.238,0.051-0.441,0.154-0.609c0.104-0.17,0.239-0.309,0.409-0.418
		c0.169-0.109,0.366-0.191,0.591-0.244c0.226-0.055,0.461-0.08,0.705-0.08c0.438,0,0.815,0.055,1.132,0.164
		c0.315,0.109,0.567,0.225,0.756,0.342l-0.3,0.592c-0.206-0.111-0.429-0.221-0.67-0.324c-0.24-0.102-0.541-0.154-0.903-0.154
		c-0.137,0-0.272,0.014-0.407,0.043c-0.134,0.027-0.256,0.07-0.365,0.127c-0.108,0.057-0.196,0.129-0.262,0.221
		c-0.065,0.09-0.099,0.201-0.099,0.332c0,0.164,0.078,0.289,0.234,0.377s0.35,0.16,0.58,0.221c0.231,0.059,0.482,0.115,0.754,0.168
		c0.271,0.055,0.523,0.131,0.754,0.23c0.231,0.1,0.425,0.234,0.581,0.404c0.156,0.168,0.233,0.396,0.233,0.686
		c0,0.432-0.17,0.789-0.512,1.07c-0.341,0.281-0.853,0.422-1.535,0.422c-0.207,0-0.41-0.018-0.61-0.055
		c-0.2-0.039-0.389-0.088-0.563-0.15c-0.176-0.062-0.335-0.133-0.479-0.213c-0.144-0.078-0.263-0.156-0.356-0.238l0.374-0.611
		c0.075,0.076,0.175,0.152,0.3,0.23s0.263,0.148,0.412,0.211c0.15,0.062,0.311,0.113,0.482,0.15s0.345,0.057,0.52,0.057
		c0.169,0,0.326-0.014,0.474-0.043c0.146-0.027,0.276-0.07,0.389-0.131c0.112-0.059,0.201-0.137,0.267-0.234
		S107.255,90,107.255,89.863z"/>
	<path fill="#D30C18" d="M113.318,90.539c-0.112,0.1-0.245,0.193-0.398,0.281s-0.321,0.162-0.503,0.225
		c-0.182,0.064-0.371,0.111-0.568,0.146s-0.396,0.051-0.596,0.051c-0.376,0-0.708-0.057-0.996-0.174
		c-0.288-0.115-0.529-0.281-0.723-0.496c-0.194-0.217-0.342-0.475-0.441-0.775c-0.101-0.301-0.15-0.639-0.15-1.014
		c0-0.395,0.055-0.746,0.164-1.053s0.268-0.562,0.475-0.77c0.206-0.207,0.457-0.365,0.751-0.475
		c0.295-0.109,0.623-0.164,0.986-0.164c0.263,0,0.522,0.033,0.779,0.104c0.257,0.068,0.484,0.197,0.681,0.389
		c0.197,0.191,0.35,0.455,0.456,0.789c0.106,0.336,0.144,0.77,0.112,1.301h-3.625c0,0.564,0.151,0.984,0.454,1.264
		s0.707,0.418,1.213,0.418c0.169,0,0.336-0.021,0.502-0.061c0.165-0.041,0.323-0.09,0.473-0.146s0.282-0.119,0.398-0.188
		c0.115-0.068,0.204-0.131,0.267-0.188L113.318,90.539z M111.342,86.941c-0.206,0-0.401,0.021-0.586,0.066
		c-0.184,0.043-0.346,0.117-0.486,0.221s-0.256,0.238-0.347,0.404c-0.09,0.166-0.148,0.369-0.173,0.615h2.911
		c-0.031-0.414-0.164-0.734-0.397-0.963C112.029,87.057,111.722,86.941,111.342,86.941z"/>
	<path fill="#D30C18" d="M115.048,90.613c0-0.188,0.062-0.34,0.184-0.455s0.28-0.174,0.475-0.174c0.237,0,0.422,0.084,0.554,0.25
		s0.197,0.398,0.197,0.699c0,0.244-0.041,0.459-0.122,0.643c-0.082,0.186-0.184,0.342-0.306,0.471
		c-0.122,0.127-0.253,0.23-0.395,0.309c-0.141,0.078-0.271,0.137-0.39,0.174l-0.234-0.365c0.226-0.088,0.419-0.213,0.582-0.377
		c0.163-0.162,0.244-0.359,0.244-0.592c-0.088,0.02-0.156,0.029-0.206,0.029c-0.182,0-0.324-0.053-0.428-0.156
		C115.1,90.967,115.048,90.814,115.048,90.613z"/>
	<path fill="#D30C18" d="M46.183,101.357l0.094-0.893h-0.047l-0.451,0.809l-0.958,1.605h-0.235l-1.005-1.615l-0.432-0.799h-0.047
		l0.113,0.883v4.377h-0.761V99.15h0.723l1.559,2.498h0.019l1.503-2.498h0.705v6.574h-0.78V101.357z"/>
	<path fill="#D30C18" d="M48.595,104.795c0.188,0.102,0.399,0.184,0.634,0.25c0.235,0.064,0.471,0.098,0.709,0.098
		c0.207,0,0.4-0.02,0.582-0.061s0.34-0.107,0.475-0.197c0.134-0.092,0.241-0.205,0.319-0.344c0.079-0.137,0.118-0.301,0.118-0.488
		c0-0.256-0.086-0.465-0.258-0.629c-0.172-0.162-0.387-0.307-0.644-0.432s-0.535-0.248-0.835-0.367
		c-0.301-0.117-0.58-0.26-0.836-0.422c-0.257-0.162-0.471-0.361-0.644-0.596c-0.172-0.236-0.258-0.535-0.258-0.898
		c0-0.256,0.052-0.488,0.155-0.693c0.103-0.207,0.249-0.383,0.437-0.527c0.188-0.143,0.415-0.254,0.681-0.332
		s0.562-0.117,0.888-0.117c0.375,0,0.717,0.025,1.024,0.078c0.307,0.055,0.551,0.125,0.732,0.213l0.019-0.01v0.018h0.01l-0.01,0.029
		v1.502h-0.695v-1.004c-0.157-0.039-0.329-0.07-0.517-0.094c-0.188-0.025-0.388-0.039-0.601-0.039c-0.207,0-0.393,0.025-0.559,0.076
		c-0.166,0.051-0.307,0.117-0.423,0.201c-0.116,0.086-0.205,0.184-0.268,0.297c-0.062,0.111-0.094,0.23-0.094,0.355
		c0,0.244,0.086,0.449,0.258,0.611c0.172,0.162,0.386,0.309,0.643,0.438c0.257,0.127,0.536,0.254,0.836,0.379
		s0.579,0.271,0.836,0.438c0.256,0.166,0.471,0.365,0.643,0.596c0.172,0.232,0.258,0.52,0.258,0.865c0,0.281-0.051,0.535-0.155,0.76
		c-0.104,0.227-0.25,0.42-0.441,0.582c-0.191,0.164-0.426,0.289-0.705,0.377c-0.278,0.086-0.593,0.131-0.944,0.131
		c-0.238,0-0.463-0.02-0.676-0.057s-0.408-0.084-0.587-0.141c-0.178-0.057-0.338-0.115-0.479-0.178
		c-0.141-0.062-0.252-0.117-0.333-0.16l0.009-0.029v-1.521h0.695V104.795z"/>
	<path fill="#D30C18" d="M59.114,104.795c0.188,0.102,0.399,0.184,0.634,0.25c0.235,0.064,0.471,0.098,0.709,0.098
		c0.207,0,0.4-0.02,0.582-0.061s0.34-0.107,0.475-0.197c0.134-0.092,0.241-0.205,0.319-0.344c0.079-0.137,0.118-0.301,0.118-0.488
		c0-0.256-0.086-0.465-0.258-0.629c-0.172-0.162-0.387-0.307-0.644-0.432s-0.535-0.248-0.835-0.367
		c-0.301-0.117-0.58-0.26-0.836-0.422c-0.257-0.162-0.471-0.361-0.644-0.596c-0.172-0.236-0.258-0.535-0.258-0.898
		c0-0.256,0.052-0.488,0.155-0.693c0.103-0.207,0.249-0.383,0.437-0.527c0.188-0.143,0.415-0.254,0.681-0.332
		s0.562-0.117,0.888-0.117c0.375,0,0.717,0.025,1.024,0.078c0.307,0.055,0.551,0.125,0.732,0.213l0.019-0.01v0.018h0.01l-0.01,0.029
		v1.502h-0.695v-1.004c-0.157-0.039-0.329-0.07-0.517-0.094c-0.188-0.025-0.388-0.039-0.601-0.039c-0.207,0-0.393,0.025-0.559,0.076
		c-0.166,0.051-0.307,0.117-0.423,0.201c-0.116,0.086-0.205,0.184-0.268,0.297c-0.062,0.111-0.094,0.23-0.094,0.355
		c0,0.244,0.086,0.449,0.258,0.611c0.172,0.162,0.386,0.309,0.643,0.438c0.257,0.127,0.536,0.254,0.836,0.379
		s0.579,0.271,0.836,0.438c0.256,0.166,0.471,0.365,0.643,0.596c0.172,0.232,0.258,0.52,0.258,0.865c0,0.281-0.051,0.535-0.155,0.76
		c-0.104,0.227-0.25,0.42-0.441,0.582c-0.191,0.164-0.426,0.289-0.705,0.377c-0.278,0.086-0.593,0.131-0.944,0.131
		c-0.238,0-0.463-0.02-0.676-0.057s-0.408-0.084-0.587-0.141c-0.178-0.057-0.338-0.115-0.479-0.178
		c-0.141-0.062-0.252-0.117-0.333-0.16l0.009-0.029v-1.521h0.695V104.795z"/>
	<path fill="#D30C18" d="M63.415,102.438c0-1.09,0.192-1.928,0.577-2.516c0.384-0.59,0.976-0.883,1.776-0.883
		c0.438,0,0.808,0.08,1.111,0.244c0.303,0.162,0.548,0.393,0.736,0.689s0.322,0.654,0.403,1.07c0.082,0.416,0.122,0.881,0.122,1.395
		c0,1.008-0.159,1.799-0.477,2.371c-0.318,0.574-0.816,0.906-1.496,1.002c0.056,0.219,0.161,0.383,0.314,0.492
		s0.349,0.164,0.587,0.164c0.27,0,0.51-0.068,0.723-0.207l0.207,0.574c-0.088,0.1-0.224,0.18-0.409,0.238
		c-0.185,0.061-0.377,0.09-0.578,0.09c-0.169,0-0.343-0.023-0.521-0.07c-0.178-0.047-0.346-0.123-0.502-0.23
		c-0.156-0.105-0.292-0.246-0.408-0.418c-0.116-0.172-0.193-0.387-0.23-0.643c-0.357-0.051-0.658-0.164-0.902-0.344
		c-0.244-0.178-0.443-0.412-0.596-0.703c-0.154-0.293-0.265-0.633-0.333-1.025C63.45,103.338,63.415,102.908,63.415,102.438z
		 M64.232,102.443c0,0.363,0.023,0.709,0.07,1.033c0.047,0.328,0.13,0.613,0.25,0.861c0.12,0.248,0.276,0.445,0.471,0.594
		c0.195,0.146,0.443,0.221,0.744,0.221c0.54,0,0.935-0.219,1.183-0.658c0.248-0.439,0.372-1.123,0.372-2.051
		c0-0.357-0.024-0.701-0.071-1.031c-0.047-0.328-0.13-0.617-0.25-0.865c-0.12-0.248-0.28-0.445-0.48-0.592
		c-0.201-0.148-0.452-0.223-0.754-0.223c-0.534,0-0.923,0.223-1.168,0.664C64.354,100.838,64.232,101.521,64.232,102.443z"/>
	<path fill="#D30C18" d="M69.1,99.15h0.78v5.879h2.658v-1.633h0.695v2.328H69.1V99.15z"/>
	<path fill="#D30C18" d="M80.183,104.795c0.188,0.102,0.398,0.184,0.634,0.25c0.234,0.064,0.471,0.098,0.709,0.098
		c0.206,0,0.4-0.02,0.582-0.061s0.34-0.107,0.475-0.197c0.135-0.092,0.24-0.205,0.319-0.344c0.078-0.137,0.117-0.301,0.117-0.488
		c0-0.256-0.086-0.465-0.259-0.629c-0.172-0.162-0.386-0.307-0.643-0.432s-0.535-0.248-0.836-0.367
		c-0.301-0.117-0.579-0.26-0.836-0.422s-0.472-0.361-0.644-0.596c-0.173-0.236-0.259-0.535-0.259-0.898
		c0-0.256,0.053-0.488,0.156-0.693c0.103-0.207,0.248-0.383,0.436-0.527c0.188-0.143,0.415-0.254,0.682-0.332
		c0.266-0.078,0.562-0.117,0.888-0.117c0.375,0,0.717,0.025,1.023,0.078c0.307,0.055,0.551,0.125,0.732,0.213l0.019-0.01v0.018h0.01
		l-0.01,0.029v1.502h-0.694v-1.004c-0.157-0.039-0.329-0.07-0.517-0.094c-0.188-0.025-0.389-0.039-0.602-0.039
		c-0.206,0-0.393,0.025-0.559,0.076s-0.307,0.117-0.423,0.201c-0.116,0.086-0.205,0.184-0.268,0.297
		c-0.062,0.111-0.094,0.23-0.094,0.355c0,0.244,0.086,0.449,0.258,0.611c0.173,0.162,0.387,0.309,0.644,0.438
		c0.257,0.127,0.535,0.254,0.836,0.379s0.579,0.271,0.836,0.438s0.471,0.365,0.644,0.596c0.172,0.232,0.258,0.52,0.258,0.865
		c0,0.281-0.052,0.535-0.155,0.76c-0.103,0.227-0.25,0.42-0.441,0.582c-0.19,0.164-0.426,0.289-0.704,0.377
		c-0.278,0.086-0.593,0.131-0.943,0.131c-0.238,0-0.464-0.02-0.677-0.057s-0.408-0.084-0.587-0.141s-0.338-0.115-0.479-0.178
		c-0.142-0.062-0.253-0.117-0.333-0.16l0.009-0.029v-1.521h0.695V104.795z"/>
	<path fill="#D30C18" d="M89.006,105.133c-0.112,0.102-0.245,0.195-0.398,0.283c-0.153,0.086-0.321,0.162-0.503,0.225
		s-0.371,0.111-0.568,0.146c-0.197,0.033-0.396,0.051-0.596,0.051c-0.376,0-0.708-0.059-0.996-0.174s-0.529-0.281-0.723-0.498
		c-0.194-0.215-0.342-0.475-0.441-0.775c-0.101-0.299-0.15-0.639-0.15-1.014c0-0.395,0.055-0.744,0.164-1.051
		s0.268-0.564,0.475-0.771c0.206-0.207,0.457-0.363,0.751-0.475c0.295-0.109,0.623-0.164,0.986-0.164
		c0.263,0,0.522,0.035,0.779,0.104s0.484,0.199,0.681,0.391c0.197,0.191,0.35,0.453,0.456,0.789
		c0.106,0.334,0.144,0.768,0.112,1.301h-3.625c0,0.562,0.151,0.984,0.454,1.262c0.303,0.279,0.707,0.418,1.213,0.418
		c0.169,0,0.336-0.02,0.502-0.061c0.165-0.041,0.323-0.09,0.473-0.145c0.149-0.057,0.282-0.119,0.398-0.189
		c0.115-0.068,0.204-0.131,0.267-0.188L89.006,105.133z M87.029,101.537c-0.206,0-0.401,0.021-0.586,0.064
		c-0.184,0.045-0.346,0.117-0.486,0.221s-0.256,0.238-0.347,0.404c-0.09,0.166-0.148,0.371-0.173,0.615h2.911
		c-0.031-0.414-0.164-0.734-0.397-0.963C87.717,101.65,87.409,101.537,87.029,101.537z"/>
	<path fill="#D30C18" d="M89.932,105.725v-0.629h1.268v-3.438h-1.268v-0.629h1.756l0.15,0.611h0.047
		c0.213-0.195,0.451-0.361,0.714-0.498c0.263-0.139,0.576-0.207,0.939-0.207c0.213,0,0.383,0.041,0.512,0.121
		c0.128,0.082,0.229,0.201,0.301,0.357c0.071,0.156,0.12,0.346,0.146,0.568c0.024,0.223,0.037,0.475,0.037,0.756l-0.657,0.01
		c0-0.398-0.039-0.689-0.117-0.875c-0.079-0.188-0.221-0.281-0.428-0.281c-0.194,0-0.369,0.029-0.525,0.086
		c-0.157,0.055-0.293,0.125-0.409,0.205c-0.115,0.082-0.214,0.162-0.296,0.244c-0.081,0.08-0.141,0.15-0.178,0.205v2.764h1.803
		v0.629H89.932z"/>
	<path fill="#D30C18" d="M97.516,104.814h0.102l1.471-3.785h0.817l-1.981,4.695h-0.817l-2.019-4.695h0.863L97.516,104.814z"/>
	<path fill="#D30C18" d="M104.759,105.133c-0.112,0.102-0.245,0.195-0.398,0.283c-0.153,0.086-0.321,0.162-0.503,0.225
		s-0.371,0.111-0.568,0.146c-0.197,0.033-0.396,0.051-0.596,0.051c-0.376,0-0.708-0.059-0.996-0.174s-0.529-0.281-0.723-0.498
		c-0.194-0.215-0.342-0.475-0.441-0.775c-0.101-0.299-0.15-0.639-0.15-1.014c0-0.395,0.055-0.744,0.164-1.051
		s0.268-0.564,0.475-0.771c0.206-0.207,0.457-0.363,0.751-0.475c0.295-0.109,0.623-0.164,0.986-0.164
		c0.263,0,0.522,0.035,0.779,0.104s0.484,0.199,0.681,0.391c0.197,0.191,0.35,0.453,0.456,0.789
		c0.106,0.334,0.144,0.768,0.112,1.301h-3.625c0,0.562,0.151,0.984,0.454,1.262c0.303,0.279,0.707,0.418,1.213,0.418
		c0.169,0,0.336-0.02,0.502-0.061c0.165-0.041,0.323-0.09,0.473-0.145c0.149-0.057,0.282-0.119,0.398-0.189
		c0.115-0.068,0.204-0.131,0.267-0.188L104.759,105.133z M102.782,101.537c-0.206,0-0.401,0.021-0.586,0.064
		c-0.184,0.045-0.346,0.117-0.486,0.221s-0.256,0.238-0.347,0.404c-0.09,0.166-0.148,0.371-0.173,0.615h2.911
		c-0.031-0.414-0.164-0.734-0.397-0.963C103.47,101.65,103.162,101.537,102.782,101.537z"/>
	<path fill="#D30C18" d="M105.684,105.725v-0.629h1.268v-3.438h-1.268v-0.629h1.756l0.15,0.611h0.047
		c0.213-0.195,0.451-0.361,0.714-0.498c0.263-0.139,0.576-0.207,0.939-0.207c0.213,0,0.383,0.041,0.512,0.121
		c0.128,0.082,0.229,0.201,0.301,0.357c0.071,0.156,0.12,0.346,0.146,0.568c0.024,0.223,0.037,0.475,0.037,0.756l-0.657,0.01
		c0-0.398-0.039-0.689-0.117-0.875c-0.079-0.188-0.221-0.281-0.428-0.281c-0.194,0-0.369,0.029-0.525,0.086
		c-0.157,0.055-0.293,0.125-0.409,0.205c-0.115,0.082-0.214,0.162-0.296,0.244c-0.081,0.08-0.141,0.15-0.178,0.205v2.764h1.803
		v0.629H105.684z"/>
</g>
</svg>
