<?xml version="1.0" encoding="utf-8"?>
<!-- Generator: Adobe Illustrator 16.0.4, SVG Export Plug-In . SVG Version: 6.00 Build 0)  -->
<!DOCTYPE svg PUBLIC "-//W3C//DTD SVG 1.1//EN" "http://www.w3.org/Graphics/SVG/1.1/DTD/svg11.dtd">
<svg version="1.1" id="Layer_1" xmlns="http://www.w3.org/2000/svg" xmlns:xlink="http://www.w3.org/1999/xlink" x="0px" y="0px"
	 width="160px" height="160px" viewBox="0 0 160 160" enable-background="new 0 0 160 160" xml:space="preserve">
<circle opacity="0.5" fill="#FFFFFF" enable-background="new    " cx="80" cy="80" r="79.75"/>
<path fill="#FBFDFE" d="M6.45,111.5C18.681,140.02,47.003,160,80,160s61.32-19.98,73.551-48.5H6.45z"/>
<rect x="7" y="110.641" fill="#EBF6FA" width="146" height="1"/>
<path fill="#77C3DE" d="M80,1c43.561,0,79,35.439,79,79c0,43.561-35.439,79-79,79c-43.561,0-79-35.439-79-79C1,36.439,36.439,1,80,1
	 M80,0C35.818,0,0,35.817,0,80c0,44.184,35.818,80,80,80c44.184,0,80-35.816,80-80C160,35.817,124.184,0,80,0L80,0z"/>
<g>
	<rect x="46.901" y="30" fill="#263758" width="66.197" height="2.041"/>
	<rect x="44.079" y="33.062" fill="#263758" width="71.842" height="2.041"/>
	<rect x="41" y="36.123" fill="#263758" width="78" height="93.877"/>
	<rect x="44.079" y="39.184" fill="#FFFFFF" width="71.842" height="87.755"/>
</g>
<polygon fill="#263758" points="106.477,58.315 106.477,56.351 51.381,56.351 51.381,54.125 103.421,54.125 103.421,52.16 
	51.381,52.16 51.381,45.787 49.417,45.787 49.417,62.506 88.578,62.506 88.578,60.542 51.381,60.542 51.381,58.315 "/>
<path fill="#263758" d="M67.293,70.379"/>
<polygon fill="#263758" points="96.477,84.377 96.477,82.412 51.381,82.412 51.381,80.187 109.421,80.187 109.421,78.222 
	51.381,78.222 51.381,71.849 49.417,71.849 49.417,88.567 68.578,88.567 68.578,86.604 51.381,86.604 51.381,84.377 "/>
<path fill="#D30C18" d="M113.997,76.651H75.514c-4.087,0-7.411,3.345-7.411,7.451v21.266c0,4.109,3.324,7.451,7.411,7.451h23.934
	l10.804,9.158l1.779-0.83v-8.326h1.966c4.084,0,7.409-3.342,7.409-7.452V84.102C121.406,79.995,118.081,76.651,113.997,76.651z"/>
<path fill="#FFFFFF" d="M118.741,84.102c0-2.633-2.128-4.775-4.744-4.775H75.514c0,0-0.001,0-0.001,0
	c-1.265,0-2.456,0.497-3.354,1.399c-0.898,0.903-1.393,2.103-1.393,3.376v21.266c0,2.633,2.13,4.775,4.748,4.775h24.329
	c0.368,0,0.729,0.132,1.018,0.371l8.507,7.214v-5.995c0-0.877,0.71-1.59,1.582-1.59h3.048c2.616,0,4.744-2.143,4.744-4.775V84.102z"
	/>
<g>
	<rect x="77.332" y="86.659" fill="#D30C18" width="34.846" height="2.174"/>
	<rect x="77.332" y="93.623" fill="#D30C18" width="34.846" height="2.175"/>
	<rect x="77.332" y="100.589" fill="#D30C18" width="34.846" height="2.175"/>
</g>
</svg>
